<svg xmlns="http://www.w3.org/2000/svg" xmlns:xlink="http://www.w3.org/1999/xlink" viewBox="0 0 595.28 841.89"><defs><linearGradient id="Dégradé_sans_nom_4" x1="447.73" y1="136.37" x2="201.54" y2="-65.85" gradientTransform="matrix(-1, 0, 0, 1, 668.59, 0)" gradientUnits="userSpaceOnUse"><stop offset="0" stop-color="#0094ff"/><stop offset="1" stop-color="#fff"/></linearGradient><linearGradient id="Dégradé_sans_nom_2" x1="454.92" y1="220.91" x2="284.02" y2="80.37" gradientTransform="matrix(-1, 0, 0, 1, 668.59, 0)" gradientUnits="userSpaceOnUse"><stop offset="0" stop-color="aqua"/><stop offset="1" stop-color="blue"/></linearGradient><linearGradient id="Dégradé_sans_nom_6" x1="448.67" y1="215.65" x2="202.48" y2="13.43" gradientTransform="matrix(-1, 0, 0, 1, 668.59, 0)" gradientUnits="userSpaceOnUse"><stop offset="0" stop-color="aqua"/><stop offset="1" stop-color="#fff"/></linearGradient><linearGradient id="Dégradé_sans_nom_2-2" x1="142.38" y1="113.25" x2="49.4" y2="36.79" gradientTransform="matrix(1, 0, 0, 1, 0, 0)" xlink:href="#Dégradé_sans_nom_2"/><linearGradient id="Dégradé_sans_nom_2-3" x1="129.61" y1="105.33" x2="85.76" y2="69.27" gradientTransform="matrix(1, 0, 0, 1, 0, 0)" xlink:href="#Dégradé_sans_nom_2"/><linearGradient id="Dégradé_sans_nom_9" x1="480.96" y1="127.81" x2="480.96" y2="157.27" gradientUnits="userSpaceOnUse"><stop offset="0" stop-color="#0094ff"/><stop offset="0.06" stop-color="#22a2ff"/><stop offset="0.16" stop-color="#55b8ff"/><stop offset="0.26" stop-color="#83cbff"/><stop offset="0.37" stop-color="#a9dbff"/><stop offset="0.48" stop-color="#c8e8ff"/><stop offset="0.59" stop-color="#e0f2ff"/><stop offset="0.71" stop-color="#f2f9ff"/><stop offset="0.84" stop-color="#fcfeff"/><stop offset="1" stop-color="#fff"/></linearGradient></defs><title>Fichier 3</title><g id="Calque_2" data-name="Calque 2"><g id="Calque_1-2" data-name="Calque 1"><rect width="595.28" height="841.89" fill="#fff"/><line x1="548.87" y1="35.26" x2="139.04" y2="35.26" fill="none" stroke-miterlimit="10" stroke-width="3" stroke="url(#Dégradé_sans_nom_4)"/><line x1="547.93" y1="114.54" x2="138.1" y2="114.54" stroke-miterlimit="10" stroke-width="3" fill="url(#Dégradé_sans_nom_2)" stroke="url(#Dégradé_sans_nom_6)"/><path d="M95.89,135.24A60.22,60.22,0,1,1,156.11,75,60.29,60.29,0,0,1,95.89,135.24Zm0-117.31A57.09,57.09,0,1,0,153,75,57.15,57.15,0,0,0,95.89,17.93Z" fill="url(#Dégradé_sans_nom_2-2)"/><path d="M132.94,68.26V61.6H128.3v2.67l-9-7.73L109.5,65V59.76L84.2,38,58.89,59.76V93.65h77.27V71Zm-3-5.06h1.43v3.68l-1.43-1.23ZM89,91.24H79.38V69.55H89Zm18.07,0H91.43V67.14H77v24.1H61.3V60.86L84.2,41.19l22.89,19.67V91.24Zm13.56,0H118V83.43h2.69Zm13.1,0H123.06V81h-7.51V91.24h-6V68.14l9.8-8.42,14.45,12.41Z" fill="url(#Dégradé_sans_nom_2-3)"/><path d="M65.61,98.75a3.6,3.6,0,0,1,1.12,4.56,3.48,3.48,0,0,1-1.12,1.26,3.59,3.59,0,0,1-1.5.58,12.48,12.48,0,0,1-1.62.11H61.17v-1.08h1.24c.37,0,.73,0,1.07,0a2.72,2.72,0,0,0,1-.29,2.42,2.42,0,0,0,1-.88,2.34,2.34,0,0,0,.37-1.32,2.31,2.31,0,0,0-.37-1.33,2.49,2.49,0,0,0-1-.88,2.4,2.4,0,0,0-1-.29c-.34,0-.7,0-1.07,0H60.33v11H59.11V98h3.38a10.94,10.94,0,0,1,1.62.12A3.48,3.48,0,0,1,65.61,98.75Z" fill="#808285"/><path d="M74,110.13h-1.5L67.79,104l4.62-6h1.46L69.21,104Z" fill="#808285"/><path d="M85.16,98.07v12.05H84V99.69h-.21l-7.16,10.43H75.11l8.41-12.05Z" fill="#808285"/><path d="M94.14,102a3.5,3.5,0,0,1-1,2.56,3.64,3.64,0,0,1-1.14.77,4,4,0,0,1-1.42.34l3.4,4.49h-1.5l-4.08-5.45h1.29c.23,0,.46,0,.68-.06a4.54,4.54,0,0,0,.6-.12,2.91,2.91,0,0,0,1.45-1,2.5,2.5,0,0,0,.54-1.61,2.67,2.67,0,0,0-.35-1.33,2.41,2.41,0,0,0-1-1,3.09,3.09,0,0,0-1.13-.38,9.38,9.38,0,0,0-1.21-.07H86V98.09H89c.47,0,1,0,1.51.08a4.54,4.54,0,0,1,1.45.4,3.62,3.62,0,0,1,1.6,1.39A3.83,3.83,0,0,1,94.14,102Z" fill="#808285"/><path d="M95.36,98H102v1.09H96.58v4.34h3.14v1.1H96.58V109H102v1.08H95.36Z" fill="#808285"/><path d="M112.76,98.07v12.06h-1.22l-7.14-10.6h0v10.6h-1.22V98.07h1.63l6.74,10h0V99.18h-2.86V98.07h4.08Z" fill="#808285"/><path d="M119.5,110.13a6,6,0,0,1-2.33-.46,6.44,6.44,0,0,1-2-1.27,6,6,0,0,1-1.35-1.9,5.46,5.46,0,0,1-.51-2.33,6,6,0,0,1,1.8-4.33,6.34,6.34,0,0,1,2-1.3,6.26,6.26,0,0,1,6.73,1.28,6,6,0,0,1,1.34,1.91,5.84,5.84,0,0,1,0,4.73,6.22,6.22,0,0,1-3.3,3.21A6.15,6.15,0,0,1,119.5,110.13Zm0-11a4.73,4.73,0,0,0-2,.4A5.2,5.2,0,0,0,116,100.6a5.07,5.07,0,0,0-1.06,1.61,5.18,5.18,0,0,0-.38,2,4.53,4.53,0,0,0,.4,1.9,5.06,5.06,0,0,0,1.08,1.56,5.21,5.21,0,0,0,1.59,1.06,4.93,4.93,0,0,0,1.91.38,5,5,0,0,0,1.93-.38,5.24,5.24,0,0,0,1.59-1.07A5,5,0,0,0,124.1,106a4.71,4.71,0,0,0,.4-1.94,5,5,0,0,0-5-5Z" fill="#808285"/><path d="M130.42,98.07v1.09h-2.88v9.35h.2l3.58-5.29.78-1.08,2.81-4.07h1.46L128,110.13h-1.64V98.07h4.1Z" fill="#808285"/><text transform="translate(172.41 83.43)" font-size="48" fill="#58595b" font-family="CenturyGothic-BoldItalic, Century Gothic" font-weight="700" font-style="italic">PKARENOV<tspan font-size="12"><tspan x="0" y="18">38 Rue Anatole France|Batiment A|69800 SAINT-PRIEST, France</tspan></tspan></text><rect x="10" y="793.3" width="575.28" height="38.59" fill="#00a6f0"/><text transform="translate(69.25 819.75)" font-size="11.67" fill="#fff" font-family="CenturyGothic-BoldItalic, Century Gothic" font-weight="700" font-style="italic">SIREN 84794287700014</text><text transform="translate(505.96 808.48)" font-size="11.35" fill="#fff" font-family="CenturyGothic-BoldItalic, Century Gothic" font-weight="700" font-style="italic">0426 001 141<tspan x="0" y="18.77">0754 065 492</tspan></text><text transform="translate(349.77 808.44)" font-size="11.07" fill="#fff" font-family="CenturyGothic-BoldItalic, Century Gothic" font-weight="700" font-style="italic">pierrekevin@yahoo.fr</text><circle cx="341.28" cy="804.92" r="5.9" fill="#fff"/><polygon points="343.88 802.5 338.68 802.5 337.59 802.5 337.59 802.51 340.73 804.72 341.28 805.11 341.83 804.72 344.97 802.51 344.97 802.5 343.88 802.5" fill="#00a6f0"/><polygon points="342.04 804.93 345.18 807.14 345.18 802.72 342.04 804.93" fill="#00a6f0"/><polygon points="337.37 802.72 337.37 807.14 340.52 804.93 337.37 802.72" fill="#00a6f0"/><polygon points="341.83 805.14 341.28 805.53 340.73 805.14 337.59 807.36 337.59 807.36 338.68 807.36 343.88 807.36 344.97 807.36 344.97 807.35 341.83 805.14" fill="#00a6f0"/><text transform="translate(348.75 827.42)" font-size="11.07" fill="#fff" font-family="CenturyGothic-BoldItalic, Century Gothic" font-weight="700" font-style="italic">www.pkarenov.fr</text><circle cx="341.28" cy="823.82" r="5.9" fill="#fff"/><path d="M344.17,824.23h0a3.06,3.06,0,0,0-.06-1,0,0,0,0,0,0,0l0-.14h0a3,3,0,0,0-.39-.81.09.09,0,0,0,0-.08l-.07-.09v0h0s0,0,0,0a3.14,3.14,0,0,0-.68-.63s0-.07-.08-.1h0l0,0h0l0,0h0l-.05,0a2.18,2.18,0,0,0-.87-.25h-.15a2.28,2.28,0,0,0-.45,0,2.25,2.25,0,0,0-.58.07h-.1c-.07,0-.08.06-.08.09a3,3,0,0,0-.83.42.07.07,0,0,1,0-.06h0v0l0,0-.09.07c-.05,0-.05.07,0,.09a2.86,2.86,0,0,0-.61.69.08.08,0,0,1,0,0h0l-.07.12a.11.11,0,0,0,0,.08,3,3,0,0,0-.31.87h0v.19a2.8,2.8,0,0,0,.07,1h0v0l0,0v.07a.36.36,0,0,0,0,.09s0,.08,0,.12h0a.65.65,0,0,1,0-.13.69.69,0,0,0,.22.15l.13,0a2.45,2.45,0,0,0,.32.76l-.08,0a.51.51,0,0,1-.19-.13h0l0,0,.09.11a.44.44,0,0,0,.19.13l.09,0a2,2,0,0,0,.49.48v0l.14.07h0l.06,0,.16.08,0,0,.06,0h0l0,0h0l.19.05a.7.7,0,0,0,.23.11h0a.48.48,0,0,1-.16-.08l.38.07c0,.07,0,.07,0,.07h0s0,0,.05-.06l.39,0a.5.5,0,0,1-.17,0h0v0h.07a1.09,1.09,0,0,0,.25,0h.28l.1,0h0l.15,0h0a2.17,2.17,0,0,0,.68-.34.73.73,0,0,0,.25-.08l.11-.09h0a.54.54,0,0,1-.21.08,2.74,2.74,0,0,0,.53-.64.58.58,0,0,0,.35-.14h0l0-.07,0,0h0c0,.06-.16.1-.34.13a3.15,3.15,0,0,0,.3-.88.74.74,0,0,0,.36-.12,2.69,2.69,0,0,1-.25.74h0l.06-.11.08-.19a3.18,3.18,0,0,0,.13-.51v-.16Zm-4.55-2.69Zm3.26,0a3.39,3.39,0,0,1,.67.64.46.46,0,0,1-.25.1,2.9,2.9,0,0,0-.57-.68A.26.26,0,0,0,342.88,821.55Zm-1.37.67-.79-.14a3.29,3.29,0,0,1,.4-.6,3.7,3.7,0,0,0,.48.09C341.58,821.75,341.54,822,341.51,822.22Zm.13.15c.3,0,.59.07.86.08a4.68,4.68,0,0,1,.12.87c-.33,0-.7-.05-1.07-.1C341.58,822.92,341.61,822.63,341.64,822.37Zm-1.31.64a5.94,5.94,0,0,1,.32-.81c.26.06.55.11.84.15,0,.26-.08.55-.12.85C341,823.15,340.65,823.08,340.33,823Zm1,.34c0,.31-.08.63-.13,1-.39-.06-.79-.13-1.14-.21a7.93,7.93,0,0,1,.21-.94C340.61,823.23,341,823.3,341.34,823.35Zm-.75-1.3a5.91,5.91,0,0,1-.61-.18,3,3,0,0,1,.68-.52,2.07,2.07,0,0,0,.37.11A3.23,3.23,0,0,0,340.59,822.05Zm-.07.12a5.35,5.35,0,0,0-.35.8,5.92,5.92,0,0,1-.81-.23,3.37,3.37,0,0,1,.51-.76A6.77,6.77,0,0,0,340.52,822.17Zm-.4,1a6.39,6.39,0,0,0-.22.94,7,7,0,0,1-.89-.26,3.48,3.48,0,0,1,.28-.92A6.15,6.15,0,0,0,340.12,823.12Zm-.07,1.15c.35.08.75.15,1.14.2-.05.33-.09.62-.13.89-.36-.05-.73-.12-1.06-.19A5.68,5.68,0,0,1,340.05,824.27Zm1.17,1.25c.38.05.74.08,1.07.1a3,3,0,0,1-.33.64c-.27,0-.56,0-.86-.08Q341.16,825.9,341.22,825.52Zm0-.13c0-.28.09-.57.13-.89.41,0,.81.09,1.18.11a4.72,4.72,0,0,1-.22.88C342,825.47,341.63,825.44,341.25,825.39Zm.16-1q.06-.5.12-1c.38,0,.75.08,1.1.1a6.18,6.18,0,0,1-.05,1C342.21,824.43,341.82,824.39,341.41,824.34Zm1.19-2a2.93,2.93,0,0,0-.3-.69h.36a3.09,3.09,0,0,1,.55.68l-.41,0Zm.24.14.44,0a3.28,3.28,0,0,1,.31.86,4.16,4.16,0,0,1-.54,0h-.26a4.15,4.15,0,0,0-.15-.88Zm-.16-1.1h0s.06,0,.06.07a2.73,2.73,0,0,0-.77-.32A2.76,2.76,0,0,1,342.68,821.36Zm.06.11a.32.32,0,0,1-.13,0,2.28,2.28,0,0,0-.7-.38A2.6,2.6,0,0,1,342.74,821.47Zm-.92-.35a2.24,2.24,0,0,1,.72.4h-.31a1.47,1.47,0,0,0-.42-.41Zm-.11,0h.05a1.33,1.33,0,0,1,.38.4,3.28,3.28,0,0,1-.43,0Zm0,.46.5,0a2.84,2.84,0,0,1,.27.68c-.26,0-.53,0-.82-.07C341.67,822,341.69,821.77,341.7,821.58Zm-.08-.48h.05c0,.08,0,.2-.05.36l-.42-.07A1.1,1.1,0,0,1,341.62,821.1Zm0,0a1.22,1.22,0,0,0-.46.29,1.87,1.87,0,0,1-.33-.1,2.18,2.18,0,0,1,.77-.19Zm-.85.17-.05,0a.32.32,0,0,1-.1-.07,3,3,0,0,1,.78-.11h.13A2.08,2.08,0,0,0,340.73,821.26Zm-.16-.13s0,0,.06,0a2.51,2.51,0,0,1,.55-.06h.15a2.73,2.73,0,0,0-.76.1Zm-.14.09a.23.23,0,0,0,.12.08l0,0a2.85,2.85,0,0,0-.7.51l-.1,0a.67.67,0,0,1-.19-.13A2.88,2.88,0,0,1,340.43,821.22Zm-.95.54a.57.57,0,0,0,.21.14l.09,0a3.41,3.41,0,0,0-.54.75l-.12-.05a.84.84,0,0,1-.25-.18A2.93,2.93,0,0,1,339.48,821.76Zm-.7,3a.93.93,0,0,1-.26-.18,2.92,2.92,0,0,1-.06-.93,1,1,0,0,0,.27.18l.14.06a2.82,2.82,0,0,0,0,.92A.43.43,0,0,1,338.78,824.79Zm.11-1-.13-.06a.77.77,0,0,1-.28-.2,2.83,2.83,0,0,1,.31-.9.64.64,0,0,0,.26.18l.12.05A3.44,3.44,0,0,0,338.89,823.76Zm.1.21a6.85,6.85,0,0,0,.88.26,5.56,5.56,0,0,0,0,.9,6.62,6.62,0,0,1-.83-.24A3.13,3.13,0,0,1,339,824Zm.06,1.07a5.73,5.73,0,0,0,.8.23,2.88,2.88,0,0,0,.14.71,6.48,6.48,0,0,1-.64-.19A2.36,2.36,0,0,1,339.05,825Zm.92,1.38a2.09,2.09,0,0,1-.53-.5c.16.06.36.11.59.17a1.39,1.39,0,0,0,.28.43Zm.92.21c-.16,0-.32,0-.47-.09a1.21,1.21,0,0,1-.26-.42l.78.14C340.92,826.42,340.9,826.55,340.89,826.63Zm.06-.47c-.28,0-.57-.09-.82-.15a3.39,3.39,0,0,1-.12-.7c.32.07.68.14,1,.19Q341,825.88,341,826.16Zm.53.53-.49-.05a2.31,2.31,0,0,0,.09-.36c.28,0,.55.06.81.07A1.26,1.26,0,0,1,341.48,826.69Zm.45,0h-.33a1.27,1.27,0,0,0,.42-.33h.2l.39,0A2.07,2.07,0,0,1,341.93,826.68Zm.8-.44a2.89,2.89,0,0,1-.44,0h-.19a2.54,2.54,0,0,0,.36-.63h.26a4.16,4.16,0,0,0,.54,0A2.38,2.38,0,0,1,342.73,826.24Zm.6-.77a4.39,4.39,0,0,1-.56,0h-.25a4.61,4.61,0,0,0,.22-.87H343a5.21,5.21,0,0,0,.6,0A2.94,2.94,0,0,1,343.33,825.47Zm.31-1.05a5.09,5.09,0,0,1-.6,0h-.27a5.22,5.22,0,0,0,0-1h.26a4.39,4.39,0,0,0,.56,0A3.43,3.43,0,0,1,343.64,824.42Zm-.27-2a.43.43,0,0,0,.27-.1,3,3,0,0,1,.4.84.58.58,0,0,1-.34.13A3.26,3.26,0,0,0,343.37,822.42Zm.76,1.85a.65.65,0,0,1-.37.14,3.09,3.09,0,0,0,0-1,.75.75,0,0,0,.35-.13A2.75,2.75,0,0,1,344.13,824.27Z" fill="#00a6f0"/><circle cx="488.85" cy="815.32" r="5.92" fill="#fff"/><path d="M488.76,816.45l-1-1a.28.28,0,0,1,0-.41l.91-.91-1.51-1.51a.12.12,0,0,0-.17,0,3.28,3.28,0,0,0,4.63,4.63.11.11,0,0,0,0-.16l-1.51-1.51-.92.91A.28.28,0,0,1,488.76,816.45Z" fill="#00a6f0"/><rect x="404.73" y="128.31" width="152.47" height="28.46" fill="none" stroke-miterlimit="10" stroke="url(#Dégradé_sans_nom_9)"/><line x1="472.75" y1="796.43" x2="472.75" y2="829.36" fill="#00a6f0" stroke="#fff" stroke-linecap="round" stroke-miterlimit="10"/></g></g></svg>