<svg xmlns="http://www.w3.org/2000/svg" viewBox="0 0 595.28 48.59"><title>Fichier 3</title><g id="Calque_2" data-name="Calque 2"><g id="Calque_1-2" data-name="Calque 1"><rect width="595.28" height="48.59" fill="#fff"/><rect x="10" width="575.28" height="38.59" fill="#00a6f0"/><text transform="translate(69.25 26.45)" font-size="11.67" fill="#fff" font-family="CenturyGothic-BoldItalic, Century Gothic" font-weight="700" font-style="italic">SIREN 84794287700014</text><text transform="translate(505.96 15.19)" font-size="11.35" fill="#fff" font-family="CenturyGothic-BoldItalic, Century Gothic" font-weight="700" font-style="italic">0426 001 141<tspan x="0" y="18.77">0754 065 492</tspan></text><text transform="translate(349.77 15.14)" font-size="11.07" fill="#fff" font-family="CenturyGothic-BoldItalic, Century Gothic" font-weight="700" font-style="italic">pierrekevin@yahoo.fr</text><circle cx="341.28" cy="11.62" r="5.9" fill="#fff"/><polygon points="343.88 9.2 338.68 9.2 337.59 9.2 337.59 9.21 340.73 11.42 341.28 11.81 341.83 11.42 344.97 9.21 344.97 9.2 343.88 9.2" fill="#00a6f0"/><polygon points="342.04 11.63 345.18 13.85 345.18 9.43 342.04 11.63" fill="#00a6f0"/><polygon points="337.37 9.42 337.37 13.85 340.52 11.63 337.37 9.42" fill="#00a6f0"/><polygon points="341.83 11.85 341.28 12.24 340.73 11.85 337.59 14.06 337.59 14.06 338.68 14.06 343.88 14.06 344.97 14.06 344.97 14.06 341.83 11.85" fill="#00a6f0"/><text transform="translate(348.75 34.13)" font-size="11.07" fill="#fff" font-family="CenturyGothic-BoldItalic, Century Gothic" font-weight="700" font-style="italic">www.pkarenov.fr</text><circle cx="341.28" cy="30.53" r="5.9" fill="#fff"/><path d="M344.17,30.93h0a3,3,0,0,0-.06-.95.06.06,0,0,0,0-.06l0-.13h0a2.83,2.83,0,0,0-.39-.8.1.1,0,0,0,0-.09l-.07-.09v0h0a.08.08,0,0,1,0,0,2.87,2.87,0,0,0-.68-.62s0-.07-.08-.11h0l0,0h0l0,0h0l-.05,0a2.36,2.36,0,0,0-.87-.25h-.15a2.28,2.28,0,0,0-.45,0,2.25,2.25,0,0,0-.58.07l-.06,0h0c-.07,0-.08.05-.08.08a3,3,0,0,0-.83.43.08.08,0,0,1,0-.07h0l-.09.07c-.05,0-.05.07,0,.1a2.68,2.68,0,0,0-.61.69s0,0,0,0h0l-.07.12a.11.11,0,0,0,0,.08,3,3,0,0,0-.31.88h0v.19a2.84,2.84,0,0,0,.07,1h0v0l0,.05v.07a.36.36,0,0,0,0,.09s0,.08,0,.12h0a.5.5,0,0,1,0-.13.69.69,0,0,0,.22.15l.13.06a2.5,2.5,0,0,0,.32.75l-.08,0a.52.52,0,0,1-.19-.14h0l.09.11a.37.37,0,0,0,.19.13l.09,0a2.23,2.23,0,0,0,.49.48h0l.14.08h0l.06,0,.16.07,0,0,.06,0h0l0,0h0l.19,0a.54.54,0,0,0,.23.11h0a.46.46,0,0,1-.16-.07l.38.07c0,.06,0,.06,0,.06h0s0,0,.05-.06l.39,0a.51.51,0,0,1-.17,0h0v0h.07a.73.73,0,0,0,.25,0h.28l.1,0h0l.15,0h0a2.2,2.2,0,0,0,.68-.35A.56.56,0,0,0,343,33l.11-.08v0h0a.56.56,0,0,1-.21.07,2.55,2.55,0,0,0,.53-.64.59.59,0,0,0,.35-.13h0l0-.07,0-.05h0v0a.62.62,0,0,1-.34.13,3.27,3.27,0,0,0,.3-.88.73.73,0,0,0,.36-.13,2.69,2.69,0,0,1-.25.74h0l.06-.11.08-.19a2.83,2.83,0,0,0,.13-.5v-.17Zm-4.55-2.68Zm3.26,0a2.9,2.9,0,0,1,.67.64.48.48,0,0,1-.25.09,2.9,2.9,0,0,0-.57-.68A.37.37,0,0,0,342.88,28.26Zm-1.37.66-.79-.14a2.88,2.88,0,0,1,.4-.59l.48.08C341.58,28.45,341.54,28.67,341.51,28.92Zm.13.15c.3,0,.59.07.86.08a4.8,4.8,0,0,1,.12.87c-.33,0-.7-.05-1.07-.09C341.58,29.62,341.61,29.34,341.64,29.07Zm-1.31.64a5.94,5.94,0,0,1,.32-.81c.26.06.55.11.84.15,0,.26-.08.55-.12.85A10.15,10.15,0,0,1,340.33,29.71Zm1,.35c0,.3-.08.63-.13,1-.39-.05-.79-.12-1.14-.2a7.13,7.13,0,0,1,.21-.94C340.61,29.94,341,30,341.34,30.06Zm-.75-1.31a5.91,5.91,0,0,1-.61-.18,3,3,0,0,1,.68-.51,3.72,3.72,0,0,0,.37.1A3.62,3.62,0,0,0,340.59,28.75Zm-.07.12a6,6,0,0,0-.35.81,7.55,7.55,0,0,1-.81-.24,3.61,3.61,0,0,1,.51-.76A4.74,4.74,0,0,0,340.52,28.87Zm-.4,1a5.84,5.84,0,0,0-.22.94,7,7,0,0,1-.89-.26,3.44,3.44,0,0,1,.28-.93A6,6,0,0,0,340.12,29.83ZM340.05,31c.35.08.75.15,1.14.21-.05.32-.09.62-.13.88-.36-.05-.73-.11-1.06-.19A5.68,5.68,0,0,1,340.05,31Zm1.17,1.26c.38,0,.74.08,1.07.09A3,3,0,0,1,342,33c-.27,0-.56,0-.86-.08C341.14,32.7,341.18,32.48,341.22,32.23Zm0-.14c0-.27.09-.57.13-.89.41.06.81.09,1.18.11a4.53,4.53,0,0,1-.22.88C342,32.17,341.63,32.14,341.25,32.09Zm.16-1.05.12-1c.38.05.75.08,1.1.1a6.31,6.31,0,0,1-.05,1C342.21,31.13,341.82,31.09,341.41,31Zm1.19-2a3.12,3.12,0,0,0-.3-.69h.1l.26,0a3.09,3.09,0,0,1,.55.68,2.62,2.62,0,0,1-.41,0Zm.24.14.44,0a3.22,3.22,0,0,1,.31.87l-.54,0h-.26a4,4,0,0,0-.15-.87Zm-.16-1.09h0s.06,0,.06.06a3.06,3.06,0,0,0-.77-.32A2.44,2.44,0,0,1,342.68,28.07Zm.06.1a.32.32,0,0,1-.13,0,2.51,2.51,0,0,0-.7-.38A2.85,2.85,0,0,1,342.74,28.17Zm-.92-.35a2.44,2.44,0,0,1,.72.4h-.31a1.62,1.62,0,0,0-.42-.41Zm-.11,0h.05a1.38,1.38,0,0,1,.38.41l-.43,0Zm0,.47.5,0a2.84,2.84,0,0,1,.27.68c-.26,0-.53,0-.82-.07C341.67,28.69,341.69,28.47,341.7,28.29Zm-.08-.48h.05c0,.07,0,.19-.05.35l-.42-.07A1,1,0,0,1,341.62,27.81Zm0,0a1.22,1.22,0,0,0-.46.29l-.33-.09a2,2,0,0,1,.77-.2Zm-.85.17-.05,0-.1-.06a2.63,2.63,0,0,1,.78-.11h.13A2.3,2.3,0,0,0,340.73,28Zm-.16-.13.06,0a2.51,2.51,0,0,1,.55-.06h.15a3.17,3.17,0,0,0-.76.1Zm-.14.09a.31.31,0,0,0,.12.09l0,0a2.81,2.81,0,0,0-.7.5l-.1,0a.67.67,0,0,1-.19-.13A2.88,2.88,0,0,1,340.43,27.92Zm-.95.54a.57.57,0,0,0,.21.14.19.19,0,0,0,.09,0,4,4,0,0,0-.54.75l-.12-.05a.59.59,0,0,1-.25-.18A3.13,3.13,0,0,1,339.48,28.46Zm-.7,3a.64.64,0,0,1-.26-.18,2.9,2.9,0,0,1-.06-.93.78.78,0,0,0,.27.18l.14.07a2.84,2.84,0,0,0,0,.92Zm.11-1-.13-.06a.77.77,0,0,1-.28-.2,3,3,0,0,1,.31-.9.64.64,0,0,0,.26.18l.12.06A3.27,3.27,0,0,0,338.89,30.46Zm.1.21a6.85,6.85,0,0,0,.88.26,5.65,5.65,0,0,0,0,.91,6.49,6.49,0,0,1-.83-.25A3.13,3.13,0,0,1,339,30.67Zm.06,1.07a7.3,7.3,0,0,0,.8.24,2.8,2.8,0,0,0,.14.7,4.57,4.57,0,0,1-.64-.19A2.27,2.27,0,0,1,339.05,31.74Zm.92,1.38a2.09,2.09,0,0,1-.53-.5,4.31,4.31,0,0,0,.59.17,1.28,1.28,0,0,0,.28.43Zm.92.21-.47-.08a1.26,1.26,0,0,1-.26-.43l.78.14C340.92,33.12,340.9,33.25,340.89,33.33Zm.06-.47c-.28,0-.57-.09-.82-.15A3.29,3.29,0,0,1,340,32c.32.07.68.13,1,.18C341,32.45,341,32.68,341,32.86Zm.53.53-.49,0a2.5,2.5,0,0,0,.09-.37,7.82,7.82,0,0,0,.81.07A1.26,1.26,0,0,1,341.48,33.39Zm.45,0h-.33a1.27,1.27,0,0,0,.42-.33h.2a2.3,2.3,0,0,0,.39,0A2.07,2.07,0,0,1,341.93,33.38Zm.8-.43-.44,0h-.19a2.37,2.37,0,0,0,.36-.63h.26l.54,0A2.74,2.74,0,0,1,342.73,33Zm.6-.78a4.39,4.39,0,0,1-.56,0h-.25a4.72,4.72,0,0,0,.22-.88H343a5.21,5.21,0,0,0,.6,0A2.85,2.85,0,0,1,343.33,32.17Zm.31-1a5.09,5.09,0,0,1-.6,0h-.27a5.14,5.14,0,0,0,0-1h.26a4.39,4.39,0,0,0,.56,0A3.5,3.5,0,0,1,343.64,31.13Zm-.27-2a.6.6,0,0,0,.27-.1,3,3,0,0,1,.4.84.67.67,0,0,1-.34.12A3.33,3.33,0,0,0,343.37,29.13Zm.76,1.84a.65.65,0,0,1-.37.14,3.1,3.1,0,0,0,0-1,.76.76,0,0,0,.35-.12A2.71,2.71,0,0,1,344.13,31Z" fill="#00a6f0"/><circle cx="488.85" cy="22.02" r="5.92" fill="#fff"/><path d="M488.76,23.15l-1-1a.27.27,0,0,1,0-.4l.91-.92-1.51-1.51a.12.12,0,0,0-.17,0,3.28,3.28,0,0,0,4.63,4.63.12.12,0,0,0,0-.17l-1.51-1.51-.92.91A.27.27,0,0,1,488.76,23.15Z" fill="#00a6f0"/><line x1="472.75" y1="3.14" x2="472.75" y2="36.06" fill="#00a6f0" stroke="#fff" stroke-linecap="round" stroke-miterlimit="10"/></g></g></svg>