<svg xmlns="http://www.w3.org/2000/svg" viewBox="0 0 595.28 102.79"><defs><style>.cls-1{fill:#dadada;}.cls-2,.cls-3{fill:#3c3c3b;}.cls-2{fill-rule:evenodd;}.cls-3{font-size:10px;font-family:Montserrat-BlackItalic, Montserrat;font-weight:800;font-style:italic;}.cls-4{letter-spacing:-0.02em;}.cls-5{letter-spacing:0em;}.cls-6{letter-spacing:-0.01em;}.cls-7{letter-spacing:-0.01em;}.cls-8{letter-spacing:-0.01em;}.cls-9{fill:#004c91;}.cls-10{fill:#000065;}.cls-11{fill:none;}</style></defs><g id="Calque_2" data-name="Calque 2"><g id="Calque_1-2" data-name="Calque 1"><rect class="cls-1" x="36.45" y="47.66" width="240.85" height="36.38" rx="3.31"/><polygon class="cls-2" points="60.82 65.07 59.51 65.67 60.49 67.81 61.81 67.21 61.59 66.73 60.84 67.07 60.68 66.71 61.38 66.39 61.17 65.93 60.47 66.25 60.3 65.88 61.04 65.54 60.82 65.07"/><path class="cls-2" d="M58.41,66.58a.57.57,0,0,1,.29,0,.67.67,0,0,1,.27.13l.46-.42a1.15,1.15,0,0,0-.56-.26,1.34,1.34,0,0,0-.62,0,1.39,1.39,0,0,0-.45.24,1.12,1.12,0,0,0-.31.37,1.23,1.23,0,0,0-.14.46,1.4,1.4,0,0,0,.06.49,1.22,1.22,0,0,0,.24.43,1.19,1.19,0,0,0,.36.31,1.27,1.27,0,0,0,.46.13,1.41,1.41,0,0,0,.52-.07,1.23,1.23,0,0,0,.76-.59,1.27,1.27,0,0,0,0-1,.45.45,0,0,1,0-.08s0,0,0,0l-1.21.38.15.47.61-.19a.46.46,0,0,1-.08.36.68.68,0,0,1-.36.24.59.59,0,0,1-.49,0,.81.81,0,0,1-.32-.46.86.86,0,0,1,0-.55A.59.59,0,0,1,58.41,66.58Z"/><path class="cls-2" d="M62.14,64.81a.52.52,0,0,1,.27-.1.86.86,0,0,1,.3.05l.32-.53a1.24,1.24,0,0,0-1.19.13,1.34,1.34,0,0,0-.37.34,1.23,1.23,0,0,0-.19.44,1.12,1.12,0,0,0,0,.48,1.22,1.22,0,0,0,.19.46,1.29,1.29,0,0,0,.34.36,1.43,1.43,0,0,0,.44.19,1.19,1.19,0,0,0,.95-.21,1.18,1.18,0,0,0,.57-.77,1.3,1.3,0,0,0-.24-1l-.05-.07,0,0-1.06.69.27.41.54-.35a.5.5,0,0,1,0,.38.7.7,0,0,1-.28.32.6.6,0,0,1-.48.09.77.77,0,0,1-.43-.36.79.79,0,0,1-.15-.53A.55.55,0,0,1,62.14,64.81Z"/><path class="cls-2" d="M77.56,64.39a.47.47,0,0,0,.36-.16.59.59,0,0,0,.14-.41.41.41,0,0,0-.43-.43.43.43,0,0,0-.35.16.59.59,0,0,0-.15.41.41.41,0,0,0,.43.43Z"/><path class="cls-2" d="M80.27,64.4a.43.43,0,0,0,.36-.17.62.62,0,0,0,.14-.41.41.41,0,0,0-.12-.31.45.45,0,0,0-.31-.11.46.46,0,0,0-.36.16.62.62,0,0,0-.14.41.41.41,0,0,0,.43.43Z"/><path class="cls-2" d="M74.89,64.41a.48.48,0,0,0,.37-.17.68.68,0,0,0,.14-.44.39.39,0,0,0-.1-.29.39.39,0,0,0-.3-.11.43.43,0,0,0-.35.17.64.64,0,0,0-.15.43.42.42,0,0,0,.11.3A.38.38,0,0,0,74.89,64.41Z"/><path class="cls-2" d="M69.47,65.89H83a1.17,1.17,0,0,0,1.16-1.17V62.07A1.17,1.17,0,0,0,83,60.9H69.47a1.17,1.17,0,0,0-1.16,1.17v2.65A1.17,1.17,0,0,0,69.47,65.89ZM82.32,61.8H83l-.5,3.11h-.72Zm-2.9,1.37a1,1,0,0,1,.76-.35.79.79,0,0,1,.38.09.76.76,0,0,1,.3.27l0-.3h.67l-.32,2H80.6l0-.27a1.15,1.15,0,0,1-.33.26.81.81,0,0,1-.38.08.71.71,0,0,1-.58-.26,1,1,0,0,1-.22-.68A1.28,1.28,0,0,1,79.42,63.17ZM76.81,61.8h.7l-.17,1.06,0,.13a1.54,1.54,0,0,1,0,.17,1.14,1.14,0,0,1,.35-.25.8.8,0,0,1,.37-.08.71.71,0,0,1,.58.26,1,1,0,0,1,.22.68,1.28,1.28,0,0,1-.3.87,1,1,0,0,1-.76.35.74.74,0,0,1-.36-.09,1.16,1.16,0,0,1-.33-.27l0,.28h-.67Zm-2.66,1.35a1.18,1.18,0,0,1,.87-.34,1.08,1.08,0,0,1,.77.28.94.94,0,0,1,.3.73,1.12,1.12,0,0,1-.35.84,1.2,1.2,0,0,1-.88.33,1.07,1.07,0,0,1-.76-.27,1,1,0,0,1-.28-.73A1.14,1.14,0,0,1,74.15,63.15ZM73,61.8h.73l-.5,3.11h-.72Zm-3.59,1.12a1.54,1.54,0,0,1,.36-.55,1.53,1.53,0,0,1,.54-.35A1.76,1.76,0,0,1,71,61.9a1.56,1.56,0,0,1,.74.17,1.59,1.59,0,0,1,.55.52l-.63.43a.79.79,0,0,0-.27-.3.81.81,0,0,0-.39-.1.79.79,0,0,0-.61.27,1,1,0,0,0-.24.67.81.81,0,0,0,.19.55.69.69,0,0,0,.51.2.83.83,0,0,0,.22,0,.64.64,0,0,0,.19-.08.37.37,0,0,0,.13-.12.46.46,0,0,0,.09-.17h-.66l.09-.6h1.48a1.8,1.8,0,0,1-.44,1.23,1.44,1.44,0,0,1-1.12.45,1.61,1.61,0,0,1-1.11-.38,1.33,1.33,0,0,1-.41-1A1.9,1.9,0,0,1,69.43,62.92Z"/><path class="cls-2" d="M52,62.27a11,11,0,0,0-.66,3.58A10.67,10.67,0,0,0,52,69.61a9.72,9.72,0,0,0,.64,1.44A10.36,10.36,0,0,0,54,73a10.76,10.76,0,0,0,7.79,3.65A9.34,9.34,0,0,1,60,75.84,9.86,9.86,0,0,1,56.91,73a10.13,10.13,0,0,1-.61-1,9.9,9.9,0,0,1-.89-2.28A9.72,9.72,0,0,1,55.19,66a9.94,9.94,0,0,1,5.13-7.43q.36-.2.75-.36l.07,0,.07,0c.15.08.51.34.85.59l.42.3a.46.46,0,0,0,0-.09,4,4,0,0,1,.68-1.26,40.41,40.41,0,0,0,2.49-3.27c-3.14-.62-7.88.81-10.56,2.59l.58,0,.57,0-.46.34A10.65,10.65,0,0,0,52,62.27Z"/><path class="cls-2" d="M61.24,59.21l-.42.39-.11.09c-.18.16-.37.31-.56.45l-.17.12-.42.29-.23.14-.38.23-.27.13-.37.19-.28.13-.38.16-.3.11-.08,0a2.43,2.43,0,0,0-.2.25l.29-.09.27-.1.49-.2.2-.09q.33-.15.66-.33l.18-.11.46-.27.24-.17.37-.25.25-.2.33-.27.25-.22.31-.28.24-.25.14-.15-.15-.1-.18.18Z"/><path class="cls-2" d="M66.62,64.55h0v0l0-.14h0a10.84,10.84,0,0,0-1.79-3.22h0l-.05-.06L64.64,61h0a10.75,10.75,0,0,0-1.87-1.76l-.1.15a10.88,10.88,0,0,1,1.85,1.74c-.17.19-.35.36-.53.54l-.37.39c-.21.19-.44.38-.66.56l-.35.3c-.3.23-.62.45-.94.67l-.13.09c-.37.23-.74.45-1.13.65a2.48,2.48,0,0,1-.37.17c-.27.14-.54.27-.82.39l-.48.17c-.25.09-.5.19-.75.27l-.54.14c-.25.07-.49.14-.74.19l-.58.1-.57.09a.7.7,0,0,0,0,.14.09.09,0,0,1,0,.05l.67-.11.54-.09c.28-.06.55-.14.82-.21s.32-.07.47-.12c.35-.11.69-.23,1-.37l.23-.08c.41-.17.81-.35,1.21-.56a2.77,2.77,0,0,0,.37-.22c.26-.14.52-.28.77-.44s.3-.21.45-.31l.64-.46.44-.37.58-.5.42-.43c.16-.16.33-.32.49-.5a11.09,11.09,0,0,1,1.78,3.23l-.66.59c-.16.14-.3.28-.46.41s-.53.41-.81.61l-.41.32c-.36.24-.73.47-1.1.69l-.19.12c-.44.25-.89.49-1.35.71l-.32.13c-.36.16-.71.32-1.08.45-.17.07-.35.12-.52.18s-.61.21-.93.3l-.61.14c-.29.07-.57.15-.87.2l-.66.1-.73.11a.64.64,0,0,1,0,.07l0,.11.75-.12.63-.09c.32-.06.63-.14.94-.22l.55-.13c.38-.11.75-.23,1.12-.36l.34-.11c.48-.18.95-.38,1.41-.59l.38-.21c.33-.16.66-.32,1-.5l.5-.31c.27-.17.54-.33.8-.51l.51-.39.71-.53.51-.45.59-.53A10.68,10.68,0,0,1,67,68v.45l-.65.47c-.15.11-.29.23-.45.33s-.49.32-.74.48l-.41.26c-.32.19-.65.37-1,.54l-.22.13c-.41.2-.82.4-1.24.58L62,71.4c-.3.13-.6.26-.91.37l-.52.17-.78.25c-.19.06-.38.1-.57.15l-.76.19c-.2,0-.4.08-.59.11l-.64.13h0l.11.15.62-.12.56-.11c.28-.06.55-.14.83-.21l.49-.13,1-.32.3-.1c.43-.16.85-.33,1.27-.51l.35-.16c.29-.14.59-.27.88-.42l.47-.26.73-.4.49-.31.66-.43c.17-.11.33-.23.49-.35l.54-.39a10.74,10.74,0,0,1-1.43,4.72c-.31.17-.63.33-1,.48-.12.06-.24.13-.36.18-.44.21-.89.41-1.35.59l-.33.12-1.06.38c-.17.06-.35.1-.52.15l-.77.23a1.71,1.71,0,0,1,.23.13l.77-.24.37-.11c.46-.15.9-.31,1.35-.48l.29-.13c.34-.14.68-.28,1-.44l.47-.23.66-.32a10.87,10.87,0,0,1-2.6,2.85l.21,0a10.87,10.87,0,0,0,2.7-3.07h0v0l.17-.28h0a11,11,0,0,0,1.33-4.72h0v-.24h0c0-.11,0-.21,0-.31A11,11,0,0,0,66.62,64.55Z"/><path class="cls-2" d="M56.21,78.81a10.72,10.72,0,0,1-7.05-2.62l.5.08.5.08.65.08.53.06.54,0c.61,0,1.22.07,1.83.07a27.08,27.08,0,0,0,3.12-.19l.23,0,.71-.11.24,0-.32-.13-.3,0-.51.08-.65.07-.49,0-.67,0-.47,0H53.45l-.74,0H52.3l-.79-.06-.36,0c-.32,0-.63-.07-.94-.12l-.2,0L48.89,76a11,11,0,0,1-2.77-4.09l.41.14.43.15.5.15.43.13.52.13.43.11.53.11.43.09.55.08.41.07.59.07.39,0,.65,0,.33,0,1,0h.06c-.06-.06-.1-.13-.15-.18-.3,0-.6,0-.9,0l-.32,0-.66,0-.39,0-.59-.06-.42-.07c-.18,0-.37,0-.55-.09l-.42-.08c-.18,0-.36-.07-.54-.12l-.42-.1-.52-.14-.44-.13L47,72l-.44-.16L46,71.64A10.8,10.8,0,0,1,45.42,68v-.14l.35.17.35.17.43.18.35.15.45.17.35.13.48.15.32.11.55.14.27.08.82.18.14,0c.23,0,.47.09.7.12l.29,0,.44,0h0c0-.06,0-.12-.05-.18l-.3,0-.39,0-.45-.08-.37-.07-.46-.1-.36-.08L48.84,69l-.33-.09c-.18,0-.36-.12-.54-.18l-.26-.08-.78-.29-.14-.06L46.16,68l-.27-.13-.47-.23a10.58,10.58,0,0,1,.75-3.61c.23.14.47.26.71.38l.43.24c.33.16.66.3,1,.43l.24.1q.63.24,1.29.42l.38.08c.27.07.55.14.82.19v-.06s0-.09,0-.13c-.24,0-.47-.1-.7-.15l-.48-.11c-.35-.1-.68-.21-1-.33l-.25-.08c-.41-.16-.82-.33-1.22-.53L47,64.34l-.8-.44a10.75,10.75,0,0,1,1.85-3c.2.12.41.22.62.33l.24.13a8.18,8.18,0,0,0,.92.39l.2.07c.25.09.5.17.76.24l.36.08.5.11,0-.11,0-.06L51.16,62l-.27-.06a7.89,7.89,0,0,1-.94-.3l-.19-.08a7.44,7.44,0,0,1-.72-.31L48.72,61c-.17-.09-.34-.17-.5-.27a10.83,10.83,0,0,1,5.7-3.29l.32-.25a11,11,0,0,0-6.18,3.45h0l-.05,0-.07.08h0a11,11,0,0,0-1.86,3h0l0,.1L46,64h0a10.89,10.89,0,0,0-.76,3.61h0v.2h0V68a10.82,10.82,0,0,0,.59,3.54h0l.07.18v0h0a11.11,11.11,0,0,0,2.67,4.11h0l.23.22h0A10.94,10.94,0,0,0,62.5,77h-.33A10.75,10.75,0,0,1,56.21,78.81Z"/><polygon class="cls-2" points="71.17 67.73 71.27 67.08 69.66 67.08 69.22 69.88 70.83 69.88 70.93 69.25 70.06 69.25 70.14 68.79 70.94 68.79 71.04 68.18 70.24 68.18 70.31 67.73 71.17 67.73"/><path class="cls-2" d="M72.76,68.85l-.16,1h.68l.16-1v0c0-.15,0-.26,0-.33a.57.57,0,0,0-.63-.61.82.82,0,0,0-.35.08,1.28,1.28,0,0,0-.31.28l0-.3h-.65l-.31,1.92H72l.14-.89a1,1,0,0,1,.14-.41.33.33,0,0,1,.28-.13.26.26,0,0,1,.2.07.25.25,0,0,1,.06.19v.07S72.76,68.82,72.76,68.85Z"/><path class="cls-2" d="M75,70.13a.42.42,0,0,1-.33.13.34.34,0,0,1-.22-.06.27.27,0,0,1-.1-.18h-.7a.75.75,0,0,0,.3.53,1.19,1.19,0,0,0,.7.18,1.58,1.58,0,0,0,.55-.1,1,1,0,0,0,.4-.29,1.67,1.67,0,0,0,.25-.79,1.23,1.23,0,0,1,0-.13L76.13,68h-.64l0,.27a1,1,0,0,0-.29-.25.73.73,0,0,0-.36-.08.93.93,0,0,0-.72.32,1.19,1.19,0,0,0-.28.81.93.93,0,0,0,.21.64.71.71,0,0,0,.55.25.86.86,0,0,0,.36-.08,1,1,0,0,0,.29-.24l0,.16A.64.64,0,0,1,75,70.13Zm-.15-.74a.36.36,0,0,1-.29-.11.44.44,0,0,1-.11-.3.61.61,0,0,1,.13-.39.45.45,0,0,1,.35-.15.36.36,0,0,1,.29.11.4.4,0,0,1,.11.29.56.56,0,0,1-.14.4A.43.43,0,0,1,74.88,69.39Z"/><polygon class="cls-2" points="76.34 69.88 77.02 69.88 77.32 67.95 76.64 67.95 76.34 69.88"/><path class="cls-2" d="M77.32,67.11a.41.41,0,0,0-.27-.1.38.38,0,0,0-.36.36.35.35,0,0,0,.11.26.31.31,0,0,0,.25.11.34.34,0,0,0,.26-.1.35.35,0,0,0,.11-.27A.35.35,0,0,0,77.32,67.11Z"/><path class="cls-2" d="M79,68.85l-.16,1h.68l.16-1v0a1.77,1.77,0,0,0,0-.33.57.57,0,0,0-.63-.61.77.77,0,0,0-.34.08,1.15,1.15,0,0,0-.32.28l0-.3h-.65l-.31,1.92h.67l.14-.89a.84.84,0,0,1,.15-.41.3.3,0,0,1,.27-.13.24.24,0,0,1,.27.26s0,0,0,.07S79,68.82,79,68.85Z"/><path class="cls-2" d="M82.09,69.07v0a1,1,0,0,0,0-.15.93.93,0,0,0-1-1A1.06,1.06,0,0,0,80,69a.91.91,0,0,0,.26.7A1,1,0,0,0,81,70a1.21,1.21,0,0,0,.48-.08,1.14,1.14,0,0,0,.38-.23l-.37-.37a.89.89,0,0,1-.24.17.6.6,0,0,1-.24,0,.37.37,0,0,1-.27-.09.41.41,0,0,1-.09-.28v-.05Zm-1.23-.64a.41.41,0,0,1,.26-.09.37.37,0,0,1,.25.09.37.37,0,0,1,.1.25h-.78A.65.65,0,0,1,80.86,68.43Z"/><path class="cls-2" d="M83.45,67.89a1.07,1.07,0,0,0-.8.31,1.05,1.05,0,0,0-.31.8.94.94,0,0,0,.26.7,1,1,0,0,0,.73.25,1.21,1.21,0,0,0,.48-.08,1.14,1.14,0,0,0,.38-.23l-.37-.37a.89.89,0,0,1-.24.17.59.59,0,0,1-.23,0,.32.32,0,0,1-.37-.37v-.05h1.44v0a1,1,0,0,0,0-.15.93.93,0,0,0-1-1Zm-.42.79a.49.49,0,0,1,.17-.25.37.37,0,0,1,.25-.09.35.35,0,0,1,.25.09.37.37,0,0,1,.1.25Z"/><path class="cls-2" d="M86.13,67.9a.6.6,0,0,0-.35.1.61.61,0,0,0-.24.28l0-.33h-.65l-.31,1.92h.67l.14-.87a.74.74,0,0,1,.16-.39.4.4,0,0,1,.31-.12H86l.12,0,.14-.6h-.14Z"/><path class="cls-2" d="M87,67a.36.36,0,0,0-.26.11.33.33,0,0,0-.1.25.34.34,0,0,0,.1.26.33.33,0,0,0,.26.11.35.35,0,0,0,.26-.1.39.39,0,0,0,.11-.27.36.36,0,0,0-.11-.26A.38.38,0,0,0,87,67Z"/><polygon class="cls-2" points="86.28 69.88 86.97 69.88 87.27 67.95 86.59 67.95 86.28 69.88"/><path class="cls-2" d="M89,67.89a.81.81,0,0,0-.34.08,1.12,1.12,0,0,0-.31.28l.05-.3h-.66l-.3,1.92h.67l.14-.89a.85.85,0,0,1,.14-.41.33.33,0,0,1,.28-.13.26.26,0,0,1,.2.07.25.25,0,0,1,.06.19v.07s0,0,0,.08l-.16,1h.69l.16-1v0a2.79,2.79,0,0,0,0-.33.61.61,0,0,0-.16-.45A.64.64,0,0,0,89,67.89Z"/><path class="cls-2" d="M91.68,68l0,.27a1,1,0,0,0-.29-.25.73.73,0,0,0-.36-.08.9.9,0,0,0-.72.32A1.2,1.2,0,0,0,90,69a.94.94,0,0,0,.22.64.7.7,0,0,0,.55.25.86.86,0,0,0,.36-.08,1,1,0,0,0,.29-.24l0,.16a.64.64,0,0,1-.16.38.42.42,0,0,1-.33.13.34.34,0,0,1-.22-.06.27.27,0,0,1-.1-.18h-.71a.8.8,0,0,0,.31.53,1.19,1.19,0,0,0,.7.18,1.58,1.58,0,0,0,.55-.1,1,1,0,0,0,.4-.29,1.67,1.67,0,0,0,.25-.79.39.39,0,0,1,0-.13L92.32,68Zm-.27,1.29a.45.45,0,0,1-.34.15.36.36,0,0,1-.29-.11.44.44,0,0,1-.11-.3.56.56,0,0,1,.13-.39.45.45,0,0,1,.34-.15.39.39,0,0,1,.3.11.4.4,0,0,1,.11.29A.61.61,0,0,1,91.41,69.24Z"/><path class="cls-2" d="M81.05,74a.48.48,0,0,0-.37.17.65.65,0,0,0-.15.44.41.41,0,0,0,.12.31A.46.46,0,0,0,81,75a.47.47,0,0,0,.37-.16.63.63,0,0,0,.15-.43.44.44,0,0,0-.12-.32A.44.44,0,0,0,81.05,74Z"/><path class="cls-2" d="M75.7,74a.46.46,0,0,0-.37.18.68.68,0,0,0-.15.45.41.41,0,0,0,.11.31.37.37,0,0,0,.29.12.48.48,0,0,0,.39-.18.69.69,0,0,0,.15-.46.41.41,0,0,0-.12-.31A.41.41,0,0,0,75.7,74Z"/><path class="cls-2" d="M82.89,71.81H69.31a1.09,1.09,0,0,0-1,1.17v2.65a1.09,1.09,0,0,0,1,1.16H82.89a1.1,1.1,0,0,0,1-1.16V73A1.1,1.1,0,0,0,82.89,71.81ZM72.07,75.15a1.53,1.53,0,0,1-1.18.46,1.64,1.64,0,0,1-1.15-.39,1.38,1.38,0,0,1-.43-1.07,1.85,1.85,0,0,1,.13-.7,1.88,1.88,0,0,1,.38-.58,1.61,1.61,0,0,1,.56-.35,1.73,1.73,0,0,1,.69-.13,1.57,1.57,0,0,1,.77.18,1.46,1.46,0,0,1,.57.54l-.65.44a.87.87,0,0,0-.29-.31.82.82,0,0,0-.4-.1.79.79,0,0,0-.63.28,1,1,0,0,0-.25.7.8.8,0,0,0,.19.57.71.71,0,0,0,.53.21.85.85,0,0,0,.23,0,.5.5,0,0,0,.2-.08.35.35,0,0,0,.14-.13,1,1,0,0,0,.1-.17h-.7l.1-.63h1.54A2,2,0,0,1,72.07,75.15ZM74.29,74l-.13,0h-.11a.42.42,0,0,0-.34.13.82.82,0,0,0-.18.42l-.15,1h-.73L73,73.41h.72l0,.36a.7.7,0,0,1,.26-.3.71.71,0,0,1,.39-.11h0l.09,0Zm2.18,1.23a1.27,1.27,0,0,1-.92.35,1.1,1.1,0,0,1-.79-.29,1,1,0,0,1-.3-.76,1.19,1.19,0,0,1,.35-.88,1.25,1.25,0,0,1,.9-.35,1.13,1.13,0,0,1,.81.29,1,1,0,0,1,.31.77A1.15,1.15,0,0,1,76.47,75.27Zm2.88-.9v0a1.67,1.67,0,0,1-.35.91,1,1,0,0,1-.36.22,1.49,1.49,0,0,1-.49.07,1.15,1.15,0,0,1-.73-.21.68.68,0,0,1-.27-.57,1.86,1.86,0,0,1,0-.22q0-.12.06-.39l.13-.81h.74l-.14.88c0,.11,0,.21,0,.29a1.14,1.14,0,0,0,0,.15A.32.32,0,0,0,78,75a.29.29,0,0,0,.21.08c.22,0,.36-.24.44-.73a.35.35,0,0,1,0-.06l.13-.84h.75Zm2.6.87a1,1,0,0,1-.79.36.86.86,0,0,1-.39-.09,1,1,0,0,1-.32-.28,1.15,1.15,0,0,1,0,.19s0,.1,0,.14l-.14.91h-.74L80,73.41h.71l0,.3a1,1,0,0,1,.35-.28.87.87,0,0,1,.4-.09.78.78,0,0,1,.6.28,1.08,1.08,0,0,1,.23.71A1.35,1.35,0,0,1,82,75.24Z"/><text class="cls-3" transform="translate(95.5 69.54)"><tspan class="cls-4">+</tspan><tspan x="5.99" y="0">2</tspan><tspan class="cls-5" x="12.07" y="0">3</tspan><tspan x="18.16" y="0">7 6 </tspan><tspan class="cls-6" x="37.22" y="0">9</tspan><tspan x="43.73" y="0">3 14 15 </tspan><tspan class="cls-7" x="80.54" y="0">5</tspan><tspan x="86.68" y="0">5 · 6 </tspan><tspan class="cls-8" x="111.92" y="0">7</tspan><tspan x="118.22" y="0">8 12 15 98</tspan></text><path class="cls-9" d="M485.32,3.58a38.91,38.91,0,1,0,38.91,38.91A39,39,0,0,0,485.32,3.58Zm0,77.28A38.38,38.38,0,1,1,523.7,42.49,38.41,38.41,0,0,1,485.32,80.86Z"/><path class="cls-9" d="M485.32,5.87a36.62,36.62,0,1,0,36.61,36.62A36.66,36.66,0,0,0,485.32,5.87Zm0,72.43a35.82,35.82,0,1,1,35.81-35.81A35.85,35.85,0,0,1,485.32,78.3Z"/><path class="cls-9" d="M510.48,42.49a25.16,25.16,0,1,0-25.16,25.15A25.19,25.19,0,0,0,510.48,42.49ZM485.32,67.11a24.62,24.62,0,1,1,24.62-24.62A24.65,24.65,0,0,1,485.32,67.11Z"/><path class="cls-9" d="M455.84,42.58a2.58,2.58,0,0,0,1.11-.95,3,3,0,0,0,.48-1.46,2.69,2.69,0,0,0-.23-1.38,2.55,2.55,0,0,0-.89-1,2.7,2.7,0,0,0-1.3-.47h-.23l-.2,2.7.95.07.12-1.55a1.54,1.54,0,0,1,.65.64,1.73,1.73,0,0,1,.16.91,1.91,1.91,0,0,1-.65,1.32,1.77,1.77,0,0,1-1.35.45,1.73,1.73,0,0,1-1.24-.63,1.81,1.81,0,0,1-.42-1.36,2.13,2.13,0,0,1,.84-1.53l-.65-.78a3,3,0,0,0-.83.95,3.44,3.44,0,0,0-.36,1.29,2.78,2.78,0,0,0,.77,2.24,2.68,2.68,0,0,0,1.8.84A2.88,2.88,0,0,0,455.84,42.58Z"/><rect class="cls-9" x="454.65" y="33.16" width="1" height="5.5" transform="translate(323.39 473.05) rotate(-77.74)"/><path class="cls-9" d="M456.14,34.79a2,2,0,0,0,2.63-1.28,2.14,2.14,0,0,0,.08-1.09,2,2,0,0,0-.48-1,2.08,2.08,0,0,0-.91-.6,2,2,0,0,0-1.07-.07,2,2,0,0,0-1,.48,2.1,2.1,0,0,0-.6.91,2.06,2.06,0,0,0,1.32,2.62Zm-.43-2.33a1,1,0,0,1,.55-.64,1.29,1.29,0,0,1,1.58.54,1,1,0,0,1,.06.84,1,1,0,0,1-.56.63,1.14,1.14,0,0,1-.89,0,1.09,1.09,0,0,1-.68-.55A1,1,0,0,1,455.71,32.46Z"/><path class="cls-9" d="M460.07,30.05l-.37-.19a2.06,2.06,0,0,0,.63-.33,1.71,1.71,0,0,0,.41-.51,1.78,1.78,0,0,0,.11-1.45,2.11,2.11,0,0,0-1-1.2,2.16,2.16,0,0,0-1.59-.24,1.72,1.72,0,0,0-1.14.89,1.58,1.58,0,0,0-.2.66,1.91,1.91,0,0,0,.08.7l-1.74-.93-.46.87,4.84,2.61Zm-.87-.77a1.17,1.17,0,0,1-.9-.13,1.15,1.15,0,0,1-.6-.67,1,1,0,0,1,.09-.84,1,1,0,0,1,.65-.53,1.23,1.23,0,0,1,.89.13,1.16,1.16,0,0,1,.59.67,1,1,0,0,1-.07.84A1,1,0,0,1,459.2,29.28Z"/><path class="cls-9" d="M460.22,25.73a2.11,2.11,0,0,0,1.52.47,1.81,1.81,0,0,0,1.58-1.26,2,2,0,0,0,0-.71l.33.26.61-.79-3.13-2.44-.61.79.34.27a1.82,1.82,0,0,0-.67.21,1.71,1.71,0,0,0-.52.45,1.73,1.73,0,0,0-.35,1.4A2.16,2.16,0,0,0,460.22,25.73Zm.34-2.35a1,1,0,0,1,.73-.42,1.3,1.3,0,0,1,1.34,1,1,1,0,0,1-.22.81,1,1,0,0,1-.73.41,1.24,1.24,0,0,1-.86-.28,1.14,1.14,0,0,1-.47-.75A1,1,0,0,1,460.56,23.38Z"/><rect class="cls-9" x="462.74" y="18.15" width="1" height="5.5" transform="translate(124.44 337.52) rotate(-45.64)"/><polygon class="cls-9" points="470.07 18.8 469.48 17.99 467.93 19.12 467.1 17.98 468.65 16.85 468.07 16.05 466.52 17.18 465.95 16.4 467.5 15.27 466.91 14.46 464.54 16.19 467.7 20.53 470.07 18.8"/><path class="cls-9" d="M471.51,18l-.74-1.4a3.8,3.8,0,0,1-.34-.74,1.12,1.12,0,0,1,0-.63.75.75,0,0,1,.36-.42.59.59,0,0,1,.77.13,4.45,4.45,0,0,1,.5.81l.81,1.53.87-.46-1.22-2.32a1.44,1.44,0,0,0-.8-.75,1.33,1.33,0,0,0-1.07.1,1.44,1.44,0,0,0-.45.37,2.28,2.28,0,0,0-.36.63l-.19-.36-.88.47,1.86,3.51Z"/><path class="cls-9" d="M474.62,15.81a1.81,1.81,0,0,0,1.46.11,1.71,1.71,0,0,0,.58-.32,1.58,1.58,0,0,0,.4-.53,1.37,1.37,0,0,1,.12.67.72.72,0,0,1-.22.42,1.74,1.74,0,0,1-1.11.41.81.81,0,0,1-.44-.12l-1,.36a1.85,1.85,0,0,0,.6.52,1.83,1.83,0,0,0,.78.19,2.68,2.68,0,0,0,1-.18,2,2,0,0,0,1.35-1.13,2.3,2.3,0,0,0-.09-1.53l-1.09-3.23-.94.32.14.42a1.92,1.92,0,0,0-.71-.2,1.88,1.88,0,0,0-.66.09,1.77,1.77,0,0,0-1,.89,2,2,0,0,0-.06,1.63A2,2,0,0,0,474.62,15.81Zm0-2.37a1,1,0,0,1,.63-.55,1.06,1.06,0,0,1,.84,0,1.1,1.1,0,0,1,.55.67,1.13,1.13,0,0,1,0,.87A1,1,0,0,1,476,15a1,1,0,0,1-.85,0,1.18,1.18,0,0,1-.56-.67A1.08,1.08,0,0,1,474.6,13.44Z"/><rect class="cls-9" x="478.48" y="11.07" width="1" height="3.97" transform="translate(7.9 100.65) rotate(-12.09)"/><path class="cls-9" d="M478,10.68a.59.59,0,0,0,.48.09.62.62,0,0,0,.4-.27.65.65,0,0,0-.19-.9.63.63,0,0,0-.48-.09.61.61,0,0,0-.4.28.56.56,0,0,0-.09.47A.65.65,0,0,0,478,10.68Z"/><path class="cls-9" d="M481.62,14.6,481.45,13a5.59,5.59,0,0,1,0-.8,1.09,1.09,0,0,1,.24-.59.79.79,0,0,1,.5-.26.66.66,0,0,1,.4.09.68.68,0,0,1,.26.33,4.36,4.36,0,0,1,.16.93l.18,1.73,1-.11-.27-2.6a1.41,1.41,0,0,0-.46-1,1.38,1.38,0,0,0-1-.31,1.48,1.48,0,0,0-.54.17,2.44,2.44,0,0,0-.57.46l-.05-.4-1,.1.42,3.95Z"/><path class="cls-9" d="M486.82,14.51a2.33,2.33,0,0,0,1.05-.16,2,2,0,0,0,.78-.62l-.82-.44a1.29,1.29,0,0,1-1,.34,1.13,1.13,0,0,1-.76-.29,1,1,0,0,1-.33-.69l3.19.17,0-.19a2.2,2.2,0,0,0-.51-1.62,2,2,0,0,0-1.49-.67,2,2,0,0,0-1.5.52,2.07,2.07,0,0,0-.66,1.48,2,2,0,0,0,.51,1.5A2.06,2.06,0,0,0,486.82,14.51Zm-.58-3.13a1.2,1.2,0,0,1,.74-.2,1.12,1.12,0,0,1,.67.24A1.09,1.09,0,0,1,488,12l-2.16-.11A1.39,1.39,0,0,1,486.24,11.38Z"/><path class="cls-9" d="M491.33,15.11a2.39,2.39,0,0,0,1.06,0,2,2,0,0,0,.88-.49l-.74-.56a1.32,1.32,0,0,1-1,.18,1.18,1.18,0,0,1-.7-.41,1.1,1.1,0,0,1-.22-.74l3.13.68,0-.18a2.18,2.18,0,0,0-.24-1.68,2.08,2.08,0,0,0-1.37-.91,2,2,0,0,0-1.56.28,2.11,2.11,0,0,0-.89,1.35,2,2,0,0,0,.26,1.57A2.06,2.06,0,0,0,491.33,15.11Zm-.06-3.18a1.26,1.26,0,0,1,1.38.27,1,1,0,0,1,.26.61l-2.11-.45A1.38,1.38,0,0,1,491.27,11.93Z"/><path class="cls-9" d="M494.69,16l.53-1.51.06-.19a2.52,2.52,0,0,1,.52-1,.46.46,0,0,1,.46-.14.83.83,0,0,1,.24.18l.58-.71a1.06,1.06,0,0,0-.35-.23,1,1,0,0,0-.53,0,1.11,1.11,0,0,0-.49.3l.16-.47-.8-.28-1.32,3.75Z"/><path class="cls-9" d="M498.2,12.71a.62.62,0,0,0,.48,0,.66.66,0,0,0,.36-.84.59.59,0,0,0-.33-.36.66.66,0,0,0-.84.33.69.69,0,0,0,0,.51A.62.62,0,0,0,498.2,12.71Z"/><rect class="cls-9" x="495.28" y="14.35" width="3.97" height="1" transform="translate(286.07 465.28) rotate(-66.59)"/><path class="cls-9" d="M498.52,17.64l.79-1.38a3.75,3.75,0,0,1,.44-.68,1,1,0,0,1,.53-.34.71.71,0,0,1,.55.08.55.55,0,0,1,.28.3.6.6,0,0,1,0,.42,4.15,4.15,0,0,1-.41.85l-.86,1.51.86.49L502,16.6a1.45,1.45,0,0,0,.21-1.07,1.39,1.39,0,0,0-.67-.85,1.32,1.32,0,0,0-.55-.18,2.38,2.38,0,0,0-.73,0l.2-.35-.86-.49-2,3.45Z"/><path class="cls-9" d="M502.71,20.39a1.8,1.8,0,0,0,.59.32,1.58,1.58,0,0,0,.66.05,1.62,1.62,0,0,1-.5.46.68.68,0,0,1-.47,0,1.44,1.44,0,0,1-.58-.31,1.36,1.36,0,0,1-.37-.4,1,1,0,0,1-.14-.44l-.85-.68a1.66,1.66,0,0,0-.12.79,1.77,1.77,0,0,0,.26.75,2.94,2.94,0,0,0,.67.73,2,2,0,0,0,1.68.52,2.26,2.26,0,0,0,1.24-.9l2.13-2.65-.77-.63-.28.35a2.2,2.2,0,0,0-.21-.71,1.81,1.81,0,0,0-1.74-.89,2.23,2.23,0,0,0-1.89,2.3A1.83,1.83,0,0,0,502.71,20.39Zm.56-2.16a1.12,1.12,0,0,1,.74-.43,1.08,1.08,0,0,1,.95,1.79,1.11,1.11,0,0,1-.74.45,1,1,0,0,1-.79-.24,1,1,0,0,1-.42-.74A1.15,1.15,0,0,1,503.27,18.23Z"/><path class="cls-9" d="M508,26a2.5,2.5,0,0,0,2.41,1.09,2.69,2.69,0,0,0,1.29-.5l.18-.14-1.6-2.18-.78.57.92,1.25a1.5,1.5,0,0,1-.9-.06,1.61,1.61,0,0,1-.71-.58,1.87,1.87,0,0,1-.38-1.43,1.82,1.82,0,0,1,2.08-1.55,1.83,1.83,0,0,1,1.21.76A2.12,2.12,0,0,1,512,25l1,.16a3.15,3.15,0,0,0,0-1.26,3.27,3.27,0,0,0-.57-1.21,2.79,2.79,0,0,0-2.05-1.2,2.75,2.75,0,0,0-1.91.54,2.88,2.88,0,0,0-.94,1.16,2.71,2.71,0,0,0-.22,1.45A3.11,3.11,0,0,0,508,26Z"/><path class="cls-9" d="M510.21,29.38l1.42-.75.17-.09a2.71,2.71,0,0,1,1.06-.39.48.48,0,0,1,.43.21.75.75,0,0,1,.06.3l.9-.13a.91.91,0,0,0-.47-.78,1.14,1.14,0,0,0-.57-.11l.44-.24-.4-.75-3.51,1.86Z"/><path class="cls-9" d="M512.71,29.8a2,2,0,0,0-1.17,1.1,2,2,0,0,0,0,1.57,2.07,2.07,0,0,0,.63.9,2.12,2.12,0,0,0,1,.44,2.1,2.1,0,0,0,1.08-.12,2,2,0,0,0,.87-.63,2,2,0,0,0,.44-1A2.12,2.12,0,0,0,515.4,31a2.1,2.1,0,0,0-2.69-1.18Zm1.82,1.53a1.06,1.06,0,0,1,0,.84,1.19,1.19,0,0,1-.67.59,1.14,1.14,0,0,1-.89,0,1,1,0,0,1-.58-.61,1,1,0,0,1,0-.83,1.15,1.15,0,0,1,.68-.59,1.17,1.17,0,0,1,.88,0A1.06,1.06,0,0,1,514.53,31.33Z"/><path class="cls-9" d="M513.49,34.91a1.53,1.53,0,0,0-.68.72,1.79,1.79,0,0,0-.06,1.09,1.85,1.85,0,0,0,.44.92,1.51,1.51,0,0,0,.83.43,3.78,3.78,0,0,0,1.42-.13l1.65-.34-.2-1L515,37a2.46,2.46,0,0,1-.73.09.65.65,0,0,1-.39-.18.82.82,0,0,1-.21-.39.68.68,0,0,1,0-.43.6.6,0,0,1,.28-.31,2.73,2.73,0,0,1,.74-.24l1.87-.39-.2-1-1.62.34A4.8,4.8,0,0,0,513.49,34.91Z"/><path class="cls-9" d="M511.91,40.26l1.87-.09a2.21,2.21,0,0,0-.37.61,1.68,1.68,0,0,0-.09.64,1.73,1.73,0,0,0,.66,1.3,2.08,2.08,0,0,0,1.51.5A2.16,2.16,0,0,0,517,42.6a1.72,1.72,0,0,0,.52-1.34,1.69,1.69,0,0,0-.16-.67,1.91,1.91,0,0,0-.44-.56l.44,0,0-1-5.42.25Zm2.6.14a1.24,1.24,0,0,1,.84-.35,1.19,1.19,0,0,1,.86.28,1,1,0,0,1,.35.76,1,1,0,0,1-.29.79,1.14,1.14,0,0,1-.82.34,1.16,1.16,0,0,1-.86-.27,1,1,0,0,1-.37-.75A1.1,1.1,0,0,1,514.51,40.4Z"/><polygon class="cls-9" points="455.05 48.51 456.38 49.47 455.87 47.91 457.2 46.95 455.56 46.95 455.05 45.39 454.55 46.95 452.91 46.95 454.23 47.91 453.73 49.47 455.05 48.51"/><polygon class="cls-9" points="516.09 46.95 515.59 45.39 515.08 46.95 513.44 46.95 514.77 47.91 514.26 49.47 515.59 48.51 516.91 49.47 516.41 47.91 517.73 46.95 516.09 46.95"/><polygon class="cls-9" points="458.04 56.03 458.76 55.7 457.8 53.58 457.08 53.9 457.39 54.59 454.26 55.99 454.6 56.73 457.72 55.33 458.04 56.03"/><path class="cls-9" d="M456.5,59.08a1,1,0,0,1-.13-.63.86.86,0,0,1,.31-.51l1.26,2.18.13-.08a1.66,1.66,0,0,0,.85-1,1.71,1.71,0,0,0-1.17-2,1.66,1.66,0,0,0-1.26.2,1.61,1.61,0,0,0-.78,1,1.59,1.59,0,0,0,.2,1.26,1.81,1.81,0,0,0,.55.63,1.52,1.52,0,0,0,.75.25l-.07-.72A1.07,1.07,0,0,1,456.5,59.08Zm1.23-1.37a.92.92,0,0,1,.45.4.89.89,0,0,1,.12.54.77.77,0,0,1-.22.48l-.84-1.47A1,1,0,0,1,457.73,57.71Z"/><polygon class="cls-9" points="459.17 57.52 460.66 57.87 460.2 57.07 458.88 57.03 459.17 57.52"/><rect class="cls-9" x="457.06" y="60.09" width="4.32" height="0.78" transform="translate(47.05 271.8) rotate(-34.65)"/><path class="cls-9" d="M458.77,62.38a.4.4,0,0,0-.33.09.45.45,0,0,0,.22.8.4.4,0,0,0,.33-.09.39.39,0,0,0,.17-.3.4.4,0,0,0-.09-.33A.39.39,0,0,0,458.77,62.38Z"/><path class="cls-9" d="M461.05,61.44a.45.45,0,1,0-.89-.12.49.49,0,0,0,.09.33.46.46,0,0,0,.3.17.4.4,0,0,0,.33-.09A.39.39,0,0,0,461.05,61.44Z"/><path class="cls-9" d="M464.67,64.09l-.24-.73-2.26.73a3.51,3.51,0,0,0-.63.24,1.44,1.44,0,0,0-.32.23,1.32,1.32,0,0,0-.37.92,1.25,1.25,0,0,0,.39,1,1.23,1.23,0,0,0,.92.39,1.28,1.28,0,0,0,.94-.39,1.31,1.31,0,0,0,.41-.94,1.25,1.25,0,0,0-.37-.91Zm-2.12,1.78a.55.55,0,0,1-.4.18.53.53,0,0,1-.39-.16.52.52,0,0,1-.15-.38.62.62,0,0,1,.18-.4.55.55,0,0,1,.4-.18.46.46,0,0,1,.38.15.53.53,0,0,1,.16.39A.55.55,0,0,1,462.55,65.87Z"/><path class="cls-9" d="M466.91,67.27a1.28,1.28,0,0,0,.28-1,1.33,1.33,0,0,0-1.45-1.2,1.23,1.23,0,0,0-.89.48,1.33,1.33,0,0,0-.31,1,1.21,1.21,0,0,0,.47.87l-1.48.65.31.69,2.18-1a3.6,3.6,0,0,0,.6-.3A1.45,1.45,0,0,0,466.91,67.27Zm-.62-.48a.58.58,0,0,1-.38.21.5.5,0,0,1-.39-.11.51.51,0,0,1-.2-.37.6.6,0,0,1,.13-.42.59.59,0,0,1,.39-.21.52.52,0,0,1,.4.11.49.49,0,0,1,.18.37A.56.56,0,0,1,466.29,66.79Z"/><path class="cls-9" d="M469.18,67.22a1.28,1.28,0,0,0-1-.19,1.19,1.19,0,0,0-.69.44l.64.42a.56.56,0,0,1,.31-.12.51.51,0,0,1,.32.08.43.43,0,0,1,.2.27.38.38,0,0,1-.05.31.42.42,0,0,1-.21.16.52.52,0,0,1-.28,0,1.47,1.47,0,0,1-.41-.16l-.38.57a1.12,1.12,0,0,1,.49.57.6.6,0,0,1-.05.54.66.66,0,0,1-.4.27.63.63,0,0,1-.49-.11.65.65,0,0,1-.29-.37.83.83,0,0,1,.08-.54l-.67-.43a1.47,1.47,0,0,0-.19,1.08,1.4,1.4,0,0,0,.63.86,1.51,1.51,0,0,0,1.11.25,1.28,1.28,0,0,0,.88-.58,1,1,0,0,0,.18-.68,1.08,1.08,0,0,0-.28-.66,1.1,1.1,0,0,0,.58-.07.93.93,0,0,0,.41-.35,1,1,0,0,0,.13-.84A1.2,1.2,0,0,0,469.18,67.22Z"/><polygon class="cls-9" points="472.58 69.26 471.85 69.76 472.64 70.11 471.22 73.28 471.95 73.6 473.68 69.75 472.58 69.26"/><path class="cls-9" d="M476.41,70.65l-2.58,2-.23.7,1.75.57-.27.83.75.24.27-.82.36.12.23-.71-.36-.12.85-2.58Zm-.83,2.59-.91-.3,1.35-1Z"/><polygon class="cls-9" points="479.36 72.31 480.22 72.45 479.67 75.87 480.46 76 481.12 71.83 479.94 71.64 479.36 72.31"/><path class="cls-9" d="M482.39,74.35l.64.19a.86.86,0,0,1,.26-.19.63.63,0,0,1,.26,0,.54.54,0,0,1,.41.21.69.69,0,0,1,.15.49.67.67,0,0,1-.21.48.62.62,0,0,1-.46.17.7.7,0,0,1-.35-.12.76.76,0,0,1-.24-.31l-.84,0a1.43,1.43,0,0,0,.46.87,1.5,1.5,0,0,0,.91.35A1.43,1.43,0,0,0,484.9,75a1.37,1.37,0,0,0-.33-1,1.29,1.29,0,0,0-.93-.44h-.13l-.14,0,.21-.75,1.37.07,0-.74L483,72Z"/><path class="cls-9" d="M489.48,73.73a1.26,1.26,0,0,0-1-.3l-.13,0-.14,0,.1-.78,1.37-.14-.08-.74-2,.2-.28,2.38.67.08a1,1,0,0,1,.23-.22.58.58,0,0,1,.25-.09.56.56,0,0,1,.44.14.74.74,0,0,1,.22.47.66.66,0,0,1-.14.5.61.61,0,0,1-.43.24.63.63,0,0,1-.36-.07.67.67,0,0,1-.29-.27l-.83.09a1.45,1.45,0,0,0,.58.78,1.43,1.43,0,0,0,1,.21,1.37,1.37,0,0,0,1-.52,1.41,1.41,0,0,0,.32-1.07A1.35,1.35,0,0,0,489.48,73.73Z"/><path class="cls-9" d="M492.72,73.12a1.27,1.27,0,0,0-1-.18l-.13,0-.13.06v-.79l1.35-.27-.15-.73-1.93.4,0,2.4h.67a.75.75,0,0,1,.21-.25.44.44,0,0,1,.24-.11.52.52,0,0,1,.45.09.7.7,0,0,1,.27.44.66.66,0,0,1-.09.52.61.61,0,0,1-.4.28.59.59,0,0,1-.37,0,.69.69,0,0,1-.31-.24l-.82.17a1.46,1.46,0,0,0,.66.72,1.47,1.47,0,0,0,1.51-2.52Z"/><rect class="cls-9" x="495.65" y="72.48" width="1.46" height="0.73" transform="matrix(0.94, -0.34, 0.34, 0.94, 5.03, 174.2)"/><polygon class="cls-9" points="500.94 67.73 500.2 68.14 500.24 69.84 498.82 68.89 498.06 69.3 500.3 70.81 501.17 72.41 501.88 72.02 501.01 70.42 500.94 67.73"/><path class="cls-9" d="M503.77,67.08l.2.28a1.49,1.49,0,0,0-.56,0,1.28,1.28,0,0,0-.49.22,1.39,1.39,0,0,0-.58,1,1.69,1.69,0,0,0,.34,1.21,1.62,1.62,0,0,0,1,.69,1.37,1.37,0,0,0,1.12-.22,1.22,1.22,0,0,0,.35-.37,1.53,1.53,0,0,0,.2-.52l.19.26.64-.45-1.82-2.54Zm.93,1.25a1,1,0,0,1,.19.69.79.79,0,0,1-.35.56.77.77,0,0,1-.64.14,1,1,0,0,1-.59-.4,1,1,0,0,1-.18-.68.76.76,0,0,1,.34-.55.82.82,0,0,1,.65-.16A1,1,0,0,1,504.7,68.33Z"/><path class="cls-9" d="M508.3,65.23a1.59,1.59,0,0,0-.71-.46,1.53,1.53,0,0,0-.85,0,1.64,1.64,0,0,0-.76.4,1.56,1.56,0,0,0-.52,1,1.59,1.59,0,0,0,.43,1.26,1.62,1.62,0,0,0,2.3.12,1.64,1.64,0,0,0,.47-.73,1.59,1.59,0,0,0,0-.84A1.69,1.69,0,0,0,508.3,65.23ZM507.7,67a.8.8,0,0,1-.61.23,1,1,0,0,1-.63-.33.9.9,0,0,1-.25-.64.8.8,0,0,1,.27-.6.83.83,0,0,1,.62-.23.94.94,0,0,1,.62.32.9.9,0,0,1,.26.65A.75.75,0,0,1,507.7,67Z"/><path class="cls-9" d="M510.43,62.47l-1-.87-.51.59,1.15,1a1.93,1.93,0,0,1,.4.42.51.51,0,0,1,.08.33.6.6,0,0,1-.15.31.59.59,0,0,1-.29.19.55.55,0,0,1-.33,0,2.19,2.19,0,0,1-.5-.35l-1.13-1-.52.6,1,.85a4,4,0,0,0,.84.61,1.24,1.24,0,0,0,.78.08,1.41,1.41,0,0,0,.71-.47,1.47,1.47,0,0,0,.37-.72,1.31,1.31,0,0,0-.12-.72A3.19,3.19,0,0,0,510.43,62.47Z"/><path class="cls-9" d="M511.49,59.12a1.09,1.09,0,0,0-.72.46,1.38,1.38,0,0,0-.18.41,1.83,1.83,0,0,0,0,.58l-.27-.18-.44.64,2.57,1.77.44-.64-1-.71a4.37,4.37,0,0,1-.5-.39.82.82,0,0,1-.23-.44.59.59,0,0,1,.1-.43.5.5,0,0,1,.26-.2.51.51,0,0,1,.32,0,3.21,3.21,0,0,1,.64.38l1.13.77.44-.64-1.7-1.17A1.1,1.1,0,0,0,511.49,59.12Z"/><path class="cls-9" d="M511.81,55.57l1.37.73a1.34,1.34,0,0,0-.49.25,1.28,1.28,0,0,0-.34.42,1.35,1.35,0,0,0-.08,1.13,1.7,1.7,0,0,0,.85.93,1.6,1.6,0,0,0,1.24.15,1.4,1.4,0,0,0,.9-.7,1.46,1.46,0,0,0,.15-.49,1.57,1.57,0,0,0-.07-.55l.3.15.36-.69-3.82-2Zm1.76,1.17a.88.88,0,0,1,.7.09,1,1,0,0,1,.48.53.81.81,0,0,1-.06.66.78.78,0,0,1-.51.41,1,1,0,0,1-.7-.09.91.91,0,0,1-.47-.52.8.8,0,0,1,0-.66A.81.81,0,0,1,513.57,56.74Z"/><path class="cls-9" d="M516.4,53.47a1,1,0,0,1,0,.81.85.85,0,0,1-.39.49.88.88,0,0,1-.6.09l.89-2.35-.14-.06a1.68,1.68,0,0,0-1.32,0,1.58,1.58,0,0,0-.87,1,1.51,1.51,0,0,0,0,1.25,1.62,1.62,0,0,0,.94.85,1.55,1.55,0,0,0,1.25,0,1.59,1.59,0,0,0,.86-.95,1.8,1.8,0,0,0,.13-.83,1.52,1.52,0,0,0-.27-.73Zm-1.55,1.14a1,1,0,0,1-.27-.42.89.89,0,0,1,0-.6.94.94,0,0,1,.34-.44.85.85,0,0,1,.51-.13Z"/><polygon class="cls-9" points="512.52 52.69 513.33 53.73 513.53 53.2 512.85 51.82 512.52 52.69"/><polygon class="cls-9" points="490.34 34.89 488.91 35.54 489.98 37.88 491.41 37.22 491.17 36.7 490.36 37.07 490.18 36.68 490.94 36.33 490.71 35.83 489.95 36.18 489.76 35.77 490.57 35.4 490.34 34.89"/><path class="cls-9" d="M487.71,36.54a.59.59,0,0,1,.32,0,.81.81,0,0,1,.3.14l.49-.46a1.35,1.35,0,0,0-.6-.27,1.45,1.45,0,0,0-.68,0,1.36,1.36,0,0,0-.49.26,1.32,1.32,0,0,0-.34.4,1.52,1.52,0,0,0-.15.5,1.49,1.49,0,0,0,.07.54,1.42,1.42,0,0,0,.25.47,1.38,1.38,0,0,0,.4.33,1.29,1.29,0,0,0,.5.14,1.6,1.6,0,0,0,.56-.07,1.3,1.3,0,0,0,.83-.65,1.42,1.42,0,0,0,0-1.08l0-.09s0,0,0-.06l-1.31.42.16.51.66-.21a.48.48,0,0,1-.09.4.78.78,0,0,1-.39.25.57.57,0,0,1-.53-.05.83.83,0,0,1-.35-.5.88.88,0,0,1,0-.6A.62.62,0,0,1,487.71,36.54Z"/><path class="cls-9" d="M491.77,34.61a.65.65,0,0,1,.29-.11.8.8,0,0,1,.33.06l.35-.58a1.25,1.25,0,0,0-.65-.1,1.36,1.36,0,0,0-.64.24,1.42,1.42,0,0,0-.4.37,1.3,1.3,0,0,0-.22.48,1.35,1.35,0,0,0,0,.53A1.61,1.61,0,0,0,491,36a1.53,1.53,0,0,0,.37.39,1.46,1.46,0,0,0,.48.21,1.14,1.14,0,0,0,.52,0,1.41,1.41,0,0,0,.51-.22,1.29,1.29,0,0,0,.63-.85,1.44,1.44,0,0,0-.27-1.05l0-.08,0,0L492,35.1l.3.45.58-.38a.51.51,0,0,1,0,.4.72.72,0,0,1-.3.35.62.62,0,0,1-.53.1.83.83,0,0,1-.47-.39.81.81,0,0,1-.16-.57A.58.58,0,0,1,491.77,34.61Z"/><path class="cls-9" d="M480.78,31.84a11.77,11.77,0,0,0,0,8,12.88,12.88,0,0,0,.71,1.56A11,11,0,0,0,483,43.55a11.69,11.69,0,0,0,4.56,3.19,11.54,11.54,0,0,0,3.92.78,10.51,10.51,0,0,1-2-.91,10.66,10.66,0,0,1-3.37-3.11,10.82,10.82,0,0,1-.67-1.08,11,11,0,0,1-1-2.48,10.64,10.64,0,0,1-.23-4.09,10.73,10.73,0,0,1,5.58-8.08,8.69,8.69,0,0,1,.81-.4l.09,0,.07,0c.17.09.55.37.93.64l.45.33a.3.3,0,0,0,0-.1,4.27,4.27,0,0,1,.73-1.37,40.88,40.88,0,0,0,2.71-3.56c-3.41-.67-8.57.88-11.49,2.82l.63,0,.63,0-.51.36A11.61,11.61,0,0,0,480.78,31.84Z"/><path class="cls-9" d="M490.79,28.51l-.46.43-.11.1-.61.49-.18.12L489,30l-.26.16-.41.24-.29.15-.41.21-.3.13-.41.18-.33.11-.09,0a2.92,2.92,0,0,0-.21.28l.3-.11.31-.1.53-.23a1.89,1.89,0,0,0,.21-.09q.38-.17.72-.36l.2-.12.5-.29.26-.18c.13-.1.27-.19.41-.28l.27-.22.36-.29.27-.25.33-.3c.09-.08.17-.18.26-.27l.16-.16-.17-.11-.19.2Z"/><path class="cls-9" d="M496.65,34.33h0l0,0-.05-.15h0a12,12,0,0,0-2-3.51h0l-.05-.06-.07-.09h0a11.91,11.91,0,0,0-2-1.92,1.2,1.2,0,0,1-.11.17,11.61,11.61,0,0,1,2,1.89c-.18.21-.38.4-.57.59s-.27.29-.41.42-.47.41-.71.62l-.38.32c-.33.26-.68.5-1,.73l-.14.1c-.4.25-.81.49-1.23.71l-.4.19c-.29.14-.59.29-.89.41l-.53.19c-.27.1-.54.21-.82.29l-.59.16c-.26.07-.52.15-.79.2s-.42.07-.63.11l-.63.1a.76.76,0,0,0,0,.16.07.07,0,0,0,0,.05l.73-.12.58-.1c.31-.06.6-.15.9-.23l.51-.13c.38-.12.75-.25,1.11-.4a1.84,1.84,0,0,0,.25-.09,14.17,14.17,0,0,0,1.31-.6l.41-.24c.29-.16.57-.31.84-.49s.32-.23.48-.34.48-.32.7-.5.32-.27.48-.4.43-.35.63-.54.3-.31.46-.47.36-.35.53-.54a11.73,11.73,0,0,1,1.94,3.51c-.23.22-.48.43-.72.64s-.33.31-.5.45-.58.45-.87.67l-.46.34c-.39.27-.79.52-1.2.76l-.2.13c-.48.27-1,.53-1.47.76a3.68,3.68,0,0,1-.35.15c-.39.17-.78.35-1.17.49l-.57.19c-.33.11-.67.23-1,.33l-.66.15c-.32.08-.63.16-.95.22s-.48.07-.72.11l-.79.12s0,0,0,.07l0,.12.82-.12.68-.1c.35-.07.68-.16,1-.24s.41-.09.61-.15c.41-.11.81-.25,1.21-.39.12,0,.25-.07.37-.12.52-.19,1-.41,1.53-.64l.42-.22c.36-.18.72-.36,1.06-.55l.54-.34c.29-.18.59-.36.87-.55l.56-.42c.26-.2.52-.38.77-.59l.55-.49c.22-.19.44-.37.65-.57a11.72,11.72,0,0,1,.57,3.63c0,.16,0,.32,0,.48-.23.18-.47.34-.7.51s-.32.25-.49.36-.54.35-.81.52l-.45.29c-.35.21-.7.4-1.06.59l-.25.13c-.44.23-.89.44-1.34.64-.13.06-.27.1-.39.16-.33.13-.66.27-1,.39l-.56.19-.85.27-.62.16c-.27.07-.55.15-.83.21l-.64.13-.7.13v0c0,.05.09.1.13.16l.67-.13.6-.12.91-.23.53-.14c.37-.11.73-.23,1.09-.36l.33-.1c.46-.17.92-.35,1.38-.55l.38-.18c.32-.15.65-.3,1-.46s.34-.18.51-.28.53-.28.79-.44.36-.22.54-.33l.72-.47.54-.38.58-.43A11.83,11.83,0,0,1,495.49,44l-1,.52-.39.19c-.48.23-1,.44-1.47.64l-.36.13c-.38.14-.77.29-1.15.41-.19.07-.38.12-.57.17l-.84.25.26.14.84-.26.4-.12c.49-.16,1-.34,1.46-.53l.32-.13c.37-.16.74-.31,1.11-.48l.51-.25.72-.35a11.78,11.78,0,0,1-2.83,3.1l.23.06a12,12,0,0,0,2.93-3.34h0v0l.18-.3h0a12,12,0,0,0,1.45-5.14h0v-.26h0v-.33A11.74,11.74,0,0,0,496.65,34.33Z"/><path class="cls-9" d="M474,42h0l.07.2,0,0h0A11.94,11.94,0,0,0,477,46.67h0l.25.24h0a11.93,11.93,0,0,0,14.9,1h-.36a11.77,11.77,0,0,1-14.17-.9l.55.08.54.09.71.08.58.07.59,0c.66,0,1.32.08,2,.08a27.42,27.42,0,0,0,3.39-.21l.26,0,.77-.12.26,0-.35-.15-.33.06-.55.08-.71.07-.53,0-.73.05-.52,0h-1.25l-.8,0-.45,0-.86-.07-.39,0-1-.12-.22,0c-.41-.06-.81-.13-1.21-.21a11.67,11.67,0,0,1-3-4.45l.44.15.47.17.54.16.48.14c.18.06.37.1.56.15l.47.11.57.13.47.09.6.09.45.08.64.07.42,0,.71,0,.36,0,1.08,0h.06c-.06-.06-.1-.13-.16-.2l-1,0-.35,0-.72-.05-.43,0-.63-.07-.46-.08-.6-.09-.46-.1c-.19,0-.39-.07-.58-.12l-.46-.12-.57-.14-.47-.14-.55-.17-.48-.17-.51-.18a11.74,11.74,0,0,1-.68-3.94V38l.39.19.38.18.47.2.38.16.49.19.37.13.53.17.35.11.59.17.3.08.9.19.15,0,.76.13.31,0,.48.06v0c0-.06,0-.12-.06-.19l-.32,0-.42,0-.5-.09-.4-.07-.5-.11-.39-.09-.52-.14-.36-.1-.6-.19-.27-.09c-.29-.1-.57-.2-.85-.32l-.16-.06-.68-.3-.29-.14-.51-.25a11.54,11.54,0,0,1,.81-3.93c.25.15.51.29.77.42l.47.26c.36.17.72.32,1.09.46l.26.12c.46.17.93.32,1.4.45.14,0,.28.06.42.09.3.08.59.15.9.21,0,0,0-.05,0-.07s0-.09,0-.14l-.76-.17c-.18,0-.35-.07-.52-.12-.38-.1-.75-.22-1.11-.35-.09,0-.18-.06-.27-.09a13,13,0,0,1-1.33-.58l-.38-.2c-.29-.15-.58-.3-.87-.48a11.79,11.79,0,0,1,2-3.25c.22.13.45.25.67.36l.27.14a8.85,8.85,0,0,0,1,.43l.22.07c.27.1.54.19.82.27l.4.09.53.12a.56.56,0,0,0,0-.12l0-.07-.64-.14-.29-.07c-.35-.09-.69-.2-1-.32L478.3,31a7.67,7.67,0,0,1-.78-.34,3.84,3.84,0,0,1-.35-.18c-.19-.1-.37-.19-.55-.3a11.84,11.84,0,0,1,6.2-3.58l.36-.27a12,12,0,0,0-6.73,3.75h0l-.06.06-.08.09h0a12.12,12.12,0,0,0-2,3.26h0l0,.11,0,.08h0a11.81,11.81,0,0,0-.83,3.94h0v.22h0v.26A12,12,0,0,0,474,42Z"/><polygon class="cls-9" points="474.66 54.46 473.86 54.46 473.86 58.68 475.83 58.68 475.83 57.92 474.66 57.92 474.66 54.46"/><path class="cls-9" d="M477.82,55.48a1.56,1.56,0,0,0-1.15.47,1.63,1.63,0,0,0-.46,1.19,1.58,1.58,0,0,0,.46,1.16,1.62,1.62,0,0,0,1.2.46,1.73,1.73,0,0,0,.81-.17,1.61,1.61,0,0,0,.6-.51l-.66-.31a1.07,1.07,0,0,1-.76.3.92.92,0,0,1-.6-.19.8.8,0,0,1-.29-.53h2.51V57.2A1.71,1.71,0,0,0,479,56,1.6,1.6,0,0,0,477.82,55.48ZM477,56.73a.94.94,0,0,1,.29-.4.87.87,0,0,1,.57-.19.88.88,0,0,1,.53.17.75.75,0,0,1,.31.42Z"/><path class="cls-9" d="M483.69,54.59a2.92,2.92,0,0,0-1-.13h-.85v4.22h.8V56.9a3.77,3.77,0,0,0,.85-.07,1.24,1.24,0,0,0,.63-.41,1.16,1.16,0,0,0,.23-.73,1.27,1.27,0,0,0-.18-.69A1.06,1.06,0,0,0,483.69,54.59Zm-.19,1.34a.37.37,0,0,1-.18.14,1.39,1.39,0,0,1-.42,0h-.26v-.86h.23a1,1,0,0,1,.51.08.37.37,0,0,1,.19.36A.4.4,0,0,1,483.5,55.93Z"/><path class="cls-9" d="M487.45,54.69a3.11,3.11,0,0,0-1.36-.23h-.95v4.22h1a4.34,4.34,0,0,0,1.15-.1,1.53,1.53,0,0,0,.62-.37,1.92,1.92,0,0,0,.45-.68,2.62,2.62,0,0,0-.13-2.1A1.76,1.76,0,0,0,487.45,54.69Zm.06,2.66a.88.88,0,0,1-.41.42,1.73,1.73,0,0,1-.79.13h-.38V55.24h.28a1.48,1.48,0,0,1,1.08.33,1.4,1.4,0,0,1,.38,1A1.53,1.53,0,0,1,487.51,57.35Z"/><path class="cls-9" d="M491.31,56.54v.76h1.22a1.18,1.18,0,0,1-.46.54,1.28,1.28,0,0,1-.7.18,1.46,1.46,0,0,1-1.07-.43,1.41,1.41,0,0,1,0-2,1.42,1.42,0,0,1,1-.42,1.65,1.65,0,0,1,1.25.57l.57-.56a2.43,2.43,0,0,0-.79-.59,2.52,2.52,0,0,0-1-.2,2.19,2.19,0,0,0-1.71.73,2.13,2.13,0,0,0-.55,1.46,2.26,2.26,0,0,0,.3,1.14,2.1,2.1,0,0,0,.81.81,2.36,2.36,0,0,0,1.17.29,2.15,2.15,0,0,0,1.07-.26,2,2,0,0,0,.74-.76,2,2,0,0,0,.29-1.05v-.18Z"/><path class="cls-10" d="M558.79,19.8A20,20,0,0,0,557,18.4a16.78,16.78,0,0,0-1.89-1.2,22.1,22.1,0,0,0-2-1c-.7-.27-1.41-.51-2.13-.71a28.72,28.72,0,0,0-4.4-.85,42,42,0,0,0-4.48-.3c-1.49,0-3,0-4.48.13-.75.07-1.49.12-2.23.22l-1.12.13-1.11.17A65.07,65.07,0,0,0,516,20.21a65.78,65.78,0,0,0-15.16,9.55,86.18,86.18,0,0,0-6.52,6.16c-1,1.07-2.06,2.16-3.08,3.25s-2,2.19-3,3.35A21.36,21.36,0,0,0,484,50.45a19.83,19.83,0,0,0-.7,4.48,17,17,0,0,0,2.08,8.76,18.15,18.15,0,0,0,2.7,3.65c.53.55,1.11,1,1.66,1.54s1.14,1,1.74,1.44a10.33,10.33,0,0,0,2,1.21,6.34,6.34,0,0,0,2.26.58,7,7,0,0,0,6-3,9.3,9.3,0,0,0,1-2.07,21.93,21.93,0,0,0,1-4.42h0a3.05,3.05,0,0,0,.2-.46,10.17,10.17,0,0,0,.48-2.25c.36-3,.46-6,.8-8.93a27.62,27.62,0,0,1,.77-4.36A16.62,16.62,0,0,1,507,44a25.9,25.9,0,0,0-.28,6.52,26.88,26.88,0,0,0,1.93,7.91.22.22,0,0,0,.09.1.2.2,0,0,0,.27-.08,21.69,21.69,0,0,0,1.42-3.15v0a11.94,11.94,0,0,0,.68,1.71,13.45,13.45,0,0,0,.78,1.32c0,.13,0,.26,0,.39a12.47,12.47,0,0,0,.3,3.65c.07.3.15.6.24.89a4.07,4.07,0,0,0,.18.44.63.63,0,0,0,.17.21.18.18,0,0,0,.11,0,.21.21,0,0,0,.11,0,.53.53,0,0,0,.1-.12,2.83,2.83,0,0,0,.23-.92,5.72,5.72,0,0,0,0-.92,7.15,7.15,0,0,0-.24-1.84,5.85,5.85,0,0,0-.82-1.66l-.19-.29a18.13,18.13,0,0,1,.73-3,30.17,30.17,0,0,0,.88-3.55A27.59,27.59,0,0,0,514.1,48q0-.91,0-1.83c0-.12,0-.24,0-.36a10.85,10.85,0,0,0,0-1.14l0-.11v0s0,0,0,0-.06,0-.06,0,0,.05,0,.07l0,.23,0,.45c0,.27,0,.54,0,.81a8.93,8.93,0,0,1-2.13,5.39A9,9,0,0,0,514,46.52c0,.49,0,1,0,1.48a27.34,27.34,0,0,1-.42,3.61,30.42,30.42,0,0,1-.9,3.53,19.54,19.54,0,0,0-.73,2.8,11,11,0,0,1-.61-1,11.43,11.43,0,0,1-.65-1.68c0-.13-.07-.27-.11-.4a20.91,20.91,0,0,0,.82-3.32,24.89,24.89,0,0,0,.33-3.66c0-.31,0-.61,0-.93a3.08,3.08,0,0,0-.09-.48.69.69,0,0,0-.05-.13l-.05-.08a.36.36,0,0,0-.09-.08.26.26,0,0,0-.17,0,.23.23,0,0,0-.11,0,.68.68,0,0,0-.12.11,3.39,3.39,0,0,0-.44.87,9,9,0,0,0-.28.88,12.46,12.46,0,0,0,0,6.61,20.55,20.55,0,0,1-1.39,3.23,26.06,26.06,0,0,1-1.71-7.39,25.57,25.57,0,0,1,.61-8,.21.21,0,0,0-.1-.25.23.23,0,0,0-.32.09,18.35,18.35,0,0,0-1.8,4.14,24.77,24.77,0,0,0-.69,3.47c.16-3.23.23-6.46.3-9.69,0-1.49.06-3,.18-4.45,0-.37.08-.72.13-1.09a7.67,7.67,0,0,0,.08-1.17,11.73,11.73,0,0,0-.26-2.29A7.75,7.75,0,0,0,505,30.1a2.84,2.84,0,0,0-.71-1l-.13-.11-.16-.09-.15-.09-.18,0a1,1,0,0,0-.35-.06,1.2,1.2,0,0,0-.33,0l-.09,0A66.89,66.89,0,0,1,533.2,15.29l1.11-.17,1.11-.14c.73-.11,1.48-.16,2.22-.24,1.48-.11,3-.18,4.46-.16A35.16,35.16,0,0,1,551,15.66c.72.19,1.42.43,2.12.69a20.61,20.61,0,0,1,2,.94,16.23,16.23,0,0,1,1.9,1.18,20.92,20.92,0,0,1,1.76,1.38A22.77,22.77,0,0,1,564.1,27,22.78,22.78,0,0,0,558.79,19.8Zm-46.7,38.77a5.58,5.58,0,0,1,.8,1.6,7,7,0,0,1,.25,1.77c0,.3,0,.6,0,.9a2.52,2.52,0,0,1-.2.84.11.11,0,0,1,0,0,.42.42,0,0,1-.1-.14,2.4,2.4,0,0,1-.17-.4c-.1-.29-.17-.58-.24-.87a11.83,11.83,0,0,1-.32-3.6c0-.07,0-.13,0-.2Zm-.84-12.15Zm-.63,1.68c.08-.29.18-.58.28-.86a3.76,3.76,0,0,1,.38-.75,0,0,0,0,1,0,0,1.84,1.84,0,0,1,.07.42,8.7,8.7,0,0,1,0,.89,24.23,24.23,0,0,1-.34,3.6,20.6,20.6,0,0,1-.63,2.69A12.15,12.15,0,0,1,510.62,48.1Zm-8.45,18.71a7,7,0,0,1-2.44,3.46,6.21,6.21,0,0,1-4,1.24,7.24,7.24,0,0,1-3.9-1.67c-.58-.44-1.14-.93-1.7-1.42s-1.12-1-1.63-1.49a17,17,0,0,1-2.61-3.53,16.54,16.54,0,0,1-1.59-4.09,17.65,17.65,0,0,1,.23-8.72,20.87,20.87,0,0,1,4.13-7.74c.94-1.15,1.95-2.24,3-3.33s2-2.19,3.07-3.27c1.2-1.25,2.44-2.48,3.7-3.67a13.13,13.13,0,0,0-1,1.79,14.35,14.35,0,0,0-.74,2.18c-.36,1.47-.62,2.94-.84,4.43-.44,3-.58,6-.79,8.94a64.31,64.31,0,0,0-.18,9,37.87,37.87,0,0,0,.58,4.48,9,9,0,0,0,.27,1.11,4.3,4.3,0,0,0,.2.57,1.34,1.34,0,0,0,.44.58.69.69,0,0,0,.49.11.78.78,0,0,0,.4-.18,2,2,0,0,0,.44-.49,6.87,6.87,0,0,0,.54-1,44.92,44.92,0,0,0,1.5-4.26c.27-.87.53-1.74.79-2.62l.24.91c.43,1.44.91,2.86,1.48,4.26l.1.26a1.53,1.53,0,0,0,.14.29,1,1,0,0,0,.28.29.57.57,0,0,0,.27.08h0A19.88,19.88,0,0,1,502.17,66.81Zm-.36-27.17a2.36,2.36,0,0,1,.07.33,17.17,17.17,0,0,1,.18,2.18,36.57,36.57,0,0,1-.1,4.44,47.55,47.55,0,0,1-1.45,8.11,29.26,29.26,0,0,1-.54-5.52,23.15,23.15,0,0,1,.39-4.4,34.67,34.67,0,0,1,1.08-4.3A4.34,4.34,0,0,1,501.81,39.64ZM503,29.36a.92.92,0,0,1,.77.21,2.11,2.11,0,0,1,.53.8,6.46,6.46,0,0,1,.31,1,10.44,10.44,0,0,1,.26,2.15,7.59,7.59,0,0,1-.08,1.07c0,.37-.1.76-.13,1.13-.12,1.51-.14,3-.18,4.5-.11,6-.26,11.93-.85,17.86-.15,1.48-.3,3-.51,4.43l0,.07a.45.45,0,0,1-.13.14l-.09-.12a.93.93,0,0,1-.1-.2l-.1-.26c-.55-1.38-1-2.79-1.44-4.21-.17-.62-.33-1.25-.47-1.88l.15-.56a49.07,49.07,0,0,0,1.62-8.85,37.73,37.73,0,0,0,.1-4.51,17.67,17.67,0,0,0-.19-2.27,2.82,2.82,0,0,0-.18-.62.64.64,0,0,0-.13-.19.45.45,0,0,0-.36-.15.38.38,0,0,0-.18.06.28.28,0,0,0-.12.08.64.64,0,0,0-.14.15,4.64,4.64,0,0,0-.5,1.1,35.52,35.52,0,0,0-1.1,4.38,24.39,24.39,0,0,0-.39,4.51,30.77,30.77,0,0,0,.8,6.76c-.34,1.23-.71,2.45-1.1,3.67a44.09,44.09,0,0,1-1.47,4.19,7.54,7.54,0,0,1-.49.94,1.81,1.81,0,0,1-.3.35l-.1,0h0a.73.73,0,0,1-.21-.32,3.41,3.41,0,0,1-.18-.48c-.1-.34-.18-.7-.25-1.06a38.35,38.35,0,0,1-.56-4.4,63.05,63.05,0,0,1,.19-8.9c.22-3,.36-6,.79-8.89s.87-5.95,2.63-8.31a15,15,0,0,1,1.38-1.69,8.47,8.47,0,0,1,1.64-1.37A2.68,2.68,0,0,1,503,29.36Z"/><rect class="cls-11" width="595.28" height="102.79"/></g></g></svg>