<svg id="Calque_1" data-name="Calque 1" xmlns="http://www.w3.org/2000/svg" xmlns:xlink="http://www.w3.org/1999/xlink" viewBox="0 0 841.88976 211.1559"><defs><clipPath id="clip-path"><rect y="263.2209" width="595.27557" height="228.83838" style="fill:none"/></clipPath><radialGradient id="Dégradé_sans_nom_8" cx="-21.6121" cy="1236.20118" r="187.90241" gradientTransform="matrix(0.60152, 0.79886, 0.79886, -0.60152, -599.27838, 1117.04171)" gradientUnits="userSpaceOnUse"><stop offset="0" stop-color="#007aff"/><stop offset="0.11091" stop-color="#0179fb" stop-opacity="0.98203"/><stop offset="0.23485" stop-color="#0476f1" stop-opacity="0.92919"/><stop offset="0.36514" stop-color="#0a70e0" stop-opacity="0.84138"/><stop offset="0.49987" stop-color="#1169c8" stop-opacity="0.7184"/><stop offset="0.63798" stop-color="#1a5fa9" stop-opacity="0.56018"/><stop offset="0.77897" stop-color="#265383" stop-opacity="0.3665"/><stop offset="0.91957" stop-color="#334557" stop-opacity="0.14207"/><stop offset="1" stop-color="#3c3c3b" stop-opacity="0"/></radialGradient><radialGradient id="Dégradé_sans_nom_8-2" cx="-23.3313" cy="1234.28197" r="188.92295" xlink:href="#Dégradé_sans_nom_8"/><radialGradient id="Dégradé_sans_nom_8-3" cx="-25.02979" cy="1232.36277" r="189.95216" xlink:href="#Dégradé_sans_nom_8"/><radialGradient id="Dégradé_sans_nom_8-4" cx="-28.80975" cy="1230.44359" r="191.41087" xlink:href="#Dégradé_sans_nom_8"/><radialGradient id="Dégradé_sans_nom_8-5" cx="-33.91084" cy="1228.52444" r="193.15127" xlink:href="#Dégradé_sans_nom_8"/><radialGradient id="Dégradé_sans_nom_8-6" cx="-39.00685" cy="1226.60531" r="194.90216" xlink:href="#Dégradé_sans_nom_8"/><radialGradient id="Dégradé_sans_nom_8-7" cx="-44.09795" cy="1224.6862" r="196.66333" xlink:href="#Dégradé_sans_nom_8"/><radialGradient id="Dégradé_sans_nom_8-8" cx="-49.18431" cy="1222.76711" r="198.43457" xlink:href="#Dégradé_sans_nom_8"/><radialGradient id="Dégradé_sans_nom_8-9" cx="-54.26611" cy="1220.84806" r="200.21571" xlink:href="#Dégradé_sans_nom_8"/><radialGradient id="Dégradé_sans_nom_8-10" cx="-59.34351" cy="1218.92903" r="202.00655" xlink:href="#Dégradé_sans_nom_8"/><radialGradient id="Dégradé_sans_nom_8-11" cx="-64.41667" cy="1217.01002" r="203.80694" xlink:href="#Dégradé_sans_nom_8"/><radialGradient id="Dégradé_sans_nom_8-12" cx="-69.48575" cy="1215.09104" r="205.61671" xlink:href="#Dégradé_sans_nom_8"/><radialGradient id="Dégradé_sans_nom_8-13" cx="-74.5509" cy="1213.17209" r="207.43571" xlink:href="#Dégradé_sans_nom_8"/><radialGradient id="Dégradé_sans_nom_8-14" cx="-79.61227" cy="1211.25317" r="209.26379" xlink:href="#Dégradé_sans_nom_8"/><radialGradient id="Dégradé_sans_nom_8-15" cx="-84.67003" cy="1209.33427" r="211.10082" xlink:href="#Dégradé_sans_nom_8"/><radialGradient id="Dégradé_sans_nom_8-16" cx="-89.72431" cy="1207.4154" r="212.94667" xlink:href="#Dégradé_sans_nom_8"/><radialGradient id="Dégradé_sans_nom_8-17" cx="-94.77529" cy="1205.49656" r="214.80122" xlink:href="#Dégradé_sans_nom_8"/><radialGradient id="Dégradé_sans_nom_8-18" cx="-99.8231" cy="1203.57774" r="216.66434" xlink:href="#Dégradé_sans_nom_8"/><radialGradient id="Dégradé_sans_nom_8-19" cx="-104.8679" cy="1201.65894" r="218.53592" xlink:href="#Dégradé_sans_nom_8"/><radialGradient id="Dégradé_sans_nom_8-20" cx="-109.91908" cy="1199.74017" r="220.41333" xlink:href="#Dégradé_sans_nom_8"/><radialGradient id="Dégradé_sans_nom_8-21" cx="-114.9538" cy="1197.82142" r="222.30278" xlink:href="#Dégradé_sans_nom_8"/><radialGradient id="Dégradé_sans_nom_8-22" cx="-119.98581" cy="1195.9027" r="224.20047" xlink:href="#Dégradé_sans_nom_8"/><clipPath id="clip-path-2"><rect x="849.67811" y="263.2209" width="595.27557" height="228.83838" style="fill:none"/></clipPath><radialGradient id="Dégradé_sans_nom_8-23" cx="391.10868" cy="1874.67757" r="224.20047" xlink:href="#Dégradé_sans_nom_8"/></defs><rect x="32.11969" y="157.40151" width="784.67159" height="53.75439" rx="3.31012" style="fill:#dadada"/><polygon points="68.136 183.127 66.194 184.016 67.645 187.186 69.587 186.297 69.262 185.588 68.163 186.091 67.917 185.555 68.954 185.08 68.643 184.402 67.607 184.876 67.355 184.327 68.455 183.823 68.136 183.127" style="fill:#3c3c3b;fill-rule:evenodd"/><path d="M64.56964,185.36186a.86494.86494,0,0,1,.42441-.029,1.002,1.002,0,0,1,.407.18764l.66839-.62315a1.77385,1.77385,0,0,0-.81282-.37649,1.95552,1.95552,0,0,0-.92515.07768,2.02573,2.02573,0,0,0-.65967.3437,1.76414,1.76414,0,0,0-.66169,1.22908,1.96951,1.96951,0,0,0,.43126,1.36625,1.767,1.767,0,0,0,.54436.44952,1.66153,1.66153,0,0,0,.67862.19537,2.06982,2.06982,0,0,0,.75706-.10338,1.7628,1.7628,0,0,0,1.12732-.87329,1.93507,1.93507,0,0,0,.03675-1.4737c-.0168-.0535-.02919-.093-.03843-.12-.00931-.02692-.0189-.052-.02751-.074l-1.7821.55809.21857.698.90271-.28271a.674.674,0,0,1-.129.53436.99507.99507,0,0,1-.52331.34946.83772.83772,0,0,1-.72682-.07211,1.36274,1.36274,0,0,1-.46627-1.489A.84193.84193,0,0,1,64.56964,185.36186Z" style="fill:#3c3c3b;fill-rule:evenodd"/><path d="M70.075,182.74857a.86392.86392,0,0,1,.40063-.143,1.00129,1.00129,0,0,1,.44266.07024l.47441-.781a1.77408,1.77408,0,0,0-.8844-.14205,1.95574,1.95574,0,0,0-.86951.32556,2.02694,2.02694,0,0,0-.54174.50965,1.76395,1.76395,0,0,0-.30375,1.36247,1.96962,1.96962,0,0,0,.78555,1.1982,1.766,1.766,0,0,0,.64582.285,1.66093,1.66093,0,0,0,.70618.00413,2.07089,2.07089,0,0,0,.70065-.30474,1.7624,1.7624,0,0,0,.84835-1.14622,1.93474,1.93474,0,0,0-.36417-1.42847c-.03064-.047-.05326-.08163-.06948-.10507-.01622-.02331-.03227-.04489-.04652-.06378l-1.56406,1.02034.39958.61262.79229-.51686a.67414.67414,0,0,1,.02064.5493.99548.99548,0,0,1-.40893.47825.83764.83764,0,0,1-.71915.12763,1.36277,1.36277,0,0,1-.85253-1.30688A.84155.84155,0,0,1,70.075,182.74857Z" style="fill:#3c3c3b;fill-rule:evenodd"/><path d="M92.86883,182.124a.6783.6783,0,0,0,.53273-.23746.87737.87737,0,0,0,.20921-.60245.60368.60368,0,0,0-.638-.638.667.667,0,0,0-.5268.24183.89894.89894,0,0,0-.20921.60989.60946.60946,0,0,0,.175.4526A.62127.62127,0,0,0,92.86883,182.124Z" style="fill:#3c3c3b;fill-rule:evenodd"/><path d="M96.87541,182.14182a.66083.66083,0,0,0,.52384-.24485.91.91,0,0,0,.20926-.61286.6096.6096,0,0,0-.17513-.4526.62116.62116,0,0,0-.45708-.17357.67173.67173,0,0,0-.52965.24037.88868.88868,0,0,0-.20933.60542.60184.60184,0,0,0,.63809.63809Z" style="fill:#3c3c3b;fill-rule:evenodd"/><path d="M88.92464,182.15374a.67829.67829,0,0,0,.54168-.25084.96086.96086,0,0,0,.21212-.64251.60208.60208,0,0,0-.15874-.44075.57761.57761,0,0,0-.43185-.1617.65722.65722,0,0,0-.52383.25962.96013.96013,0,0,0-.2152.63367.60646.60646,0,0,0,.15734.43923A.55429.55429,0,0,0,88.92464,182.15374Z" style="fill:#3c3c3b;fill-rule:evenodd"/><path d="M80.91542,184.33891h19.98472a1.72755,1.72755,0,0,0,1.7225-1.72251v-3.92a1.72759,1.72759,0,0,0-1.7225-1.72251H80.91542A1.72753,1.72753,0,0,0,79.193,178.6964v3.92A1.7275,1.7275,0,0,0,80.91542,184.33891Zm18.97839-6.04343h1.06546l-.73606,4.6002h-1.0625Zm-4.2737,2.02109a1.424,1.424,0,0,1,1.11883-.51343,1.18429,1.18429,0,0,1,.558.12914,1.32307,1.32307,0,0,1,.44516.39917l.06821-.4333h1.00313l-.47482,2.99753h-.98528l.05041-.40069a1.503,1.503,0,0,1-.48226.38138,1.28981,1.28981,0,0,1-.57128.12908,1.06265,1.06265,0,0,1-.84735-.38876,1.50281,1.50281,0,0,1-.33085-1.00911A1.892,1.892,0,0,1,95.62011,180.31657Zm-3.85826-2.02109h1.0268l-.24922,1.567a1.47039,1.47039,0,0,1-.04163.20031q-.02965.10841-.08006.25084a1.85916,1.85916,0,0,1,.52232-.37545,1.29816,1.29816,0,0,1,.549-.12321,1.07039,1.07039,0,0,1,.85183.38882,1.48958,1.48958,0,0,1,.33236,1.00313,1.89613,1.89613,0,0,1-.44667,1.291,1.42284,1.42284,0,0,1-1.12029.51343,1.16309,1.16309,0,0,1-.54314-.12763,1.6133,1.6133,0,0,1-.47784-.40063l-.06821.41255h-.98539Zm-3.92936,1.99143a1.74473,1.74473,0,0,1,1.27612-.4897,1.60425,1.60425,0,0,1,1.14861.40661A1.42382,1.42382,0,0,1,90.6875,181.29a1.64933,1.64933,0,0,1-.50448,1.2406,1.79493,1.79493,0,0,1-1.2999.48668,1.563,1.563,0,0,1-1.12628-.40365,1.41553,1.41553,0,0,1-.423-1.0743A1.67992,1.67992,0,0,1,87.83249,180.28691Zm-1.668-1.99143H87.23l-.736,4.6002H85.43142ZM80.8521,179.959a2.44044,2.44044,0,0,1,.53721-.82061,2.24976,2.24976,0,0,1,.78793-.50895,2.70722,2.70722,0,0,1,.98691-.17664,2.27578,2.27578,0,0,1,1.08918.24933,2.24526,2.24526,0,0,1,.80718.76572l-.92591.6321a1.14561,1.14561,0,0,0-.40516-.43918,1.07618,1.07618,0,0,0-.56529-.14542,1.1627,1.1627,0,0,0-.90236.39469,1.4329,1.4329,0,0,0-.35609.9972,1.123,1.123,0,0,0,.28189.79985.97227.97227,0,0,0,.745.3012,1.28016,1.28016,0,0,0,.3251-.04007,1.10493,1.10493,0,0,0,.28328-.11722.73092.73092,0,0,0,.1988-.17955.89706.89706,0,0,0,.13368-.25375h-.98836l.13955-.88742,2.18133.003a2.66646,2.66646,0,0,1-.638,1.81926,2.15331,2.15331,0,0,1-1.65907.65885,2.31687,2.31687,0,0,1-1.6368-.56094,1.94979,1.94979,0,0,1-.60686-1.50469A2.63227,2.63227,0,0,1,80.8521,179.959Z" style="fill:#3c3c3b;fill-rule:evenodd"/><path d="M55.16011,178.993a15.80518,15.80518,0,0,0-.02512,10.85137,16.02522,16.02522,0,0,0,.95545,2.12487,15.845,15.845,0,0,0,13.53351,8.30739,14.77714,14.77714,0,0,1-2.697-1.235,14.51741,14.51741,0,0,1-4.57908-4.22277,15.13324,15.13324,0,0,1-.90335-1.46387,14.764,14.764,0,0,1-1.31456-3.36454,14.54515,14.54515,0,0,1-.3191-5.56151,14.66512,14.66512,0,0,1,7.5794-10.97232c.35817-.1935.72938-.37492,1.10523-.53912l.11071-.04745.10513.05349a14.98571,14.98571,0,0,1,1.25594.86986c.23537.17258.45493.334.61774.44842.01582-.04093.02977-.08605.04745-.14559a5.94219,5.94219,0,0,1,.99917-1.85276,59.96241,59.96241,0,0,0,3.6776-4.84c-4.63956-.90847-11.63471,1.1978-15.60722,3.83622.28747-.02838.5768-.04931.86334-.0628l.84474-.03768-.68565.4954A15.72978,15.72978,0,0,0,55.16011,178.993Z" style="fill:#3c3c3b;fill-rule:evenodd"/><path d="M68.75287,174.46991c-.20345.19839-.41435.38777-.62739.57453-.05315.04658-.10333.09693-.15711.14281q-.40383.34468-.829.661c-.08.0596-.164.113-.245.171-.20584.14745-.412.29427-.62443.43161-.113.073-.23025.1392-.345.20938-.18607.11368-.37161.22823-.56216.33417-.12815.07123-.25985.13588-.39.20362-.18269.09507-.365.1906-.55139.27858-.138.06512-.279.12426-.419.18548-.184.08042-.36806.1606-.55517.2341-.145.05692-.29213.10856-.43895.16124-.04238.01517-.0853.02913-.12792.04384-.093.1292-.198.24927-.2866.38161.13926-.04762.27852-.09519.41726-.14409.13559-.04779.27369-.08948.40777-.14083.24468-.09361.48366-.19961.723-.30485.09635-.04239.19549-.07885.291-.1231q.49828-.23086.97946-.49488c.08821-.04837.17235-.1039.25968-.15391.23032-.132.46087-.26375.68449-.407.11932-.07646.23311-.16135.35051-.2409.18571-.12594.37312-.249.5536-.38259.12728-.0942.24828-.19694.37283-.295.1638-.12885.33-.2545.489-.38981.12635-.10751.246-.22327.36922-.3348.14967-.13548.30184-.26776.44662-.40894.12152-.1185.23613-.24479.35416-.3673.06949-.0721.13856-.14467.20851-.21625-.074-.05425-.14606-.10664-.21921-.15978-.08692.09181-.17321.18438-.26153.27474C68.93062,174.2853,68.84445,174.38065,68.75287,174.46991Z" style="fill:#3c3c3b;fill-rule:evenodd"/><path d="M76.70446,182.364l.00279-.00273-.02692-.07943-.06838-.20147-.00738.00721a16.123,16.123,0,0,0-2.65947-4.76376l.00343-.00384-.072-.088-.09949-.12152-.00442.005a16.25861,16.25861,0,0,0-2.76081-2.60278,1.13465,1.13465,0,0,1-.15043.2216,15.9509,15.9509,0,0,1,2.73268,2.57538c-.24887.27852-.51488.53709-.77631.801-.1863.188-.36288.38754-.55529.568-.31183.29248-.64239.56006-.96958.83224-.17251.14351-.33579.29951-.51238.43731-.45045.35144-.91835.677-1.39363.99023-.06443.04244-.12414.09221-.189.134q-.81515.52462-1.674.97231c-.17565.0917-.36027.16461-.53842.25137-.40167.1956-.80212.39417-1.21548.56424-.23351.09612-.47616.16985-.71316.25765-.36829.13641-.73368.28014-1.10977.39614-.26386.08146-.53563.13926-.803.21049-.3591.09565-.71548.19979-1.08028.27671-.28224.05955-.57076.0949-.85608.1431-.28433.048-.56838.097-.8548.13653-.01093.07233-.03181.143-.04158.21543-.003.02215-.0029.04436-.00575.06652.33027-.04472.65658-.10548.98411-.16136.26555-.04535.53477-.0757.79764-.13077.41005-.08588.81056-.20171,1.21339-.31079.2313-.06262.46761-.11007.69635-.18031.51162-.157,1.01185-.34451,1.50917-.53866.1121-.04378.22863-.07617.33992-.12175q.9069-.37173,1.77652-.82468c.191-.09932.3712-.21822.55913-.32329.38248-.21375.76735-.42319,1.13663-.66019.22427-.144.43505-.309.65414-.46139.31945-.22211.64373-.43649.95155-.67611.22276-.17339.43046-.36731.64682-.54965.28753-.24241.58064-.47709.85636-.73508.214-.2002.41156-.42.618-.62949.24154-.245.49221-.47912.72305-.73653a15.85621,15.85621,0,0,1,2.63039,4.762c-.31253.30509-.64437.58657-.97057.87521-.22892.20257-.44743.41806-.68274.61233-.383.31613-.78561.60483-1.18461.89864-.20641.152-.40318.31788-.61361.46377-.52906.36672-1.0761.70478-1.629,1.03231-.09246.05478-.1795.1188-.27253.17241q-.97589.56238-1.99521,1.04156c-.15758.07408-.32225.13158-.48122.20264-.52493.23461-1.05115.46691-1.59.66751-.254.09454-.5161.1656-.77287.25241-.4529.15315-.90341.31358-1.36415.44243-.298.08332-.60309.14065-.904.21363-.428.10384-.85351.21752-1.28682.30014-.32236.06146-.65012.09554-.975.14508-.35911.05477-.71752.11315-1.07872.15618.00861.03488.01262.07035.02151.10518.01378.05414.03693.10565.05135.15961.3719-.04558.74054-.10908,1.1104-.16641.30951-.048.62187-.08059.92911-.13926.46528-.08885.92254-.20921,1.38178-.3223.27345-.06733.55093-.11868.822-.1945.555-.15519,1.09959-.34277,1.6432-.5329.16751-.05861.33986-.10315.50615-.165q1.0584-.39353,2.08144-.87387c.19479-.09141.38016-.20165.57274-.29765.48179-.24014.96434-.47889,1.43149-.74729.2513-.14437.4897-.31055.73647-.463.395-.244.794-.48127,1.17652-.74554.26142-.1806.5079-.3826.7631-.57251.35178-.26171.70856-.51592,1.0479-.7949.25572-.21026.495-.44081.74322-.66071.29323-.25974.59576-.50773.87806-.78067a15.92822,15.92822,0,0,1,.77479,4.92436c0,.21857-.0046.43969-.01332.65821-.3091.24211-.63024.46673-.9476.69687-.22345.162-.44057.33352-.66792.48953-.35812.24566-.72821.47156-1.09558.70205-.20543.12891-.40475.26776-.61291.39184-.4722.28149-.95568.54215-1.44126.79858-.11129.05878-.21851.12547-.3305.18292q-.901.46218-1.82937.8662c-.17491.07611-.35527.13879-.53146.21176-.44644.18485-.89242.37126-1.34682.53558-.25334.09164-.51267.16589-.76828.25108-.38423.128-.7663.2627-1.15536.376-.275.08006-.55517.14187-.83229.21449-.37568.09839-.74932.20421-1.12867.28876-.2895.06454-.58331.11024-.87474.16664-.31527.06094-.63.12432-.94673.1781l.01657.02681c.05268.0753.11473.14152.16869.2156.306-.05407.60994-.11763.91468-.17758.2734-.05384.54867-.09826.82038-.1592.41516-.09315.82474-.20653,1.23554-.31614.23962-.0639.482-.11768.72-.18711.49621-.14484.98557-.311,1.474-.47964.14751-.05094.298-.09251.44475-.1456q.948-.34285,1.87317-.7449c.17618-.07646.34649-.16578.52127-.24544.43731-.19932.87486-.39812,1.303-.617.2338-.11949.45987-.2538.69077-.379.361-.19578.72414-.38742,1.07767-.5971.24665-.14629.4847-.307.72751-.45993.328-.20659.65839-.40882.97906-.62739.24625-.16787.48348-.3494.72519-.52424.26625-.19264.53832-.37644.79887-.57745a15.96057,15.96057,0,0,1-2.11534,6.98376c-.46185.24962-.934.47871-1.406.70815-.177.08606-.34917.18206-.5275.26527q-.98819.461-2.00207.86259c-.16159.064-.32759.11588-.49005.17757-.51709.19636-1.0347.39161-1.55993.56425-.25457.08367-.51407.15048-.77032.22851-.37725.1149-.75449.23-1.13448.33509.1124.0653.229.12246.343.18462.38138-.10839.7602-.22538,1.13861-.34382.18136-.05675.3651-.10513.54558-.16473q1.00215-.33072,1.9848-.71792c.1463-.05774.2887-.1249.43429-.18455.506-.20724,1.00982-.41953,1.50632-.649.2334-.10791.46122-.227.6924-.33974.32568-.15891.6549-.31038.97586-.47883a15.91562,15.91562,0,0,1-3.84308,4.2166l.31643.078a16.17013,16.17013,0,0,0,3.98484-4.5392l.00343-.00186.01884-.03227.24078-.41225-.02367.01285a16.22538,16.22538,0,0,0,1.96509-6.9698l.002-.00157.00273-.06117.013-.291-.00663.00523c.00407-.14955.00994-.29916.00994-.44795A16.18923,16.18923,0,0,0,76.70446,182.364Z" style="fill:#3c3c3b;fill-rule:evenodd"/><path d="M61.32151,203.44114A15.89885,15.89885,0,0,1,50.897,199.5626c.24723.04524.49737.07873.746.11891.24368.03942.48638.08192.73118.11652.319.045.63977.08.96045.1167.26508.03047.5293.0653.79525.09012.26463.02454.53035.03879.79573.05774.8973.0646,1.79676.108,2.69732.108a37.59683,37.59683,0,0,0,4.608-.29015c.11507-.01419.23107-.02331.346-.03855.35085-.04675.69851-.10629,1.047-.16286.11938-.01937.239-.03774.3587-.05582-.15809-.0628-.314-.13037-.46993-.198-.15083.024-.30166.0482-.453.07053-.25.03687-.49947.07594-.75055.10769-.31707.04-.63576.07111-.95428.10292-.24253.02424-.48447.05157-.7277.07105-.33021.02646-.6614.043-.99254.0607-.23352.01251-.46674.0289-.7006.037-.3444.01192-.68926.01309-1.034.01559-.22171.00163-.44331.00791-.665.00564-.36214-.00372-.724-.01925-1.08576-.03344-.20461-.008-.40952-.01058-.6139-.02192-.38969-.02163-.77805-.056-1.1664-.08977-.176-.0153-.35265-.0246-.52825-.04239-.46511-.0471-.92789-.10751-1.3898-.17206-.09774-.01366-.19642-.02244-.29393-.03686q-.82831-.12253-1.6472-.28323a16.03153,16.03153,0,0,1-4.09311-6.03912c.19694.07326.39655.137.5946.2063.211.07385.42115.15048.63344.21979.24717.08077.4965.15327.74525.22788.2131.0639.42539.13088.6396.19031.253.07006.508.13158.76258.19537.21212.05314.42336.11.63652.15879.26055.0596.52308.11007.78514.1631.21.04256.41906.08919.63.12751.26951.049.54093.08821.81189.13019.20531.03186.40969.06832.61576.09617.28736.03885.57651.06728.86527.09839.19153.02064.38207.04645.57418.06367.3201.02866.64187.04622.96348.06535.16292.00971.32486.025.48819.03227q.72792.03245,1.46033.03285l.08378-.00029c-.07466-.08576-.1374-.18228-.21037-.26973-.44661-.00175-.8923-.01012-1.33636-.03007-.15595-.007-.31067-.02215-.46633-.03145-.32939-.0196-.65914-.03727-.9869-.06693-.19258-.01738-.38353-.04419-.57553-.06512-.28887-.0314-.57831-.05919-.86573-.09844-.20659-.0282-.41115-.06611-.61692-.09838-.2712-.04251-.54337-.08088-.81317-.13037-.20886-.03826-.41551-.08634-.62344-.12885-.26427-.054-.52947-.1039-.79229-.16461-.21014-.04861-.418-.10681-.62716-.15972-.25834-.06536-.51773-.12653-.77444-.1984-.2138-.05983-.4251-.12949-.6378-.19391-.24886-.07542-.49889-.14653-.74613-.22811-.21583-.07123-.42888-.15222-.64343-.22816-.23241-.08233-.466-.16066-.69682-.24851a15.90414,15.90414,0,0,1-.91975-5.35068q0-.10327.00128-.2063c.17246.08733.34806.16612.522.24956.172.08256.34289.1681.51628.24688.20967.0953.42208.18293.63379.27265.17315.07338.345.15013.51941.21985.21956.08768.44185.16711.66338.24892.16944.06256.33754.129.50814.1881.23572.08164.47423.15444.71211.22944.15932.05024.31718.105.47743.15223.26811.07908.53913.1485.80968.21921.13275.03465.264.07419.39725.10681q.60653.14853,1.22071.26927c.06768.01326.13629.02251.20409.03524.34335.06466.68752.12612,1.03418.17758.1417.021.285.03506.4272.0539.21577.02855.43161.05681.6482.08175l-.00866-.02134c-.03128-.08588-.052-.17426-.08187-.26049q-.22179-.02608-.44307-.05483c-.18909-.02448-.37888-.04594-.567-.07431-.22584-.03413-.44964-.07594-.674-.11571-.18328-.03245-.36737-.06146-.54965-.09763-.22875-.04541-.45517-.09914-.68228-.15048-.17607-.03977-.35312-.07571-.5282-.119-.23688-.05862-.47127-.12618-.70629-.19125-.16211-.04488-.32562-.08541-.48686-.13338-.2702-.08042-.53744-.17037-.805-.25939-.12356-.04111-.24864-.07745-.37161-.12042q-.58375-.20383-1.15856-.43481c-.07029-.02826-.13908-.06082-.20926-.08972-.31259-.12879-.62419-.26014-.93248-.40115-.13141-.06006-.26038-.12687-.391-.1892-.23125-.11031-.46284-.21962-.69153-.33678a15.8583,15.8583,0,0,1,1.09564-5.3362c.344.20659.701.38341,1.054.56971.2145.11321.42283.24055.64041.3462.48151.23386.9751.43743,1.47126.63408.12164.04826.23857.10855.361.15449q.93306.35018,1.89752.61239c.18607.0507.3783.08164.566.1274.40388.09838.80793.19606,1.218.274.00017-.02983-.00332-.0592-.003-.089.0007-.06274.00867-.12473.01006-.18735-.34893-.067-.69362-.14786-1.03807-.22962-.23357-.05547-.47168-.09646-.70281-.15966-.51133-.13985-1.01231-.31015-1.51062-.48756-.11978-.04267-.24386-.07338-.36289-.11815q-.92112-.34678-1.80908-.77967c-.17142-.08344-.33475-.1856-.50418-.27381-.39859-.20752-.79707-.41533-1.1842-.64885a15.90663,15.90663,0,0,1,2.74523-4.41267c.29521.17618.60024.32986.904.4861.12094.06221.23752.13443.3598.19345q.67027.32358,1.36561.58343c.09676.03605.19735.061.29474.09524.36905.12961.73973.25433,1.118.35679.17566.04756.35626.0789.53383.12059.24282.057.48505.11606.73031.165.01948-.05495.033-.11135.05309-.16612.01157-.03158.026-.0617.03779-.09315-.29009-.05495-.57756-.11891-.86334-.188-.13246-.032-.26805-.05361-.39941-.089q-.70568-.19-1.38985-.44359c-.09507-.03536-.18612-.08147-.28055-.11862-.35772-.14077-.7138-.28625-1.06128-.4533-.16147-.07769-.31648-.17054-.47563-.25381-.24886-.13025-.49825-.25921-.74118-.40306a15.97889,15.97889,0,0,1,8.41792-4.85493l.48214-.37167a16.23877,16.23877,0,0,0-9.13433,5.0935l-.00419-.00256-.0739.08309-.10658.1199.00587.00354a16.16574,16.16574,0,0,0-2.746,4.41692l-.00582-.00355-.05907.14583-.04262.10513.00447.00273a16.11331,16.11331,0,0,0-1.123,5.34492l-.00919-.00476-.00546.213-.00221.08367.0011.00059c-.00238.11367-.00442.22746-.00442.34172a16.1697,16.1697,0,0,0,.873,5.232l-.015-.00576.09885.27428.02076.05756.00238.00093a16.28589,16.28589,0,0,0,3.947,6.07128l-.02576-.00506.34957.321.02768.02541.00355.0007a16.19408,16.19408,0,0,0,20.225,1.30711c-.16252.00582-.325.00983-.48709.01088A15.82094,15.82094,0,0,1,61.32151,203.44114Z" style="fill:#3c3c3b;fill-rule:evenodd"/><polygon points="83.426 187.057 83.576 186.105 81.197 186.105 80.546 190.231 82.925 190.231 83.069 189.312 81.792 189.312 81.902 188.627 83.091 188.627 83.229 187.731 82.046 187.731 82.15 187.057 83.426 187.057" style="fill:#3c3c3b;fill-rule:evenodd"/><path d="M85.768,188.72268l-.23666,1.50789h1.0061l.23677-1.4937c.00192-.01314.00366-.03006.00558-.05082a3.78468,3.78468,0,0,0,.05076-.48749.88914.88914,0,0,0-.2438-.66653.94081.94081,0,0,0-.6863-.23822,1.03221,1.03221,0,0,0-.50447.12682,1.67528,1.67528,0,0,0-.46493.40876l.07041-.4454h-.96382l-.451,2.84658h.99208l.20287-1.32746a1.32481,1.32481,0,0,1,.21288-.60315.49179.49179,0,0,1,.41-.18868.40132.40132,0,0,1,.29026.09571.37565.37565,0,0,1,.09868.28189.95146.95146,0,0,1-.0071.10716Q85.77937,188.658,85.768,188.72268Z" style="fill:#3c3c3b;fill-rule:evenodd"/><path d="M89.13262,190.61241a.66129.66129,0,0,1-.496.18468.51263.51263,0,0,1-.3241-.09292.37538.37538,0,0,1-.1381-.265H87.126a1.09924,1.09924,0,0,0,.44946.78212,1.76165,1.76165,0,0,0,1.033.26619,2.17639,2.17639,0,0,0,.8159-.14508,1.484,1.484,0,0,0,.5932-.41847,2.6388,2.6388,0,0,0,.36358-1.17815q.01684-.11844.02821-.186l.341-2.17587h-.94126l-.06483.40028a1.29552,1.29552,0,0,0-.42842-.37062,1.13387,1.13387,0,0,0-.52418-.11984,1.36416,1.36416,0,0,0-1.0625.47778,1.7398,1.7398,0,0,0-.42557,1.202,1.37735,1.37735,0,0,0,.31562.94138,1.03585,1.03585,0,0,0,.81729.36067,1.20105,1.20105,0,0,0,.53128-.11687,1.28844,1.28844,0,0,0,.43266-.351l-.03663.24526A.96628.96628,0,0,1,89.13262,190.61241Zm-.231-1.09214a.56122.56122,0,0,1-.42423-.169.61286.61286,0,0,1-.162-.44243.84417.84417,0,0,1,.19862-.575.63786.63786,0,0,1,.50308-.22828.59128.59128,0,0,1,.43545.16345.58018.58018,0,0,1,.1649.43121.85906.85906,0,0,1-.20426.58622A.65133.65133,0,0,1,88.90161,189.52027Z" style="fill:#3c3c3b;fill-rule:evenodd"/><polygon points="91.058 190.231 92.067 190.231 92.517 187.384 91.506 187.384 91.058 190.231" style="fill:#3c3c3b;fill-rule:evenodd"/><path d="M92.50623,186.15247a.53278.53278,0,0,0-.38893-.15222.5362.5362,0,0,0-.53547.53557.52842.52842,0,0,0,.15636.38458.512.512,0,0,0,.37911.15926.53888.53888,0,0,0,.54395-.54384A.51448.51448,0,0,0,92.50623,186.15247Z" style="fill:#3c3c3b;fill-rule:evenodd"/><path d="M94.992,188.72268l-.23665,1.50789h1.006l.23677-1.4937c.00192-.01314.00372-.03006.00564-.05082a3.7816,3.7816,0,0,0,.0507-.48749.88934.88934,0,0,0-.24374-.66653.94089.94089,0,0,0-.6863-.23822,1.03224,1.03224,0,0,0-.50447.12682,1.67473,1.67473,0,0,0-.465.40876l.07048-.4454h-.96388l-.451,2.84658h.99214l.20287-1.32746a1.32557,1.32557,0,0,1,.21281-.60315.492.492,0,0,1,.41-.18868.40136.40136,0,0,1,.29027.09571.37569.37569,0,0,1,.09867.28189.95356.95356,0,0,1-.00709.10716Q95.00329,188.658,94.992,188.72268Z" style="fill:#3c3c3b;fill-rule:evenodd"/><path d="M99.56285,189.047l.00837-.0678c.01134-.10315.017-.17473.017-.21409a1.44663,1.44663,0,0,0-.40167-1.06825,1.43207,1.43207,0,0,0-1.061-.403,1.56778,1.56778,0,0,0-1.64314,1.6432,1.3749,1.3749,0,0,0,.38475,1.03859,1.49463,1.49463,0,0,0,1.08081.37062,2.05718,2.05718,0,0,0,.70885-.11565,1.58985,1.58985,0,0,0,.55942-.34666l-.5411-.5468a1.47093,1.47093,0,0,1-.3537.24944.81437.81437,0,0,1-.35091.07751.539.539,0,0,1-.403-.14083.56411.56411,0,0,1-.13809-.4115V189.047Zm-1.81642-.94713a.58.58,0,0,1,.37347-.13234.51486.51486,0,0,1,.372.1353.53181.53181,0,0,1,.15508.36638H97.49705A.80887.80887,0,0,1,97.74643,188.09983Z" style="fill:#3c3c3b;fill-rule:evenodd"/><path d="M101.5723,187.29381a1.56771,1.56771,0,0,0-1.64314,1.6432,1.37486,1.37486,0,0,0,.38469,1.03859,1.49467,1.49467,0,0,0,1.08082.37062,2.05718,2.05718,0,0,0,.70885-.11565,1.58985,1.58985,0,0,0,.55942-.34666l-.54111-.5468a1.4715,1.4715,0,0,1-.35364.24944.81475.81475,0,0,1-.351.07751.53915.53915,0,0,1-.403-.14083.56437.56437,0,0,1-.1381-.4115V189.047h2.13354l.00837-.0678c.01134-.10315.01692-.17473.01692-.21409a1.44663,1.44663,0,0,0-.40167-1.06825A1.4319,1.4319,0,0,0,101.5723,187.29381Zm-.6285,1.17536a.80942.80942,0,0,1,.24939-.36934.58.58,0,0,1,.37347-.13234.515.515,0,0,1,.372.1353.53176.53176,0,0,1,.155.36638Z" style="fill:#3c3c3b;fill-rule:evenodd"/><path d="M105.53487,187.31643a.94958.94958,0,0,0-.51855.14089.98228.98228,0,0,0-.35509.41144l.07041-.48477h-.96382l-.451,2.84658h.99208l.20293-1.29926a1.07322,1.07322,0,0,1,.22968-.56227.59226.59226,0,0,1,.45795-.18171,1.0859,1.0859,0,0,1,.15217.01123q.07893.01141.17758.03384l.20013-.89353c-.05634-.0093-.09774-.0154-.124-.0182A.69708.69708,0,0,0,105.53487,187.31643Z" style="fill:#3c3c3b;fill-rule:evenodd"/><path d="M106.814,186.00025a.53618.53618,0,0,0-.53546.53557.52845.52845,0,0,0,.15635.38458.512.512,0,0,0,.37911.15926.53888.53888,0,0,0,.544-.54384.51452.51452,0,0,0-.155-.38335A.5328.5328,0,0,0,106.814,186.00025Z" style="fill:#3c3c3b;fill-rule:evenodd"/><polygon points="105.754 190.231 106.763 190.231 107.214 187.384 106.202 187.384 105.754 190.231" style="fill:#3c3c3b;fill-rule:evenodd"/><path d="M109.82113,187.29381a1.03221,1.03221,0,0,0-.50447.12682,1.67459,1.67459,0,0,0-.465.40876l.07047-.4454h-.96388l-.451,2.84658h.99214l.20287-1.32746a1.32545,1.32545,0,0,1,.21282-.60315.492.492,0,0,1,.41-.18868.40132.40132,0,0,1,.29026.09571.37569.37569,0,0,1,.09867.28189.9512.9512,0,0,1-.00709.10716q-.007.06192-.01831.12664l-.23666,1.50789h1.006l.23677-1.4937c.00192-.01314.00372-.03006.00564-.05082a3.7816,3.7816,0,0,0,.0507-.48749.88931.88931,0,0,0-.24375-.66653A.94087.94087,0,0,0,109.82113,187.29381Z" style="fill:#3c3c3b;fill-rule:evenodd"/><path d="M113.72968,187.384l-.06477.40028a1.29552,1.29552,0,0,0-.42842-.37062,1.1339,1.1339,0,0,0-.52418-.11984,1.36428,1.36428,0,0,0-1.06256.47778,1.74007,1.74007,0,0,0-.42556,1.202,1.37737,1.37737,0,0,0,.31567.94138,1.03585,1.03585,0,0,0,.81729.36067,1.20061,1.20061,0,0,0,.53122-.11687,1.288,1.288,0,0,0,.43272-.351l-.03663.24526a.96628.96628,0,0,1-.23119.5593.66138.66138,0,0,1-.496.18468.51281.51281,0,0,1-.32416-.09292.37538.37538,0,0,1-.1381-.265h-1.04842a1.0995,1.0995,0,0,0,.44952.78212,1.76145,1.76145,0,0,0,1.033.26619,2.17617,2.17617,0,0,0,.8159-.14508,1.48355,1.48355,0,0,0,.5932-.41847,2.63864,2.63864,0,0,0,.36364-1.17815q.01684-.11844.0282-.186l.341-2.17587Zm-.39591,1.90247a.65133.65133,0,0,1-.51157.23381.561.561,0,0,1-.42417-.169.61286.61286,0,0,1-.16205-.44243.84421.84421,0,0,1,.19868-.575.63786.63786,0,0,1,.50308-.22828.59139.59139,0,0,1,.43545.16345.58018.58018,0,0,1,.16484.43121A.85906.85906,0,0,1,113.33377,189.28646Z" style="fill:#3c3c3b;fill-rule:evenodd"/><path d="M98.023,196.28435a.6946.6946,0,0,0-.55011.25427.944.944,0,0,0-.2184.63826.62587.62587,0,0,0,.18276.46947.655.655,0,0,0,.47726.1781.70977.70977,0,0,0,.55622-.24636.91.91,0,0,0,.21851-.62734.63084.63084,0,0,0-.66624-.6664Z" style="fill:#3c3c3b;fill-rule:evenodd"/><path d="M90.11528,196.25033a.68635.68635,0,0,0-.54691.271,1.00328,1.00328,0,0,0-.22468.66181.63277.63277,0,0,0,.16426.45854.57857.57857,0,0,0,.43685.17042.70858.70858,0,0,0,.56564-.26171,1.00358,1.00358,0,0,0,.22154-.67112.62919.62919,0,0,0-.16578-.46016A.60348.60348,0,0,0,90.11528,196.25033Z" style="fill:#3c3c3b;fill-rule:evenodd"/><path d="M100.74436,193.08954H80.67586A1.621,1.621,0,0,0,79.193,194.812v3.92a1.621,1.621,0,0,0,1.48288,1.7225h20.0685a1.621,1.621,0,0,0,1.48289-1.7225v-3.92A1.621,1.621,0,0,0,100.74436,193.08954ZM84.7485,198.01982a2.248,2.248,0,0,1-1.73222.68786,2.41873,2.41873,0,0,1-1.709-.58564,2.03589,2.03589,0,0,1-.63373-1.5711,2.74856,2.74856,0,0,1,.19525-1.03039,2.54932,2.54932,0,0,1,.56087-.85695,2.35132,2.35132,0,0,1,.82282-.5314,2.82566,2.82566,0,0,1,1.03029-.18444,2.376,2.376,0,0,1,1.13727.26038,2.34279,2.34279,0,0,1,.84288.79962l-.96685.66a1.19414,1.19414,0,0,0-.423-.45853,1.12268,1.12268,0,0,0-.59029-.15182,1.214,1.214,0,0,0-.942.412,1.496,1.496,0,0,0-.3719,1.04133,1.17234,1.17234,0,0,0,.29445.835,1.01453,1.01453,0,0,0,.77775.31463,1.33061,1.33061,0,0,0,.3394-.04193,1.14639,1.14639,0,0,0,.29585-.12222.766.766,0,0,0,.20769-.18746.93652.93652,0,0,0,.13938-.265H82.99146l.14565-.92655,2.27774.003A2.78457,2.78457,0,0,1,84.7485,198.01982Zm3.2879-1.63q-.10849-.02485-.19525-.03727a1.20184,1.20184,0,0,0-.16734-.01232.65139.65139,0,0,0-.50354.19978,1.18064,1.18064,0,0,0-.25253.61827l-.2231,1.42858H85.60382l.49587-3.12987h1.05976l-.07745.533a1.0806,1.0806,0,0,1,.39039-.45244,1.04466,1.04466,0,0,1,.57018-.15484.76115.76115,0,0,1,.07756.00465c.02884.003.07437.00977.1363.02006Zm3.22232,1.81583a1.87362,1.87362,0,0,1-1.35724.50837,1.63325,1.63325,0,0,1-1.17605-.4215,1.47912,1.47912,0,0,1-.4415-1.12192,1.7533,1.7533,0,0,1,.52058-1.30752,1.8219,1.8219,0,0,1,1.33252-.51139,1.67537,1.67537,0,0,1,1.19926.42452,1.48734,1.48734,0,0,1,.44929,1.13425A1.72168,1.72168,0,0,1,91.25872,198.20565Zm4.2451-1.3324-.00937.06494a2.49167,2.49167,0,0,1-.51133,1.345,1.41969,1.41969,0,0,1-.53756.31759,2.24235,2.24235,0,0,1-.71745.10687,1.71845,1.71845,0,0,1-1.08919-.31294,1.02229,1.02229,0,0,1-.39824-.849,2.81389,2.81389,0,0,1,.02169-.3116q.02163-.18717.08675-.578l.19223-1.1992h1.09686l-.20444,1.29537q-.03724.25711-.0589.42917-.02172.17182-.02169.22474a.49039.49039,0,0,0,.10693.3409.39935.39935,0,0,0,.31143.11758q.47709,0,.64454-1.0814c.00617-.03913.01129-.06919.01553-.08989l.19525-1.23647h1.1Zm3.85313,1.28606a1.486,1.486,0,0,1-1.16977.536,1.20613,1.20613,0,0,1-.57169-.13484,1.56588,1.56588,0,0,1-.48191-.41679q0,.14878-.00779.27427a2.17375,2.17375,0,0,1-.02314.21845l-.20462,1.33241H95.80734l.71583-4.51187h1.04109l-.06808.43377a1.60042,1.60042,0,0,1,.50819-.39958,1.33405,1.33405,0,0,1,.58878-.13344,1.11,1.11,0,0,1,.88626.40452,1.56353,1.56353,0,0,1,.344,1.049A1.98,1.98,0,0,1,99.357,198.15931Z" style="fill:#3c3c3b;fill-rule:evenodd"/><text transform="translate(119.37734 189.7336)" style="font-size:14.776240348815918px;fill:#3c3c3b;font-family:Montserrat-BlackItalic, Montserrat;font-weight:800;font-style:italic"><tspan style="letter-spacing:-0.02002528589917743em">+</tspan><tspan x="8.85059" y="0" style="letter-spacing:0.00006609005247253277em">2</tspan><tspan x="17.83496" y="0" style="letter-spacing:-0.004956753935439958em">3</tspan><tspan x="26.83398" y="0">7 6 </tspan><tspan x="54.99609" y="0" style="letter-spacing:-0.009913507870879915em">9</tspan><tspan x="64.61621" y="0">3 14 15 </tspan><tspan x="119.00586" y="0" style="letter-spacing:-0.004956753935439958em">5</tspan><tspan x="128.0791" y="0">5 · 6 </tspan><tspan x="165.37305" y="0" style="letter-spacing:-0.01500244191126494em">7</tspan><tspan x="174.68164" y="0">8 12 15 98</tspan></text><path d="M695.38225,4.68381a57.4923,57.4923,0,1,0,57.49229,57.4923A57.55743,57.55743,0,0,0,695.38225,4.68381Zm0,114.19572a56.70342,56.70342,0,1,1,56.70342-56.70342A56.768,56.768,0,0,1,695.38225,118.87953Z" style="fill:#004c91"/><path d="M695.38225,8.07389a54.10241,54.10241,0,1,0,54.1026,54.10222A54.16349,54.16349,0,0,0,695.38225,8.07389Zm0,107.02151a52.9191,52.9191,0,1,1,52.91929-52.91929A52.979,52.979,0,0,1,695.38225,115.0954Z" style="fill:#004c91"/><path d="M732.55333,62.17611a37.17108,37.17108,0,1,0-37.17108,37.17108A37.21332,37.21332,0,0,0,732.55333,62.17611Zm-37.17108,36.3822a36.38221,36.38221,0,1,1,36.3822-36.3822A36.42391,36.42391,0,0,1,695.38225,98.55831Z" style="fill:#004c91"/><path d="M651.82159,62.31632a3.925,3.925,0,0,0,1.64169-1.40981,4.46847,4.46847,0,0,0,.70414-2.15515,3.98959,3.98959,0,0,0-.33512-2.04344,3.77506,3.77506,0,0,0-1.31274-1.50148,3.88472,3.88472,0,0,0-1.92673-.68911l-.33435-.015-.30584,3.979,1.41443.10863.17641-2.29036a2.31154,2.31154,0,0,1,.9599.94295,2.47622,2.47622,0,0,1,.22727,1.34124,2.789,2.789,0,0,1-.95143,1.95717,2.613,2.613,0,0,1-2.00377.66908,2.54788,2.54788,0,0,1-1.82119-.93333,2.6928,2.6928,0,0,1-.624-2.01571,3.14364,3.14364,0,0,1,1.24494-2.26454l-.96683-1.14056a4.45105,4.45105,0,0,0-1.22183,1.39863,4.90428,4.90428,0,0,0-.53,1.90093,4.10362,4.10362,0,0,0,1.13555,3.31111,3.97939,3.97939,0,0,0,2.65166,1.24764A4.26554,4.26554,0,0,0,651.82159,62.31632Z" style="fill:#004c91"/><rect x="650.06617" y="48.38736" width="1.47203" height="8.1324" transform="translate(461.31876 677.26624) rotate(-77.7373)" style="fill:#004c91"/><path d="M652.25763,50.80831a2.97788,2.97788,0,0,0,2.352-.14561,2.92749,2.92749,0,0,0,1.54231-1.75224,3.10651,3.10651,0,0,0,.11787-1.617,2.97592,2.97592,0,0,0-.70953-1.42753,3.08856,3.08856,0,0,0-1.33816-.889,3.02944,3.02944,0,0,0-1.58776-.10477,2.99644,2.99644,0,0,0-1.43292.71838A3.10369,3.10369,0,0,0,650.307,46.936a3.07517,3.07517,0,0,0,1.95061,3.87234Zm-.63017-3.45056a1.52612,1.52612,0,0,1,.8166-.941,1.89121,1.89121,0,0,1,2.32888.79773,1.52575,1.52575,0,0,1,.08551,1.24379,1.50934,1.50934,0,0,1-.81584.92985,1.72512,1.72512,0,0,1-1.31967.02889,1.69262,1.69262,0,0,1-1.01-.82393A1.51239,1.51239,0,0,1,651.62746,47.35775Z" style="fill:#004c91"/><path d="M658.07327,43.804l-.5462-.29352a2.88257,2.88257,0,0,0,.93139-.48534,2.443,2.443,0,0,0,.60552-.74574,2.61577,2.61577,0,0,0,.15485-2.1513,3.07175,3.07175,0,0,0-1.53769-1.76919,3.14915,3.14915,0,0,0-2.342-.34628,2.56039,2.56039,0,0,0-1.68868,1.3085,2.48021,2.48021,0,0,0-.29429.96837,2.77764,2.77764,0,0,0,.11864,1.04349l-2.56461-1.37822-.69181,1.28731,7.163,3.84923Zm-1.29348-1.14171a1.76171,1.76171,0,0,1-1.33045-.19491,1.71085,1.71085,0,0,1-.87593-.9911,1.53693,1.53693,0,0,1,.12865-1.24109,1.5,1.5,0,0,1,.96607-.77848,1.73417,1.73417,0,0,1,1.30426.18682,1.75383,1.75383,0,0,1,.8844.99842,1.49745,1.49745,0,0,1-.10554,1.23223A1.52517,1.52517,0,0,1,656.77979,42.66226Z" style="fill:#004c91"/><path d="M658.29437,37.41747a3.07561,3.07561,0,0,0,2.23951.68988,2.61278,2.61278,0,0,0,1.90285-1.0119,2.4184,2.4184,0,0,0,.43373-.8532,2.88518,2.88518,0,0,0,.06394-1.04464l.49.38018.90289-1.16251L659.69416,30.816l-.90366,1.16252.51153.39713a2.69873,2.69873,0,0,0-.99842.30892,2.49429,2.49429,0,0,0-.76576.66022,2.55534,2.55534,0,0,0-.51,2.07272A3.15059,3.15059,0,0,0,658.29437,37.41747Zm.50075-3.47559a1.53522,1.53522,0,0,1,1.08393-.62131,1.71164,1.71164,0,0,1,1.25958.39983,1.76483,1.76483,0,0,1,.71877,1.1367,1.51807,1.51807,0,0,1-.32433,1.2045,1.49025,1.49025,0,0,1-1.08162.59242,1.75913,1.75913,0,0,1-1.27037-.40483,1.73779,1.73779,0,0,1-.70028-1.11591A1.4884,1.4884,0,0,1,658.79512,33.94188Z" style="fill:#004c91"/><rect x="662.02416" y="26.22114" width="1.47227" height="8.13246" transform="translate(177.76539 482.99972) rotate(-45.64478)" style="fill:#004c91"/><polygon points="672.851 27.177 671.977 25.978 669.689 27.646 668.46 25.959 670.748 24.291 669.894 23.119 667.606 24.787 666.761 23.627 669.049 21.96 668.178 20.766 664.679 23.316 669.351 29.727 672.851 27.177" style="fill:#004c91"/><path d="M674.98014,25.95222l-1.10242-2.07966a6.69075,6.69075,0,0,1-.50075-1.082,1.5944,1.5944,0,0,1,.00539-.93833,1.0826,1.0826,0,0,1,.537-.62324.91786.91786,0,0,1,.59551-.11132.95574.95574,0,0,1,.53618.31008,6.50992,6.50992,0,0,1,.73649,1.1887l1.20334,2.26994,1.28655-.68179-1.8158-3.4259a2.09334,2.09334,0,0,0-1.16945-1.11359,2.0156,2.0156,0,0,0-1.59392.15523,2.19679,2.19679,0,0,0-.65791.53542,3.53828,3.53828,0,0,0-.52617.94372l-.282-.53118-1.30041.68949,2.748,5.18392Z" style="fill:#004c91"/><path d="M679.5647,22.75011a2.654,2.654,0,0,0,2.16324.16756,2.58488,2.58488,0,0,0,.85975-.47032,2.43754,2.43754,0,0,0,.59243-.78964,2.39346,2.39346,0,0,1,.181.99765,1.10939,1.10939,0,0,1-.3305.61284,2.121,2.121,0,0,1-.84511.47956,2.3064,2.3064,0,0,1-.802.13752,1.34492,1.34492,0,0,1-.64635-.17719l-1.53769.52039a2.58469,2.58469,0,0,0,.89287.77116,2.61071,2.61071,0,0,0,1.14326.282,4.2417,4.2417,0,0,0,1.44293-.26039,2.999,2.999,0,0,0,1.9899-1.6752,3.331,3.331,0,0,0-.13482-2.26609l-1.61164-4.7606-1.389.46994.20724.61322a3.04072,3.04072,0,0,0-1.05158-.29043,2.48753,2.48753,0,0,0-.96683.13058,2.57428,2.57428,0,0,0-1.52151,1.32352,3.001,3.001,0,0,0-.09861,2.40168A2.99675,2.99675,0,0,0,679.5647,22.75011Zm-.02388-3.50178a1.665,1.665,0,0,1,2.17865-.74574,1.636,1.636,0,0,1,.80659.98533,1.65282,1.65282,0,0,1-.03621,1.28153,1.50784,1.50784,0,0,1-.92292.79658,1.57081,1.57081,0,0,1-1.25419-.07126,1.63767,1.63767,0,0,1-.82431-.99033A1.61845,1.61845,0,0,1,679.54082,19.24833Z" style="fill:#004c91"/><rect x="685.27114" y="15.74642" width="1.47258" height="5.86731" transform="translate(11.31369 144.15316) rotate(-12.09476)" style="fill:#004c91"/><path d="M684.583,15.17723a.899.899,0,0,0,.71338.13636.88709.88709,0,0,0,.58318-.40908.92041.92041,0,0,0,.12788-.71376.93063.93063,0,0,0-.4137-.60629.93424.93424,0,0,0-1.426.97839A.94547.94547,0,0,0,684.583,15.17723Z" style="fill:#004c91"/><path d="M689.911,20.9659l-.245-2.3412a6.70571,6.70571,0,0,1-.06009-1.19063,1.59356,1.59356,0,0,1,.35592-.86861,1.08259,1.08259,0,0,1,.73109-.3771.92061.92061,0,0,1,.594.119.959.959,0,0,1,.38134.48843,6.52083,6.52083,0,0,1,.23882,1.37745l.26732,2.55536,1.44833-.15176-.40368-3.85617a2.09465,2.09465,0,0,0-.6687-1.46989,2.01468,2.01468,0,0,0-1.53615-.45183,2.19962,2.19962,0,0,0-.81044.25076,3.53974,3.53974,0,0,0-.84126.67871l-.0624-.59821-1.46451.1537.61169,5.83528Z" style="fill:#004c91"/><path d="M697.59633,20.83262a3.47134,3.47134,0,0,0,1.55079-.23612,2.92551,2.92551,0,0,0,1.15943-.91483l-1.20874-.64558a1.96238,1.96238,0,0,1-1.446.50344,1.71761,1.71761,0,0,1-1.11475-.42718,1.57521,1.57521,0,0,1-.49535-1.02191l4.72323.24306.02-.27965a3.2114,3.2114,0,0,0-.74651-2.38473,3.01777,3.01777,0,0,0-2.20561-1.00189,2.90717,2.90717,0,0,0-2.21332.77462,3.0631,3.0631,0,0,0-.97915,2.18251,2.9598,2.9598,0,0,0,.755,2.22294A3.03641,3.03641,0,0,0,697.59633,20.83262Zm-.852-4.62808a1.76147,1.76147,0,0,1,1.097-.28928,1.66393,1.66393,0,0,1,.97915.35823,1.47416,1.47416,0,0,1,.53388.82662l-3.18862-.16409A1.92924,1.92924,0,0,1,696.74429,16.20454Z" style="fill:#004c91"/><path d="M704.26479,21.72935a3.47458,3.47458,0,0,0,1.56927.01811,2.9291,2.9291,0,0,0,1.29194-.71531l-1.08856-.8324a1.96224,1.96224,0,0,1-1.50841.2627,1.71918,1.71918,0,0,1-1.03078-.60205,1.57668,1.57668,0,0,1-.32356-1.08856l4.62154,1.0042.06471-.27272a3.2049,3.2049,0,0,0-.35052-2.47409,3.01338,3.01338,0,0,0-2.01456-1.34547,2.9054,2.9054,0,0,0-2.30961.406,3.063,3.063,0,0,0-1.3189,1.99491,2.964,2.964,0,0,0,.38519,2.31616A3.03692,3.03692,0,0,0,704.26479,21.72935Zm-.09091-4.70512a1.76166,1.76166,0,0,1,1.12861-.10786,1.672,1.672,0,0,1,.90906.51192,1.47956,1.47956,0,0,1,.39213.90212l-3.11929-.67794A1.91858,1.91858,0,0,1,704.17388,17.02423Z" style="fill:#004c91"/><path d="M709.22067,22.98354l.785-2.23951.08936-.27156a3.84938,3.84938,0,0,1,.7673-1.47953.6731.6731,0,0,1,.681-.20684,1.00756,1.00756,0,0,1,.359.26308l.852-1.04464a1.37843,1.37843,0,0,0-.51539-.34051,1.31493,1.31493,0,0,0-.77655-.03236,1.572,1.572,0,0,0-.7334.44606l.24421-.6972-1.191-.41755-1.9406,5.53714Z" style="fill:#004c91"/><path d="M714.41384,18.17865a.88688.88688,0,0,0,.71183.00578.91689.91689,0,0,0,.51847-.5073.93318.93318,0,0,0,.01618-.73341.93446.93446,0,0,0-1.72951-.032.9492.9492,0,0,0-.01926.74111A.90332.90332,0,0,0,714.41384,18.17865Z" style="fill:#004c91"/><rect x="710.10308" y="20.59588" width="5.8674" height="1.47171" transform="translate(410.1547 667.19467) rotate(-66.58902)" style="fill:#004c91"/><path d="M714.893,25.463l1.161-2.04768a6.69928,6.69928,0,0,1,.64327-1.00381,1.59565,1.59565,0,0,1,.7935-.50037,1.08542,1.08542,0,0,1,.81429.11826.91543.91543,0,0,1,.41447.4422.95744.95744,0,0,1,.02619.61862,6.44779,6.44779,0,0,1-.60629,1.26l-1.26728,2.23527,1.26728.718,1.9121-3.37274a2.09227,2.09227,0,0,0,.31046-1.58468,2.01481,2.01481,0,0,0-.98763-1.26035,2.20308,2.20308,0,0,0-.80505-.26694,3.53061,3.53061,0,0,0-1.07931.06355l.29659-.52309-1.28038-.72609-2.89433,5.10381Z" style="fill:#004c91"/><path d="M721.08383,29.52218a2.59428,2.59428,0,0,0,.85975.47148,2.43842,2.43842,0,0,0,.98455.074,2.39427,2.39427,0,0,1-.74342.68949,1.10349,1.10349,0,0,1-.69411.05162,2.12467,2.12467,0,0,1-.85975-.45376,2.30939,2.30939,0,0,1-.54775-.60167,1.35379,1.35379,0,0,1-.19876-.63981l-1.26651-1.01536a2.52808,2.52808,0,0,0,.20954,2.28265,4.23613,4.23613,0,0,0,.99688,1.07545,2.99442,2.99442,0,0,0,2.48218.77424,3.32336,3.32336,0,0,0,1.8366-1.33392l3.14394-3.92126-1.144-.91753-.40522.505a3.01789,3.01789,0,0,0-.322-1.04272,2.47956,2.47956,0,0,0-.63018-.7438,2.57212,2.57212,0,0,0-1.93443-.5697,3.30524,3.30524,0,0,0-2.79034,3.40279A2.65093,2.65093,0,0,0,721.08383,29.52218Zm.8274-3.1867a1.61451,1.61451,0,0,1,1.087-.63171,1.66474,1.66474,0,0,1,1.80193,1.43407,1.63366,1.63366,0,0,1-.39675,1.20951,1.65274,1.65274,0,0,1-1.09934.66022,1.50763,1.50763,0,0,1-1.1679-.349,1.57151,1.57151,0,0,1-.61554-1.09472A1.63877,1.63877,0,0,1,721.91123,26.33548Z" style="fill:#004c91"/><path d="M728.82928,37.85236a3.98105,3.98105,0,0,0,1.58777,1.32891,3.76965,3.76965,0,0,0,1.97527.28081,3.88832,3.88832,0,0,0,1.909-.73572l.2627-.20724-2.36585-3.21327-1.14248.84087,1.362,1.8497a2.31252,2.31252,0,0,1-1.34278-.08706,2.48426,2.48426,0,0,1-1.04773-.86783,2.79076,2.79076,0,0,1-.55776-2.10354,2.612,2.612,0,0,1,1.08162-1.815,2.54694,2.54694,0,0,1,1.98837-.48226,2.69041,2.69041,0,0,1,1.78883,1.11976,3.14544,3.14544,0,0,1,.53542,2.528l1.47683.23266a4.43639,4.43639,0,0,0,.01232-1.857,4.88431,4.88431,0,0,0-.83972-1.78614,4.10147,4.10147,0,0,0-3.02145-1.76649,3.97742,3.97742,0,0,0-2.82269.78618,4.26515,4.26515,0,0,0-1.39054,1.723,3.92558,3.92558,0,0,0-.32279,2.13975A4.47207,4.47207,0,0,0,728.82928,37.85236Z" style="fill:#004c91"/><path d="M732.15735,42.81325l2.09622-1.112.2496-.139a3.84464,3.84464,0,0,1,1.56773-.56585.67441.67441,0,0,1,.641.31008,1.02148,1.02148,0,0,1,.08475.43681l1.3343-.18875a1.372,1.372,0,0,0-.14714-.59974,1.31408,1.31408,0,0,0-.54851-.55121,1.57575,1.57575,0,0,0-.84126-.17026l.65251-.34629-.59088-1.11474-5.18315,2.74989Z" style="fill:#004c91"/><path d="M735.85057,43.435a2.983,2.983,0,0,0-1.7195,1.612,2.93017,2.93017,0,0,0-.0701,2.33311,3.10562,3.10562,0,0,0,.94064,1.32044,2.97553,2.97553,0,0,0,1.4568.64751,3.08276,3.08276,0,0,0,1.59778-.16871,3.03184,3.03184,0,0,0,1.28962-.9314,2.99729,2.99729,0,0,0,.64558-1.46758,3.11324,3.11324,0,0,0-.16871-1.60664,3.07661,3.07661,0,0,0-3.97211-1.73876Zm2.68557,2.25607a1.52267,1.52267,0,0,1-.02928,1.24572,1.8908,1.8908,0,0,1-2.30191.87053,1.524,1.524,0,0,1-.859-.90327,1.50871,1.50871,0,0,1,.03544-1.23686,1.72591,1.72591,0,0,1,.99765-.864,1.69729,1.69729,0,0,1,1.30426-.00925A1.5132,1.5132,0,0,1,738.53614,45.691Z" style="fill:#004c91"/><path d="M737.01386,50.97278a2.27864,2.27864,0,0,0-1.00536,1.067A2.60056,2.60056,0,0,0,735.906,53.656a2.66891,2.66891,0,0,0,.66176,1.36011,2.2925,2.2925,0,0,0,1.21567.63826,6.096,6.096,0,0,0,2.10854-.19259l2.43365-.50884-.30122-1.441-2.81422.58819a3.94493,3.94493,0,0,1-1.07931.13174,1.02822,1.02822,0,0,1-.58241-.26771,1.0803,1.0803,0,0,1-.29891-.57509,1.04665,1.04665,0,0,1,.047-.6425,1.00183,1.00183,0,0,1,.41369-.45915,3.9132,3.9132,0,0,1,1.09857-.34552l2.76568-.57856-.3043-1.4568-2.39127.5A7.29435,7.29435,0,0,0,737.01386,50.97278Z" style="fill:#004c91"/><path d="M734.67805,58.88117l2.76414-.12827a2.8844,2.8844,0,0,0-.55006.89481,2.44514,2.44514,0,0,0-.13712.951,2.6193,2.6193,0,0,0,.97222,1.92557,3.07259,3.07259,0,0,0,2.228.728,3.15237,3.15237,0,0,0,2.18789-.90559,2.56212,2.56212,0,0,0,.77655-1.99029,2.47969,2.47969,0,0,0-.245-.98186,2.76686,2.76686,0,0,0-.63787-.83432l.64635-.03005-.067-1.45988-8.00508.37094Zm3.84037.2161a1.76134,1.76134,0,0,1,1.24186-.51655,1.71136,1.71136,0,0,1,1.26035.4006,1.53691,1.53691,0,0,1,.52771,1.13093,1.50056,1.50056,0,0,1-.4291,1.16443,1.735,1.735,0,0,1-1.21567.50961,1.75447,1.75447,0,0,1-1.27114-.40252,1.49818,1.49818,0,0,1-.54235-1.11128A1.52315,1.52315,0,0,1,738.51842,59.09727Z" style="fill:#004c91"/><polygon points="650.66 71.071 652.619 72.495 651.87 70.192 653.83 68.768 651.408 68.768 650.66 66.465 649.911 68.768 647.49 68.768 649.449 70.192 648.7 72.495 650.66 71.071" style="fill:#004c91"/><polygon points="740.854 68.768 740.105 66.465 739.357 68.768 736.935 68.768 738.894 70.192 738.146 72.495 740.105 71.071 742.064 72.495 741.316 70.192 743.275 68.768 740.854 68.768" style="fill:#004c91"/><polygon points="655.07 82.183 656.137 81.703 654.722 78.561 653.656 79.042 654.11 80.051 649.493 82.129 649.987 83.227 654.604 81.148 655.07 82.183" style="fill:#004c91"/><path d="M652.8,86.68591a1.34883,1.34883,0,0,1-.19336-.91753,1.23881,1.23881,0,0,1,.463-.76345l1.85431,3.22021.19337-.10631a2.5176,2.5176,0,0,0,1.255-1.51,2.37043,2.37043,0,0,0-.28042-1.88282,2.2799,2.2799,0,0,0-1.45526-1.12938,2.40545,2.40545,0,0,0-1.8574.285,2.32561,2.32561,0,0,0-1.14479,1.446,2.38975,2.38975,0,0,0,.28889,1.87281,2.73494,2.73494,0,0,0,.81738.92292,2.30433,2.30433,0,0,0,1.09857.37441l-.09013-1.07238A1.54437,1.54437,0,0,1,652.8,86.68591Zm1.81349-2.02149a1.38175,1.38175,0,0,1,.65868.60013,1.30959,1.30959,0,0,1,.18181.79889,1.16009,1.16009,0,0,1-.31817.7049l-1.25188-2.174A1.51033,1.51033,0,0,1,654.61347,84.66442Z" style="fill:#004c91"/><polygon points="656.734 84.39 658.948 84.905 658.265 83.719 656.32 83.671 656.734 84.39" style="fill:#004c91"/><rect x="653.63063" y="88.18152" width="6.38962" height="1.15652" transform="translate(66.00896 389.14928) rotate(-34.64622)" style="fill:#004c91"/><path d="M656.15809,91.5663a.63405.63405,0,0,0-.49.12942.662.662,0,1,0,.49-.12942Z" style="fill:#004c91"/><path d="M659.52467,90.17421a.66494.66494,0,0,0-1.0639-.61553.63516.63516,0,0,0-.25345.43912.667.667,0,0,0,.57316.74573.63781.63781,0,0,0,.4892-.12866A.64424.64424,0,0,0,659.52467,90.17421Z" style="fill:#004c91"/><path d="M664.87577,94.09393l-.35438-1.07237-3.35194,1.077a5.83878,5.83878,0,0,0-.91907.34976,2.0205,2.0205,0,0,0-.473.34821,1.89072,1.89072,0,0,0-.557,1.34664,1.86009,1.86009,0,0,0,.57471,1.4098,1.938,1.938,0,0,0,2.75027.00616,1.93894,1.93894,0,0,0,.60861-1.389,1.81383,1.81383,0,0,0-.54852-1.35511Zm-3.137,2.6301a.83631.83631,0,0,1-.60013.2627.76975.76975,0,0,1-.57163-.23189.7367.7367,0,0,1-.21262-.56238.906.906,0,0,1,.84665-.85821.72961.72961,0,0,1,.56084.225.76977.76977,0,0,1,.23882.57856A.82691.82691,0,0,1,661.73876,96.724Z" style="fill:#004c91"/><path d="M668.1761,98.78866a1.89275,1.89275,0,0,0,.416-1.39979,1.94927,1.94927,0,0,0-3.456-1.06082,1.9323,1.9323,0,0,0-.45915,1.44447,1.821,1.821,0,0,0,.688,1.29194l-2.18712.956.46608,1.02462,3.22406-1.4229a5.94567,5.94567,0,0,0,.87593-.44066A1.99456,1.99456,0,0,0,668.1761,98.78866Zm-.91907-.7103a.83756.83756,0,0,1-.55006.31971.7284.7284,0,0,1-.58241-.16332.76572.76572,0,0,1-.2966-.55236.8953.8953,0,0,1,.76731-.9314.764.764,0,0,1,.59319.17026.73718.73718,0,0,1,.27118.537A.84745.84745,0,0,1,667.257,98.07836Z" style="fill:#004c91"/><path d="M671.5396,98.72549a1.91066,1.91066,0,0,0-1.51535-.292,1.88889,1.88889,0,0,0-1.0223.65791l.95374.624a.77541.77541,0,0,1,.45684-.18027.75949.75949,0,0,1,.4707.12326.65589.65589,0,0,1,.29891.39521.55777.55777,0,0,1-.08166.45068.6561.6561,0,0,1-.29968.245.79512.79512,0,0,1-.42217.05007,1.92758,1.92758,0,0,1-.60706-.23727l-.55622.8505a1.713,1.713,0,0,1,.72493.83433.89482.89482,0,0,1-.66946,1.19718,1.03094,1.03094,0,0,1-1.1448-.7103,1.18577,1.18577,0,0,1,.11094-.78579l-.98224-.6425a2.16044,2.16044,0,0,0-.29275,1.59315,2.04731,2.04731,0,0,0,.93756,1.26883,2.20533,2.20533,0,0,0,1.63784.37518,1.87734,1.87734,0,0,0,1.29579-.85128,1.59722,1.59722,0,0,0,.27656-1.00689,1.67663,1.67663,0,0,0-.41986-.97993,1.62181,1.62181,0,0,0,.85513-.104,1.35664,1.35664,0,0,0,.60552-.51076,1.53282,1.53282,0,0,0,.198-1.25265A1.81,1.81,0,0,0,671.5396,98.72549Z" style="fill:#004c91"/><polygon points="676.556 101.738 675.473 102.473 676.644 102.999 674.548 107.669 675.623 108.151 678.175 102.465 676.556 101.738" style="fill:#004c91"/><path d="M682.2233,103.79385l-3.81264,2.97369-.34128,1.0431,2.58542.84588-.39829,1.21644,1.104.36131.39752-1.21644.52771.17257.34128-1.0431-.52771-.17257,1.248-3.81341Zm-1.22722,3.81957-1.3528-.4422,2.00223-1.54308Z" style="fill:#004c91"/><polygon points="686.574 106.25 687.841 106.452 687.034 111.506 688.198 111.692 689.18 105.537 687.427 105.258 686.574 106.25" style="fill:#004c91"/><path d="M691.04575,109.26358l.953.2681a1.4011,1.4011,0,0,1,.38673-.27195.82849.82849,0,0,1,.3875-.07627.8124.8124,0,0,1,.60475.31047,1.10542,1.10542,0,0,1-.09629,1.43523.89635.89635,0,0,1-.68411.24729.94116.94116,0,0,1-.51-.178,1.07164,1.07164,0,0,1-.35515-.463l-1.2434-.067a2.08616,2.08616,0,0,0,2.0238,1.80655,2.0461,2.0461,0,0,0,1.54154-.54158,2.09579,2.09579,0,0,0,.70336-1.50071,2.04124,2.04124,0,0,0-.48072-1.50919,1.88191,1.88191,0,0,0-1.37513-.65328,1.29255,1.29255,0,0,0-.19568.00385,1.75875,1.75875,0,0,0-.20955.03313l.31509-1.11552,2.03074.11016.05932-1.09625-2.91514-.15793Z" style="fill:#004c91"/><path d="M701.52607,108.33527a1.88526,1.88526,0,0,0-1.45988-.43527,1.39809,1.39809,0,0,0-.19183.0339,1.671,1.671,0,0,0-.20261.06548l.14021-1.151,2.0238-.20261-.10862-1.09164-2.90512.29044-.406,3.51911.98224.11864a1.39413,1.39413,0,0,1,.34051-.32741.82273.82273,0,0,1,1.01691.07935,1.10508,1.10508,0,0,1,.124,1.43292.89371.89371,0,0,1-.63787.349.93577.93577,0,0,1-.53157-.09784,1.06681,1.06681,0,0,1-.4214-.40291l-1.23955.124a2.08729,2.08729,0,0,0,2.27649,1.47606,2.05136,2.05136,0,0,0,1.44139-.7727,2.09743,2.09743,0,0,0,.46454-1.59007A2.03957,2.03957,0,0,0,701.52607,108.33527Z" style="fill:#004c91"/><path d="M706.32017,107.44548a1.88222,1.88222,0,0,0-1.49685-.27965,1.36969,1.36969,0,0,0-.188.05392,1.75654,1.75654,0,0,0-.19414.08552l.01926-1.15943,1.99145-.41293-.22341-1.07469-2.85813.5932-.03544,3.543.99.01541a1.40677,1.40677,0,0,1,.30353-.36208.84269.84269,0,0,1,.35592-.17334.81431.81431,0,0,1,.66407.1456,1.10674,1.10674,0,0,1,.27348,1.41289.89561.89561,0,0,1-.59781.4137.94325.94325,0,0,1-.5385-.0416,1.07425,1.07425,0,0,1-.46146-.35669l-1.21952.25345a2.08592,2.08592,0,0,0,2.41823,1.22877,2.05292,2.05292,0,0,0,1.3528-.91907,2.09235,2.09235,0,0,0,.29506-1.63014A2.03654,2.03654,0,0,0,706.32017,107.44548Z" style="fill:#004c91"/><rect x="710.6471" y="106.49315" width="2.15233" height="1.0761" transform="translate(6.32563 249.92926) rotate(-20.00413)" style="fill:#004c91"/><polygon points="718.47 99.472 717.367 100.074 717.425 102.597 715.331 101.187 714.213 101.797 717.515 104.02 718.808 106.389 719.857 105.816 718.563 103.447 718.47 99.472" style="fill:#004c91"/><path d="M722.6377,98.52134l.29506.41369a2.13882,2.13882,0,0,0-.82046.00771,1.94229,1.94229,0,0,0-.72494.3251,2.008,2.008,0,0,0-.85127,1.44524,2.4759,2.4759,0,0,0,.50306,1.79038,2.419,2.419,0,0,0,1.53076,1.02384,2.05406,2.05406,0,0,0,1.66018-.33358,1.89716,1.89716,0,0,0,.51846-.54389,2.26917,2.26917,0,0,0,.28351-.7727l.28273.39675.94218-.67177-2.67786-3.75255Zm1.37514,1.83967a1.3871,1.3871,0,0,1,.285,1.01768,1.19663,1.19663,0,0,1-.51539.83356,1.17148,1.17148,0,0,1-.94757.20261,1.51462,1.51462,0,0,1-1.14094-1.58853,1.16993,1.16993,0,0,1,.50537-.82663,1.20878,1.20878,0,0,1,.95528-.22341A1.34473,1.34473,0,0,1,724.01284,100.361Z" style="fill:#004c91"/><path d="M729.34005,95.78031a2.37284,2.37284,0,0,0-1.05235-.67409,2.34879,2.34879,0,0,0-1.25881-.04931,2.438,2.438,0,0,0-1.12553.58627,2.42355,2.42355,0,0,0,3.2726,3.57535,2.43717,2.43717,0,0,0,.69488-1.06775,2.33771,2.33771,0,0,0,.05316-1.25111A2.4177,2.4177,0,0,0,729.34005,95.78031Zm-.88209,2.637a1.18381,1.18381,0,0,1-.91445.32973,1.35731,1.35731,0,0,1-.91907-.48,1.33406,1.33406,0,0,1-.38211-.95066,1.27721,1.27721,0,0,1,1.32892-1.21952,1.48633,1.48633,0,0,1,1.29963,1.43215A1.19873,1.19873,0,0,1,728.458,98.41733Z" style="fill:#004c91"/><path d="M732.48168,91.69649l-1.47452-1.28115-.75883.87362,1.70487,1.48068a3.12437,3.12437,0,0,1,.5955.61323.80569.80569,0,0,1,.10863.4915.84339.84339,0,0,1-.21725.46069.82261.82261,0,0,1-.42448.2758A.79074.79074,0,0,1,731.531,94.57a3.08863,3.08863,0,0,1-.738-.52309l-1.67559-1.456-.76731.88209,1.4491,1.25958a5.71415,5.71415,0,0,0,1.24032.8975,1.78524,1.78524,0,0,0,1.14556.12249,2.04175,2.04175,0,0,0,1.06005-.70336,2.10389,2.10389,0,0,0,.537-1.06082,1.80031,1.80031,0,0,0-.178-1.0639A4.80737,4.80737,0,0,0,732.48168,91.69649Z" style="fill:#004c91"/><path d="M734.04479,86.74677a1.58039,1.58039,0,0,0-1.05466.68641,1.733,1.733,0,0,0-.26424.61169,2.7892,2.7892,0,0,0-.02465.849l-.389-.26809-.65636.9522,3.79568,2.61622.65637-.95219-1.52305-1.05a5.26191,5.26191,0,0,1-.74111-.57239,1.25362,1.25362,0,0,1-.33666-.6556.84892.84892,0,0,1,.14869-.62941.71424.71424,0,0,1,.3744-.29351.74917.74917,0,0,1,.48612.02157,5.12615,5.12615,0,0,1,.94449.56161l1.66172,1.14556.64943-.94218-2.50837-1.72874A1.64309,1.64309,0,0,0,734.04479,86.74677Z" style="fill:#004c91"/><path d="M734.52705,81.51123l2.023,1.06776a2.13385,2.13385,0,0,0-.72955.37594,1.94594,1.94594,0,0,0-.50229.61554,2.01042,2.01042,0,0,0-.11171,1.67328A2.47841,2.47841,0,0,0,736.46,86.61812a2.416,2.416,0,0,0,1.82735.22726,2.05144,2.05144,0,0,0,1.33431-1.0431,1.90922,1.90922,0,0,0,.21879-.71954,2.28124,2.28124,0,0,0-.09322-.81738l.43065.228.54-1.02307-5.65155-2.98216Zm2.59928,1.72027a1.34661,1.34661,0,0,1,1.02924.13713,1.385,1.385,0,0,1,.71106.78117,1.18917,1.18917,0,0,1-.08628.97608,1.17012,1.17012,0,0,1-.75575.60629,1.5154,1.5154,0,0,1-1.7326-.90674,1.1682,1.1682,0,0,1,.08089-.96529A1.20346,1.20346,0,0,1,737.12633,83.2315Z" style="fill:#004c91"/><path d="M741.30028,78.39657a1.5443,1.5443,0,0,1,.02773,1.20257,1.34534,1.34534,0,0,1-.58857.73032,1.23344,1.23344,0,0,1-.88286.1248L741.177,76.9806l-.20493-.08243a2.51556,2.51556,0,0,0-1.96294-.01618,2.36637,2.36637,0,0,0-1.28115,1.40749,2.28767,2.28767,0,0,0,.04545,1.842,2.4084,2.4084,0,0,0,1.39594,1.258,2.32508,2.32508,0,0,0,1.8443-.0285,2.38667,2.38667,0,0,0,1.26806-1.40827,2.73237,2.73237,0,0,0,.19722-1.2172,2.29645,2.29645,0,0,0-.40446-1.087ZM739.023,80.08294a1.50747,1.50747,0,0,1-.40753-.60938,1.384,1.384,0,0,1,.04776-.88979,1.31385,1.31385,0,0,1,.50383-.64635,1.16549,1.16549,0,0,1,.74727-.19953Z" style="fill:#004c91"/><polygon points="735.574 77.243 736.767 78.78 737.062 78.004 736.06 75.964 735.574 77.243" style="fill:#004c91"/><polygon points="702.8 50.948 700.686 51.916 702.265 55.366 704.379 54.398 704.026 53.626 702.829 54.174 702.562 53.59 703.69 53.074 703.352 52.335 702.224 52.852 701.95 52.253 703.146 51.706 702.8 50.948" style="fill:#004c91"/><path d="M698.91778,53.38033a.9413.9413,0,0,1,.462-.03158,1.09017,1.09017,0,0,1,.443.2042l.72748-.67823a1.93055,1.93055,0,0,0-.88469-.4098,2.12886,2.12886,0,0,0-1.00694.08455,2.20481,2.20481,0,0,0-.718.37407,1.92,1.92,0,0,0-.72021,1.33778,2.14357,2.14357,0,0,0,.4694,1.48708,1.92341,1.92341,0,0,0,.59247.48929,1.80876,1.80876,0,0,0,.73866.21263,2.25225,2.25225,0,0,0,.824-.11253,1.91863,1.91863,0,0,0,1.227-.95051,2.10627,2.10627,0,0,0,.04-1.604c-.0183-.05822-.03178-.10126-.04184-.13054-.01016-.02932-.02056-.05667-.02995-.08055l-1.93969.6074.23791.7597.98253-.30768a.73373.73373,0,0,1-.14045.5816,1.08318,1.08318,0,0,1-.56961.38037.912.912,0,0,1-.79109-.07848,1.48325,1.48325,0,0,1-.50749-1.62074A.91636.91636,0,0,1,698.91778,53.38033Z" style="fill:#004c91"/><path d="M704.91,50.53593a.93987.93987,0,0,1,.43609-.15562,1.08965,1.08965,0,0,1,.48178.07641l.5164-.85007a1.93166,1.93166,0,0,0-.96265-.15461,2.12855,2.12855,0,0,0-.94637.35438,2.20665,2.20665,0,0,0-.58968.55468,1.9355,1.9355,0,0,0-.3187.70952,1.91623,1.91623,0,0,0-.01189.77347,2.1437,2.1437,0,0,0,.855,1.30417,1.923,1.923,0,0,0,.70293.31022,1.80763,1.80763,0,0,0,.7686.00448,2.25363,2.25363,0,0,0,.76263-.3317,1.91816,1.91816,0,0,0,.92336-1.24759,2.106,2.106,0,0,0-.39636-1.55478c-.03337-.05114-.058-.08884-.07565-.11436-.01767-.02537-.0351-.04882-.0506-.06943l-1.70241,1.11061.43493.66677.86235-.56258a.734.734,0,0,1,.02249.59792,1.08346,1.08346,0,0,1-.44514.52054.91178.91178,0,0,1-.78271.13891,1.48335,1.48335,0,0,1-.92793-1.42247A.916.916,0,0,1,704.91,50.53593Z" style="fill:#004c91"/><path d="M688.67619,46.44826a17.203,17.203,0,0,0-.02735,11.811,17.4414,17.4414,0,0,0,1.03992,2.31274,17.24591,17.24591,0,0,0,14.7303,9.042,16.08086,16.08086,0,0,1-2.93551-1.34422,15.80134,15.80134,0,0,1-4.98405-4.59617,16.47963,16.47963,0,0,1-.98321-1.59335,16.06723,16.06723,0,0,1-1.43079-3.66207,15.83065,15.83065,0,0,1-.34735-6.0533,15.96191,15.96191,0,0,1,8.24967-11.94261c.38986-.21065.79388-.40806,1.20295-.58679l.12052-.05166.1144.05821a16.3041,16.3041,0,0,1,1.367.9468c.25615.18783.49512.36353.67235.48809.01719-.04459.03241-.0937.05162-.15851a6.46884,6.46884,0,0,1,1.08754-2.01658,65.26714,65.26714,0,0,0,4.00283-5.268c-5.04983-.98884-12.66359,1.30373-16.98738,4.17544.31287-.03087.62782-.05369.93968-.06833l.91945-.041-.74631.53922A17.12068,17.12068,0,0,0,688.67619,46.44826Z" style="fill:#004c91"/><path d="M703.471,41.52517c-.22144.21595-.451.42207-.68285.62536-.05787.0507-.11247.10549-.171.15542q-.43956.37514-.90227.71945c-.08705.06485-.17849.123-.26665.18614-.224.16048-.44846.32029-.67962.46979-.12307.07945-.25062.15148-.37556.22789-.20252.12369-.40451.2484-.61188.36372-.13949.07752-.28283.14786-.42449.22163-.1988.10347-.39727.20742-.60013.30319-.15022.07088-.30367.13525-.45606.20189-.20026.08754-.4006.17478-.60427.25481-.15784.062-.31793.11815-.47774.1755-.04613.01652-.09283.03168-.13925.04772-.10125.14059-.21546.27132-.312.41533.15157-.05181.30314-.10357.45419-.15682.14757-.052.29789-.09741.44383-.15326.26632-.10193.52642-.2173.787-.33184.10487-.04613.21277-.08581.31678-.13395q.54233-.25134,1.06606-.53865c.096-.05267.18759-.1131.28264-.16756.25071-.14363.50162-.28706.745-.44292.12991-.08325.25374-.17565.38153-.26222.20213-.13708.40609-.271.60254-.41644.13852-.10251.27026-.21431.4058-.32106.1783-.14021.35914-.277.53219-.42424.13752-.117.26776-.24306.40185-.36444.16294-.14743.32857-.29145.48612-.44509.13231-.129.257-.26646.38548-.39978.07564-.07849.15085-.15745.227-.23536-.08055-.05907-.159-.11608-.23858-.17391-.09461.09991-.18855.20069-.2847.299C703.66442,41.32424,703.57062,41.428,703.471,41.52517Z" style="fill:#004c91"/><path d="M712.1257,50.11732l.003-.00294-.02927-.08647-.07444-.21927-.008.00784a17.5474,17.5474,0,0,0-2.89463-5.185l.00371-.00419-.07834-.09577-.10829-.13227-.00481.00544a17.69649,17.69649,0,0,0-3.00494-2.83294,1.23223,1.23223,0,0,1-.16375.24122,17.36286,17.36286,0,0,1,2.97436,2.8031c-.27089.30314-.56041.58462-.845.87188-.20275.20459-.395.42179-.60441.61819-.33941.31831-.69918.60956-1.05529.90583-.18778.15619-.3655.326-.55771.476-.4903.38249-.99957.73682-1.51689,1.07777-.0701.04617-.1351.10039-.20574.14579q-.88719.57108-1.822,1.05832c-.1912.09981-.39212.17916-.58607.27358-.43719.21292-.873.429-1.32294.61414-.25418.10463-.51828.18485-.77621.28042-.40089.14849-.79855.30493-1.20792.43118-.28721.08869-.583.15157-.874.22909-.39087.10415-.77876.21749-1.1758.30122-.30724.06481-.62127.10328-.93178.15572-.3095.05229-.61867.10563-.93043.14863-.0119.07873-.03462.15562-.04521.23449-.00323.02407-.00318.04824-.00626.07237.35943-.04868.71462-.11479,1.07112-.1756.289-.04936.58207-.08244.86818-.14233.44629-.09351.88223-.21956,1.32068-.3383.25177-.06813.50893-.11979.75791-.19625.55689-.17093,1.10136-.375,1.64265-.58627.122-.04766.24884-.08291.37-.13255q.98709-.40459,1.93362-.8976c.20781-.10809.404-.23752.60856-.35187.41629-.23266.83524-.46059,1.23714-.71858.24411-.15667.47354-.33637.712-.50219.34773-.24176.70066-.47509,1.03573-.73591.24243-.1887.46849-.39978.704-.59825.313-.26386.632-.51929.93212-.8001.2329-.21787.44793-.45717.67269-.68511.26289-.2667.53571-.5215.78695-.80168a17.25722,17.25722,0,0,1,2.863,5.183c-.34013.33209-.70134.63846-1.05639.95263-.24912.22048-.487.455-.74309.66648-.41687.34407-.85508.6583-1.28938.9781-.22466.16544-.43883.346-.66788.50475-.57586.39915-1.17127.76711-1.773,1.12361-.10063.05965-.19539.12932-.29664.18768q-1.0622.61209-2.17162,1.13367c-.17151.0806-.35077.1432-.52377.22052-.57138.25539-1.14412.50822-1.73062.72657-.27642.1029-.56176.18022-.84121.27474-.49295.16669-.9833.34128-1.48478.48154-.32438.09071-.65641.15311-.984.23251-.46584.11306-.929.23675-1.40061.32669-.35086.06688-.7076.104-1.0612.15793-.39083.05961-.78093.12312-1.17412.17.00939.038.01377.07655.02345.1145.015.05893.04016.115.05585.17372.40479-.04964.80607-.11874,1.20864-.18114.33685-.05219.67683-.08773,1.01128-.15157.50638-.09669,1.0041-.2277,1.50393-.35082.29766-.07328.59965-.12913.89471-.21166.60408-.16895,1.19684-.37311,1.7885-.58.18234-.0638.36992-.11228.55092-.1796q1.152-.42835,2.26551-.95118c.212-.09948.41374-.21947.62338-.324.52439-.26135,1.0496-.52121,1.55806-.81338.27353-.15711.533-.338.80163-.50393.42988-.26564.86418-.52386,1.28053-.8115.28456-.19655.55284-.41644.83062-.6231.38288-.2849.7712-.56156,1.14055-.86524.27835-.22885.53874-.47976.80895-.71911.31914-.28273.64843-.55265.95567-.84973a17.33627,17.33627,0,0,1,.84333,5.35986c0,.2379-.005.47855-.0145.71641-.33641.26352-.686.508-1.0314.75849-.2432.17632-.47951.363-.727.53282-.38977.26737-.79258.51327-1.19246.76412-.22356.14031-.44052.29145-.6671.42651-.514.30637-1.04017.59006-1.5687.86918-.12114.064-.23786.1366-.35972.1991q-.98073.503-1.99116.94281c-.19038.08281-.38668.151-.57846.23049-.48592.20116-.97131.40406-1.4659.58294-.27575.09971-.558.18056-.83625.27329-.41818.13935-.834.28591-1.25751.40922-.29935.0871-.60427.15441-.90588.23343-.40893.10708-.8156.2223-1.22847.31431-.31514.07025-.6349.12-.9521.18138-.34316.0663-.68569.1353-1.03049.19385.00655.00929.01156.01993.01806.02918.05734.08195.12485.154.18359.23468.333-.05889.66388-.128.99558-.19332.29756-.0586.59719-.10694.89292-.17324.45188-.1014.89769-.22481,1.3448-.34412.26083-.06953.52459-.12808.78363-.20367.54009-.15764,1.07271-.33849,1.60433-.522.16057-.05546.32443-.10068.48409-.15845q1.03179-.37318,2.03882-.81079c.19173-.08325.37711-.18046.56734-.26713.476-.217.95225-.43334,1.41828-.67158.25452-.13005.50056-.27623.7519-.41254.39294-.21311.78815-.42169,1.173-.64992.26843-.15923.52757-.3341.79186-.5006.357-.22486.7166-.445,1.06563-.68285.268-.18273.52622-.38033.78931-.57062.28981-.20969.58592-.40975.86952-.62849a17.37115,17.37115,0,0,1-2.30244,7.60129c-.50267.27171-1.01662.52107-1.53027.77082-.19265.09365-.38.19814-.57413.28871q-1.07562.5018-2.17913.93885c-.17589.06963-.35654.12615-.5334.19327-.56281.21374-1.1262.42627-1.69788.61415-.27705.09109-.55949.1638-.83842.24873-.41061.12505-.82123.25038-1.23478.36473.1223.07107.24922.13328.3733.20093.41509-.118.82744-.24527,1.23931-.37422.19741-.06177.39737-.1144.59382-.1793q1.0908-.36,2.16031-.78141c.15922-.06284.31422-.13593.47272-.20083.55073-.22558,1.0991-.45665,1.63953-.70645.254-.11743.502-.24705.75363-.36978.35447-.173.71279-.33782,1.06212-.52117a17.32254,17.32254,0,0,1-4.18291,4.58948l.34441.08488a17.60033,17.60033,0,0,0,4.33722-4.94062l.00376-.002.02046-.0351.26208-.44875-.02576.014a17.65973,17.65973,0,0,0,2.13888-7.58618l.00216-.00168.003-.06659.01411-.31673-.00723.00568c.00443-.16279.01084-.32563.01084-.48755A17.6206,17.6206,0,0,0,712.1257,50.11732Z" style="fill:#004c91"/><path d="M678.6841,61.39528l-.01632-.00626.10756.29852.02259.06269.0026.001a17.72682,17.72682,0,0,0,4.2961,6.60817l-.028-.00554.38048.34942.03009.02764.0039.00077a17.62611,17.62611,0,0,0,22.01351,1.42271c-.17685.00636-.3537.01069-.53012.01184a17.344,17.344,0,0,1-20.9304-1.32944c.26911.04926.54134.08571.81189.12942.26526.043.5294.08918.79586.12688.34725.049.69638.08705,1.04536.127.28856.03313.57615.07107.86563.09808.288.02673.57721.04223.866.06284.97666.0703,1.95567.11753,2.93585.11753a40.92521,40.92521,0,0,0,5.01554-.31581c.12524-.01545.25153-.02537.37657-.04194.38187-.05089.76028-.1157,1.13955-.17728.13-.02109.26019-.04107.39044-.06077-.17209-.06832-.34181-.14189-.51149-.21556-.16419.0261-.32833.05248-.493.0768-.27209.04011-.5436.08262-.81689.11719-.34509.04353-.692.07738-1.03867.112-.264.02638-.52733.05614-.79206.07737-.35938.0288-.71987.0468-1.08032.06606-.25413.01358-.508.03145-.76253.04026-.37484.013-.75021.01425-1.12544.01695-.24132.00178-.4825.00861-.72383.00616-.39414-.00409-.788-.021-1.18177-.0364-.22269-.00877-.44571-.01151-.66816-.02388-.42419-.02355-.84689-.061-1.2696-.0977-.19153-.01666-.38379-.02677-.57494-.04613-.50624-.05127-1.00993-.11705-1.5127-.1873-.10636-.01487-.21378-.02441-.3199-.0401q-.90157-.1334-1.79288-.3083a17.4494,17.4494,0,0,1-4.45509-6.57317c.21436.07979.43165.14912.64722.22457.22967.08036.45838.1638.68944.2392.269.08792.54043.16684.81117.24807.23194.06953.463.14242.69614.20714.27537.07622.55294.14319.83.21262.23088.05783.46084.11975.69282.17286.2836.06485.56936.11979.8546.17752.22856.04632.45611.09707.68569.13877.29337.0533.58877.096.88368.1417.22351.03467.446.07434.67023.10468.31278.04227.62748.07323.9418.10708.20844.02249.41586.05056.625.06929.34835.0312.69859.05031,1.04863.07116.17734.01055.35361.02721.53138.0351q.79228.03533,1.58945.03578l.09119-.00034c-.08123-.09331-.14955-.19837-.229-.29357-.48611-.00192-.97121-.011-1.45453-.03274-.16973-.00765-.33815-.02412-.50759-.03423-.35852-.02133-.71742-.04054-1.07416-.07285-.20959-.01892-.41745-.0481-.62642-.07088-.31441-.03418-.62945-.06442-.94228-.10713-.22485-.03072-.44754-.072-.67148-.10708-.2952-.04627-.59142-.08807-.88508-.1419-.22736-.04165-.45226-.094-.67856-.14025-.28765-.05879-.5763-.11311-.86235-.17917-.22876-.05291-.455-.11623-.68266-.17386-.28119-.07112-.56349-.13771-.8429-.2159-.2327-.06515-.46271-.141-.69421-.21109-.27089-.08209-.543-.15947-.81208-.24826-.235-.07752-.46686-.16568-.70038-.24835-.25293-.0896-.50715-.17488-.75844-.2705a17.31076,17.31076,0,0,1-1.00107-5.82382q0-.11246.0014-.22457c.18773.09505.37883.1808.56811.27166.18725.08984.37325.183.56194.26872.22823.10371.45939.19909.68984.29674.18845.07988.37556.16342.56536.2393.239.09543.48091.18186.72205.27094.18441.06808.36737.14035.553.20473.25658.08883.5162.16808.7751.2497.17343.05469.34523.1143.51967.16568.29179.08609.58679.16163.88127.23862.1445.0377.28731.08075.43238.11624q.66014.1617,1.32863.29308c.07367.01444.14835.02451.22216.03837.37373.0704.74833.13728,1.12563.19327.15422.02288.31022.03819.465.0587.23487.03105.46979.06182.70553.089l-.00944-.02326c-.034-.09346-.05662-.18966-.08907-.2835q-.24144-.02838-.48226-.0597c-.20584-.02663-.4124-.05-.61713-.0809-.2458-.03712-.48939-.08262-.73365-.12591-.19948-.03534-.39983-.06692-.59825-.10626-.249-.04945-.49541-.1079-.7426-.1638-.19164-.04329-.38433-.08239-.5749-.12952-.25784-.0638-.51293-.13737-.76875-.2082-.17647-.04882-.35443-.09293-.52993-.14517-.29409-.08754-.585-.18542-.87612-.2823-.13453-.04478-.27065-.08431-.4045-.13106q-.63536-.22187-1.261-.47331c-.0765-.03071-.15138-.06615-.22779-.09764-.34022-.14016-.67938-.28312-1.01493-.43662-.14305-.06538-.28341-.13809-.42554-.20593-.25173-.12-.50379-.239-.75267-.36656a17.26043,17.26043,0,0,1,1.19251-5.80808c.3744.22486.763.41731,1.14715.62007.23347.12326.46021.26183.697.37681.52406.25457,1.0613.47615,1.60134.69017.13241.05253.25967.11816.39295.16814q1.01561.38119,2.06535.66657c.20252.05518.41173.08884.616.13867.4396.10708.8794.2134,1.32569.29824.00019-.03246-.00361-.06443-.00323-.09688.00077-.06827.00944-.13573.011-.20391-.3798-.07295-.755-.161-1.12991-.24994-.25423-.06038-.51337-.105-.76495-.17377-.55655-.1522-1.10184-.33758-1.64419-.53065-.13039-.04647-.26545-.07988-.395-.12861q-1.0026-.37745-1.9691-.84863c-.18653-.09081-.36435-.202-.54876-.298-.43382-.22587-.86755-.452-1.2889-.7062a17.31271,17.31271,0,0,1,2.988-4.80287c.3213.19173.65333.359.984.52906.13164.0677.25851.14633.3916.21056q.72953.35216,1.48636.635c.1053.03925.21479.0664.32082.10367.4017.14108.80514.27681,1.21687.38832.1912.05176.38779.0859.58106.13126.26429.062.528.12634.79489.17954.02119-.0598.03587-.12119.05778-.1808.01262-.03437.02836-.06716.04112-.1014-.31571-.0598-.62863-.12942-.93968-.20458-.14415-.03481-.29173-.05836-.43473-.09683q-.768-.20678-1.51275-.48284c-.10347-.03847-.20256-.08869-.30536-.12909-.38934-.15326-.77694-.31157-1.1551-.49343-.17579-.08455-.34451-.18561-.5177-.27623-.27088-.14175-.5423-.28215-.80674-.43869a17.39178,17.39178,0,0,1,9.16234-5.28426l.52478-.40455a17.6748,17.6748,0,0,0-9.94211,5.54393l-.00453-.00279-.08046.09042-.116.13054.00636.00385a17.59509,17.59509,0,0,0-2.98885,4.80749l-.00636-.00385-.06428.15875-.04641.1144.00491.003a17.53816,17.53816,0,0,0-1.22236,5.81757l-.01-.0052-.006.23188-.00241.0911.00121.00063c-.0026.12374-.00482.24758-.00482.37195A17.59941,17.59941,0,0,0,678.6841,61.39528Z" style="fill:#004c91"/><polygon points="679.632 79.872 678.446 79.872 678.446 86.104 681.361 86.104 681.361 84.973 679.632 84.973 679.632 79.872" style="fill:#004c91"/><path d="M684.30565,81.37565a2.28609,2.28609,0,0,0-1.70563.69719,2.40838,2.40838,0,0,0-.68025,1.75186,2.3303,2.3303,0,0,0,.68256,1.71411,2.38714,2.38714,0,0,0,1.76726.6841,2.72486,2.72486,0,0,0,1.2072-.24807,2.29561,2.29561,0,0,0,.87284-.76422l-.97454-.45761a1.542,1.542,0,0,1-1.11474.453,1.34836,1.34836,0,0,1-.89134-.29044,1.23593,1.23593,0,0,1-.43064-.78194h3.71633l.00463-.22033a2.5187,2.5187,0,0,0-.68256-1.84045A2.36929,2.36929,0,0,0,684.30565,81.37565ZM683.08921,83.223a1.52,1.52,0,0,1,.42448-.59782,1.38971,1.38971,0,0,1,.849-.27118,1.31147,1.31147,0,0,1,.78348.24191,1.15794,1.15794,0,0,1,.45145.62709Z" style="fill:#004c91"/><path d="M692.97248,80.05983a4.14272,4.14272,0,0,0-1.4722-.188h-1.25881v6.23242h1.18639V83.46493a5.33329,5.33329,0,0,0,1.25033-.09784,1.77115,1.77115,0,0,0,.926-.60167,1.69714,1.69714,0,0,0,.34128-1.0847,1.88164,1.88164,0,0,0-.26116-1.01075A1.49269,1.49269,0,0,0,692.97248,80.05983Zm-.275,1.97372a.54974.54974,0,0,1-.27348.21032,2.03911,2.03911,0,0,1-.61862.06394h-.37749V81.0282h.33512a1.59025,1.59025,0,0,1,.7542.12326.56814.56814,0,0,1,.27965.52695A.61716.61716,0,0,1,692.69745,82.03355Z" style="fill:#004c91"/><path d="M698.53543,80.20851a4.62524,4.62524,0,0,0-2.01918-.33666h-1.40518v6.23242h1.426a6.49074,6.49074,0,0,0,1.70178-.15254,2.3338,2.3338,0,0,0,.91291-.55082,2.75207,2.75207,0,0,0,.66022-1.00227,3.84318,3.84318,0,0,0-.18874-3.09541A2.62592,2.62592,0,0,0,698.53543,80.20851Zm.084,3.92434a1.41425,1.41425,0,0,1-.60013.62787,2.74911,2.74911,0,0,1-1.17946.18643h-.55159v-3.932h.40291a2.22465,2.22465,0,0,1,1.60625.49227,2.06664,2.06664,0,0,1,.55468,1.54A2.30574,2.30574,0,0,1,698.6194,84.13285Z" style="fill:#004c91"/><path d="M704.23782,82.94338v1.11475h1.80424a1.81824,1.81824,0,0,1-.68025.8089,1.9482,1.9482,0,0,1-1.03693.25885,2.195,2.195,0,0,1-1.59085-.62709,2.05385,2.05385,0,0,1-.64481-1.53,2.00255,2.00255,0,0,1,.62093-1.483,2.114,2.114,0,0,1,1.54154-.61014,2.47187,2.47187,0,0,1,1.84969.83894l.8351-.82585a3.48463,3.48463,0,0,0-1.16944-.87361,3.85221,3.85221,0,0,0-1.52151-.30045A3.22343,3.22343,0,0,0,701.7202,80.804a3.12784,3.12784,0,0,0-.81737,2.15246,3.35276,3.35276,0,0,0,.443,1.68175,3.0828,3.0828,0,0,0,1.20334,1.201,3.50748,3.50748,0,0,0,1.73028.42217,3.12543,3.12543,0,0,0,1.58083-.386,2.96119,2.96119,0,0,0,1.097-1.11859,3.04754,3.04754,0,0,0,.42371-1.55079l-.0077-.2627Z" style="fill:#004c91"/><path d="M781.92048,16.8924a31.19632,31.19632,0,0,0-2.59219-2.06254,25.311,25.311,0,0,0-2.80091-1.77161,29.14279,29.14279,0,0,0-2.99922-1.41467,33.1553,33.1553,0,0,0-3.1439-1.05623,42.459,42.459,0,0,0-6.50562-1.26206,64.23958,64.23958,0,0,0-6.61324-.441c-2.21062-.035-4.4212.04626-6.62611.20051-1.10024.10227-2.20376.17588-3.29972.32019l-1.64625.196-1.63955.24544A98.67572,98.67572,0,0,0,696.3449,31.60906a128.35635,128.35635,0,0,0-9.64274,9.10534c-1.53943,1.5849-3.04971,3.19563-4.555,4.80935-1.50077,1.61252-3.02286,3.22469-4.43006,4.947a31.46766,31.46766,0,0,0-6.30277,11.7103A29.41825,29.41825,0,0,0,670.38172,68.8a24.87712,24.87712,0,0,0,3.07237,12.9431,25.91629,25.91629,0,0,0,3.98765,5.40054c.77312.81024,1.63249,1.55508,2.4572,2.26937.83089.72587,1.6706,1.45738,2.56543,2.13673a15.1565,15.1565,0,0,0,2.894,1.78269,9.4507,9.4507,0,0,0,3.34246.86292,10.33666,10.33666,0,0,0,8.89049-4.46953,13.57786,13.57786,0,0,0,1.53-3.05181,33.51242,33.51242,0,0,0,1.49376-6.53046l.00173-.01256a7.13073,7.13073,0,0,0,.30825-.68572,15.44166,15.44166,0,0,0,.6987-3.32867c.53224-4.41367.67862-8.81817,1.1795-13.18771a41.42063,41.42063,0,0,1,1.14133-6.44918,25.4021,25.4021,0,0,1,1.47432-3.86776,38.31669,38.31669,0,0,0-.40685,9.6387,39.38568,39.38568,0,0,0,2.85744,11.68666.2905.2905,0,0,0,.52338.03012,31.985,31.985,0,0,0,2.09526-4.66414l.0087.03145a16.15223,16.15223,0,0,0,1.00371,2.53574,18.82422,18.82422,0,0,0,1.15534,1.93765c-.02361.19251-.04521.3854-.0599.57958a18.301,18.301,0,0,0,.44524,5.39485c.09925.44191.20979.88165.35352,1.31618a4.39741,4.39741,0,0,0,.263.64659.91423.91423,0,0,0,.24936.32025.30392.30392,0,0,0,.159.05271.37355.37355,0,0,0,.16708-.05574.59239.59239,0,0,0,.14582-.17643,4.15055,4.15055,0,0,0,.34118-1.36233,10.87931,10.87931,0,0,0,.06518-1.366,10.70362,10.70362,0,0,0-.3609-2.70977,8.53,8.53,0,0,0-1.21178-2.45513c-.0969-.14512-.19189-.29032-.28667-.43565a28.64627,28.64627,0,0,1,1.08117-4.37873,43.73608,43.73608,0,0,0,1.29715-5.24332,38.96688,38.96688,0,0,0,.57933-5.36887q.05051-1.34983.00478-2.70073c-.0062-.17915-.01978-.35793-.0287-.537a13.33086,13.33086,0,0,0-.05391-1.67995c-.00889-.05636-.01747-.11221-.03167-.16965a.34719.34719,0,0,0-.013-.04487.14485.14485,0,0,0-.01225-.02771c-.00083-.03108-.07768-.03278-.08549.00648a.35418.35418,0,0,0-.00642.0998l.02161.3384.04789.67217c.02565.39814.0425.79675.05506,1.19542a13.15633,13.15633,0,0,1-3.14035,7.95291,13.12955,13.12955,0,0,0,3.1518-7.2954c.00978.72858.00333,1.45734-.02932,2.18512a38.82176,38.82176,0,0,1-.61683,5.34513,43.55315,43.55315,0,0,1-1.33109,5.21385,30.73672,30.73672,0,0,0-1.08019,4.13984,16.81774,16.81774,0,0,1-.89606-1.56172,15.77724,15.77724,0,0,1-.96023-2.48133c-.0595-.195-.10521-.39392-.15869-.59073a31.24727,31.24727,0,0,0,1.20589-4.89717,35.60332,35.60332,0,0,0,.48063-5.41007,13.60336,13.60336,0,0,0-.05724-1.37365,3.925,3.925,0,0,0-.12728-.71158,1.39337,1.39337,0,0,0-.07484-.19588l-.06808-.11156a.47827.47827,0,0,0-.14523-.125.36831.36831,0,0,0-.24986-.03885.48918.48918,0,0,0-.16384.07311.8482.8482,0,0,0-.1752.16455,5.109,5.109,0,0,0-.64,1.2735c-.16193.42954-.29871.86447-.42225,1.30273a18.44708,18.44708,0,0,0-.05885,9.77486,31.38638,31.38638,0,0,1-2.04483,4.77549,38.68664,38.68664,0,0,1-2.5384-10.92865,37.60438,37.60438,0,0,1,.91258-11.79681.34049.34049,0,0,0-.62569-.25025,27.17034,27.17034,0,0,0-2.66465,6.13207,36.59194,36.59194,0,0,0-1.00812,5.12213c.223-4.77417.33935-9.55132.4315-14.3191.05713-2.201.10021-4.40836.27708-6.57846.03432-.55128.118-1.06108.18782-1.61427a11.83374,11.83374,0,0,0,.11894-1.72174,17.23727,17.23727,0,0,0-.39086-3.38762,10.37026,10.37026,0,0,0-.51687-1.66359,4.17257,4.17257,0,0,0-1.0471-1.54188c-.06392-.05505-.12518-.11221-.19236-.16393l-.22952-.1311-.23273-.12524-.25618-.071a1.56861,1.56861,0,0,0-.51394-.07981,2.15677,2.15677,0,0,0-.50134.02235c-.04485.00555-.08506.01876-.12882.0261A98.63729,98.63729,0,0,1,718.96614,17.9965a97.65223,97.65223,0,0,1,25.14809-7.76468l1.63066-.25646,1.63758-.20714c1.0904-.15184,2.18827-.23307,3.28333-.34309,2.19426-.16974,4.39494-.26689,6.5958-.24828A52.49569,52.49569,0,0,1,770.332,10.77529a32.95769,32.95769,0,0,1,3.13341,1.027,28.983,28.983,0,0,1,2.992,1.38445,25.16715,25.16715,0,0,1,2.80038,1.7426,31.07671,31.07671,0,0,1,2.598,2.036,33.63955,33.63955,0,0,1,7.90829,10.492A33.68818,33.68818,0,0,0,781.92048,16.8924ZM712.91239,74.19157a8.18016,8.18016,0,0,1,1.18533,2.3507,10.3827,10.3827,0,0,1,.36762,2.62021,10.57072,10.57072,0,0,1-.0533,1.327,3.99239,3.99239,0,0,1-.29164,1.24446.26833.26833,0,0,1-.0541.07737.73582.73582,0,0,1-.1485-.20551,4.13826,4.13826,0,0,1-.24813-.59982c-.14187-.41821-.2543-.85077-.35519-1.28517a18.04536,18.04536,0,0,1-.47912-5.31415c.00657-.09669.01876-.19255.02765-.2889ZM711.68049,56.234c-.00173-.00006-.00081.00115-.00244-.00432Zm-.9353,2.47378c.12354-.42611.26-.84864.41839-1.25934a4.88036,4.88036,0,0,1,.55829-1.11589.3994.3994,0,0,1,.01787.04962,3.52412,3.52412,0,0,1,.10462.61476,13.12775,13.12775,0,0,1,.049,1.32036,35.09845,35.09845,0,0,1-.49592,5.32424,30.63333,30.63333,0,0,1-.92844,3.96114A17.86066,17.86066,0,0,1,710.74519,58.70776ZM698.2606,86.35962a10.41358,10.41358,0,0,1-3.603,5.10614,9.14812,9.14812,0,0,1-5.90206,1.833,10.629,10.629,0,0,1-5.7547-2.45812c-.86329-.6534-1.68952-1.37026-2.52028-2.09418-.843-.72836-1.65338-1.42886-2.40572-2.21413a25.0439,25.0439,0,0,1-3.85816-5.21008A24.5371,24.5371,0,0,1,671.87493,75.28a26.11586,26.11586,0,0,1,.33522-12.883,30.66815,30.66815,0,0,1,6.10414-11.44061c1.37794-1.7009,2.87957-3.30546,4.377-4.92767,1.497-1.61822,2.99759-3.232,4.52523-4.8178q2.6727-2.78235,5.47389-5.432a17.78439,17.78439,0,0,0-1.50475,2.65382,19.724,19.724,0,0,0-1.09456,3.20933c-.54039,2.17562-.92446,4.35087-1.25107,6.55009-.639,4.40185-.8444,8.82123-1.16638,13.21691a95.54439,95.54439,0,0,0-.25875,13.28653,57.34636,57.34636,0,0,0,.85076,6.61867c.111.54993.23224,1.09969.39741,1.6532a6.51808,6.51808,0,0,0,.3059.83746,2.00481,2.00481,0,0,0,.64788.8586,1.03647,1.03647,0,0,0,.72444.165,1.30833,1.30833,0,0,0,.5873-.26476,3.13815,3.13815,0,0,0,.64658-.73358,10.56965,10.56965,0,0,0,.80894-1.5337c.892-2.07143,1.53663-4.185,2.20587-6.29184q.605-1.92637,1.1695-3.87619c.116.44864.23411.89672.35978,1.34217.634,2.12985,1.34594,4.22909,2.17667,6.29608l.15066.38891a2.567,2.567,0,0,0,.2181.428,1.32175,1.32175,0,0,0,.41231.42972.77856.77856,0,0,0,.40022.11709c.01716.00006.032-.00543.04888-.00648A29.07832,29.07832,0,0,1,698.2606,86.35962Zm-.54-40.15337a4.21288,4.21288,0,0,1,.11625.48916,25.47378,25.47378,0,0,1,.26393,3.23043,54.64016,54.64016,0,0,1-.14733,6.558,70.7579,70.7579,0,0,1-2.14356,11.9876,43.41617,43.41617,0,0,1-.8095-8.16283,35.05966,35.05966,0,0,1,.58107-6.50041A51.77749,51.77749,0,0,1,697.17943,47.46,7.26487,7.26487,0,0,1,697.72062,46.20625Zm1.80355-15.18958a1.36784,1.36784,0,0,1,1.144.31537,3.22138,3.22138,0,0,1,.7829,1.17707,9.4097,9.4097,0,0,1,.46382,1.49147,16.3126,16.3126,0,0,1,.37145,3.17406,10.86525,10.86525,0,0,1-.10623,1.57613c-.06771.54048-.15958,1.12142-.19226,1.67149-.1782,2.22759-.21684,4.43395-.27149,6.642-.15842,8.82265-.38525,17.63132-1.2498,26.39551-.2306,2.18723-.44565,4.38145-.76707,6.54967l-.01626.10684a.69072.69072,0,0,1-.191.1944.59556.59556,0,0,1-.13887-.16474,1.78869,1.78869,0,0,1-.15388-.3093l-.14634-.383c-.806-2.03032-1.5037-4.115-2.11949-6.21559q-.38469-1.38123-.70271-2.78124c.07514-.27344.158-.54474.23087-.8187a73.63872,73.63872,0,0,0,2.39461-13.08038A55.54812,55.54812,0,0,0,698.997,49.893a26.12516,26.12516,0,0,0-.28263-3.35892,3.7106,3.7106,0,0,0-.26433-.90875,1.14435,1.14435,0,0,0-.18807-.28207.662.662,0,0,0-.53242-.21949.602.602,0,0,0-.27548.08.70153.70153,0,0,0-.16915.11811,1.34984,1.34984,0,0,0-.20433.22652,6.90956,6.90956,0,0,0-.74,1.62113,52.5053,52.5053,0,0,0-1.62292,6.4781,35.93168,35.93168,0,0,0-.58671,6.662,45.7682,45.7682,0,0,0,1.18339,9.98764c-.50369,1.81722-1.04513,3.62247-1.615,5.42834-.66732,2.09439-1.31927,4.20764-2.17682,6.18892a9.71082,9.71082,0,0,1-.732,1.38957,2.28724,2.28724,0,0,1-.43586.50783.41031.41031,0,0,1-.15437.0807.08058.08058,0,0,1-.05993-.01824,1.22156,1.22156,0,0,1-.3097-.465,5.62734,5.62734,0,0,1-.25865-.7158c-.14967-.50363-.26639-1.032-.37265-1.56308a56.4333,56.4333,0,0,1-.826-6.501,94.651,94.651,0,0,1,.277-13.15331c.32791-4.4.54045-8.80688,1.17657-13.14049.723-4.30254,1.28276-8.78512,3.883-12.269a21.27449,21.27449,0,0,1,2.03655-2.50417,12.0789,12.0789,0,0,1,2.42819-2.02094A3.80673,3.80673,0,0,1,699.52417,31.01667Z" style="fill:#000065"/><g style="clip-path:url(#clip-path)"><g style="opacity:0.5"><path d="M153.66262,483.07834c33.81726-58.04,83.16809-123.55378,138.83974-120.46385,52.707,2.92539,73.3164,65.2466,111.41706,63.387,34.72887-1.695,79.6921-56.50417,125.80669-285.79447" style="fill:none;stroke-miterlimit:10;stroke-width:0.5px;stroke:url(#Dégradé_sans_nom_8)"/><path d="M145.83093,478.80283c34.493-58.39432,84.08559-123.58419,139.09306-119.95958,53.2247,3.50713,71.99774,70.51385,110.8332,69.57632,35.10239-.95143,81.83078-56.81231,133.30145-288.84726" style="fill:none;stroke-miterlimit:10;stroke-width:0.5px;stroke:url(#Dégradé_sans_nom_8-2)"/><path d="M137.99923,474.52732c35.16877-58.74861,85.0043-123.59944,139.3464-119.45532C331.09,359.17055,348.0249,430.96128,387.595,430.83765c35.47635-.11085,83.96947-57.12045,140.79622-291.90006" style="fill:none;stroke-miterlimit:10;stroke-width:0.5px;stroke:url(#Dégradé_sans_nom_8-3)"/><path d="M130.16753,470.2518c35.84453-59.10288,85.92388-123.59994,139.59973-118.951,54.2656,4.7,69.35729,81.20043,109.66546,81.955,35.84716.671,86.10814-57.42858,148.291-294.95284" style="fill:none;stroke-miterlimit:10;stroke-width:0.5px;stroke:url(#Dégradé_sans_nom_8-4)"/><path d="M122.33584,465.97629c36.52028-59.45717,86.84395-123.58612,139.85306-118.44677,54.788,5.31182,68.03376,86.5049,109.08158,88.14427,36.21668,1.44643,88.24683-57.73672,155.78575-298.00563" style="fill:none;stroke-miterlimit:10;stroke-width:0.5px;stroke:url(#Dégradé_sans_nom_8-5)"/><path d="M114.50414,461.70078c37.196-59.81145,87.76421-123.55839,140.10639-117.9425,55.31125,5.93444,66.70919,91.80284,108.49772,94.33359,36.58532,2.21564,90.38551-58.04486,163.28051-301.05843" style="fill:none;stroke-miterlimit:10;stroke-width:0.5px;stroke:url(#Dégradé_sans_nom_8-6)"/><path d="M106.67245,457.42527C144.54423,397.25954,195.35674,333.9081,247.03217,339.987c55.8348,6.56823,65.384,97.09442,107.91384,100.52291,36.9535,2.979,92.5242-58.353,170.77528-304.11122" style="fill:none;stroke-miterlimit:10;stroke-width:0.5px;stroke:url(#Dégradé_sans_nom_8-7)"/><path d="M98.84075,453.14976c38.54754-60.52,89.60391-123.46287,140.613-116.934,56.35826,7.21356,64.05869,102.37982,107.33,106.71222,37.32154,3.73671,94.66288-58.66112,178.27-307.164" style="fill:none;stroke-miterlimit:10;stroke-width:0.5px;stroke:url(#Dégradé_sans_nom_8-8)"/><path d="M91.00905,448.87425C130.23235,388,181.53178,325.47833,231.87544,332.44455c56.88117,7.87083,62.73353,107.65926,106.7461,112.90154,37.68977,4.48917,96.80157-58.96927,185.76481-310.2168" style="fill:none;stroke-miterlimit:10;stroke-width:0.5px;stroke:url(#Dégradé_sans_nom_8-9)"/><path d="M83.17736,444.59874c39.89905-61.22859,91.44045-123.31673,141.11971-115.92543,57.40311,8.54044,61.40887,112.933,106.16223,119.09085,38.05843,5.23668,98.94026-59.2774,193.25958-313.26959" style="fill:none;stroke-miterlimit:10;stroke-width:0.5px;stroke:url(#Dégradé_sans_nom_8-10)"/><path d="M75.34566,440.32323c40.5748-61.58287,92.35679-123.22571,141.373-115.42117,57.92357,9.2228,60.085,118.20121,105.57836,125.28017,38.42775,5.97952,101.07893-59.58553,200.75434-316.32238" style="fill:none;stroke-miterlimit:10;stroke-width:0.5px;stroke:url(#Dégradé_sans_nom_8-11)"/><path d="M67.514,436.04772c41.25055-61.93716,93.27143-123.12328,141.62637-114.9169C267.58245,331.04911,267.9025,444.595,314.13483,452.6003c38.79794,6.718,103.21762-59.89367,208.24911-319.37517" style="fill:none;stroke-miterlimit:10;stroke-width:0.5px;stroke:url(#Dégradé_sans_nom_8-12)"/><path d="M59.68227,431.77221c41.92631-62.29144,94.18412-123.00985,141.87971-114.41263,58.95822,10.62733,57.44057,128.72217,104.41062,137.6588,39.16916,7.45241,105.3563-60.20181,215.74388-322.428" style="fill:none;stroke-miterlimit:10;stroke-width:0.5px;stroke:url(#Dégradé_sans_nom_8-13)"/><path d="M51.85057,427.4967c42.60207-62.64572,95.09456-122.88583,142.133-113.90836C253.455,324.93868,250.104,447.56374,297.81036,457.43645c39.54156,8.183,107.495-60.50994,223.23865-325.48075" style="fill:none;stroke-miterlimit:10;stroke-width:0.5px;stroke:url(#Dégradé_sans_nom_8-14)"/><path d="M44.01888,423.22119c43.27782-63,96.00248-122.75163,142.38637-113.4041,59.98118,12.08774,54.80185,139.22414,103.24288,150.03743,39.91523,8.91012,109.63367-60.81808,230.73341-328.53354" style="fill:none;stroke-miterlimit:10;stroke-width:0.5px;stroke:url(#Dégradé_sans_nom_8-15)"/><path d="M36.18718,418.94567c43.95357-63.35428,96.90761-122.60765,142.6397-112.89982,60.487,12.83993,53.485,144.46861,102.659,156.22675,40.2903,9.63393,111.77236-61.12622,238.22818-331.58634" style="fill:none;stroke-miterlimit:10;stroke-width:0.5px;stroke:url(#Dégradé_sans_nom_8-16)"/><path d="M28.35549,414.67016c44.62932-63.70857,97.80968-122.4543,142.893-112.39555,60.98825,13.60736,52.17,149.70906,102.07514,162.41606,40.66682,10.35471,113.911-61.43435,245.72294-334.63913" style="fill:none;stroke-miterlimit:10;stroke-width:0.5px;stroke:url(#Dégradé_sans_nom_8-17)"/><path d="M20.52379,410.39465c45.30508-64.06285,98.70845-122.292,143.14636-111.89128C225.15463,312.8938,214.527,453.44909,265.16142,467.10874c41.04487,11.07268,116.04972-61.74248,253.21771-337.69192" style="fill:none;stroke-miterlimit:10;stroke-width:0.5px;stroke:url(#Dégradé_sans_nom_8-18)"/><path d="M12.6921,406.11914c45.98083-64.41713,99.60363-122.12108,143.39969-111.387,61.97505,15.18958,49.5457,160.17882,100.9074,174.7947,41.42446,11.78806,118.1884-62.05063,260.71247-340.74472" style="fill:none;stroke-miterlimit:10;stroke-width:0.5px;stroke:url(#Dégradé_sans_nom_8-19)"/><path d="M4.8604,401.84363c46.65659-64.77142,100.495-121.942,143.653-110.88275,62.45939,16.00523,48.26185,165.32431,100.32353,180.984,41.82583,12.4334,120.32709-62.35876,268.20724-343.7975" style="fill:none;stroke-miterlimit:10;stroke-width:0.5px;stroke:url(#Dégradé_sans_nom_8-20)"/><path d="M-2.9713,397.56812C44.361,332.44242,98.411,275.813,140.93506,287.18964c62.93688,16.83779,46.94319,170.59156,99.73966,187.17332,42.19935,13.177,122.46577-62.66689,275.702-346.85029" style="fill:none;stroke-miterlimit:10;stroke-width:0.5px;stroke:url(#Dégradé_sans_nom_8-21)"/><path d="M-10.803,393.29261C37.2051,327.81262,91.4622,271.7317,133.35669,283.4184c63.40691,17.6877,45.62453,175.8588,99.15579,193.36263,42.57288,13.92061,124.60446-62.975,283.19677-349.90308" style="fill:none;stroke-miterlimit:10;stroke-width:0.5px;stroke:url(#Dégradé_sans_nom_8-22)"/></g></g><g style="clip-path:url(#clip-path-2)"><g style="opacity:0.5"><path d="M838.87512,393.29261c48.00809-65.48,102.26519-121.56091,144.15969-109.87421,63.4069,17.6877,45.62452,175.8588,99.15579,193.36263,42.57287,13.92061,124.60445-62.975,283.19676-349.90308" style="fill:none;stroke-miterlimit:10;stroke-width:0.5px;stroke:url(#Dégradé_sans_nom_8-23)"/></g></g></svg>