<svg xmlns="http://www.w3.org/2000/svg" viewBox="0 0 841.9 185.7"><defs><style>.a{fill:#dadada;}.b,.c{fill:#3c3c3b;}.b{fill-rule:evenodd;}.c{font-size:14.74px;font-family:Montserrat-BlackItalic, Montserrat;font-weight:800;font-style:italic;}.d{letter-spacing:-0.02em;}.e{letter-spacing:-0.01em;}.f{letter-spacing:0em;}.g{letter-spacing:-0.01em;}.h{letter-spacing:0em;}.i{letter-spacing:0em;}.j{letter-spacing:-0.01em;}.k{fill:#004c91;}.l{fill:#000065;}</style></defs><rect class="a" x="34.2" y="98.5" width="355" height="53.62" rx="3.3"/><polygon class="b" points="70.1 124.2 68.2 125.1 69.6 128.3 71.6 127.4 71.2 126.7 70.2 127.2 69.9 126.6 70.9 126.2 70.6 125.5 69.6 125.9 69.3 125.4 70.4 124.9 70.1 124.2"/><path class="b" d="M66.6,126.4H67l.4.2.7-.6a2,2,0,0,0-.8-.4,1.8,1.8,0,0,0-1,.1c-.2,0-.4.2-.6.3s-.4.3-.5.6a1.4,1.4,0,0,0-.2.6,2.2,2.2,0,0,0,.1.8l.3.6.6.5h.7c.2.1.4,0,.7-.1a1.4,1.4,0,0,0,1.1-.8,1.9,1.9,0,0,0,.1-1.5h-.1l-1.8.6.3.7.9-.3a.8.8,0,0,1-.2.5,1,1,0,0,1-.5.4h-.7a1.3,1.3,0,0,1-.5-.7,1.1,1.1,0,0,1,0-.8A1,1,0,0,1,66.6,126.4Z"/><path class="b" d="M72.1,123.8h.8l.5-.8a1.5,1.5,0,0,0-.9-.2l-.9.4-.5.5a.9.9,0,0,0-.3.6.8.8,0,0,0,0,.7.9.9,0,0,0,.3.7l.5.5a.9.9,0,0,0,.6.3h.7a1.1,1.1,0,0,0,.7-.3,1.9,1.9,0,0,0,.9-1.1,2.8,2.8,0,0,0-.4-1.5H74l-1.6,1,.4.6.8-.5a.5.5,0,0,1,0,.5.7.7,0,0,1-.4.5.6.6,0,0,1-.7.1c-.2,0-.4-.2-.6-.5a.8.8,0,0,1-.2-.8A.7.7,0,0,1,72.1,123.8Z"/><path class="b" d="M94.8,123.2l.5-.2a.7.7,0,0,0,.2-.6.7.7,0,0,0-.1-.5l-.5-.2a.5.5,0,0,0-.5.3c-.2.1-.2.3-.2.6s0,.3.1.4Z"/><path class="b" d="M98.8,123.2l.5-.2a.7.7,0,0,0,.2-.6.7.7,0,0,0-.1-.5l-.5-.2a.5.5,0,0,0-.5.3c-.2.1-.2.3-.2.6s0,.3.1.4S98.6,123.2,98.8,123.2Z"/><path class="b" d="M90.9,123.2l.5-.2a1.4,1.4,0,0,0,.2-.7.6.6,0,0,0-.1-.4l-.5-.2a.5.5,0,0,0-.5.3,1.4,1.4,0,0,0-.2.6.7.7,0,0,0,.1.5Z"/><path class="b" d="M82.9,125.4h19.9a1.7,1.7,0,0,0,1.7-1.7v-3.9a1.6,1.6,0,0,0-1.7-1.7H82.9a1.6,1.6,0,0,0-1.7,1.7v3.9A1.7,1.7,0,0,0,82.9,125.4Zm18.9-6h1.1l-.8,4.6h-1Zm-4.3,2a1.7,1.7,0,0,1,1.2-.5h.5l.5.4V121h1l-.4,3h-1v-.4l-.5.4h-.5a1,1,0,0,1-.9-.4,1.7,1.7,0,0,1-.3-1A1.8,1.8,0,0,1,97.5,121.4Zm-3.8-2h1l-.2,1.5v.2a.4.4,0,0,1-.1.3l.6-.4h.5a1.1,1.1,0,0,1,.9.4,1.5,1.5,0,0,1,.3,1,2.8,2.8,0,0,1-.4,1.3,1.7,1.7,0,0,1-1.2.5h-.5l-.5-.4v.4H93Zm-3.9,2a1.3,1.3,0,0,1,1.2-.5,1.6,1.6,0,0,1,1.2.4,1.4,1.4,0,0,1,.4,1.1,1.3,1.3,0,0,1-.5,1.2,1.7,1.7,0,0,1-1.3.5,1.5,1.5,0,0,1-1.1-.4,1.4,1.4,0,0,1-.4-1.1A1.3,1.3,0,0,1,89.8,121.4Zm-1.7-2h1.1l-.8,4.6h-1ZM82.8,121a3.5,3.5,0,0,1,.5-.8l.8-.5,1-.2a2,2,0,0,1,1.1.3,2,2,0,0,1,.8.8l-.9.6-.4-.5h-.6a1.2,1.2,0,0,0-.9.4,1.7,1.7,0,0,0-.3,1,1.9,1.9,0,0,0,.2.8,1.1,1.1,0,0,0,.8.3h.8v-.3h-1l.2-.9h2.2a3,3,0,0,1-.7,1.8,1.9,1.9,0,0,1-1.6.7,2.4,2.4,0,0,1-1.7-.6,1.8,1.8,0,0,1-.6-1.5A4.4,4.4,0,0,1,82.8,121Z"/><path class="b" d="M57.2,120.1a16.1,16.1,0,0,0-1,5.3,14.9,14.9,0,0,0,1,5.5,9.5,9.5,0,0,0,.9,2.1,14.9,14.9,0,0,0,2,2.9,17.1,17.1,0,0,0,6.2,4.4,16.1,16.1,0,0,0,5.3,1l-2.7-1.2a15.1,15.1,0,0,1-4.5-4.2l-1-1.5a19.9,19.9,0,0,1-1.3-3.4,16.8,16.8,0,0,1-.3-5.5,14.6,14.6,0,0,1,2.3-6.1,14.4,14.4,0,0,1,5.3-4.8l1.1-.6h.2l1.3.9.6.4h0a6.5,6.5,0,0,1,1-1.9,41,41,0,0,0,3.7-4.8c-4.6-.9-11.6,1.2-15.6,3.8h1.7l-.7.5A16.3,16.3,0,0,0,57.2,120.1Z"/><path class="b" d="M70.7,115.6l-.6.5c0,.1-.1.1-.1.2l-.9.6-.2.2-.6.4-.4.3-.5.3-.4.2-.6.3-.4.2-.6.2H65a.1.1,0,0,1-.1.1l-.3.4.4-.2h.4l.7-.3h.3l1-.5.3-.2.7-.4.3-.2.6-.4.3-.3.5-.4.4-.3c.1-.2.3-.3.4-.4s.3-.3.4-.4a.2.2,0,0,1,.2-.2l-.2-.2-.3.3Z"/><path class="b" d="M78.7,123.4h-.1v-.2h0a14.2,14.2,0,0,0-2.7-4.8h-.2a16.6,16.6,0,0,0-2.7-2.6.2.2,0,0,1-.2.2,17.3,17.3,0,0,1,2.8,2.6l-.8.8-.6.6-.9.8-.5.4-1.4,1c-.1.1-.2.1-.2.2l-1.7.9-.5.3-1.2.5-.7.3-1.2.4-.8.2-1,.3h-.9l-.8.2c-.1,0-.1.1-.1.2h1l.8-.2,1.2-.3H66l1.5-.6h.3l1.8-.8.6-.4,1.1-.6.7-.5.9-.6.7-.6.8-.7.6-.7a2.3,2.3,0,0,0,.7-.7,14.2,14.2,0,0,1,2.7,4.8l-1,.8c-.2.2-.4.5-.7.6l-1.2.9-.6.5-1.6,1-.3.2-2,1-.4.2-1.6.7-.8.3-1.4.4-.9.2-1.2.3-1,.2H62.6v.2l1.1-.2h.9l1.4-.3.8-.2,1.7-.6h.5l2-.9.6-.3,1.4-.7.8-.5,1.1-.8.8-.5,1-.8.8-.7.9-.8a16.8,16.8,0,0,1,.7,5v.6l-.9.7-.7.5-1.1.7-.6.4-1.4.8-.4.2-1.8.8-.5.2-1.4.6-.7.2-1.2.4-.8.2-1.1.3-.9.2h-.9c0,.1.1.1.1.2l.9-.2h.9l1.2-.4h.7l1.5-.5.4-.2,1.9-.7.5-.3,1.3-.6.7-.4,1.1-.5.7-.5,1-.6.7-.6.8-.5a16.8,16.8,0,0,1-2.1,6.9l-1.4.7-.5.3-2,.9h-.5l-1.6.6-.7.2-1.2.4.4.2,1.1-.4.5-.2,2-.7.5-.2,1.5-.6.7-.3.9-.5a16.9,16.9,0,0,1-3.8,4.2h.3a16,16,0,0,0,4-4.6h0l.2-.4h0a15.3,15.3,0,0,0,2-6.9h0V129h0v-.4A18.2,18.2,0,0,0,78.7,123.4Z"/><path class="b" d="M63.3,144.5a16,16,0,0,1-10.4-3.9h6.7a34.4,34.4,0,0,0,4.6-.3h.4l1-.2H66l-.5-.2H54.2l-1.7-.2a15.4,15.4,0,0,1-4-6.1l.6.2.6.3.7.2.7.2.7.2h.7l.7.2h6.5l-.2-.2H54.7l-.8-.2h-.7l-.7-.2h-.7l-.7-.2-.7-.2-.7-.2-.7-.3-.7-.2a16,16,0,0,1-.9-5.3v-.2l.5.2.6.2.6.3.5.2.7.3.5.2.7.2.5.2.8.2h.4l1.2.2h.2l1,.2h1.1v-.3H54.4l-.7-.2h-.5l-.7-.2H52l-.8-.3h-.4l-1.2-.4h-.2l-.9-.4-.4-.2-.7-.3a19.2,19.2,0,0,1,1.1-5.4l1.1.6.6.3,1.5.7H52l1.9.6.6.2,1.2.2h0v-.2l-1-.3H54l-1.5-.5h-.4l-1.8-.8-.5-.3-1.2-.6a15.7,15.7,0,0,1,2.8-4.4l.9.5.3.2,1.4.5h.3l1.1.4h.5l.8.2v-.2h0l-.8-.2h-.4l-1.4-.4h-.3l-1-.5-.5-.2-.8-.4a16.1,16.1,0,0,1,8.4-4.9l.5-.3a16.2,16.2,0,0,0-9.1,5h-.2a20,20,0,0,0-2.7,4.4h0v.2h0a14,14,0,0,0-1.1,5.3h0v.2h0v.4a18.8,18.8,0,0,0,.8,5.2h0v.2h0a16.6,16.6,0,0,0,4,6.1H52l.4.3h0a16.3,16.3,0,0,0,10.9,4.2,16,16,0,0,0,9.3-2.9h-.5A16,16,0,0,1,63.3,144.5Z"/><polygon class="b" points="85.4 128.1 85.5 127.2 83.2 127.2 82.5 131.3 84.9 131.3 85 130.4 83.7 130.4 83.9 129.7 85 129.7 85.2 128.8 84 128.8 84.1 128.1 85.4 128.1"/><path class="b" d="M87.7,129.8l-.2,1.5h1l.2-1.5h0a.8.8,0,0,0,.1-.4.9.9,0,0,0-.3-.7c-.1-.2-.4-.2-.7-.2h-.5c-.1.1-.3.2-.4.4v-.5H86l-.5,2.9h1l.2-1.3c.1-.3.1-.5.2-.6s.3-.2.5-.2.2,0,.2.1.1.1.1.3h0Z"/><path class="b" d="M91.1,131.7l-.5.2h-.3l-.2-.3h-1a1.2,1.2,0,0,0,.4.8,1.6,1.6,0,0,0,1,.2h.9l.6-.4a5,5,0,0,0,.3-1.2v-.2l.4-2.2h-1v.4l-.4-.3h-.6a1.3,1.3,0,0,0-1,.4,2.1,2.1,0,0,0-.5,1.2,1.8,1.8,0,0,0,.4,1,1,1,0,0,0,.8.3h.5l.4-.3v.2A1.1,1.1,0,0,1,91.1,131.7Zm-.3-1.1-.4-.2c-.1-.1-.1-.2-.1-.4s0-.5.2-.6.3-.2.5-.2h.4a.7.7,0,0,1,0,1Z"/><polygon class="b" points="93 131.3 94 131.3 94.4 128.4 93.4 128.4 93 131.3"/><path class="b" d="M94.4,127.2h-.7a.8.8,0,0,0-.2.4.5.5,0,0,0,.2.4h.7a.5.5,0,0,0,0-.8Z"/><path class="b" d="M96.9,129.8l-.2,1.5h1l.2-1.5h0a.8.8,0,0,0,.1-.4.9.9,0,0,0-.3-.7c-.1-.2-.4-.2-.7-.2h-.5c-.1.1-.3.2-.4.4v-.5h-1l-.5,2.9h1l.2-1.3c.1-.3.1-.5.2-.6s.3-.2.5-.2.2,0,.2.1.1.1.1.3h0Z"/><path class="b" d="M101.5,130.1h0v-.2a1.2,1.2,0,0,0-.4-1,1.4,1.4,0,0,0-1.1-.4,1.5,1.5,0,0,0-1.1.4,1.7,1.7,0,0,0-.5,1.2,1.2,1.2,0,0,0,.4,1,1.2,1.2,0,0,0,1.1.4h.7a1,1,0,0,0,.5-.4l-.5-.5-.4.2h-.7a.5.5,0,0,1-.2-.4h2.2Zm-1.8-.9.3-.2.4.2.2.3H99.4Z"/><path class="b" d="M103.5,128.4a1.6,1.6,0,0,0-1.2.4,1.7,1.7,0,0,0-.5,1.2,1.5,1.5,0,0,0,.4,1,1.4,1.4,0,0,0,1.1.4h.7l.6-.4-.6-.5-.3.2h-.8c-.1-.1-.1-.2-.1-.4h2.1v-.2a1.4,1.4,0,0,0-1.4-1.4Zm-.6,1.1.2-.3.4-.2.3.2.2.3Z"/><path class="b" d="M107.4,128.4h-.5l-.3.4v-.5h-.9l-.5,2.9h1l.2-1.3.2-.6h.8l.2-.9h-.2Z"/><path class="b" d="M108.7,127.1h-.4a.6.6,0,0,0-.1.4c0,.2,0,.3.1.4h.8a.5.5,0,0,0,0-.8Z"/><polygon class="b" points="107.7 131.3 108.7 131.3 109.1 128.4 108.1 128.4 107.7 131.3"/><path class="b" d="M111.7,128.4h-.5l-.5.4v-.5h-.9l-.5,2.9h1l.2-1.3a.8.8,0,0,1,.2-.6c.1-.2.2-.2.4-.2h.3c.1,0,.1.1.1.3h0l-.3,1.5h1l.3-1.5h0v-.4a.7.7,0,0,0-.9-.9Z"/><path class="b" d="M115.6,128.4v.4l-.4-.3h-.5a1.5,1.5,0,0,0-1.1.4,2.8,2.8,0,0,0-.4,1.2,1.7,1.7,0,0,0,.3,1,1.1,1.1,0,0,0,.8.3h.6l.4-.3v.2a1.1,1.1,0,0,1-.3.6l-.5.2h-.3a.4.4,0,0,1-.1-.3h-1.1a1.4,1.4,0,0,0,.5.8,1.5,1.5,0,0,0,1,.2h.8a.9.9,0,0,0,.6-.4,2.4,2.4,0,0,0,.4-1.2v-.2l.3-2.2Zm-.4,1.9a.5.5,0,0,1-.5.3l-.4-.2a.5.5,0,0,1-.2-.4.8.8,0,0,1,.2-.6c.1-.2.3-.2.5-.2h.5a.7.7,0,0,1,.1.5A.8.8,0,0,1,115.2,130.3Z"/><path class="b" d="M99.9,137.3a.5.5,0,0,0-.5.3.7.7,0,0,0-.2.6c0,.2,0,.4.2.5a.5.5,0,0,0,.4.2.7.7,0,0,0,.6-.3,1.1,1.1,0,0,0,.2-.6.8.8,0,0,0-.2-.5Z"/><path class="b" d="M92.1,137.3a.7.7,0,0,0-.6.3,1.1,1.1,0,0,0-.2.6.7.7,0,0,0,.1.5l.5.2a.5.5,0,0,0,.5-.3.9.9,0,0,0,.3-.7.5.5,0,0,0-.2-.4Z"/><path class="b" d="M102.7,134.1H82.6a1.6,1.6,0,0,0-1.4,1.8v3.9a1.6,1.6,0,0,0,1.4,1.7h20.1a1.6,1.6,0,0,0,1.4-1.7v-3.9A1.6,1.6,0,0,0,102.7,134.1Zm-16,5a2.4,2.4,0,0,1-1.7.6,2.3,2.3,0,0,1-1.7-.5,2,2,0,0,1-.7-1.6,3,3,0,0,1,.2-1,2.8,2.8,0,0,1,.6-.9l.8-.5,1-.2a2.4,2.4,0,0,1,1.2.3,1.5,1.5,0,0,1,.8.8l-1,.6-.4-.4-.6-.2a1.1,1.1,0,0,0-.9.4,1.4,1.4,0,0,0-.4,1.1,1,1,0,0,0,1.1,1.1h.3l.3-.2.2-.2c.1,0,.1-.1.2-.2H84.9l.2-.9h2.3A3.6,3.6,0,0,1,86.7,139.1Zm3.3-1.7h-.4c-.2,0-.4,0-.5.2a.8.8,0,0,0-.2.6l-.3,1.4h-1l.4-3.1h1.1v.5l.4-.4.6-.2h.2Zm3.2,1.8a1.8,1.8,0,0,1-1.4.6,1.4,1.4,0,0,1-1.1-.5,1.3,1.3,0,0,1-.5-1.1,1.9,1.9,0,0,1,.5-1.3,2.2,2.2,0,0,1,1.4-.5,1.4,1.4,0,0,1,1.6,1.6A1.7,1.7,0,0,1,93.2,139.2Zm4.2-1.3h0a2.7,2.7,0,0,1-.5,1.3.5.5,0,0,1-.5.3h-.7a1.6,1.6,0,0,1-1.1-.3.9.9,0,0,1-.4-.8v-.3a1.8,1.8,0,0,1,.1-.6l.2-1.2h1.1l-.2,1.3a.8.8,0,0,0-.1.4v.2c0,.2,0,.3.1.4h.3c.3,0,.5-.4.6-1.1a.1.1,0,0,0,.1-.1l.2-1.2h1Zm3.9,1.3a1.3,1.3,0,0,1-1.2.5h-.6l-.4-.4a.4.4,0,0,1-.1.3v.2l-.2,1.3H97.7l.7-4.5h1.1v.4l.5-.4h.6a1,1,0,0,1,.9.4,1.8,1.8,0,0,1,.3,1.1A2,2,0,0,1,101.3,139.2Z"/><text class="c" transform="translate(121.2 130.8)"><tspan class="d">+</tspan><tspan x="8.8" y="0">2</tspan><tspan class="e" x="17.8" y="0">3</tspan><tspan class="f" x="26.8" y="0">7 6 </tspan><tspan class="g" x="54.9" y="0">9</tspan><tspan class="h" x="64.5" y="0">3 14 15 </tspan><tspan class="i" x="118.7" y="0">5</tspan><tspan x="127.8" y="0">5 · 6 </tspan><tspan class="j" x="165" y="0">7</tspan><tspan x="174.3" y="0">8 12 15 98</tspan></text><path class="k" d="M695.9,33.6a57.4,57.4,0,1,0,57.3,57.3A57.4,57.4,0,0,0,695.9,33.6Zm0,113.9a56.6,56.6,0,1,1,56.5-56.6A56.7,56.7,0,0,1,695.9,147.5Z"/><path class="k" d="M695.9,36.9a54,54,0,1,0,53.9,54A54.1,54.1,0,0,0,695.9,36.9Zm0,106.8a52.8,52.8,0,1,1,52.7-52.8A52.8,52.8,0,0,1,695.9,143.7Z"/><path class="k" d="M732.9,90.9a37.1,37.1,0,1,0-37,37.1A37.1,37.1,0,0,0,732.9,90.9Zm-37,36.3a36.3,36.3,0,1,1,36.3-36.3A36.3,36.3,0,0,1,695.9,127.2Z"/><path class="k" d="M652.4,91.1a4.1,4.1,0,0,0,2.3-3.6,3.3,3.3,0,0,0-.3-2,3.7,3.7,0,0,0-1.3-1.5,3.4,3.4,0,0,0-1.9-.7h-.4l-.3,3.9h1.4l.2-2.2a1.8,1.8,0,0,1,1,.9,2.7,2.7,0,0,1,.2,1.3,3.4,3.4,0,0,1-.9,2,3.1,3.1,0,0,1-2,.7,2.7,2.7,0,0,1-1.9-1,3.2,3.2,0,0,1-.6-2,3,3,0,0,1,1.3-2.2l-1-1.2A3.7,3.7,0,0,0,647,85a4.1,4.1,0,0,0-.5,1.9,4,4,0,0,0,1.1,3.3,3.8,3.8,0,0,0,2.6,1.3A5.4,5.4,0,0,0,652.4,91.1Z"/><rect class="k" x="650.7" y="77.2" width="1.5" height="8.11" transform="translate(433.7 700.5) rotate(-77.7)"/><path class="k" d="M652.8,79.6a2.9,2.9,0,0,0,2.4-.2,2.6,2.6,0,0,0,1.5-1.7,3.3,3.3,0,0,0-.6-3.1,2.2,2.2,0,0,0-1.3-.8,2.9,2.9,0,0,0-1.6-.1,2.7,2.7,0,0,0-1.4.7,3,3,0,0,0-.9,1.3,2.8,2.8,0,0,0,.1,2.2A3.3,3.3,0,0,0,652.8,79.6Zm-.6-3.5a1.8,1.8,0,0,1,.8-.9,1.5,1.5,0,0,1,1.3,0,1.4,1.4,0,0,1,1,.8,1.1,1.1,0,0,1,.1,1.2,1.4,1.4,0,0,1-.8,1,1.9,1.9,0,0,1-1.3,0,1.6,1.6,0,0,1-1-.8A1.9,1.9,0,0,1,652.2,76.1Z"/><path class="k" d="M658.6,72.6l-.5-.3a1.9,1.9,0,0,0,.9-.5,1.3,1.3,0,0,0,.6-.7,2.8,2.8,0,0,0,.2-2.2,3.3,3.3,0,0,0-1.6-1.7,2.7,2.7,0,0,0-2.3-.4,2.5,2.5,0,0,0-1.7,1.3l-.3,1a1.8,1.8,0,0,0,.2,1l-2.6-1.3-.7,1.2,7.1,3.9Zm-1.3-1.1a2.1,2.1,0,0,1-1.3-.2,2.8,2.8,0,0,1-.9-1,2,2,0,0,1,.2-1.3,1.3,1.3,0,0,1,.9-.7,1.5,1.5,0,0,1,1.3.1,1.7,1.7,0,0,1,.9,1,1.5,1.5,0,0,1-.1,1.3A1.6,1.6,0,0,1,657.3,71.5Z"/><path class="k" d="M658.9,66.2a2.6,2.6,0,0,0,2.2.7,2.7,2.7,0,0,0,1.9-1,3.6,3.6,0,0,0,.4-.9,3.1,3.1,0,0,0,.1-1l.5.4.9-1.2-4.6-3.6-.9,1.2.5.4a1.7,1.7,0,0,0-1,.3,2.7,2.7,0,0,0-.8.7,2.4,2.4,0,0,0-.5,2A2.7,2.7,0,0,0,658.9,66.2Zm.5-3.4a1.4,1.4,0,0,1,1-.7,2,2,0,0,1,1.3.4,2.1,2.1,0,0,1,.7,1.2,1.4,1.4,0,0,1-.3,1.2,2,2,0,0,1-1.1.6,2.2,2.2,0,0,1-1.3-.4,2.1,2.1,0,0,1-.7-1.2A1.5,1.5,0,0,1,659.4,62.8Z"/><rect class="k" x="662.6" y="55.1" width="1.5" height="8.11" transform="translate(157.3 492.1) rotate(-45.6)"/><polygon class="k" points="673.4 56 672.5 54.8 670.2 56.5 669 54.8 671.3 53.1 670.4 52 668.1 53.6 667.3 52.5 669.6 50.8 668.7 49.6 665.2 52.2 669.9 58.5 673.4 56"/><path class="k" d="M675.5,54.8l-1.1-2.1a8,8,0,0,1-.5-1.1,1.4,1.4,0,0,1,0-.9,1,1,0,0,1,.5-.6.7.7,0,0,1,.6-.1.9.9,0,0,1,.6.3,4.4,4.4,0,0,1,.7,1.2l1.2,2.2,1.3-.7L677,49.6a2.1,2.1,0,0,0-1.2-1.1,1.8,1.8,0,0,0-1.6.2l-.6.5a3.5,3.5,0,0,0-.6.9l-.2-.5-1.3.7,2.7,5.2Z"/><path class="k" d="M680.1,51.6a2.6,2.6,0,0,0,2.1.2l.9-.5.6-.8a5.8,5.8,0,0,1,.2,1,2.1,2.1,0,0,1-.4.6,1.6,1.6,0,0,1-.8.5h-.8a1,1,0,0,1-.7-.2l-1.5.6a2.8,2.8,0,0,0,.9.7,2,2,0,0,0,1.1.3l1.5-.2a3.2,3.2,0,0,0,2-1.7,3.2,3.2,0,0,0-.2-2.3l-1.6-4.7-1.4.4.2.7a1.9,1.9,0,0,0-1-.3,1.8,1.8,0,0,0-1,.1,2.7,2.7,0,0,0-1.5,1.3,3.3,3.3,0,0,0-.1,2.4A3.4,3.4,0,0,0,680.1,51.6Zm0-3.5a1.2,1.2,0,0,1,.9-.8,1.3,1.3,0,0,1,1.2.1,1.2,1.2,0,0,1,.8.9,1.5,1.5,0,0,1,0,1.3,1.4,1.4,0,0,1-.9.8,1.5,1.5,0,0,1-1.3-.1,1.6,1.6,0,0,1-.8-1A1.7,1.7,0,0,1,680.1,48.1Z"/><rect class="k" x="685.8" y="44.6" width="1.5" height="5.85" transform="translate(5.3 144.9) rotate(-12.1)"/><path class="k" d="M685.1,44a.8.8,0,0,0,.7.2l.6-.4a1.1,1.1,0,0,0,.1-.8l-.4-.6h-.7a.9.9,0,0,0-.6.4.9.9,0,0,0-.1.7A.7.7,0,0,0,685.1,44Z"/><path class="k" d="M690.4,49.8l-.2-2.3a6.8,6.8,0,0,1-.1-1.2,1.3,1.3,0,0,1,.4-.9c.1-.2.4-.3.7-.4l.6.2c.1.1.3.2.4.4s.1.7.2,1.4l.3,2.6,1.4-.2-.4-3.8a2.1,2.1,0,0,0-.7-1.5,1.6,1.6,0,0,0-1.5-.4l-.8.2c-.3.1-.5.4-.8.7V44h-1.5l.6,5.9Z"/><path class="k" d="M698.1,49.7a3.3,3.3,0,0,0,1.5-.3c.5-.1.8-.5,1.2-.9l-1.2-.6a2.5,2.5,0,0,1-1.5.5A2.1,2.1,0,0,1,697,48a1.9,1.9,0,0,1-.5-1.1l4.7.3v-.3a3.1,3.1,0,0,0-.7-2.4,3.2,3.2,0,0,0-2.2-1,2.9,2.9,0,0,0-2.2.8,3.5,3.5,0,0,0-1,2.2,3,3,0,0,0,.8,2.2A3,3,0,0,0,698.1,49.7Zm-.9-4.6a1.1,1.1,0,0,1,1.1-.3,1.7,1.7,0,0,1,1,.3,1.3,1.3,0,0,1,.5.9l-3.2-.2A1.4,1.4,0,0,1,697.2,45.1Z"/><path class="k" d="M704.7,50.6a4.3,4.3,0,0,0,1.6,0,4.2,4.2,0,0,0,1.3-.7l-1.1-.9a2.1,2.1,0,0,1-1.5.3,1.4,1.4,0,0,1-1-.6,1.5,1.5,0,0,1-.4-1.1l4.6,1v-.3a3.3,3.3,0,0,0-.3-2.4,3.4,3.4,0,0,0-2.1-1.4,3.7,3.7,0,0,0-2.3.4,3.9,3.9,0,0,0-1.3,2,2.9,2.9,0,0,0,.4,2.3A3.2,3.2,0,0,0,704.7,50.6Zm-.1-4.7a1.7,1.7,0,0,1,1.2-.1,1.4,1.4,0,0,1,.9.5,1.9,1.9,0,0,1,.4.9l-3.2-.7Z"/><path class="k" d="M709.7,51.8l.7-2.2v-.3a6.3,6.3,0,0,1,.8-1.5,1,1,0,0,1,.7-.2l.3.3.9-1-.5-.4a1.1,1.1,0,0,0-.8,0,1,1,0,0,0-.7.4l.2-.7-1.2-.4-1.9,5.5Z"/><path class="k" d="M714.8,47a1.1,1.1,0,0,0,.8,0,.8.8,0,0,0,.5-.5.9.9,0,0,0,0-.7l-.5-.5h-.7a.6.6,0,0,0-.5.5.9.9,0,0,0-.1.7Z"/><rect class="k" x="710.5" y="49.4" width="5.9" height="1.47" transform="translate(383.9 685) rotate(-66.6)"/><path class="k" d="M715.3,54.3l1.2-2a4.7,4.7,0,0,1,.6-1c.3-.3.5-.5.8-.5a.8.8,0,0,1,.8.1c.2.1.4.2.4.4a1.3,1.3,0,0,1,.1.6l-.6,1.3-1.3,2.2,1.3.7,1.9-3.3a2.4,2.4,0,0,0,.3-1.6,2.2,2.2,0,0,0-1-1.3l-.8-.2a2,2,0,0,0-1.1,0l.3-.5-1.3-.7L714,53.6Z"/><path class="k" d="M721.5,58.3a2,2,0,0,0,.9.5h.9a2.2,2.2,0,0,1-.7.7.8.8,0,0,1-.7,0c-.3,0-.5-.2-.9-.4l-.5-.6a1.4,1.4,0,0,1-.2-.7l-1.3-1a2.5,2.5,0,0,0-.1,1.2,2.3,2.3,0,0,0,.3,1.1l1,1.1a3.1,3.1,0,0,0,2.5.7,3,3,0,0,0,1.8-1.3l3.2-3.9-1.2-.9-.4.5a1.5,1.5,0,0,0-.3-1,1.6,1.6,0,0,0-.6-.8,3.3,3.3,0,0,0-1.9-.6,3.3,3.3,0,0,0-2.1,1.2,2.8,2.8,0,0,0-.7,2.2A2.3,2.3,0,0,0,721.5,58.3Zm.8-3.1a1.9,1.9,0,0,1,1.1-.7,1.9,1.9,0,0,1,1.2.4,1.3,1.3,0,0,1,.6,1.1,1.9,1.9,0,0,1-.4,1.2,1.7,1.7,0,0,1-2.3.3,2.4,2.4,0,0,1-.6-1.1A1.7,1.7,0,0,1,722.3,55.2Z"/><path class="k" d="M729.2,66.7a4.8,4.8,0,0,0,1.6,1.3,6.4,6.4,0,0,0,2,.3,4.6,4.6,0,0,0,1.9-.8l.2-.2-2.3-3.2-1.2.9,1.4,1.8a1.9,1.9,0,0,1-1.3-.1,1.9,1.9,0,0,1-1.1-.9,2.6,2.6,0,0,1-.5-2.1,2.7,2.7,0,0,1,1-1.8,2.4,2.4,0,0,1,2-.4,2.3,2.3,0,0,1,1.8,1.1,3,3,0,0,1,.5,2.5l1.5.2a2.8,2.8,0,0,0,0-1.8,3.7,3.7,0,0,0-.8-1.8,4,4,0,0,0-3-1.8,3.9,3.9,0,0,0-2.8.8,3.8,3.8,0,0,0-1.4,1.7,4.1,4.1,0,0,0-.3,2.2A3.7,3.7,0,0,0,729.2,66.7Z"/><path class="k" d="M732.5,71.6l2.1-1.1h.3a3.7,3.7,0,0,1,1.5-.6c.4,0,.6.1.7.3s.1.2.1.4l1.3-.2c0-.2-.1-.4-.1-.6l-.6-.5L737,69l.6-.3-.6-1.1-5.1,2.7Z"/><path class="k" d="M736.2,72.2a3.1,3.1,0,0,0-1.8,4,4.1,4.1,0,0,0,1,1.3,3.5,3.5,0,0,0,1.4.6,2.9,2.9,0,0,0,1.6-.1,3.2,3.2,0,0,0,1.3-1,2.7,2.7,0,0,0,.7-1.4,4.1,4.1,0,0,0-.2-1.6,3.1,3.1,0,0,0-1.5-1.7A3.1,3.1,0,0,0,736.2,72.2Zm2.7,2.3a1.3,1.3,0,0,1,0,1.2,1.8,1.8,0,0,1-1,.9,1.5,1.5,0,0,1-1.3,0,1.5,1.5,0,0,1-.8-2.2,1.7,1.7,0,0,1,1-.8,1.5,1.5,0,0,1,1.3,0C738.5,73.7,738.7,74,738.9,74.5Z"/><path class="k" d="M737.4,79.7a2.6,2.6,0,0,0-1,1.1,2.9,2.9,0,0,0-.1,1.6,2.6,2.6,0,0,0,.6,1.4,3.1,3.1,0,0,0,1.3.6,5.9,5.9,0,0,0,2.1-.2l2.4-.5-.3-1.4-2.8.6h-1.1a.9.9,0,0,1-.6-.3l-.3-.5a1.5,1.5,0,0,1,.1-.7.8.8,0,0,1,.4-.4,1.9,1.9,0,0,1,1.1-.4l2.7-.6-.3-1.4-2.4.5Z"/><path class="k" d="M735.1,87.6h2.7a4.1,4.1,0,0,0-.5.9,2.9,2.9,0,0,0-.2.9,3.2,3.2,0,0,0,1,2,3.4,3.4,0,0,0,2.2.7,3.2,3.2,0,0,0,2.2-.9,2.6,2.6,0,0,0,.8-2,1.9,1.9,0,0,0-.3-1,1.6,1.6,0,0,0-.6-.8h.6V85.8l-8,.4Zm3.8.2a2.2,2.2,0,0,1,1.2-.5,1.8,1.8,0,0,1,1.3.4,1.7,1.7,0,0,1,.5,1.2,1.5,1.5,0,0,1-.4,1.1,1.7,1.7,0,0,1-1.2.5,1.5,1.5,0,0,1-1.3-.4,1.4,1.4,0,0,1-.5-1.1A1.5,1.5,0,0,1,738.9,87.8Z"/><polygon class="k" points="651.2 99.8 653.2 101.2 652.5 98.9 654.4 97.5 652 97.5 651.2 95.2 650.5 97.5 648.1 97.5 650 98.9 649.3 101.2 651.2 99.8"/><polygon class="k" points="741.2 97.5 740.5 95.2 739.7 97.5 737.3 97.5 739.3 98.9 738.5 101.2 740.5 99.8 742.4 101.2 741.7 98.9 743.6 97.5 741.2 97.5"/><polygon class="k" points="655.6 110.9 656.7 110.4 655.3 107.3 654.2 107.7 654.7 108.8 650.1 110.8 650.6 111.9 655.2 109.8 655.6 110.9"/><path class="k" d="M653.4,115.4a1,1,0,0,1-.2-.9,1.2,1.2,0,0,1,.4-.8l1.9,3.2h.2a2.5,2.5,0,0,0,1.2-1.5,2.5,2.5,0,0,0-.2-1.9,2.3,2.3,0,0,0-1.5-1.1,2,2,0,0,0-1.8.3,2.4,2.4,0,0,0-1.2,1.4,2.2,2.2,0,0,0,.3,1.9,2.4,2.4,0,0,0,.8.9l1.1.4v-1.1A1.6,1.6,0,0,1,653.4,115.4Zm1.8-2a.9.9,0,0,1,.6.6.7.7,0,0,1,.2.7,1.1,1.1,0,0,1-.3.8l-1.2-2.2Z"/><polygon class="k" points="657.3 113.1 659.5 113.6 658.8 112.4 656.9 112.4 657.3 113.1"/><rect class="k" x="654.2" y="116.9" width="6.4" height="1.15" transform="translate(49.8 394.6) rotate(-34.6)"/><path class="k" d="M656.7,120.2l-.5.2a.5.5,0,0,0-.2.4.7.7,0,0,0,.1.5l.5.3.4-.2c.2-.1.3-.2.3-.4a.7.7,0,0,0-.1-.5C657.1,120.3,656.9,120.3,656.7,120.2Z"/><path class="k" d="M660.1,118.8a.6.6,0,0,0-.1-.4c-.2-.2-.3-.3-.5-.3H659a.8.8,0,0,0-.2.5c-.1.2,0,.3.1.5l.4.2h.5A.5.5,0,0,0,660.1,118.8Z"/><path class="k" d="M665.4,122.8l-.3-1.1-3.4,1.1-.9.3-.5.4a1.9,1.9,0,0,0-.5,1.3,2,2,0,0,0,.6,1.4,1.6,1.6,0,0,0,1.3.6,2.1,2.1,0,0,0,2-2,2.1,2.1,0,0,0-.5-1.3Zm-3.1,2.6a1,1,0,0,1-1.2,0,.8.8,0,0,1-.2-.5,1.1,1.1,0,0,1,.9-.9l.5.2a.8.8,0,0,1,0,1.2Z"/><path class="k" d="M668.7,127.4a1.7,1.7,0,0,0,.4-1.4,1.9,1.9,0,0,0-.7-1.3,1.8,1.8,0,0,0-1.4-.4,1.7,1.7,0,0,0-1.3.7,1.8,1.8,0,0,0,.2,2.7l-2.2,1,.5,1,3.2-1.4.9-.5A.8.8,0,0,0,668.7,127.4Zm-.9-.7a1,1,0,0,1-.5.4l-.6-.2a.7.7,0,0,1-.3-.6.7.7,0,0,1,.2-.6.5.5,0,0,1,.5-.3c.3,0,.5,0,.6.2a.5.5,0,0,1,.3.5A.7.7,0,0,1,667.8,126.7Z"/><path class="k" d="M672.1,127.4a2.1,2.1,0,0,0-1.5-.3,2.4,2.4,0,0,0-1.1.6l1,.7.4-.2h.5c.2.1.3.2.3.4s0,.3-.1.5-.1.1-.3.2h-.4l-.6-.2-.5.9a1.8,1.8,0,0,1,.7.8,1.1,1.1,0,0,1-.1.8.9.9,0,0,1-.6.4,1,1,0,0,1-.7-.2.7.7,0,0,1-.4-.5.8.8,0,0,1,.1-.8l-1-.6a2.1,2.1,0,0,0-.3,1.5,1.8,1.8,0,0,0,.9,1.3,2.2,2.2,0,0,0,1.7.4,2,2,0,0,0,1.3-.9,1.2,1.2,0,0,0,.2-1,1.2,1.2,0,0,0-.4-.9,1.5,1.5,0,0,0,.9-.2,1.3,1.3,0,0,0,.6-.5,1.6,1.6,0,0,0,.2-1.2A1.8,1.8,0,0,0,672.1,127.4Z"/><polygon class="k" points="677.1 130.4 676 131.1 677.2 131.6 675.1 136.3 676.1 136.8 678.7 131.1 677.1 130.4"/><path class="k" d="M682.7,132.4l-3.8,3-.3,1,2.6.9-.4,1.2,1.1.4.4-1.3.5.2.3-1-.5-.2,1.3-3.8Zm-1.2,3.8-1.3-.4,2-1.5Z"/><polygon class="k" points="687.1 134.9 688.3 135.1 687.5 140.1 688.7 140.3 689.7 134.2 687.9 133.9 687.1 134.9"/><path class="k" d="M691.5,137.9l1,.3c.1-.2.2-.3.4-.3h.4a.9.9,0,0,1,.6.3,1.9,1.9,0,0,1,.2.7,1.1,1.1,0,0,1-.3.8l-.7.2-.5-.2a.8.8,0,0,1-.4-.4H691a2.4,2.4,0,0,0,.7,1.3,1.9,1.9,0,0,0,1.3.5,2.5,2.5,0,0,0,1.5-.5,1.8,1.8,0,0,0,.7-1.5,1.9,1.9,0,0,0-.4-1.5,1.7,1.7,0,0,0-1.4-.7H693l.3-1.1h2v-1.1h-2.9Z"/><path class="k" d="M702,137a2,2,0,0,0-1.5-.5h-.4l.2-1.1,2-.2v-1.1l-2.9.3-.4,3.5h1l.3-.3.4-.2.6.3a.7.7,0,0,1,.3.6.8.8,0,0,1-.2.8.6.6,0,0,1-.6.3.4.4,0,0,1-.5-.1c-.2,0-.3-.2-.4-.4l-1.3.2a2,2,0,0,0,.9,1.1,2.3,2.3,0,0,0,2.8-.4,1.9,1.9,0,0,0,.5-1.6A2.1,2.1,0,0,0,702,137Z"/><path class="k" d="M706.8,136.1a2.1,2.1,0,0,0-1.5-.3h-.4v-1.1l2-.4-.2-1.1-2.9.6v3.5h1l.3-.3.3-.2a.8.8,0,0,1,.7.2.9.9,0,0,1,.4.6,1.1,1.1,0,0,1-.1.8l-.6.4h-.6l-.4-.3-1.2.2a2,2,0,0,0,.9,1.1,2.6,2.6,0,0,0,1.5.2,2.3,2.3,0,0,0,1.6-2.6A2,2,0,0,0,706.8,136.1Z"/><rect class="k" x="711.1" y="135.1" width="2.1" height="1.07" transform="translate(-3.4 251.8) rotate(-20)"/><polygon class="k" points="718.9 128.1 717.8 128.7 717.8 131.2 715.8 129.8 714.6 130.4 717.9 132.7 719.2 135 720.3 134.5 719 132.1 718.9 128.1"/><path class="k" d="M723,127.2l.3.4h-.8l-.7.3a1.8,1.8,0,0,0-.8,1.5,1.8,1.8,0,0,0,.5,1.7,2.4,2.4,0,0,0,1.5,1.1,1.8,1.8,0,0,0,1.6-.4c.3-.1.4-.3.6-.5a1.9,1.9,0,0,0,.2-.8l.3.4,1-.7-2.7-3.7Zm1.4,1.8a1,1,0,0,1,.3,1c0,.4-.2.6-.5.9a1.6,1.6,0,0,1-1,.2,1.6,1.6,0,0,1-.8-.6,2.2,2.2,0,0,1-.3-1,1.1,1.1,0,0,1,.5-.8,1.2,1.2,0,0,1,1-.3A1.6,1.6,0,0,1,724.4,129Z"/><path class="k" d="M729.7,124.4a2.1,2.1,0,0,0-1-.6,1.9,1.9,0,0,0-1.3-.1,2.4,2.4,0,0,0-1.1.6,2.5,2.5,0,0,0-.1,3.4,2.1,2.1,0,0,0,1.6.8,2.8,2.8,0,0,0,1.8-.6,4.1,4.1,0,0,0,.7-1.1,2.4,2.4,0,0,0,0-1.2A2.7,2.7,0,0,0,729.7,124.4Zm-.8,2.7a1.7,1.7,0,0,1-1,.3,1.4,1.4,0,0,1-.9-.5,1.8,1.8,0,0,1-.4-.9,1.3,1.3,0,0,1,.5-.9.8.8,0,0,1,.9-.3,1.2,1.2,0,0,1,.9.4,1.8,1.8,0,0,1,.4,1A1.8,1.8,0,0,1,728.9,127.1Z"/><path class="k" d="M732.9,120.4l-1.5-1.3-.8.9,1.7,1.4c.4.3.6.5.6.7s.2.3.1.4,0,.4-.2.5l-.4.3h-.5l-.7-.5-1.7-1.4-.8.8,1.5,1.3a5.1,5.1,0,0,0,1.2.9,1.7,1.7,0,0,0,1.2.1,2,2,0,0,0,1-.7,2.7,2.7,0,0,0,.6-1,2,2,0,0,0-.2-1.1A5.4,5.4,0,0,0,732.9,120.4Z"/><path class="k" d="M734.4,115.4a1.4,1.4,0,0,0-1,.7c-.2.2-.2.4-.3.6v.9l-.4-.3-.7,1,3.8,2.6.7-1-1.5-1-.8-.6a.9.9,0,0,1-.3-.7,1.3,1.3,0,0,1,.1-.6l.4-.3h.5l.9.6,1.7,1.1.6-.9-2.5-1.7A1.9,1.9,0,0,0,734.4,115.4Z"/><path class="k" d="M734.9,110.2l2,1.1-.7.3a2.2,2.2,0,0,0-.6,2.3,2.4,2.4,0,0,0,1.2,1.4,2.5,2.5,0,0,0,1.9.2,1.9,1.9,0,0,0,1.3-1,1.9,1.9,0,0,0,.2-.7,2.2,2.2,0,0,0-.1-.8l.4.2.6-1-5.7-3Zm2.6,1.7a1.2,1.2,0,0,1,1,.2,1.2,1.2,0,0,1,.7.7,1.7,1.7,0,0,1,0,1,1.6,1.6,0,0,1-.8.6,1.2,1.2,0,0,1-1-.1,1.3,1.3,0,0,1-.7-.8,1.4,1.4,0,0,1,0-.9A1.3,1.3,0,0,1,737.5,111.9Z"/><path class="k" d="M741.7,107.1a2.4,2.4,0,0,1,0,1.2,1.1,1.1,0,0,1-.6.7,1.5,1.5,0,0,1-.9.2l1.3-3.5h-.2a2.1,2.1,0,0,0-1.9,0,2.3,2.3,0,0,0-1.3,1.4,2.8,2.8,0,0,0,0,1.8,2.9,2.9,0,0,0,1.4,1.3,3.1,3.1,0,0,0,1.9,0,2.4,2.4,0,0,0,1.2-1.4,2.1,2.1,0,0,0,.2-1.3,1.4,1.4,0,0,0-.4-1Zm-2.3,1.7c-.2-.2-.4-.4-.4-.6a1.4,1.4,0,0,1,0-.9,1.8,1.8,0,0,1,.5-.7l.8-.2Z"/><polygon class="k" points="736 106 737.1 107.5 737.4 106.7 736.4 104.7 736 106"/><polygon class="k" points="703.3 79.7 701.1 80.7 702.7 84.1 704.8 83.2 704.5 82.4 703.3 82.9 703 82.4 704.1 81.8 703.8 81.1 702.7 81.6 702.4 81 703.6 80.5 703.3 79.7"/><path class="k" d="M699.4,82.1h.4l.5.2.7-.7-.9-.4h-1l-.7.4-.5.6a1.9,1.9,0,0,0-.2.7,2.2,2.2,0,0,0,.1.8,1.6,1.6,0,0,0,.4.7,1,1,0,0,0,.6.5l.7.2h.8a1.8,1.8,0,0,0,1.2-1,1.7,1.7,0,0,0,.1-1.6h-.1l-1.9.6.2.8,1-.3a.7.7,0,0,1-.2.6l-.5.4h-.8a1.6,1.6,0,0,1-.5-.8,1.1,1.1,0,0,1,0-.8A.9.9,0,0,1,699.4,82.1Z"/><path class="k" d="M705.4,79.3h.4c.1-.1.3,0,.5,0l.5-.8a1.6,1.6,0,0,0-1-.2l-.9.4-.6.5a1.1,1.1,0,0,0-.3.7,1.1,1.1,0,0,0,0,.8.9.9,0,0,0,.3.7,1,1,0,0,0,.5.6,1.1,1.1,0,0,0,.7.3h.8l.8-.3a2,2,0,0,0,.9-1.2,2.4,2.4,0,0,0-.4-1.6h-.1L705.8,80l.4.7.8-.6a1.3,1.3,0,0,1,.1.6l-.5.5a.8.8,0,0,1-.8.2,1.7,1.7,0,0,1-.6-.6,1.6,1.6,0,0,1-.3-.8A1.2,1.2,0,0,1,705.4,79.3Z"/><path class="k" d="M689.2,75.2a16.6,16.6,0,0,0-1.1,5.8,17.6,17.6,0,0,0,1,6,16.3,16.3,0,0,0,1.1,2.3,14,14,0,0,0,2.2,3.2,16.7,16.7,0,0,0,12.5,5.8,19.4,19.4,0,0,1-3-1.3,16.5,16.5,0,0,1-4.9-4.6,8.6,8.6,0,0,1-1-1.6,15.8,15.8,0,0,1-1.4-3.6,15.6,15.6,0,0,1-.4-6.1,16.3,16.3,0,0,1,8.2-11.9l1.2-.6h.3l1.3,1,.7.5v-.2a5.6,5.6,0,0,1,1.1-2,48,48,0,0,0,3.9-5.3c-5-.9-12.6,1.3-16.9,4.2H696l-.8.5A16.4,16.4,0,0,0,689.2,75.2Z"/><path class="k" d="M703.9,70.3l-.7.6v.2l-.9.7-.3.2-.7.5-.3.2-.7.4-.4.2-.6.3-.4.2-.6.2-.5.2h-.1a.8.8,0,0,0-.4.4l.5-.2h.4l.8-.4h.3l1.1-.5.3-.2.7-.4.4-.3.6-.4.4-.3.5-.5.4-.3.5-.5.4-.4.2-.2c0-.1-.1-.1-.2-.2l-.3.3Z"/><path class="k" d="M712.6,78.9h-.1v-.2h0a20.4,20.4,0,0,0-2.9-5.2h-.2a15.8,15.8,0,0,0-3-2.8c-.1,0-.1.1-.2.2a15.8,15.8,0,0,1,3,2.8l-.9.9-.6.6-1,.9-.6.5-1.5,1-.2.2-1.8,1-.6.3-1.3.6-.8.3-1.2.4-.9.3-1.1.3h-1l-.9.2v.2h0l1-.2h.9l1.3-.4.8-.2a5.2,5.2,0,0,0,1.6-.6h.4l1.9-.9.6-.3,1.2-.8.8-.5,1-.7.7-.6.9-.8.7-.7.8-.8a17.5,17.5,0,0,1,2.8,5.2,9.4,9.4,0,0,0-1,1l-.8.6-1.3,1-.6.5L706.7,83l-.3.2-2.2,1.1-.5.3-1.7.7-.8.3-1.5.4-1,.3-1.4.3-1.1.2h-1.1v.2l1.2-.2h1l1.5-.4.9-.2,1.7-.6h.6l2.3-1,.6-.3,1.5-.8.8-.5,1.3-.8.8-.7,1.2-.8a2.7,2.7,0,0,1,.8-.7l.9-.9a16.1,16.1,0,0,1,.9,5.4v.7l-1.1.7-.7.6-1.2.7-.7.4a11.9,11.9,0,0,1-1.5.9l-.4.2-2,1-.5.2-1.5.6-.8.2-1.3.4-.9.3-1.2.3-1,.2-1,.2h0c.1.1.1.2.2.2l1-.2h.9l1.3-.4.8-.2,1.6-.5.5-.2,2-.8.6-.2,1.4-.7.8-.4,1.1-.7.8-.5,1.1-.6.8-.6.8-.6a15.7,15.7,0,0,1-2.3,7.5l-1.5.8-.6.3-2.1.9-.6.2a8.5,8.5,0,0,1-1.7.6l-.8.3-1.2.4.3.2,1.3-.4.6-.2,2.1-.8.5-.2,1.6-.7.8-.4,1-.5a18.1,18.1,0,0,1-4.1,4.6h.3a16.7,16.7,0,0,0,4.3-4.9h.1l.2-.4h0a16.6,16.6,0,0,0,2.1-7.6h0v-.4h0v-.4A17.7,17.7,0,0,0,712.6,78.9Z"/><path class="k" d="M679.2,90.1h0v.3h0a18,18,0,0,0,4.3,6.6h0l.4.3h0a17.9,17.9,0,0,0,11.9,4.6,17,17,0,0,0,10-3.2h-.5a16.9,16.9,0,0,1-9.5,2.9,17.6,17.6,0,0,1-11.4-4.2h7.3a40.7,40.7,0,0,0,5-.3h.4l1.2-.2h.3l-.5-.2H687.7l-1.5-.2h-.3l-1.8-.3a17.4,17.4,0,0,1-4.4-6.6l.6.3.7.2.8.2.7.2.8.3h.7l.9.2h.7l.8.2h5.5l-.2-.3h-6.1l-.7-.2-.9-.2h-.7l-.8-.3-.7-.2-.8-.2-.7-.3-.8-.2a19.1,19.1,0,0,1-1-5.8v-.3l.6.3.6.3.7.3.5.2.7.3.6.2.8.2.5.2.9.2.4.2,1.3.2h.2l1.2.2h1.1a.4.4,0,0,0-.1-.3h-1.8l-.6-.2h-1.3L684,86h-.5l-.9-.3h-.4L681,85h-.3l-1-.4-.4-.2-.7-.4a16.6,16.6,0,0,1,1.1-5.8l1.2.6.7.4,1.6.7.4.2,2,.6.6.2,1.4.3h0v-.2l-1.2-.3-.7-.2-1.7-.5h-.4a16.3,16.3,0,0,1-1.9-.9c-.2,0-.4-.2-.6-.3l-1.2-.7a19.8,19.8,0,0,1,2.9-4.8l1,.6.4.2,1.5.6h.3l1.2.4h.6l.8.2a.3.3,0,0,1,.1-.2h0l-.9-.2h-.5l-1.5-.4-.3-.2-1.1-.5-.6-.2-.8-.5a17.7,17.7,0,0,1,9.2-5.2l.5-.5a17.7,17.7,0,0,0-9.9,5.6h-.2a15,15,0,0,0-3,4.8h-.1V78h0a18.7,18.7,0,0,0-1.2,5.8h0V84h0v.4A17.7,17.7,0,0,0,679.2,90.1Z"/><polygon class="k" points="680.1 108.6 679 108.6 679 114.8 681.9 114.8 681.9 113.7 680.1 113.7 680.1 108.6"/><path class="k" d="M684.8,110.1a2.2,2.2,0,0,0-1.7.7,2.4,2.4,0,0,0,0,3.4,2.3,2.3,0,0,0,1.8.7l1.2-.2a3,3,0,0,0,.8-.8l-.9-.5a1.6,1.6,0,0,1-1.1.5,1.2,1.2,0,0,1-.9-.3,1.1,1.1,0,0,1-.5-.8h3.8v-.2a2.5,2.5,0,0,0-.7-1.8A2.4,2.4,0,0,0,684.8,110.1Zm-1.2,1.8a1.5,1.5,0,0,1,.4-.6,1.4,1.4,0,0,1,.9-.3.9.9,0,0,1,.7.3,1.3,1.3,0,0,1,.5.6Z"/><path class="k" d="M693.5,108.8a3,3,0,0,0-1.5-.2h-1.3v6.2h1.2v-2.6h1.3l.9-.6a2,2,0,0,0,.3-1.1,2.5,2.5,0,0,0-.2-1A1.3,1.3,0,0,0,693.5,108.8Zm-.3,1.9-.3.2h-1v-1.3H693a.7.7,0,0,1,.3.6C693.3,110.5,693.2,110.6,693.2,110.7Z"/><path class="k" d="M699,108.9a4.9,4.9,0,0,0-2-.3h-1.4v6.2H697l1.7-.2a2,2,0,0,0,.9-.5,3.6,3.6,0,0,0,.7-1,5.9,5.9,0,0,0,.2-1.3,3.4,3.4,0,0,0-.4-1.8A2.9,2.9,0,0,0,699,108.9Zm.1,3.9a1.7,1.7,0,0,1-.6.6,2,2,0,0,1-1.2.2h-.5v-3.9h.4a2.5,2.5,0,0,1,1.6.5,2.5,2.5,0,0,1,.5,1.5A3.1,3.1,0,0,1,699.1,112.8Z"/><path class="k" d="M704.7,111.6v1.1h1.8a2.2,2.2,0,0,1-.7.9l-1,.2a2.1,2.1,0,0,1-1.6-3.6,2,2,0,0,1,1.5-.6,2.9,2.9,0,0,1,1.9.8l.8-.8-1.2-.9a4,4,0,0,0-1.5-.3,3.3,3.3,0,0,0-2.5,1.1,2.8,2.8,0,0,0-.8,2.1,3.3,3.3,0,0,0,.4,1.7,3.4,3.4,0,0,0,1.2,1.2,3.3,3.3,0,0,0,1.7.4,3.8,3.8,0,0,0,1.6-.3,3.2,3.2,0,0,0,1.1-1.2,2.6,2.6,0,0,0,.4-1.5v-.3Z"/><path class="l" d="M804.2,57.5a23.9,23.9,0,0,0-2.6-2.1l-2.8-1.8-3-1.4-3.2-1a48.4,48.4,0,0,0-6.4-1.3c-2.2-.2-4.4-.4-6.6-.4a50,50,0,0,0-6.7.2l-3.2.3-1.7.2-1.6.2a98.6,98.6,0,0,0-25.3,7.7,94.4,94.4,0,0,0-22.3,14.1,117.3,117.3,0,0,0-9.6,9L704.6,86c-1.5,1.6-3,3.3-4.4,5a31.6,31.6,0,0,0-6.3,11.7,28.4,28.4,0,0,0-1,6.6,24.6,24.6,0,0,0,.6,6.6,27.2,27.2,0,0,0,6.4,11.7l2.5,2.2a25.2,25.2,0,0,0,2.5,2.1,12.7,12.7,0,0,0,2.9,1.8,10.1,10.1,0,0,0,3.4.9,10.4,10.4,0,0,0,6.4-2,8.2,8.2,0,0,0,2.4-2.5,12.4,12.4,0,0,0,1.6-3,35.8,35.8,0,0,0,1.4-6.5h0l.4-.7a19.4,19.4,0,0,0,.7-3.3c.5-4.5.6-8.8,1.1-13.2a42.7,42.7,0,0,1,1.2-6.4,18.2,18.2,0,0,1,1.4-3.9,44.1,44.1,0,0,0-.4,9.6,42.7,42.7,0,0,0,2.9,11.7h.1c.2.1.3,0,.4-.1a38.2,38.2,0,0,0,2.1-4.6h0a18.6,18.6,0,0,0,1,2.5,7.6,7.6,0,0,0,1.2,1.9,1.3,1.3,0,0,0-.1.6,19.7,19.7,0,0,0,.4,5.4c.1.5.3.9.4,1.3s.1.5.3.7l.2.3h.3c.1-.1.2-.1.2-.2a3.2,3.2,0,0,0,.3-1.4,5.7,5.7,0,0,0,.1-1.3,8.4,8.4,0,0,0-.4-2.7,8.2,8.2,0,0,0-1.2-2.5l-.3-.4a35.4,35.4,0,0,1,1.1-4.4,43.9,43.9,0,0,0,1.3-5.2,49.5,49.5,0,0,0,.6-5.4V95.8a10.3,10.3,0,0,0-.1-1.7h-.1c-.1.1,0,.1,0,.1v1c0,.4.1.8.1,1.2a12.9,12.9,0,0,1-3.2,7.9,13.1,13.1,0,0,0,3.2-7.2V99a33.3,33.3,0,0,1-.7,5.4,33,33,0,0,1-1.3,5.2c-.4,1.3-.8,2.7-1.1,4.1l-.9-1.6a9.9,9.9,0,0,1-.9-2.4c-.1-.2-.1-.4-.2-.6a20.7,20.7,0,0,0,1.2-4.9,32.9,32.9,0,0,0,.5-5.4V97.4a6.4,6.4,0,0,1-.2-.7v-.2h-.7v.2a3.3,3.3,0,0,0-.7,1.3c-.1.4-.3.8-.4,1.3a18.8,18.8,0,0,0-.1,9.7,32.6,32.6,0,0,1-2,4.8,37.5,37.5,0,0,1-2.5-10.9,33.3,33.3,0,0,1,.9-11.8.8.8,0,0,0-.2-.4.4.4,0,0,0-.5.1,28.1,28.1,0,0,0-2.6,6.2,28.8,28.8,0,0,0-1,5.1c.2-4.8.3-9.6.4-14.3.1-2.2.1-4.4.3-6.6a10,10,0,0,1,.2-1.6,9.7,9.7,0,0,0,.1-1.7,18.6,18.6,0,0,0-.4-3.4,9.8,9.8,0,0,0-.5-1.6,4.2,4.2,0,0,0-1.1-1.6h-.1l-.3-.2h-1.6a94.4,94.4,0,0,1,19.7-12,95.5,95.5,0,0,1,25-7.8l1.7-.2,1.6-.2L773,50l6.6-.2a47.8,47.8,0,0,1,13,1.6l3.1,1,3,1.4a26.1,26.1,0,0,1,2.8,1.7l2.6,2A35,35,0,0,1,812,68,33.9,33.9,0,0,0,804.2,57.5Zm-68.9,57.1a7.7,7.7,0,0,1,1.2,2.4,20.2,20.2,0,0,1,.4,2.6,5.7,5.7,0,0,1-.1,1.3,3.1,3.1,0,0,1-.3,1.3h0c-.1,0-.1-.1-.2-.2a1.4,1.4,0,0,1-.2-.6,5,5,0,0,1-.4-1.3,18.7,18.7,0,0,1-.5-5.3c0-.1.1-.1.1-.2Zm-1.2-17.9Zm-.9,2.5a6.5,6.5,0,0,1,.4-1.3,3.7,3.7,0,0,1,.5-1.1h0c.1.1.1.4.1.6a5.7,5.7,0,0,1,.1,1.3,30.7,30.7,0,0,1-.5,5.3,28.8,28.8,0,0,1-.9,4A16.8,16.8,0,0,1,733.2,99.2Zm-12.5,27.6a10.9,10.9,0,0,1-3.6,5.1,9.6,9.6,0,0,1-5.9,1.8,9.8,9.8,0,0,1-5.7-2.5,24.3,24.3,0,0,1-2.5-2,26.6,26.6,0,0,1-2.4-2.3,25.3,25.3,0,0,1-3.9-5.2,24.1,24.1,0,0,1-2.3-6,26.4,26.4,0,0,1,.3-12.8,29.3,29.3,0,0,1,6.1-11.4c1.4-1.7,2.9-3.3,4.4-5l4.5-4.8,5.4-5.4q-.7,1.2-1.5,2.7a30.1,30.1,0,0,0-1.1,3.2c-.5,2.1-.9,4.3-1.2,6.5-.6,4.4-.8,8.8-1.2,13.2a96.9,96.9,0,0,0-.2,13.2,47.6,47.6,0,0,0,.8,6.6c.1.6.3,1.1.4,1.7l.3.8a2.8,2.8,0,0,0,.7.9.8.8,0,0,0,.7.1,1.1,1.1,0,0,0,.6-.2,2.1,2.1,0,0,0,.6-.8,5.5,5.5,0,0,0,.8-1.5,47,47,0,0,0,2.2-6.3l1.2-3.8a6.5,6.5,0,0,0,.4,1.3q.9,3.1,2.1,6.3l.2.4a.8.8,0,0,0,.2.4c.1.1.2.3.4.4l.4.2h.1A31.6,31.6,0,0,1,720.7,126.8Zm-.5-40.1a.9.9,0,0,0,.1.5,16.7,16.7,0,0,1,.2,3.2,48.5,48.5,0,0,1-.1,6.6,69,69,0,0,1-2.1,11.9,37.2,37.2,0,0,1-.9-8.1,34.9,34.9,0,0,1,.6-6.5,44.7,44.7,0,0,1,1.6-6.3ZM722,71.6a1.1,1.1,0,0,1,1.1.3,3.6,3.6,0,0,1,.8,1.2,5.7,5.7,0,0,1,.4,1.4,12.2,12.2,0,0,1,.4,3.2,8.6,8.6,0,0,1-.1,1.6,8.8,8.8,0,0,0-.2,1.6c-.2,2.3-.2,4.5-.3,6.7-.1,8.8-.3,17.6-1.2,26.3-.2,2.2-.4,4.4-.8,6.5h0c-.1.1-.1.2-.2.2a.1.1,0,0,1-.1-.1l-.2-.3v-.4a64.5,64.5,0,0,1-2.1-6.2,28.6,28.6,0,0,1-.7-2.8,2.4,2.4,0,0,1,.2-.8A81.7,81.7,0,0,0,721.3,97a48.5,48.5,0,0,0,.1-6.6,20.4,20.4,0,0,0-.3-3.4,5.1,5.1,0,0,0-.2-.9c-.1,0-.1-.1-.2-.2a.9.9,0,0,0-.5-.3h-.5l-.2.3a4.6,4.6,0,0,0-.7,1.6,49.9,49.9,0,0,0-1.6,6.4,37.9,37.9,0,0,0-.6,6.7,41.3,41.3,0,0,0,1.2,9.9c-.5,1.9-1.1,3.7-1.7,5.5a54.6,54.6,0,0,1-2.1,6.1,6.4,6.4,0,0,1-.8,1.4,1,1,0,0,1-.4.5h-.2l-.3-.5-.3-.7-.3-1.5c-.4-2.2-.7-4.4-.9-6.5a97,97,0,0,1,.3-13.2c.3-4.3.5-8.7,1.2-13.1s1.3-8.7,3.9-12.2a24.3,24.3,0,0,1,2-2.5,9.1,9.1,0,0,1,2.4-2A2.7,2.7,0,0,1,722,71.6Z"/></svg>