<svg xmlns="http://www.w3.org/2000/svg" viewBox="0 0 595.28 178.45"><defs><style>.cls-1{fill:none;}.cls-2{fill:#dadada;}.cls-3,.cls-4{fill:#3c3c3b;}.cls-3{fill-rule:evenodd;}.cls-4{font-size:10px;font-family:Montserrat-BlackItalic, Montserrat;font-weight:800;font-style:italic;}.cls-5{letter-spacing:-0.02em;}.cls-6{letter-spacing:0em;}.cls-7{letter-spacing:-0.01em;}.cls-8{letter-spacing:-0.01em;}.cls-9{letter-spacing:-0.01em;}.cls-10{fill:#004c91;}.cls-11{fill:#000065;}</style></defs><g id="Calque_2" data-name="Calque 2"><g id="Calque_1-2" data-name="Calque 1"><rect class="cls-1" width="595.28" height="178.45"/><rect class="cls-2" x="36.45" y="113.03" width="531.04" height="36.38" rx="3.31"/><polygon class="cls-3" points="60.82 130.44 59.51 131.04 60.49 133.19 61.81 132.59 61.59 132.11 60.84 132.45 60.68 132.09 61.38 131.76 61.17 131.31 60.47 131.63 60.3 131.25 61.04 130.91 60.82 130.44"/><path class="cls-3" d="M58.41,132a.48.48,0,0,1,.29,0,.64.64,0,0,1,.27.12l.46-.42a1.25,1.25,0,0,0-1.18-.2,1.37,1.37,0,0,0-.45.23,1.23,1.23,0,0,0-.31.37,1.29,1.29,0,0,0-.14.46,1.38,1.38,0,0,0,.06.49,1.26,1.26,0,0,0,.24.44,1,1,0,0,0,.36.3,1.1,1.1,0,0,0,.46.13,1.41,1.41,0,0,0,.52-.07,1.17,1.17,0,0,0,.76-.59,1.24,1.24,0,0,0,0-1,.51.51,0,0,1,0-.09s0,0,0-.05l-1.21.38.15.47.61-.19a.45.45,0,0,1-.08.36.68.68,0,0,1-.36.24.56.56,0,0,1-.49-.05.82.82,0,0,1-.32-.45.89.89,0,0,1,0-.56A.57.57,0,0,1,58.41,132Z"/><path class="cls-3" d="M62.14,130.19a.52.52,0,0,1,.27-.1.68.68,0,0,1,.3,0l.32-.53a1.16,1.16,0,0,0-.6-.1,1.43,1.43,0,0,0-1,.57,1.16,1.16,0,0,0-.19.44,1.11,1.11,0,0,0,0,.48,1.22,1.22,0,0,0,.19.46,1.14,1.14,0,0,0,.34.35,1.07,1.07,0,0,0,.44.19,1.11,1.11,0,0,0,.48,0,1.75,1.75,0,0,0,.47-.21,1.17,1.17,0,0,0,.57-.78,1.29,1.29,0,0,0-.24-1l-.05-.07,0-.05-1.06.69.27.42.54-.35a.47.47,0,0,1,0,.37.62.62,0,0,1-.28.32.53.53,0,0,1-.48.09.75.75,0,0,1-.43-.35.82.82,0,0,1-.15-.53A.53.53,0,0,1,62.14,130.19Z"/><path class="cls-3" d="M77.56,129.76a.44.44,0,0,0,.36-.16.54.54,0,0,0,.14-.4.44.44,0,0,0-.12-.32.41.41,0,0,0-.31-.12.44.44,0,0,0-.35.17.58.58,0,0,0-.15.41.41.41,0,0,0,.12.31A.45.45,0,0,0,77.56,129.76Z"/><path class="cls-3" d="M80.27,129.78a.46.46,0,0,0,.36-.17.64.64,0,0,0,.14-.41.41.41,0,0,0-.43-.43.5.5,0,0,0-.36.16.64.64,0,0,0-.14.41.44.44,0,0,0,.12.32A.41.41,0,0,0,80.27,129.78Z"/><path class="cls-3" d="M74.89,129.78a.45.45,0,0,0,.37-.17.65.65,0,0,0,.14-.43.4.4,0,0,0-.1-.3.42.42,0,0,0-.3-.11.44.44,0,0,0-.35.18.63.63,0,0,0-.15.43.4.4,0,0,0,.11.29A.34.34,0,0,0,74.89,129.78Z"/><path class="cls-3" d="M69.47,131.26H83a1.16,1.16,0,0,0,1.16-1.16v-2.66A1.16,1.16,0,0,0,83,126.28H69.47a1.16,1.16,0,0,0-1.16,1.16v2.66A1.16,1.16,0,0,0,69.47,131.26Zm12.85-4.09H83l-.5,3.12h-.72Zm-2.9,1.37a1,1,0,0,1,.76-.35.79.79,0,0,1,.38.09,1,1,0,0,1,.3.27l0-.29h.67l-.32,2H80.6l0-.27a1.11,1.11,0,0,1-.33.25.82.82,0,0,1-.38.09.74.74,0,0,1-.58-.26,1.1,1.1,0,0,1-.22-.69A1.28,1.28,0,0,1,79.42,128.54Zm-2.61-1.37h.7l-.17,1.06,0,.14s0,.1,0,.17a1.38,1.38,0,0,1,.35-.26,1,1,0,0,1,.37-.08.74.74,0,0,1,.58.26,1,1,0,0,1,.22.68,1.3,1.3,0,0,1-.3.88,1,1,0,0,1-.76.34.73.73,0,0,1-.36-.08A1.16,1.16,0,0,1,77,130l0,.28h-.67Zm-2.66,1.35a1.21,1.21,0,0,1,.87-.33,1.08,1.08,0,0,1,.77.27,1,1,0,0,1,.3.74,1.12,1.12,0,0,1-.35.84,1.2,1.2,0,0,1-.88.33,1.07,1.07,0,0,1-.76-.27,1,1,0,0,1-.28-.73A1.15,1.15,0,0,1,74.15,128.52ZM73,127.17h.73l-.5,3.12h-.72Zm-3.59,1.13a1.58,1.58,0,0,1,.36-.56,1.5,1.5,0,0,1,.54-.34,1.76,1.76,0,0,1,.66-.12,1.56,1.56,0,0,1,.74.17,1.5,1.5,0,0,1,.55.52l-.63.42a.69.69,0,0,0-.27-.29A.71.71,0,0,0,71,128a.79.79,0,0,0-.61.27,1,1,0,0,0-.24.67.77.77,0,0,0,.19.54.66.66,0,0,0,.51.21.83.83,0,0,0,.22,0l.19-.08a.37.37,0,0,0,.13-.12.56.56,0,0,0,.09-.17h-.66l.09-.6h1.48a1.84,1.84,0,0,1-.44,1.23,1.43,1.43,0,0,1-1.12.44,1.56,1.56,0,0,1-1.11-.38,1.32,1.32,0,0,1-.41-1A1.86,1.86,0,0,1,69.43,128.3Z"/><path class="cls-3" d="M52,127.65a10.91,10.91,0,0,0-.66,3.58A10.7,10.7,0,0,0,52,135a10.21,10.21,0,0,0,.64,1.44,10.75,10.75,0,0,0,9.16,5.62,10,10,0,0,1-1.82-.84,9.72,9.72,0,0,1-3.1-2.85,9.2,9.2,0,0,1-.61-1,9.9,9.9,0,0,1-1.11-6,9.9,9.9,0,0,1,5.13-7.42c.24-.13.49-.26.75-.37l.07,0,.07,0a7.21,7.21,0,0,1,.85.59l.42.3,0-.1a4,4,0,0,1,.68-1.25c.57-.66,2.08-2.61,2.49-3.28-3.14-.61-7.88.81-10.56,2.6a5.65,5.65,0,0,1,.58,0l.57,0-.46.34A10.6,10.6,0,0,0,52,127.65Z"/><path class="cls-3" d="M61.24,124.58q-.21.21-.42.39l-.11.1c-.18.16-.37.3-.56.45l-.17.11-.42.29-.23.15-.38.22-.27.14-.37.19-.28.12-.38.16-.3.11-.08,0c-.07.09-.14.17-.2.26l.29-.1.27-.09.49-.21.2-.08.66-.34.18-.1.46-.28.24-.16.37-.26a2.43,2.43,0,0,0,.25-.2c.11-.09.23-.17.33-.26l.25-.23.31-.28.24-.24.14-.15-.15-.11-.18.19Z"/><path class="cls-3" d="M66.62,129.93h0v0l0-.14h0a10.84,10.84,0,0,0-1.79-3.22h0l-.05-.06-.07-.08h0a11.14,11.14,0,0,0-1.87-1.76.65.65,0,0,1-.1.15,10.94,10.94,0,0,1,1.85,1.75l-.53.54c-.12.13-.24.26-.37.38s-.44.38-.66.57l-.35.29c-.3.24-.62.46-.94.67l-.13.09a12.8,12.8,0,0,1-1.13.66l-.37.17c-.27.13-.54.27-.82.38s-.32.12-.48.18-.5.19-.75.26l-.54.15c-.25.06-.49.13-.74.18l-.58.1-.57.09a.8.8,0,0,0,0,.15.06.06,0,0,1,0,0l.67-.1.54-.09c.28-.06.55-.14.82-.21l.47-.13c.35-.1.69-.23,1-.36l.23-.08c.41-.17.81-.36,1.21-.56l.37-.22c.26-.14.52-.29.77-.45s.3-.21.45-.31.43-.29.64-.46.29-.24.44-.37.39-.32.58-.5l.42-.42.49-.5a11,11,0,0,1,1.78,3.22c-.22.21-.44.4-.66.6s-.3.28-.46.41-.53.41-.81.61l-.41.31c-.36.25-.73.48-1.1.7l-.19.12c-.44.25-.89.49-1.35.7l-.32.14c-.36.16-.71.31-1.08.45l-.52.17c-.31.11-.61.21-.93.3s-.4.1-.61.15l-.87.2-.66.1-.73.1a.64.64,0,0,0,0,.07l0,.11.75-.11.63-.1c.32-.06.63-.14.94-.21l.55-.13c.38-.11.75-.24,1.12-.37l.34-.11a14.47,14.47,0,0,0,1.41-.59l.38-.2c.33-.16.66-.32,1-.51s.33-.21.5-.31.54-.32.8-.5l.51-.39c.24-.18.48-.35.71-.54s.34-.3.51-.45.4-.34.59-.52A10.68,10.68,0,0,1,67,133.4v.44c-.21.17-.43.32-.65.48s-.29.22-.45.33l-.74.47-.41.27c-.32.19-.65.36-1,.54l-.22.12c-.41.21-.82.4-1.24.59l-.36.14c-.3.13-.6.25-.91.36l-.52.17-.78.26-.57.14-.76.2-.59.11-.64.12v0l.11.15.62-.12.56-.11.83-.22.49-.12c.33-.1.67-.21,1-.33l.3-.1c.43-.15.85-.32,1.27-.5l.35-.17.88-.41.47-.26.73-.4.49-.32.66-.42c.17-.11.33-.24.49-.36s.37-.25.54-.39a10.78,10.78,0,0,1-1.43,4.73c-.31.17-.63.32-1,.48l-.36.18c-.44.21-.89.4-1.35.58l-.33.12c-.35.14-.7.27-1.06.38l-.52.16-.77.23.23.12.77-.23.37-.11c.46-.15.9-.31,1.35-.49l.29-.12,1-.44.47-.23.66-.33a10.91,10.91,0,0,1-2.6,2.86L63,142a10.87,10.87,0,0,0,2.7-3.07h0v0l.17-.27h0a10.92,10.92,0,0,0,1.33-4.71h0v-.24h0c0-.1,0-.2,0-.3A11,11,0,0,0,66.62,129.93Z"/><path class="cls-3" d="M56.21,144.19a10.77,10.77,0,0,1-7.05-2.62l.5.08.5.08.65.07.53.07.54,0c.61,0,1.22.08,1.83.08a25,25,0,0,0,3.12-.2l.23,0,.71-.11.24,0-.32-.14-.3.05-.51.07-.65.07-.49.05-.67,0-.47,0H53.45l-.74,0-.41,0c-.27,0-.53,0-.79-.06s-.24,0-.36,0l-.94-.11-.2,0c-.37-.05-.75-.12-1.12-.19a11,11,0,0,1-2.77-4.09l.41.14c.14.05.28.11.43.15l.5.16.43.13.52.13.43.11.53.11.43.08c.18,0,.36.06.55.09l.41.07.59.06.39.05.65,0,.33,0c.33,0,.66,0,1,0h.06a1.3,1.3,0,0,1-.15-.18l-.9,0-.32,0-.66,0-.39,0-.59-.07-.42-.06-.55-.09-.42-.09-.54-.11-.42-.11-.52-.13-.44-.13-.5-.16-.44-.15L46,137a10.84,10.84,0,0,1-.62-3.62v-.14l.35.17.35.16.43.19.35.15.45.17.35.12.48.16.32.1c.18.06.37.1.55.15l.27.07c.27.07.55.13.82.18l.14,0,.7.12.29,0,.44.05h0c0-.06,0-.12-.05-.18l-.3,0-.39,0-.45-.08-.37-.06-.46-.1-.36-.08-.48-.13-.33-.09-.54-.18-.26-.08-.78-.3a.84.84,0,0,1-.14-.06l-.63-.27-.27-.13-.47-.22a10.58,10.58,0,0,1,.75-3.61l.71.38.43.23c.33.16.66.3,1,.43l.24.11c.42.16.85.29,1.29.41.12,0,.25.06.38.09s.55.13.82.18v-.06s0-.08,0-.12l-.7-.16c-.16,0-.32-.06-.48-.11-.35-.09-.68-.21-1-.33l-.25-.08c-.41-.15-.82-.33-1.22-.52l-.34-.19c-.27-.14-.54-.28-.8-.44a10.7,10.7,0,0,1,1.85-3c.2.12.41.22.62.32l.24.14c.3.14.61.27.92.39l.2.07c.25.08.5.17.76.24l.36.08.5.11,0-.11,0-.07c-.2,0-.39-.08-.59-.12l-.27-.06c-.32-.09-.63-.19-.94-.3l-.19-.08-.72-.31-.32-.17-.5-.27a10.76,10.76,0,0,1,5.7-3.29l.32-.25a11,11,0,0,0-6.18,3.45h0l-.05.06-.07.08h0a11.18,11.18,0,0,0-1.86,3h0l0,.1,0,.07h0a10.94,10.94,0,0,0-.76,3.62h0v.2h0v.23a10.91,10.91,0,0,0,.59,3.54h0l.07.19v0h0a11.11,11.11,0,0,0,2.67,4.11h0l.23.21,0,0h0a11,11,0,0,0,13.69.89h-.33A10.68,10.68,0,0,1,56.21,144.19Z"/><polygon class="cls-3" points="71.17 133.1 71.27 132.46 69.66 132.46 69.22 135.25 70.83 135.25 70.93 134.63 70.06 134.63 70.14 134.16 70.94 134.16 71.04 133.56 70.24 133.56 70.31 133.1 71.17 133.1"/><path class="cls-3" d="M72.76,134.23l-.16,1h.68l.16-1v0c0-.16,0-.27,0-.33a.62.62,0,0,0-.17-.46.66.66,0,0,0-.46-.16.7.7,0,0,0-.35.09,1.28,1.28,0,0,0-.31.28l0-.31h-.65l-.31,1.93H72l.14-.9a1.08,1.08,0,0,1,.14-.41.35.35,0,0,1,.28-.12.3.3,0,0,1,.2.06.27.27,0,0,1,.06.19v.07S72.76,134.2,72.76,134.23Z"/><path class="cls-3" d="M75,135.51a.45.45,0,0,1-.33.12.34.34,0,0,1-.22-.06.24.24,0,0,1-.1-.18h-.7a.73.73,0,0,0,.3.53,1.19,1.19,0,0,0,.7.18,1.38,1.38,0,0,0,.55-.1,1,1,0,0,0,.4-.28,1.72,1.72,0,0,0,.25-.8s0-.09,0-.12l.23-1.48h-.64l0,.27a1.11,1.11,0,0,0-.29-.25.86.86,0,0,0-.36-.08.94.94,0,0,0-.72.33,1.16,1.16,0,0,0-.28.81A1,1,0,0,0,74,135a.71.71,0,0,0,.55.24.86.86,0,0,0,.36-.08.73.73,0,0,0,.29-.24l0,.17A.64.64,0,0,1,75,135.51Zm-.15-.74a.4.4,0,0,1-.29-.11.44.44,0,0,1-.11-.3.61.61,0,0,1,.13-.39.43.43,0,0,1,.35-.16.4.4,0,0,1,.29.11.42.42,0,0,1,.11.29.54.54,0,0,1-.14.4A.41.41,0,0,1,74.88,134.77Z"/><polygon class="cls-3" points="76.34 135.25 77.02 135.25 77.32 133.32 76.64 133.32 76.34 135.25"/><path class="cls-3" d="M77.32,132.49a.36.36,0,0,0-.27-.1.33.33,0,0,0-.25.1.38.38,0,0,0-.11.26.36.36,0,0,0,.11.26.34.34,0,0,0,.25.11.35.35,0,0,0,.26-.11.33.33,0,0,0,.11-.26A.35.35,0,0,0,77.32,132.49Z"/><path class="cls-3" d="M79,134.23l-.16,1h.68l.16-1v0a2,2,0,0,0,0-.33.62.62,0,0,0-.17-.46.66.66,0,0,0-.46-.16.67.67,0,0,0-.34.09,1.15,1.15,0,0,0-.32.28l0-.31h-.65l-.31,1.93h.67l.14-.9a.93.93,0,0,1,.15-.41.32.32,0,0,1,.27-.12.3.3,0,0,1,.2.06.27.27,0,0,1,.07.19s0,.05,0,.07S79,134.2,79,134.23Z"/><path class="cls-3" d="M82.09,134.45v0a.88.88,0,0,0,0-.14,1,1,0,0,0-.27-.72.94.94,0,0,0-.72-.28A1.06,1.06,0,0,0,80,134.37a.91.91,0,0,0,.26.71,1,1,0,0,0,.73.25,1.42,1.42,0,0,0,.48-.08,1.14,1.14,0,0,0,.38-.23l-.37-.37a.84.84,0,0,1-.24.16.48.48,0,0,1-.24.06.33.33,0,0,1-.27-.1.38.38,0,0,1-.09-.28v0Zm-1.23-.64a.41.41,0,0,1,.26-.09.37.37,0,0,1,.25.09.34.34,0,0,1,.1.25h-.78A.58.58,0,0,1,80.86,133.81Z"/><path class="cls-3" d="M83.45,133.26a1.11,1.11,0,0,0-.8.31,1.09,1.09,0,0,0-.31.8,1,1,0,0,0,.26.71,1,1,0,0,0,.73.25,1.42,1.42,0,0,0,.48-.08,1.14,1.14,0,0,0,.38-.23l-.37-.37a.84.84,0,0,1-.24.16.46.46,0,0,1-.23.06.37.37,0,0,1-.28-.1.38.38,0,0,1-.09-.28v0h1.44v0a.88.88,0,0,0,0-.14,1,1,0,0,0-.27-.72A.94.94,0,0,0,83.45,133.26Zm-.42.8a.45.45,0,0,1,.17-.25.37.37,0,0,1,.25-.09.35.35,0,0,1,.25.09.34.34,0,0,1,.1.25Z"/><path class="cls-3" d="M86.13,133.28a.68.68,0,0,0-.35.09.73.73,0,0,0-.24.28l0-.33h-.65l-.31,1.93h.67l.14-.88a.71.71,0,0,1,.16-.38.4.4,0,0,1,.31-.12H86l.12,0,.14-.61h-.14Z"/><path class="cls-3" d="M87,132.39a.35.35,0,0,0-.26.1.37.37,0,0,0-.1.26.35.35,0,0,0,.1.26.37.37,0,1,0,.52-.52A.34.34,0,0,0,87,132.39Z"/><polygon class="cls-3" points="86.28 135.25 86.97 135.25 87.27 133.32 86.59 133.32 86.28 135.25"/><path class="cls-3" d="M89,133.26a.69.69,0,0,0-.34.09,1.12,1.12,0,0,0-.31.28l.05-.31h-.66l-.3,1.93h.67l.14-.9a.93.93,0,0,1,.14-.41.35.35,0,0,1,.28-.12.3.3,0,0,1,.2.06.27.27,0,0,1,.06.19v.07s0,.06,0,.09l-.16,1h.69l.16-1v0a3.19,3.19,0,0,0,0-.33.61.61,0,0,0-.16-.46A.68.68,0,0,0,89,133.26Z"/><path class="cls-3" d="M91.68,133.32l0,.27a1.11,1.11,0,0,0-.29-.25.86.86,0,0,0-.36-.08.91.91,0,0,0-.72.33,1.16,1.16,0,0,0-.29.81,1,1,0,0,0,.22.64.69.69,0,0,0,.55.24.86.86,0,0,0,.36-.08.73.73,0,0,0,.29-.24l0,.17a.64.64,0,0,1-.16.38.45.45,0,0,1-.33.12.34.34,0,0,1-.22-.06.24.24,0,0,1-.1-.18h-.71a.78.78,0,0,0,.31.53,1.19,1.19,0,0,0,.7.18,1.38,1.38,0,0,0,.55-.1,1,1,0,0,0,.4-.28,1.72,1.72,0,0,0,.25-.8.37.37,0,0,1,0-.12l.23-1.48Zm-.27,1.29a.43.43,0,0,1-.34.16.4.4,0,0,1-.29-.11.44.44,0,0,1-.11-.3.56.56,0,0,1,.13-.39.45.45,0,0,1,.64-.05.42.42,0,0,1,.11.29A.59.59,0,0,1,91.41,134.61Z"/><path class="cls-3" d="M81.05,139.35a.45.45,0,0,0-.37.17.63.63,0,0,0-.15.43.44.44,0,0,0,.12.32.46.46,0,0,0,.33.12.48.48,0,0,0,.37-.17.6.6,0,0,0,.15-.42.45.45,0,0,0-.12-.33A.48.48,0,0,0,81.05,139.35Z"/><path class="cls-3" d="M75.7,139.32a.47.47,0,0,0-.37.19.68.68,0,0,0-.15.45.41.41,0,0,0,.11.31.4.4,0,0,0,.29.11.48.48,0,0,0,.39-.18.66.66,0,0,0,.15-.45.4.4,0,0,0-.12-.31A.38.38,0,0,0,75.7,139.32Z"/><path class="cls-3" d="M82.89,137.19H69.31a1.09,1.09,0,0,0-1,1.16V141a1.1,1.1,0,0,0,1,1.17H82.89a1.11,1.11,0,0,0,1-1.17v-2.65A1.1,1.1,0,0,0,82.89,137.19Zm-10.82,3.33a1.54,1.54,0,0,1-1.18.47,1.6,1.6,0,0,1-1.15-.4,1.36,1.36,0,0,1-.43-1.06,1.82,1.82,0,0,1,.13-.7,1.88,1.88,0,0,1,.38-.58,1.5,1.5,0,0,1,.56-.36,1.92,1.92,0,0,1,.69-.12,1.56,1.56,0,0,1,.77.17,1.62,1.62,0,0,1,.57.54l-.65.45a.79.79,0,0,0-.29-.31.72.72,0,0,0-.4-.1.79.79,0,0,0-.63.28,1,1,0,0,0-.25.7.82.82,0,0,0,.19.57.71.71,0,0,0,.53.21.85.85,0,0,0,.23,0l.2-.08a.58.58,0,0,0,.14-.13.77.77,0,0,0,.1-.18h-.7l.1-.63h1.54A2,2,0,0,1,72.07,140.52Zm2.22-1.1-.13,0h-.11a.42.42,0,0,0-.34.13.82.82,0,0,0-.18.42l-.15,1h-.73l.33-2.12h.72l0,.36a.67.67,0,0,1,.26-.31.71.71,0,0,1,.39-.1h.14Zm2.18,1.23a1.26,1.26,0,0,1-.92.34,1.09,1.09,0,0,1-.79-.28,1,1,0,0,1-.3-.76,1.21,1.21,0,0,1,.35-.89,1.25,1.25,0,0,1,.9-.34,1.13,1.13,0,0,1,.81.28,1,1,0,0,1,.31.77A1.16,1.16,0,0,1,76.47,140.65Zm2.88-.9v0a1.71,1.71,0,0,1-.35.91.82.82,0,0,1-.36.21,1.48,1.48,0,0,1-.49.08,1.15,1.15,0,0,1-.73-.21.72.72,0,0,1-.27-.58,1.62,1.62,0,0,1,0-.21q0-.12.06-.39l.13-.81h.74l-.14.87c0,.12,0,.22,0,.29a1.18,1.18,0,0,0,0,.16.33.33,0,0,0,.07.23.29.29,0,0,0,.21.08c.22,0,.36-.25.44-.74,0,0,0,0,0-.06l.13-.83h.75Zm2.6.87a1,1,0,0,1-.79.36.86.86,0,0,1-.39-.09,1.17,1.17,0,0,1-.32-.28,1.09,1.09,0,0,1,0,.18c0,.06,0,.11,0,.15l-.14.9h-.74l.48-3.05h.71l0,.29a1.1,1.1,0,0,1,.35-.27.87.87,0,0,1,.4-.09.77.77,0,0,1,.6.27,1.1,1.1,0,0,1,.23.71A1.37,1.37,0,0,1,82,140.62Z"/><text class="cls-4" transform="translate(95.5 134.91)"><tspan class="cls-5">+</tspan><tspan x="5.99" y="0">2</tspan><tspan class="cls-6" x="12.07" y="0">3</tspan><tspan x="18.16" y="0">7 6 </tspan><tspan class="cls-7" x="37.22" y="0">9</tspan><tspan x="43.73" y="0">3 14 15 </tspan><tspan class="cls-8" x="80.54" y="0">5</tspan><tspan x="86.68" y="0">5 · 6 </tspan><tspan class="cls-9" x="111.92" y="0">7</tspan><tspan x="118.22" y="0">8 12 15 98</tspan></text><path class="cls-10" d="M485.32,9.68a38.91,38.91,0,1,0,38.91,38.91A39,39,0,0,0,485.32,9.68Zm0,77.28A38.38,38.38,0,1,1,523.7,48.59,38.41,38.41,0,0,1,485.32,87Z"/><path class="cls-10" d="M485.32,12a36.62,36.62,0,1,0,36.61,36.62A36.66,36.66,0,0,0,485.32,12Zm0,72.43a35.82,35.82,0,1,1,35.81-35.81A35.85,35.85,0,0,1,485.32,84.4Z"/><path class="cls-10" d="M510.48,48.59a25.16,25.16,0,1,0-25.16,25.15A25.19,25.19,0,0,0,510.48,48.59ZM485.32,73.21a24.62,24.62,0,1,1,24.62-24.62A24.65,24.65,0,0,1,485.32,73.21Z"/><path class="cls-10" d="M455.84,48.68a2.58,2.58,0,0,0,1.11-1,3,3,0,0,0,.48-1.46,2.69,2.69,0,0,0-.23-1.38,2.55,2.55,0,0,0-.89-1,2.7,2.7,0,0,0-1.3-.47h-.23l-.2,2.7.95.07.12-1.55a1.54,1.54,0,0,1,.65.64,1.73,1.73,0,0,1,.16.91,1.91,1.91,0,0,1-.65,1.32,1.77,1.77,0,0,1-1.35.45,1.69,1.69,0,0,1-1.24-.63,1.81,1.81,0,0,1-.42-1.36,2.13,2.13,0,0,1,.84-1.53l-.65-.78a3,3,0,0,0-.83.95,3.44,3.44,0,0,0-.36,1.29,2.78,2.78,0,0,0,.77,2.24,2.68,2.68,0,0,0,1.8.84A2.88,2.88,0,0,0,455.84,48.68Z"/><rect class="cls-10" x="454.65" y="39.26" width="1" height="5.5" transform="translate(317.43 477.85) rotate(-77.74)"/><path class="cls-10" d="M456.14,40.89a2,2,0,0,0,2.63-1.28,2.14,2.14,0,0,0,.08-1.09,2,2,0,0,0-.48-1,2.08,2.08,0,0,0-.91-.6,2,2,0,0,0-1.07-.07,2,2,0,0,0-1,.48,2.1,2.1,0,0,0-.6.91,2.06,2.06,0,0,0,1.32,2.62Zm-.43-2.33a1,1,0,0,1,.55-.64,1.29,1.29,0,0,1,1.58.54,1,1,0,0,1,.06.84,1,1,0,0,1-.56.63,1.14,1.14,0,0,1-.89,0,1.09,1.09,0,0,1-.68-.55A1,1,0,0,1,455.71,38.56Z"/><path class="cls-10" d="M460.07,36.15,459.7,36a2.06,2.06,0,0,0,.63-.33,1.71,1.71,0,0,0,.41-.51,1.78,1.78,0,0,0,.11-1.45,2.11,2.11,0,0,0-1-1.2,2.16,2.16,0,0,0-1.59-.24,1.72,1.72,0,0,0-1.14.89,1.58,1.58,0,0,0-.2.66,1.91,1.91,0,0,0,.08.7l-1.74-.93-.46.87L459.6,37Zm-.87-.77a1.17,1.17,0,0,1-.9-.13,1.15,1.15,0,0,1-.6-.67,1,1,0,0,1,.09-.84,1,1,0,0,1,.65-.53,1.23,1.23,0,0,1,.89.13,1.16,1.16,0,0,1,.59.67,1,1,0,0,1-.07.84A1,1,0,0,1,459.2,35.38Z"/><path class="cls-10" d="M460.22,31.83a2.11,2.11,0,0,0,1.52.47A1.81,1.81,0,0,0,463.32,31a2,2,0,0,0,0-.71l.33.26.61-.79-3.13-2.44-.61.79.34.27a1.82,1.82,0,0,0-.67.21,1.71,1.71,0,0,0-.52.45,1.73,1.73,0,0,0-.35,1.4A2.16,2.16,0,0,0,460.22,31.83Zm.34-2.35a1,1,0,0,1,.73-.42,1.3,1.3,0,0,1,1.34,1,1,1,0,0,1-.22.81,1,1,0,0,1-.73.41,1.24,1.24,0,0,1-.86-.28,1.14,1.14,0,0,1-.47-.75A1,1,0,0,1,460.56,29.48Z"/><rect class="cls-10" x="462.74" y="24.25" width="1" height="5.5" transform="translate(120.08 339.35) rotate(-45.64)"/><polygon class="cls-10" points="470.07 24.9 469.48 24.09 467.93 25.22 467.1 24.08 468.65 22.95 468.07 22.16 466.52 23.28 465.95 22.5 467.5 21.37 466.91 20.56 464.54 22.29 467.7 26.63 470.07 24.9"/><path class="cls-10" d="M471.51,24.07l-.74-1.4a3.8,3.8,0,0,1-.34-.74,1.12,1.12,0,0,1,0-.63.75.75,0,0,1,.36-.42.59.59,0,0,1,.77.13,4.45,4.45,0,0,1,.5.81l.81,1.53.87-.46-1.22-2.32a1.44,1.44,0,0,0-.8-.75,1.33,1.33,0,0,0-1.07.1,1.44,1.44,0,0,0-.45.37,2.28,2.28,0,0,0-.36.63l-.19-.36-.88.47,1.86,3.51Z"/><path class="cls-10" d="M474.62,21.91a1.81,1.81,0,0,0,1.46.11,1.71,1.71,0,0,0,.58-.32,1.58,1.58,0,0,0,.4-.53,1.37,1.37,0,0,1,.12.67.72.72,0,0,1-.22.42,1.74,1.74,0,0,1-1.11.41.81.81,0,0,1-.44-.12l-1,.36a1.85,1.85,0,0,0,.6.52,1.83,1.83,0,0,0,.78.19,2.68,2.68,0,0,0,1-.18,2,2,0,0,0,1.35-1.13,2.3,2.3,0,0,0-.09-1.53l-1.09-3.23-.94.32.14.42a1.92,1.92,0,0,0-.71-.2,1.88,1.88,0,0,0-.66.09,1.77,1.77,0,0,0-1,.89,2,2,0,0,0-.06,1.63A2,2,0,0,0,474.62,21.91Zm0-2.37a1,1,0,0,1,.63-.55,1.06,1.06,0,0,1,.84,0,1.1,1.1,0,0,1,.55.67,1.13,1.13,0,0,1,0,.87,1,1,0,0,1-.63.53,1,1,0,0,1-.85,0,1.18,1.18,0,0,1-.56-.67A1.08,1.08,0,0,1,474.6,19.54Z"/><rect class="cls-10" x="478.48" y="17.17" width="1" height="3.97" transform="translate(6.62 100.78) rotate(-12.09)"/><path class="cls-10" d="M478,16.78a.59.59,0,0,0,.48.09.62.62,0,0,0,.4-.27.65.65,0,0,0-.19-.9.63.63,0,0,0-.48-.09.61.61,0,0,0-.4.28.56.56,0,0,0-.09.47A.65.65,0,0,0,478,16.78Z"/><path class="cls-10" d="M481.62,20.7l-.17-1.59a5.59,5.59,0,0,1,0-.8,1.09,1.09,0,0,1,.24-.59.73.73,0,0,1,.5-.25.59.59,0,0,1,.4.08.68.68,0,0,1,.26.33,4.36,4.36,0,0,1,.16.93l.18,1.73,1-.1-.27-2.61a1.41,1.41,0,0,0-.46-1,1.38,1.38,0,0,0-1-.31,1.48,1.48,0,0,0-.54.17,2.44,2.44,0,0,0-.57.46l-.05-.4-1,.1.42,3.95Z"/><path class="cls-10" d="M486.82,20.61a2.33,2.33,0,0,0,1.05-.16,2,2,0,0,0,.78-.62l-.82-.44a1.29,1.29,0,0,1-1,.34,1.13,1.13,0,0,1-.76-.29,1,1,0,0,1-.33-.69l3.19.17,0-.19a2.2,2.2,0,0,0-.51-1.62,2,2,0,0,0-1.49-.67,2,2,0,0,0-1.5.52,2.07,2.07,0,0,0-.66,1.48,2,2,0,0,0,.51,1.5A2.06,2.06,0,0,0,486.82,20.61Zm-.58-3.13a1.2,1.2,0,0,1,.74-.2,1.12,1.12,0,0,1,.67.24,1.09,1.09,0,0,1,.36.56L485.85,18A1.39,1.39,0,0,1,486.24,17.48Z"/><path class="cls-10" d="M491.33,21.22a2.53,2.53,0,0,0,1.06,0,2,2,0,0,0,.88-.49l-.74-.56a1.32,1.32,0,0,1-1,.18,1.18,1.18,0,0,1-.7-.41,1.1,1.1,0,0,1-.22-.74l3.13.68,0-.18a2.18,2.18,0,0,0-.24-1.68,2.08,2.08,0,0,0-1.37-.91,2,2,0,0,0-1.56.28,2.11,2.11,0,0,0-.89,1.35,2,2,0,0,0,.26,1.57A2.1,2.1,0,0,0,491.33,21.22ZM491.27,18a1.26,1.26,0,0,1,1.38.27,1,1,0,0,1,.26.61l-2.11-.45A1.38,1.38,0,0,1,491.27,18Z"/><path class="cls-10" d="M494.69,22.06l.53-1.51.06-.19a2.52,2.52,0,0,1,.52-1,.46.46,0,0,1,.46-.14.83.83,0,0,1,.24.18l.58-.71a1.06,1.06,0,0,0-.35-.23,1,1,0,0,0-.53,0,1.11,1.11,0,0,0-.49.3l.16-.47-.8-.28-1.32,3.75Z"/><path class="cls-10" d="M498.2,18.81a.62.62,0,0,0,.48,0A.66.66,0,0,0,499,18a.59.59,0,0,0-.33-.36.66.66,0,0,0-.84.33.69.69,0,0,0,0,.51A.62.62,0,0,0,498.2,18.81Z"/><rect class="cls-10" x="495.28" y="20.45" width="3.97" height="1" transform="translate(280.47 468.96) rotate(-66.59)"/><path class="cls-10" d="M498.52,23.74l.79-1.38a3.75,3.75,0,0,1,.44-.68,1,1,0,0,1,.53-.34.71.71,0,0,1,.55.08.55.55,0,0,1,.28.3.6.6,0,0,1,0,.42,4.15,4.15,0,0,1-.41.85l-.86,1.51.86.49L502,22.7a1.45,1.45,0,0,0,.21-1.07,1.39,1.39,0,0,0-.67-.85,1.32,1.32,0,0,0-.55-.18,2.38,2.38,0,0,0-.73,0l.2-.35-.86-.49-2,3.45Z"/><path class="cls-10" d="M502.71,26.49a1.8,1.8,0,0,0,.59.32,1.58,1.58,0,0,0,.66.05,1.62,1.62,0,0,1-.5.46.68.68,0,0,1-.47,0,1.44,1.44,0,0,1-.58-.31,1.36,1.36,0,0,1-.37-.4,1,1,0,0,1-.14-.44l-.85-.68a1.66,1.66,0,0,0-.12.79,1.77,1.77,0,0,0,.26.75,2.94,2.94,0,0,0,.67.73,2,2,0,0,0,1.68.52,2.26,2.26,0,0,0,1.24-.9l2.13-2.65-.77-.63-.28.35a2.2,2.2,0,0,0-.21-.71,1.81,1.81,0,0,0-1.74-.89,2.23,2.23,0,0,0-1.89,2.3A1.83,1.83,0,0,0,502.71,26.49Zm.56-2.16a1.12,1.12,0,0,1,.74-.43,1.08,1.08,0,0,1,.95,1.79,1.11,1.11,0,0,1-.74.45,1,1,0,0,1-.79-.24,1,1,0,0,1-.42-.74A1.15,1.15,0,0,1,503.27,24.33Z"/><path class="cls-10" d="M508,32.13a2.5,2.5,0,0,0,2.41,1.09,2.69,2.69,0,0,0,1.29-.5l.18-.14-1.6-2.18-.78.57.92,1.25a1.58,1.58,0,0,1-.9,0,1.71,1.71,0,0,1-.71-.59,1.87,1.87,0,0,1-.38-1.43,1.82,1.82,0,0,1,2.08-1.55,1.83,1.83,0,0,1,1.21.76,2.12,2.12,0,0,1,.36,1.71l1,.16a3.15,3.15,0,0,0,0-1.26,3.27,3.27,0,0,0-.57-1.21,2.79,2.79,0,0,0-2.05-1.2,2.75,2.75,0,0,0-1.91.54,2.88,2.88,0,0,0-.94,1.16,2.71,2.71,0,0,0-.22,1.45A3.11,3.11,0,0,0,508,32.13Z"/><path class="cls-10" d="M510.21,35.48l1.42-.75.17-.09a2.71,2.71,0,0,1,1.06-.39.48.48,0,0,1,.43.21.75.75,0,0,1,.06.3l.9-.13a.91.91,0,0,0-.47-.78,1.14,1.14,0,0,0-.57-.11l.44-.24-.4-.75-3.51,1.86Z"/><path class="cls-10" d="M512.71,35.9a2,2,0,0,0-1.17,1.1,2,2,0,0,0,0,1.57,2.07,2.07,0,0,0,.63.9,2.12,2.12,0,0,0,1,.44,2.1,2.1,0,0,0,1.08-.12,2,2,0,0,0,.87-.63,2,2,0,0,0,.44-1,2.12,2.12,0,0,0-.11-1.09,2.1,2.1,0,0,0-2.69-1.18Zm1.82,1.53a1.06,1.06,0,0,1,0,.84,1.19,1.19,0,0,1-.67.59,1.14,1.14,0,0,1-.89,0,1,1,0,0,1-.58-.61,1,1,0,0,1,0-.83,1.15,1.15,0,0,1,.68-.59,1.17,1.17,0,0,1,.88,0A1.06,1.06,0,0,1,514.53,37.43Z"/><path class="cls-10" d="M513.49,41a1.53,1.53,0,0,0-.68.72,1.79,1.79,0,0,0-.06,1.09,1.85,1.85,0,0,0,.44.92,1.51,1.51,0,0,0,.83.43,3.78,3.78,0,0,0,1.42-.13l1.65-.34-.2-1-1.91.4a2.46,2.46,0,0,1-.73.09.65.65,0,0,1-.39-.18.82.82,0,0,1-.21-.39.68.68,0,0,1,0-.43.6.6,0,0,1,.28-.31,2.73,2.73,0,0,1,.74-.24l1.87-.39-.2-1-1.62.34A4.8,4.8,0,0,0,513.49,41Z"/><path class="cls-10" d="M511.91,46.36l1.87-.09a2.21,2.21,0,0,0-.37.61,1.68,1.68,0,0,0-.09.64,1.73,1.73,0,0,0,.66,1.3,2.08,2.08,0,0,0,1.51.5A2.16,2.16,0,0,0,517,48.7a1.72,1.72,0,0,0,.52-1.34,1.69,1.69,0,0,0-.16-.67,1.91,1.91,0,0,0-.44-.56l.44,0,0-1-5.42.25Zm2.6.14a1.24,1.24,0,0,1,.84-.35,1.19,1.19,0,0,1,.86.28,1,1,0,0,1,.35.76,1,1,0,0,1-.29.79,1.14,1.14,0,0,1-.82.34,1.16,1.16,0,0,1-.86-.27,1,1,0,0,1-.37-.75A1.1,1.1,0,0,1,514.51,46.5Z"/><polygon class="cls-10" points="455.05 54.61 456.38 55.57 455.87 54.01 457.2 53.05 455.56 53.05 455.05 51.49 454.55 53.05 452.91 53.05 454.23 54.01 453.73 55.57 455.05 54.61"/><polygon class="cls-10" points="516.09 53.05 515.59 51.49 515.08 53.05 513.44 53.05 514.77 54.01 514.26 55.57 515.59 54.61 516.91 55.57 516.41 54.01 517.73 53.05 516.09 53.05"/><polygon class="cls-10" points="458.04 62.13 458.76 61.8 457.8 59.68 457.08 60 457.39 60.69 454.26 62.09 454.6 62.83 457.72 61.43 458.04 62.13"/><path class="cls-10" d="M456.5,65.18a1,1,0,0,1-.13-.63.86.86,0,0,1,.31-.51l1.26,2.18.13-.08a1.66,1.66,0,0,0,.85-1,1.71,1.71,0,0,0-1.17-2,1.66,1.66,0,0,0-1.26.2,1.61,1.61,0,0,0-.78,1,1.59,1.59,0,0,0,.2,1.26,1.81,1.81,0,0,0,.55.63,1.52,1.52,0,0,0,.75.25l-.07-.72A1.07,1.07,0,0,1,456.5,65.18Zm1.23-1.37a.92.92,0,0,1,.45.4.89.89,0,0,1,.12.54.77.77,0,0,1-.22.48l-.84-1.47A1,1,0,0,1,457.73,63.81Z"/><polygon class="cls-10" points="459.17 63.62 460.66 63.97 460.2 63.17 458.88 63.13 459.17 63.62"/><rect class="cls-10" x="457.06" y="66.19" width="4.32" height="0.78" transform="translate(43.58 272.88) rotate(-34.65)"/><path class="cls-10" d="M458.77,68.48a.4.4,0,0,0-.33.09.45.45,0,0,0,.22.8.4.4,0,0,0,.33-.09.39.39,0,0,0,.17-.3.4.4,0,0,0-.09-.33A.39.39,0,0,0,458.77,68.48Z"/><path class="cls-10" d="M461.05,67.54a.45.45,0,1,0-.89-.12.49.49,0,0,0,.09.33.46.46,0,0,0,.3.17.4.4,0,0,0,.33-.09A.39.39,0,0,0,461.05,67.54Z"/><path class="cls-10" d="M464.67,70.19l-.24-.73-2.26.73a3.51,3.51,0,0,0-.63.24,1.44,1.44,0,0,0-.32.23,1.32,1.32,0,0,0-.37.92,1.25,1.25,0,0,0,.39,1,1.23,1.23,0,0,0,.92.39,1.28,1.28,0,0,0,.94-.39,1.31,1.31,0,0,0,.41-.94,1.25,1.25,0,0,0-.37-.91ZM462.55,72a.55.55,0,0,1-.4.18.53.53,0,0,1-.39-.16.52.52,0,0,1-.15-.38.62.62,0,0,1,.18-.4.55.55,0,0,1,.4-.18.46.46,0,0,1,.38.15.53.53,0,0,1,.16.39A.55.55,0,0,1,462.55,72Z"/><path class="cls-10" d="M466.91,73.37a1.28,1.28,0,0,0,.28-1,1.33,1.33,0,0,0-1.45-1.2,1.23,1.23,0,0,0-.89.48,1.33,1.33,0,0,0-.31,1,1.21,1.21,0,0,0,.47.87l-1.48.65.31.69,2.18-1a3.6,3.6,0,0,0,.6-.3A1.2,1.2,0,0,0,466.91,73.37Zm-.62-.48a.58.58,0,0,1-.38.21.5.5,0,0,1-.39-.11.51.51,0,0,1-.2-.37.6.6,0,0,1,.13-.42.59.59,0,0,1,.39-.21.52.52,0,0,1,.4.11.49.49,0,0,1,.18.37A.56.56,0,0,1,466.29,72.89Z"/><path class="cls-10" d="M469.18,73.32a1.28,1.28,0,0,0-1-.19,1.19,1.19,0,0,0-.69.44l.64.42a.56.56,0,0,1,.31-.12.51.51,0,0,1,.32.08.46.46,0,0,1,.2.27.38.38,0,0,1-.05.31.42.42,0,0,1-.21.16.52.52,0,0,1-.28,0,1.47,1.47,0,0,1-.41-.16l-.38.57a1.12,1.12,0,0,1,.49.57.6.6,0,0,1-.05.54.66.66,0,0,1-.4.27.63.63,0,0,1-.49-.11.65.65,0,0,1-.29-.37.83.83,0,0,1,.08-.54l-.67-.43a1.47,1.47,0,0,0-.19,1.08,1.4,1.4,0,0,0,.63.86,1.51,1.51,0,0,0,1.11.25,1.28,1.28,0,0,0,.88-.58,1,1,0,0,0,.18-.68,1.08,1.08,0,0,0-.28-.66,1.1,1.1,0,0,0,.58-.07.93.93,0,0,0,.41-.35,1,1,0,0,0,.13-.84A1.2,1.2,0,0,0,469.18,73.32Z"/><polygon class="cls-10" points="472.58 75.36 471.85 75.86 472.64 76.22 471.22 79.38 471.95 79.7 473.68 75.85 472.58 75.36"/><path class="cls-10" d="M476.41,76.75l-2.58,2-.23.7,1.75.57-.27.83.75.24.27-.82.36.12.23-.71-.36-.12.85-2.58Zm-.83,2.59-.91-.3L476,78Z"/><polygon class="cls-10" points="479.36 78.42 480.22 78.55 479.67 81.97 480.46 82.1 481.12 77.93 479.94 77.74 479.36 78.42"/><path class="cls-10" d="M482.39,80.45l.64.19a.86.86,0,0,1,.26-.19.63.63,0,0,1,.26,0,.54.54,0,0,1,.41.21.69.69,0,0,1,.15.49.67.67,0,0,1-.21.48.62.62,0,0,1-.46.17.7.7,0,0,1-.35-.12.76.76,0,0,1-.24-.31l-.84,0a1.43,1.43,0,0,0,.46.87,1.5,1.5,0,0,0,.91.35,1.43,1.43,0,0,0,1.52-1.38,1.37,1.37,0,0,0-.33-1,1.29,1.29,0,0,0-.93-.44.56.56,0,0,0-.13,0l-.14,0,.21-.75L485,79l0-.74-2-.11Z"/><path class="cls-10" d="M489.48,79.83a1.26,1.26,0,0,0-1-.3l-.13,0-.14,0,.1-.78,1.37-.14-.08-.74-2,.2-.28,2.38.67.08a1,1,0,0,1,.23-.22.58.58,0,0,1,.25-.09.53.53,0,0,1,.44.15.69.69,0,0,1,.22.46.65.65,0,0,1-.14.5.58.58,0,0,1-.43.24.63.63,0,0,1-.36-.07.67.67,0,0,1-.29-.27l-.83.09a1.45,1.45,0,0,0,.58.78,1.43,1.43,0,0,0,1,.21,1.37,1.37,0,0,0,1-.52,1.41,1.41,0,0,0,.32-1.07A1.35,1.35,0,0,0,489.48,79.83Z"/><path class="cls-10" d="M492.72,79.22a1.27,1.27,0,0,0-1-.18l-.13,0-.13.06v-.79l1.35-.27-.15-.73-1.93.4,0,2.4h.67a.87.87,0,0,1,.21-.25.44.44,0,0,1,.24-.11.52.52,0,0,1,.45.09.7.7,0,0,1,.27.44.66.66,0,0,1-.09.52.61.61,0,0,1-.4.28.59.59,0,0,1-.37,0,.69.69,0,0,1-.31-.24l-.82.17a1.46,1.46,0,0,0,.66.72,1.47,1.47,0,0,0,1.51-2.52Z"/><rect class="cls-10" x="495.65" y="78.58" width="1.46" height="0.73" transform="translate(2.94 174.57) rotate(-20)"/><polygon class="cls-10" points="500.94 73.83 500.2 74.24 500.24 75.94 498.82 74.99 498.06 75.4 500.3 76.91 501.17 78.51 501.88 78.12 501.01 76.52 500.94 73.83"/><path class="cls-10" d="M503.77,73.18l.2.28a1.49,1.49,0,0,0-.56,0,1.28,1.28,0,0,0-.49.22,1.39,1.39,0,0,0-.58,1,1.69,1.69,0,0,0,.34,1.21,1.62,1.62,0,0,0,1,.69,1.37,1.37,0,0,0,1.12-.22,1.22,1.22,0,0,0,.35-.37,1.53,1.53,0,0,0,.2-.52l.19.26.64-.45-1.82-2.54Zm.93,1.25a1,1,0,0,1,.19.69.79.79,0,0,1-.35.56.77.77,0,0,1-.64.14,1,1,0,0,1-.59-.4,1,1,0,0,1-.18-.68.76.76,0,0,1,.34-.55.82.82,0,0,1,.65-.16A1,1,0,0,1,504.7,74.43Z"/><path class="cls-10" d="M508.3,71.33a1.59,1.59,0,0,0-.71-.46,1.66,1.66,0,0,0-1.61.37,1.56,1.56,0,0,0-.52,1,1.59,1.59,0,0,0,.43,1.26,1.62,1.62,0,0,0,2.3.12,1.64,1.64,0,0,0,.47-.73,1.59,1.59,0,0,0,0-.84A1.69,1.69,0,0,0,508.3,71.33Zm-.6,1.78a.8.8,0,0,1-.61.23,1,1,0,0,1-.63-.33.9.9,0,0,1-.25-.64.8.8,0,0,1,.27-.6.83.83,0,0,1,.62-.23.94.94,0,0,1,.62.32.9.9,0,0,1,.26.65A.75.75,0,0,1,507.7,73.11Z"/><path class="cls-10" d="M510.43,68.57l-1-.87-.51.59,1.15,1a1.93,1.93,0,0,1,.4.42.51.51,0,0,1,.08.33.6.6,0,0,1-.15.31.59.59,0,0,1-.29.19.55.55,0,0,1-.33,0,2.19,2.19,0,0,1-.5-.35l-1.13-1-.52.6,1,.85a4,4,0,0,0,.84.61,1.24,1.24,0,0,0,.78.08,1.41,1.41,0,0,0,.71-.47,1.47,1.47,0,0,0,.37-.72,1.31,1.31,0,0,0-.12-.72A3.19,3.19,0,0,0,510.43,68.57Z"/><path class="cls-10" d="M511.49,65.22a1.09,1.09,0,0,0-.72.46,1.38,1.38,0,0,0-.18.41,1.83,1.83,0,0,0,0,.58l-.27-.18-.44.64,2.57,1.77.44-.64-1-.71a4.37,4.37,0,0,1-.5-.39.82.82,0,0,1-.23-.44.59.59,0,0,1,.1-.43.5.5,0,0,1,.26-.2.51.51,0,0,1,.32,0,3.21,3.21,0,0,1,.64.38l1.13.77.44-.64-1.7-1.17A1.1,1.1,0,0,0,511.49,65.22Z"/><path class="cls-10" d="M511.81,61.67l1.37.73a1.34,1.34,0,0,0-.49.25,1.28,1.28,0,0,0-.34.42,1.35,1.35,0,0,0-.08,1.13,1.7,1.7,0,0,0,.85.93,1.6,1.6,0,0,0,1.24.15,1.4,1.4,0,0,0,.9-.7,1.46,1.46,0,0,0,.15-.49,1.57,1.57,0,0,0-.07-.55l.3.15L516,63l-3.82-2Zm1.76,1.17a.88.88,0,0,1,.7.09,1,1,0,0,1,.48.53.81.81,0,0,1-.06.66.78.78,0,0,1-.51.41,1,1,0,0,1-.7-.09.91.91,0,0,1-.47-.52.8.8,0,0,1,0-.66A.81.81,0,0,1,513.57,62.84Z"/><path class="cls-10" d="M516.4,59.57a1,1,0,0,1,0,.81.85.85,0,0,1-.39.49.88.88,0,0,1-.6.09l.89-2.35-.14-.06a1.68,1.68,0,0,0-1.32,0,1.58,1.58,0,0,0-.87,1,1.51,1.51,0,0,0,0,1.25,1.62,1.62,0,0,0,.94.85,1.55,1.55,0,0,0,1.25,0,1.59,1.59,0,0,0,.86-1,1.8,1.8,0,0,0,.13-.83,1.52,1.52,0,0,0-.27-.73Zm-1.55,1.14a1,1,0,0,1-.27-.42.89.89,0,0,1,0-.6.94.94,0,0,1,.34-.44.85.85,0,0,1,.51-.13Z"/><polygon class="cls-10" points="512.52 58.78 513.33 59.83 513.53 59.3 512.85 57.92 512.52 58.78"/><polygon class="cls-10" points="490.34 40.99 488.91 41.64 489.98 43.98 491.41 43.32 491.17 42.8 490.36 43.17 490.18 42.78 490.94 42.43 490.71 41.93 489.95 42.28 489.76 41.87 490.57 41.5 490.34 40.99"/><path class="cls-10" d="M487.71,42.64a.59.59,0,0,1,.32,0,.81.81,0,0,1,.3.14l.49-.46a1.35,1.35,0,0,0-.6-.27,1.45,1.45,0,0,0-.68,0,1.53,1.53,0,0,0-.49.26,1.32,1.32,0,0,0-.34.4,1.52,1.52,0,0,0-.15.5,1.49,1.49,0,0,0,.07.54,1.42,1.42,0,0,0,.25.47,1.38,1.38,0,0,0,.4.33,1.29,1.29,0,0,0,.5.14,1.6,1.6,0,0,0,.56-.07,1.3,1.3,0,0,0,.83-.65,1.42,1.42,0,0,0,0-1.08l0-.09s0,0,0,0l-1.31.41.16.51.66-.21a.48.48,0,0,1-.09.4.78.78,0,0,1-.39.25.57.57,0,0,1-.53-.05.83.83,0,0,1-.35-.5.88.88,0,0,1,0-.6A.62.62,0,0,1,487.71,42.64Z"/><path class="cls-10" d="M491.77,40.71a.65.65,0,0,1,.29-.11.8.8,0,0,1,.33.06l.35-.58a1.25,1.25,0,0,0-.65-.1,1.36,1.36,0,0,0-.64.24,1.42,1.42,0,0,0-.4.37,1.3,1.3,0,0,0-.22.48,1.35,1.35,0,0,0,0,.53,1.61,1.61,0,0,0,.21.49,1.53,1.53,0,0,0,.37.39,1.46,1.46,0,0,0,.48.21,1.14,1.14,0,0,0,.52,0,1.41,1.41,0,0,0,.51-.22,1.29,1.29,0,0,0,.63-.85,1.44,1.44,0,0,0-.27-1l0-.08,0,0L492,41.2l.3.45.58-.38a.51.51,0,0,1,0,.4.72.72,0,0,1-.3.35.62.62,0,0,1-.53.1.83.83,0,0,1-.47-.39.81.81,0,0,1-.16-.57A.58.58,0,0,1,491.77,40.71Z"/><path class="cls-10" d="M480.78,37.94a11.77,11.77,0,0,0,0,8,12.88,12.88,0,0,0,.71,1.56A11,11,0,0,0,483,49.65a11.69,11.69,0,0,0,4.56,3.19,11.54,11.54,0,0,0,3.92.78,10.51,10.51,0,0,1-2-.91,10.66,10.66,0,0,1-3.37-3.11,10.82,10.82,0,0,1-.67-1.08,11,11,0,0,1-1-2.48,10.64,10.64,0,0,1-.23-4.09,10.73,10.73,0,0,1,5.58-8.08,8.69,8.69,0,0,1,.81-.4l.09,0,.07,0c.17.09.55.37.93.64l.45.33a.3.3,0,0,0,0-.1,4.27,4.27,0,0,1,.73-1.37,40.88,40.88,0,0,0,2.71-3.56c-3.41-.67-8.57.88-11.49,2.82l.63,0,.63,0-.51.36A11.61,11.61,0,0,0,480.78,37.94Z"/><path class="cls-10" d="M490.79,34.61l-.46.43-.11.1-.61.49-.18.12-.46.32-.26.16-.41.24-.29.15-.41.21-.3.13-.41.18-.33.11-.09,0a2.92,2.92,0,0,0-.21.28l.3-.11.31-.1.53-.23a1.89,1.89,0,0,0,.21-.09q.38-.16.72-.36l.2-.11.5-.3.26-.18.41-.28.27-.22.36-.29.27-.25.33-.3c.09-.08.17-.18.26-.27l.16-.16-.17-.11-.19.2Z"/><path class="cls-10" d="M496.65,40.43h0l0-.05-.05-.15h0a12,12,0,0,0-2-3.51h0l-.05-.06-.07-.09h0a11.91,11.91,0,0,0-2-1.92,1.2,1.2,0,0,1-.11.17,11.61,11.61,0,0,1,2,1.89c-.18.21-.38.4-.57.59s-.27.29-.41.42-.47.41-.71.62l-.38.32c-.33.26-.68.5-1,.73l-.14.1c-.4.25-.81.49-1.23.71l-.4.19c-.29.14-.59.29-.89.41l-.53.19c-.27.1-.54.21-.82.29l-.59.16c-.26.07-.52.15-.79.2s-.42.07-.63.11l-.63.1a.76.76,0,0,0,0,.16.07.07,0,0,0,0,0l.73-.12.58-.1c.31-.06.6-.15.9-.23l.51-.13c.38-.12.75-.25,1.11-.4a1.84,1.84,0,0,0,.25-.09,14.17,14.17,0,0,0,1.31-.6l.41-.24c.29-.16.57-.31.84-.49s.32-.23.48-.34.48-.32.7-.5.32-.27.48-.4.43-.35.63-.54.3-.31.46-.47.36-.35.53-.54a11.73,11.73,0,0,1,1.94,3.51c-.23.22-.48.43-.72.64s-.33.31-.5.45-.58.45-.87.67l-.46.34c-.39.27-.79.52-1.2.76l-.2.13c-.48.27-1,.53-1.47.76a3.68,3.68,0,0,1-.35.15c-.39.17-.78.35-1.17.49l-.57.19c-.33.11-.67.23-1,.33l-.66.15c-.32.08-.63.16-.95.22s-.48.07-.72.11l-.79.12s0,0,0,.07l0,.12.82-.12.68-.1c.35-.07.68-.16,1-.24s.41-.09.61-.15c.41-.11.81-.25,1.21-.39.12,0,.25-.07.37-.12.52-.19,1-.41,1.53-.64l.42-.22c.36-.18.72-.35,1.06-.55l.54-.34c.29-.18.59-.36.87-.55l.56-.42c.26-.2.52-.38.77-.59l.55-.49c.22-.19.44-.37.65-.57a11.72,11.72,0,0,1,.57,3.63c0,.16,0,.32,0,.48-.23.18-.47.34-.7.51s-.32.25-.49.36-.54.35-.81.52l-.45.29c-.35.21-.7.4-1.06.59l-.25.13c-.44.23-.89.44-1.34.64-.13.06-.27.1-.39.16-.33.13-.66.27-1,.39l-.56.19-.85.27-.62.16c-.27.07-.55.15-.83.21l-.64.13-.7.13v0s.09.1.13.16l.67-.13.6-.12.91-.23.53-.14c.37-.11.73-.23,1.09-.36l.33-.1c.46-.17.92-.35,1.38-.55l.38-.18c.32-.15.65-.3,1-.46s.34-.18.51-.28.53-.28.79-.44.36-.22.54-.33l.72-.47.54-.38L497,45a11.83,11.83,0,0,1-1.55,5.15l-1,.52-.39.19c-.48.23-1,.44-1.47.64l-.36.13c-.38.14-.77.29-1.15.41-.19.07-.38.12-.57.17l-.84.25.26.14.84-.26.4-.12c.49-.16,1-.34,1.46-.53l.32-.13c.37-.16.74-.31,1.11-.48l.51-.25.72-.35a11.78,11.78,0,0,1-2.83,3.1l.23.06a12,12,0,0,0,2.93-3.34h0v0l.18-.3h0a12,12,0,0,0,1.45-5.14h0v-.26h0v-.33A11.74,11.74,0,0,0,496.65,40.43Z"/><path class="cls-10" d="M474,48.06h0l.07.2,0,0h0A11.94,11.94,0,0,0,477,52.77h0l.25.24h0a11.93,11.93,0,0,0,14.9,1h-.36a11.77,11.77,0,0,1-14.17-.9l.55.08.54.09.71.08.58.07.59,0c.66,0,1.32.08,2,.08a27.42,27.42,0,0,0,3.39-.21l.26,0,.77-.12.26,0-.35-.15-.33.06-.55.08-.71.07-.53,0-.73,0-.52,0h-1.25l-.8,0-.45,0-.86-.07-.39,0-1-.12-.22,0c-.41-.06-.81-.13-1.21-.21a11.67,11.67,0,0,1-3-4.45l.44.15.47.17.54.16.48.14c.18.06.37.1.56.15l.47.12.57.12.47.09.6.09.45.08.64.07.42.05.71,0,.36,0,1.08,0h.06c-.06-.06-.1-.13-.16-.2l-1,0-.35,0-.72-.05-.43,0-.63-.07-.46-.08-.6-.09-.46-.1c-.19,0-.39-.07-.58-.12l-.46-.12-.57-.14-.47-.14-.55-.17-.48-.17-.51-.18a11.74,11.74,0,0,1-.68-3.94v-.16l.39.19.38.18.47.2.38.16.49.19.37.13.53.17.35.12.59.16.3.08.9.19.15,0,.76.13.31,0,.48.06v0c0-.06,0-.12-.06-.19l-.32,0-.42,0-.5-.09-.4-.07-.5-.11-.39-.09-.52-.14-.36-.1-.6-.19-.27-.09c-.29-.1-.57-.2-.85-.32l-.16-.06-.68-.3-.29-.14-.51-.25a11.54,11.54,0,0,1,.81-3.93,8.24,8.24,0,0,0,.77.42l.47.26c.36.17.72.32,1.09.46l.26.12c.46.17.93.32,1.4.45.14,0,.28.06.42.09.3.08.59.15.9.21,0,0,0,0,0-.07s0-.09,0-.14l-.76-.17c-.18,0-.35-.07-.52-.12-.38-.1-.75-.22-1.11-.35-.09,0-.18-.06-.27-.09a13,13,0,0,1-1.33-.58l-.38-.2c-.29-.15-.58-.3-.87-.48a11.79,11.79,0,0,1,2-3.25c.22.13.45.25.67.36l.27.14a8.85,8.85,0,0,0,1,.43l.22.07c.27.1.54.19.82.27l.4.09.53.12a.56.56,0,0,0,0-.12l0-.07-.64-.14-.29-.07c-.35-.09-.69-.2-1-.32l-.21-.09a7.67,7.67,0,0,1-.78-.34,3.84,3.84,0,0,1-.35-.18c-.19-.1-.37-.19-.55-.3a11.84,11.84,0,0,1,6.2-3.58l.36-.27a12,12,0,0,0-6.73,3.75h0l-.06.06-.08.09h0a12.12,12.12,0,0,0-2,3.26h0l0,.11,0,.08h0a11.81,11.81,0,0,0-.83,3.94h0V44h0v.26A12,12,0,0,0,474,48.06Z"/><polygon class="cls-10" points="474.66 60.56 473.86 60.56 473.86 64.78 475.83 64.78 475.83 64.02 474.66 64.02 474.66 60.56"/><path class="cls-10" d="M477.82,61.58a1.56,1.56,0,0,0-1.15.47,1.63,1.63,0,0,0-.46,1.19,1.58,1.58,0,0,0,.46,1.16,1.62,1.62,0,0,0,1.2.46,1.73,1.73,0,0,0,.81-.17,1.61,1.61,0,0,0,.6-.51l-.66-.31a1.07,1.07,0,0,1-.76.3.92.92,0,0,1-.6-.19.8.8,0,0,1-.29-.53h2.51V63.3a1.71,1.71,0,0,0-.46-1.25A1.6,1.6,0,0,0,477.82,61.58ZM477,62.83a.94.94,0,0,1,.29-.4.93.93,0,0,1,.57-.19.88.88,0,0,1,.53.17.75.75,0,0,1,.31.42Z"/><path class="cls-10" d="M483.69,60.69a2.92,2.92,0,0,0-1-.13h-.85v4.22h.8V63a3.77,3.77,0,0,0,.85-.07,1.24,1.24,0,0,0,.63-.41,1.16,1.16,0,0,0,.23-.73,1.27,1.27,0,0,0-.18-.69A1.06,1.06,0,0,0,483.69,60.69ZM483.5,62a.37.37,0,0,1-.18.14,1.39,1.39,0,0,1-.42,0h-.26v-.86h.23a1,1,0,0,1,.51.08.37.37,0,0,1,.19.36A.4.4,0,0,1,483.5,62Z"/><path class="cls-10" d="M487.45,60.79a3.11,3.11,0,0,0-1.36-.23h-.95v4.22h1a4.34,4.34,0,0,0,1.15-.1,1.53,1.53,0,0,0,.62-.37,1.92,1.92,0,0,0,.45-.68,2.36,2.36,0,0,0,.16-.9,2.42,2.42,0,0,0-.29-1.2A1.76,1.76,0,0,0,487.45,60.79Zm.06,2.66a.88.88,0,0,1-.41.42,1.73,1.73,0,0,1-.79.13h-.38V61.34h.28a1.48,1.48,0,0,1,1.08.33,1.4,1.4,0,0,1,.38,1A1.53,1.53,0,0,1,487.51,63.45Z"/><path class="cls-10" d="M491.31,62.64v.76h1.22a1.18,1.18,0,0,1-.46.54,1.28,1.28,0,0,1-.7.18,1.46,1.46,0,0,1-1.07-.43,1.41,1.41,0,0,1,0-2,1.42,1.42,0,0,1,1-.42,1.65,1.65,0,0,1,1.25.57l.57-.56a2.43,2.43,0,0,0-.79-.59,2.7,2.7,0,0,0-1-.2,2.19,2.19,0,0,0-1.71.73,2.13,2.13,0,0,0-.55,1.46,2.26,2.26,0,0,0,.3,1.14,2.1,2.1,0,0,0,.81.81,2.36,2.36,0,0,0,1.17.29,2.15,2.15,0,0,0,1.07-.26,2,2,0,0,0,.74-.76,2,2,0,0,0,.29-1v-.18Z"/><path class="cls-11" d="M558.79,25.9A20,20,0,0,0,557,24.5a16.78,16.78,0,0,0-1.89-1.2,22.1,22.1,0,0,0-2-1c-.7-.27-1.41-.51-2.13-.71a28.72,28.72,0,0,0-4.4-.85,42,42,0,0,0-4.48-.3c-1.49,0-3,0-4.48.13-.75.07-1.49.12-2.23.22l-1.12.13-1.11.17A65.07,65.07,0,0,0,516,26.31a65.78,65.78,0,0,0-15.16,9.55A86.18,86.18,0,0,0,494.35,42c-1,1.07-2.06,2.16-3.08,3.25s-2,2.19-3,3.35A21.36,21.36,0,0,0,484,56.55a19.92,19.92,0,0,0-.7,4.48,17,17,0,0,0,2.08,8.76,17.87,17.87,0,0,0,2.7,3.65c.53.55,1.11,1,1.66,1.54s1.14,1,1.74,1.44a10.33,10.33,0,0,0,2,1.21,6.34,6.34,0,0,0,2.26.58,7,7,0,0,0,6-3,9.09,9.09,0,0,0,1-2.07,21.93,21.93,0,0,0,1-4.42h0a3.05,3.05,0,0,0,.2-.46,10.17,10.17,0,0,0,.48-2.25c.36-3,.46-6,.8-8.93a27.62,27.62,0,0,1,.77-4.36,16.62,16.62,0,0,1,1-2.62,25.9,25.9,0,0,0-.28,6.52,26.88,26.88,0,0,0,1.93,7.91.22.22,0,0,0,.09.1.2.2,0,0,0,.27-.08,21.69,21.69,0,0,0,1.42-3.15v0a11.94,11.94,0,0,0,.68,1.71,13.45,13.45,0,0,0,.78,1.32c0,.13,0,.26,0,.39a12.47,12.47,0,0,0,.3,3.65c.07.3.15.6.24.89a4.07,4.07,0,0,0,.18.44.63.63,0,0,0,.17.21.18.18,0,0,0,.11,0,.21.21,0,0,0,.11,0,.53.53,0,0,0,.1-.12,2.83,2.83,0,0,0,.23-.92,5.72,5.72,0,0,0,0-.92,7.15,7.15,0,0,0-.24-1.84,5.85,5.85,0,0,0-.82-1.66l-.19-.29a18.13,18.13,0,0,1,.73-3,30.17,30.17,0,0,0,.88-3.55,27.59,27.59,0,0,0,.39-3.63q0-.91,0-1.83c0-.12,0-.24,0-.36a10.85,10.85,0,0,0,0-1.14l0-.11v0s-.06,0-.06,0,0,0,0,.07l0,.23,0,.45c0,.27,0,.54,0,.81a8.93,8.93,0,0,1-2.13,5.39A9,9,0,0,0,514,52.62c0,.49,0,1,0,1.48a27.34,27.34,0,0,1-.42,3.61,30.42,30.42,0,0,1-.9,3.53A19.54,19.54,0,0,0,512,64a11,11,0,0,1-.61-1.05,11.43,11.43,0,0,1-.65-1.68c0-.13-.07-.27-.11-.4a20.91,20.91,0,0,0,.82-3.32,24.89,24.89,0,0,0,.33-3.66c0-.31,0-.61,0-.93a3.08,3.08,0,0,0-.09-.48.69.69,0,0,0-.05-.13l-.05-.08a.36.36,0,0,0-.09-.08.26.26,0,0,0-.17,0,.23.23,0,0,0-.11,0,.68.68,0,0,0-.12.11,3.39,3.39,0,0,0-.44.87,9,9,0,0,0-.28.88,12.46,12.46,0,0,0,0,6.61A20.55,20.55,0,0,1,508.88,64a26.06,26.06,0,0,1-1.71-7.39,25.57,25.57,0,0,1,.61-8,.21.21,0,0,0-.1-.25.24.24,0,0,0-.32.09,18.23,18.23,0,0,0-1.8,4.15,24.35,24.35,0,0,0-.69,3.46c.16-3.23.23-6.46.3-9.69,0-1.49.06-3,.18-4.45,0-.37.08-.72.13-1.09a7.67,7.67,0,0,0,.08-1.17,11.73,11.73,0,0,0-.26-2.29A7.75,7.75,0,0,0,505,36.2a2.93,2.93,0,0,0-.71-1l-.13-.11L504,35l-.15-.09-.18,0a1,1,0,0,0-.35-.06,1.2,1.2,0,0,0-.33,0l-.09,0A66.89,66.89,0,0,1,533.2,21.39l1.11-.17,1.11-.14c.73-.11,1.48-.16,2.22-.24,1.48-.11,3-.18,4.46-.16A35.16,35.16,0,0,1,551,21.76c.72.19,1.42.43,2.12.69a20.61,20.61,0,0,1,2,.94,16.23,16.23,0,0,1,1.9,1.18A20.92,20.92,0,0,1,558.75,26a22.77,22.77,0,0,1,5.35,7.1A22.78,22.78,0,0,0,558.79,25.9Zm-46.7,38.77a5.58,5.58,0,0,1,.8,1.6,7,7,0,0,1,.25,1.77c0,.3,0,.6,0,.9a2.52,2.52,0,0,1-.2.84.11.11,0,0,1,0,0,.42.42,0,0,1-.1-.14,2.4,2.4,0,0,1-.17-.4c-.1-.29-.17-.58-.24-.87a11.83,11.83,0,0,1-.32-3.6c0-.07,0-.13,0-.2Zm-.84-12.15Zm-.63,1.68c.08-.29.18-.58.28-.86a3.76,3.76,0,0,1,.38-.75,0,0,0,0,1,0,0,1.84,1.84,0,0,1,.07.42,8.7,8.7,0,0,1,0,.89,24.1,24.1,0,0,1-.34,3.6,20.6,20.6,0,0,1-.63,2.69A12.15,12.15,0,0,1,510.62,54.2Zm-8.45,18.71a7,7,0,0,1-2.44,3.46,6.21,6.21,0,0,1-4,1.24,7.24,7.24,0,0,1-3.9-1.67c-.58-.44-1.14-.93-1.7-1.42s-1.12-1-1.63-1.49a17,17,0,0,1-2.61-3.53,16.54,16.54,0,0,1-1.59-4.09,17.65,17.65,0,0,1,.23-8.72A20.87,20.87,0,0,1,488.67,49c.94-1.15,1.95-2.24,3-3.33s2-2.19,3.07-3.27c1.2-1.25,2.44-2.48,3.7-3.67a13.13,13.13,0,0,0-1,1.79,14.35,14.35,0,0,0-.74,2.18c-.36,1.47-.62,2.94-.84,4.43-.44,3-.58,6-.79,8.94a64.31,64.31,0,0,0-.18,9,37.87,37.87,0,0,0,.58,4.48,9,9,0,0,0,.27,1.11,4.3,4.3,0,0,0,.2.57,1.34,1.34,0,0,0,.44.58.69.69,0,0,0,.49.11.78.78,0,0,0,.4-.18,2,2,0,0,0,.44-.49,6.87,6.87,0,0,0,.54-1,44.92,44.92,0,0,0,1.5-4.26c.27-.87.53-1.74.79-2.62l.24.91c.43,1.44.91,2.86,1.48,4.26l.1.26a1.53,1.53,0,0,0,.14.29,1,1,0,0,0,.28.29.57.57,0,0,0,.27.08h0A19.88,19.88,0,0,1,502.17,72.91Zm-.36-27.17a2.36,2.36,0,0,1,.07.33,17.17,17.17,0,0,1,.18,2.18,36.57,36.57,0,0,1-.1,4.44,47.55,47.55,0,0,1-1.45,8.11,29.26,29.26,0,0,1-.54-5.52,23.15,23.15,0,0,1,.39-4.4,34.67,34.67,0,0,1,1.08-4.3A4.63,4.63,0,0,1,501.81,45.74ZM503,35.46a.92.92,0,0,1,.77.21,2.11,2.11,0,0,1,.53.8,6.26,6.26,0,0,1,.31,1,10.27,10.27,0,0,1,.26,2.14,7.59,7.59,0,0,1-.08,1.07c0,.37-.1.76-.13,1.13-.12,1.51-.14,3-.18,4.5-.11,6-.26,11.93-.85,17.86-.15,1.48-.3,3-.51,4.43l0,.07a.45.45,0,0,1-.13.14l-.09-.12a.93.93,0,0,1-.1-.2l-.1-.26c-.55-1.38-1-2.79-1.44-4.21-.17-.62-.33-1.25-.47-1.88l.15-.56a49.07,49.07,0,0,0,1.62-8.85,37.73,37.73,0,0,0,.1-4.51,17.67,17.67,0,0,0-.19-2.27,2.82,2.82,0,0,0-.18-.62.8.8,0,0,0-.13-.19.45.45,0,0,0-.36-.15.38.38,0,0,0-.18.06.28.28,0,0,0-.12.08.64.64,0,0,0-.14.15,4.64,4.64,0,0,0-.5,1.1,35.52,35.52,0,0,0-1.1,4.38,24.39,24.39,0,0,0-.39,4.51,30.77,30.77,0,0,0,.8,6.76c-.34,1.23-.71,2.45-1.1,3.67a44.09,44.09,0,0,1-1.47,4.19,7.54,7.54,0,0,1-.49.94,1.81,1.81,0,0,1-.3.35l-.1,0h0a.73.73,0,0,1-.21-.32,3.41,3.41,0,0,1-.18-.48c-.1-.34-.18-.7-.25-1.06a38.35,38.35,0,0,1-.56-4.4,63.05,63.05,0,0,1,.19-8.9c.22-3,.36-6,.79-8.89s.87-6,2.63-8.31a15,15,0,0,1,1.38-1.69,8.47,8.47,0,0,1,1.64-1.37A2.68,2.68,0,0,1,503,35.46Z"/></g></g></svg>