<svg id="Calque_1" data-name="Calque 1" xmlns="http://www.w3.org/2000/svg" viewBox="0 0 841.88976 120.66514"><rect x="34.19582" y="65.98411" width="355.03289" height="53.62464" rx="3.31012" style="fill:#dadada"/><polygon points="70.125 91.648 68.188 92.534 69.636 95.697 71.573 94.81 71.249 94.102 70.152 94.604 69.907 94.069 70.941 93.596 70.631 92.919 69.597 93.393 69.346 92.844 70.443 92.342 70.125 91.648" style="fill:#3c3c3b;fill-rule:evenodd"/><path d="M66.56744,93.877a.86282.86282,0,0,1,.42338-.029.99971.99971,0,0,1,.406.18718l.66677-.62164a1.76966,1.76966,0,0,0-.81086-.37558,1.95085,1.95085,0,0,0-.92292.07749,2.021,2.021,0,0,0-.65807.34287,1.75987,1.75987,0,0,0-.6601,1.22612,1.96483,1.96483,0,0,0,.43023,1.36295,1.76274,1.76274,0,0,0,.543.44844,1.65761,1.65761,0,0,0,.677.19489,2.06457,2.06457,0,0,0,.75523-.10313,1.75857,1.75857,0,0,0,1.12461-.87118,1.93046,1.93046,0,0,0,.03666-1.47014c-.01677-.05337-.02912-.09281-.03834-.11967-.00929-.02686-.01886-.05191-.02744-.07384l-1.77781.55673.218.6963.90053-.282a.6724.6724,0,0,1-.12872.53307.9927.9927,0,0,1-.522.34861.83571.83571,0,0,1-.72507-.07193,1.35943,1.35943,0,0,1-.46514-1.48546A.83984.83984,0,0,1,66.56744,93.877Z" style="fill:#3c3c3b;fill-rule:evenodd"/><path d="M72.05956,91.27a.86189.86189,0,0,1,.39965-.14264.99889.99889,0,0,1,.4416.07007l.47326-.77913a1.76971,1.76971,0,0,0-.88226-.1417,1.95085,1.95085,0,0,0-.86741.32477,2.022,2.022,0,0,0-.54044.50842,1.75967,1.75967,0,0,0-.303,1.35918,1.96478,1.96478,0,0,0,.78365,1.19531,1.76178,1.76178,0,0,0,.64426.28434,1.65687,1.65687,0,0,0,.70448.00412,2.06613,2.06613,0,0,0,.699-.304,1.75815,1.75815,0,0,0,.8463-1.14345,1.93,1.93,0,0,0-.36329-1.425c-.03057-.04687-.05313-.08144-.06932-.10481-.01618-.02326-.03219-.04478-.0464-.06364L72.4193,91.92968l.39862.61114.79038-.5156a.67255.67255,0,0,1,.02059.548.99313.99313,0,0,1-.40795.47709.83565.83565,0,0,1-.71741.12733,1.35953,1.35953,0,0,1-.85048-1.30373A.83957.83957,0,0,1,72.05956,91.27Z" style="fill:#3c3c3b;fill-rule:evenodd"/><path d="M94.79832,90.647a.6767.6767,0,0,0,.53145-.23689.87526.87526,0,0,0,.2087-.601.60222.60222,0,0,0-.63649-.6365.6654.6654,0,0,0-.52553.24125.89682.89682,0,0,0-.2087.60841.608.608,0,0,0,.17459.45152A.61979.61979,0,0,0,94.79832,90.647Z" style="fill:#3c3c3b;fill-rule:evenodd"/><path d="M98.79524,90.6647a.65923.65923,0,0,0,.52257-.24426.90783.90783,0,0,0,.20876-.61137.60819.60819,0,0,0-.17471-.45152.61966.61966,0,0,0-.456-.17314.67007.67007,0,0,0-.52837.23979.88648.88648,0,0,0-.20882.60395.60036.60036,0,0,0,.63655.63655Z" style="fill:#3c3c3b;fill-rule:evenodd"/><path d="M90.86365,90.67659a.67664.67664,0,0,0,.54038-.25023.95854.95854,0,0,0,.2116-.641.60059.60059,0,0,0-.15835-.43968.57623.57623,0,0,0-.43081-.16131.65564.65564,0,0,0-.52257.259.95787.95787,0,0,0-.21467.63214.60493.60493,0,0,0,.157.43817A.55292.55292,0,0,0,90.86365,90.67659Z" style="fill:#3c3c3b;fill-rule:evenodd"/><path d="M82.87377,92.85649h19.93648a1.72338,1.72338,0,0,0,1.71835-1.71835V87.2276a1.72342,1.72342,0,0,0-1.71835-1.71835H82.87377a1.72337,1.72337,0,0,0-1.71829,1.71835v3.91054A1.72333,1.72333,0,0,0,82.87377,92.85649Zm18.93258-6.02884h1.06289l-.73429,4.58909H101.075ZM97.543,88.84386a1.42058,1.42058,0,0,1,1.11614-.51219,1.18137,1.18137,0,0,1,.55662.12883,1.31987,1.31987,0,0,1,.44409.39821l.068-.43226h1.0007l-.47367,2.99029H99.272l.05029-.39971a1.49971,1.49971,0,0,1-.48109.38045,1.28678,1.28678,0,0,1-.56991.12877,1.06012,1.06012,0,0,1-.84531-.38782,1.49923,1.49923,0,0,1-.33-1.00668A1.88746,1.88746,0,0,1,97.543,88.84386ZM93.694,86.82765h1.02431l-.24861,1.56324a1.46665,1.46665,0,0,1-.04153.19983q-.02958.10815-.07987.25024a1.85451,1.85451,0,0,1,.52106-.37454,1.29492,1.29492,0,0,1,.54769-.12292,1.06781,1.06781,0,0,1,.84977.38788,1.486,1.486,0,0,1,.33156,1.00071A1.89154,1.89154,0,0,1,96.15281,91.02a1.4194,1.4194,0,0,1-1.11759.51219,1.16024,1.16024,0,0,1-.54183-.12732,1.60956,1.60956,0,0,1-.47669-.39966l-.068.41155h-.983Zm-3.91988,1.98662a1.74049,1.74049,0,0,1,1.273-.48852,1.60038,1.60038,0,0,1,1.14584.40563,1.42042,1.42042,0,0,1,.42924,1.0836,1.64536,1.64536,0,0,1-.50326,1.2376,1.79058,1.79058,0,0,1-1.29676.48551,1.55923,1.55923,0,0,1-1.12357-.40268,1.41213,1.41213,0,0,1-.42193-1.0717A1.67586,1.67586,0,0,1,89.77414,88.81427ZM88.1102,86.82765h1.06289l-.73423,4.58909h-1.06Zm-5.2996,1.65947a2.43457,2.43457,0,0,1,.53591-.81862,2.2441,2.2441,0,0,1,.786-.50772,2.70036,2.70036,0,0,1,.98453-.17622,2.27026,2.27026,0,0,1,1.08655.24872,2.23983,2.23983,0,0,1,.80523.76387l-.92367.63058a1.14293,1.14293,0,0,0-.40418-.43811,1.07356,1.07356,0,0,0-.56393-.14508,1.16,1.16,0,0,0-.90019.39374,1.42947,1.42947,0,0,0-.35522.99479,1.12033,1.12033,0,0,0,.28121.79793.96991.96991,0,0,0,.74316.30046,1.27728,1.27728,0,0,0,.32431-.04,1.10293,1.10293,0,0,0,.2826-.11694.72913.72913,0,0,0,.19832-.17912.895.895,0,0,0,.13336-.25314h-.986l.13922-.88527,2.17606.003a2.65994,2.65994,0,0,1-.63649,1.81487,2.1481,2.1481,0,0,1-1.65506.65726,2.31125,2.31125,0,0,1-1.63285-.55958,1.94511,1.94511,0,0,1-.6054-1.50106A2.62593,2.62593,0,0,1,82.8106,88.48712Z" style="fill:#3c3c3b;fill-rule:evenodd"/><path d="M57.18062,87.52348a15.76709,15.76709,0,0,0-.02506,10.82518,15.988,15.988,0,0,0,.95314,2.11975,15.80679,15.80679,0,0,0,13.50085,8.28733,14.74135,14.74135,0,0,1-2.69052-1.232,14.48257,14.48257,0,0,1-4.568-4.21258,15.09884,15.09884,0,0,1-.90117-1.46034,14.72872,14.72872,0,0,1-1.31138-3.35642,14.50988,14.50988,0,0,1-.31834-5.54809,14.62976,14.62976,0,0,1,7.56111-10.94583c.35731-.193.72762-.374,1.10256-.53782l.11045-.04734.10487.05337a14.94654,14.94654,0,0,1,1.25291.86776c.23481.17216.45384.33318.61625.44733.01578-.04083.0297-.08584.04733-.14524a5.92781,5.92781,0,0,1,.99677-1.84828,59.82,59.82,0,0,0,3.66872-4.82836c-4.62836-.90628-11.60663,1.19491-15.56955,3.827.28678-.02831.57541-.04919.86126-.06265l.8427-.03759-.684.49421A15.69185,15.69185,0,0,0,57.18062,87.52348Z" style="fill:#3c3c3b;fill-rule:evenodd"/><path d="M70.74057,83.01131c-.203.19791-.41334.38684-.62587.57315-.053.04646-.10308.09669-.15673.14246q-.40286.34386-.827.6594c-.07976.05946-.16358.11271-.24438.1706-.20534.1471-.411.29356-.62292.43057-.11276.07286-.2297.13887-.3442.20888-.18562.1134-.37072.22767-.5608.33336-.12784.071-.25922.13555-.389.20313-.18225.09484-.36416.19014-.55006.2779-.13771.065-.27831.124-.418.185-.18353.08022-.36717.16021-.55383.23353-.14467.05679-.29142.10829-.43789.16085-.04228.01514-.08509.02906-.12761.04373-.09281.12889-.19751.24867-.28591.38069.13893-.0475.27785-.09495.41625-.14373.13527-.04769.273-.08927.40679-.14049.24409-.09339.48249-.19914.7213-.30413.09611-.04228.195-.07865.29031-.12279q.49708-.23031.9771-.49369c.088-.04826.17193-.10365.25905-.15354.22976-.13167.45975-.26311.68284-.406.119-.07628.23255-.161.34966-.24032.18527-.12564.37222-.24838.55227-.38168.127-.094.24768-.19646.37193-.29426.1634-.12854.32918-.25389.48776-.38886.126-.10726.24542-.22274.36834-.334.1493-.13515.3011-.26711.44553-.40795.12124-.11821.23556-.2442.35331-.36642.06932-.07192.13823-.14432.208-.21572-.07384-.05412-.14571-.10638-.21868-.1594-.08672.09159-.1728.18394-.26091.27408C70.9179,82.82714,70.83193,82.92227,70.74057,83.01131Z" style="fill:#3c3c3b;fill-rule:evenodd"/><path d="M78.673,90.88634l.00278-.00273-.02685-.07923-.06822-.201-.00736.00719a16.0842,16.0842,0,0,0-2.653-4.75226l.00342-.00382-.07181-.08777-.09924-.12123-.00441.005A16.21934,16.21934,0,0,0,72.99408,83.054a1.13175,1.13175,0,0,1-.15006.22106,15.91242,15.91242,0,0,1,2.72607,2.56917c-.24826.27785-.51363.53579-.77442.79908-.18585.18753-.362.38661-.554.5666-.31108.29176-.64084.5587-.96723.83023-.17211.14315-.335.29878-.51115.43625-.44936.35059-.91613.67536-1.39027.98783-.06427.04235-.12384.092-.18857.13365q-.81318.52335-1.66992.97c-.17523.09148-.3594.16422-.53712.25076-.40071.19513-.80019.39322-1.21255.56288-.233.09589-.475.16944-.71143.257-.36741.13608-.73191.27947-1.10709.39519-.26323.08127-.53435.13893-.80105.21-.35824.09542-.71376.19931-1.07768.276-.28156.0594-.56938.09466-.854.14275-.28364.04791-.567.09681-.85273.1362-.01091.07216-.03173.14263-.04148.21491-.00295.0221-.0029.04426-.00574.06636.32947-.04461.655-.10523.98174-.161.26491-.04524.53348-.07552.79572-.13045.40905-.08568.80859-.20122,1.21045-.31.23075-.06247.46648-.10981.69467-.17988.51039-.15667,1.00941-.34368,1.50553-.53736.11183-.04368.22808-.076.3391-.12146q.90471-.37083,1.77223-.82269c.19049-.09907.37031-.21769.55778-.32251.38156-.21323.7655-.42216,1.13389-.65859.22373-.14362.434-.3083.65256-.46027.31868-.22158.64218-.43545.94926-.67449.22222-.173.42941-.36642.64525-.54832.28683-.24183.57924-.47594.8543-.7333.21346-.19972.41056-.419.61654-.628.24095-.24443.491-.478.72129-.73475a15.81758,15.81758,0,0,1,2.624,4.75046c-.31178.30435-.64282.58515-.96823.87309-.22836.20209-.44635.41706-.6811.61086-.38208.31537-.7837.60337-1.18174.89647-.20592.15162-.40221.31711-.61213.46265-.52779.36584-1.0735.70308-1.62507,1.02982-.09223.05464-.17907.11851-.27187.172q-.97353.561-1.9904,1.03905c-.15719.0739-.32146.13126-.48.20215-.52367.23405-1.04862.46578-1.58615.6659-.25337.09431-.51486.1652-.771.2518-.4518.15278-.90123.31282-1.36086.44136-.29728.08312-.60163.14031-.90181.21311-.427.1036-.85146.217-1.28372.29942-.32158.06132-.64855.09531-.97263.14473-.35824.05464-.71578.11288-1.07611.1558.00858.0348.01259.07019.02146.10493.01375.054.03683.1054.05122.15923.371-.04548.73875-.10882,1.10773-.166.30876-.04785.62036-.08039.92686-.13892.46416-.08863.92031-.2087,1.37844-.32152.2728-.06717.5496-.11839.82-.194.55366-.15482,1.09694-.34194,1.63923-.53162.16711-.05847.339-.1029.50494-.16462q1.05584-.39258,2.07641-.87176c.19432-.09118.37924-.20116.57135-.29693.48064-.23956.962-.47773,1.428-.74548.25069-.144.48852-.30981.73469-.4619.394-.24345.79206-.48011,1.17368-.74374.26079-.18017.50668-.38168.76126-.57112.35093-.26108.70685-.51468,1.04537-.793.25511-.20975.4938-.43974.74143-.65912.29252-.2591.59432-.5065.87593-.77877a15.88932,15.88932,0,0,1,.77292,4.91246c0,.21805-.00458.43864-.01328.65662-.30836.24154-.62872.46561-.94531.6952-.22292.1616-.43951.33272-.66631.48834-.35725.24508-.72646.47043-1.09293.70036-.20494.1286-.40378.26711-.61144.3909-.47106.2808-.95337.54084-1.43777.79664-.111.05864-.218.12518-.32971.18249q-.89888.46106-1.825.8641c-.17448.07593-.35441.13846-.53017.21126-.44536.18439-.89026.37036-1.34357.53428-.25273.09142-.51144.16549-.76643.25047-.3833.12773-.76445.26207-1.15256.37506-.27437.07987-.55384.14153-.83029.214-.37477.09815-.74751.20372-1.12594.28806-.28881.06438-.58191.11-.87263.16624-.31451.06079-.62843.124-.94444.17767l.01653.02674c.05255.07512.11444.14119.16827.21508.30522-.05394.60848-.11734.91248-.17714.27274-.05372.54734-.098.8184-.15882.41416-.09293.82275-.206,1.23255-.31538.239-.06374.48081-.1174.71822-.18666.495-.14449.98319-.31027,1.47044-.47848.14716-.05082.29733-.09229.44368-.14525q.94569-.342,1.86864-.7431c.17576-.07628.34565-.16538.52-.24484.43626-.19885.87275-.39717,1.2999-.6155.23324-.1192.45876-.25319.6891-.37813.36015-.19531.7224-.38649,1.07507-.59566.24606-.14594.48353-.30621.72576-.45882.32721-.2061.6568-.40784.97669-.62588.24566-.16746.48232-.34855.72345-.523.2656-.19217.537-.37552.79693-.576a15.9219,15.9219,0,0,1-2.11023,6.9669c-.46074.249-.9318.47756-1.40257.70645-.17657.08585-.34832.18161-.52622.26462q-.9858.45993-1.99724.86051c-.1612.0638-.3268.1156-.48887.17715-.51584.19588-1.0322.39066-1.55617.56288-.25394.08347-.51282.15012-.76845.228-.37634.11462-.75268.22947-1.13174.33428.11212.06514.22842.12216.34217.18417.38046-.10812.75836-.22483,1.13586-.343.18092-.05662.36422-.10488.54427-.16433q.99972-.32994,1.98-.71619c.14594-.0576.288-.1246.43324-.18411.50476-.20673,1.00738-.41851,1.50268-.64746.23284-.10766.4601-.22645.69073-.33892.32489-.15853.65331-.30964.9735-.47768a15.87719,15.87719,0,0,1-3.8338,4.20643l.31567.07779a16.13127,16.13127,0,0,0,3.97521-4.52824l.00343-.00186.01879-.03219.2402-.41126-.02361.01282a16.18623,16.18623,0,0,0,1.96035-6.953l.002-.00157.00273-.061.01293-.29031-.00661.00522c.00406-.14919.00992-.29844.00992-.44688A16.15026,16.15026,0,0,0,78.673,90.88634Z" style="fill:#3c3c3b;fill-rule:evenodd"/><path d="M63.32715,111.91262a15.86048,15.86048,0,0,1-10.39936-3.86919c.24664.04513.49618.07854.74415.11862.2431.03933.48521.08173.72941.11625.31828.04489.63824.07981.95814.11641.26444.0304.528.06514.79333.08991.264.02448.52907.03869.79381.0576.89513.06444,1.79242.10772,2.6908.10772a37.50686,37.50686,0,0,0,4.59692-.28945c.1148-.01415.23052-.02326.34513-.03846.35-.04663.69682-.106,1.04445-.16247.11908-.01932.23846-.03765.35783-.05569-.15771-.06264-.31328-.13-.4688-.19756-.15046.0239-.30093.04808-.45186.07036-.24942.03677-.49826.07575-.74873.10742-.3163.03991-.63423.07095-.952.10267-.24194.02419-.4833.05145-.72594.07089-.32941.02639-.65981.04292-.99015.06055-.233.01248-.46561.02883-.69891.0369-.34356.01189-.68759.01305-1.0315.01554-.22118.00162-.44224.00789-.66341.00563-.36126-.00372-.72222-.0192-1.08313-.03336-.20412-.008-.40853-.01055-.61242-.02186-.38875-.02158-.77617-.05586-1.16359-.08956-.17558-.01526-.3518-.02454-.527-.04229-.464-.047-.92564-.10725-1.38644-.17164-.09751-.01363-.19594-.02239-.29322-.03677q-.8263-.12225-1.64323-.28255a15.99288,15.99288,0,0,1-4.08322-6.02454c.19646.07309.39559.13666.59316.2058.2105.07367.42013.15012.63191.21926.24658.08057.49531.1529.74345.22732.21259.06375.42437.13057.63806.18986.25238.06989.50679.13126.76074.19489.21161.053.42234.10975.635.15842.25992.05945.52181.1098.78324.1627.20952.04246.41805.089.62849.12721.26885.04884.53962.088.80993.12987.20481.03179.4087.06816.61427.09594.28666.03875.57512.06711.86318.09815.19107.02059.38115.04634.5728.06351.31932.0286.64032.04612.96115.0652.16253.00969.32407.02494.487.03219q.72617.03237,1.4568.03277l.08359-.00029c-.07448-.08555-.13707-.18184-.20986-.26908-.44554-.00174-.89015-.01009-1.33314-.03-.15557-.007-.30992-.0221-.4652-.03138-.3286-.01955-.65755-.03718-.98453-.06677-.19211-.01734-.3826-.04408-.57413-.065-.28817-.03132-.57692-.059-.86364-.0982-.2061-.02814-.41016-.066-.61544-.09815-.27054-.0424-.54206-.08068-.8112-.13005-.20836-.03816-.41451-.08613-.62194-.12854-.26363-.05388-.52819-.10365-.79038-.16421-.20963-.04849-.417-.10656-.62564-.15934-.25772-.0652-.51648-.12622-.77257-.19791-.21329-.05969-.42408-.12918-.63626-.19345-.24827-.07523-.49769-.14618-.74433-.22756-.21531-.071-.42784-.15185-.64188-.22761-.23185-.08213-.46486-.16027-.69514-.24791a15.86592,15.86592,0,0,1-.91753-5.33777q0-.103.00128-.2058c.172.08712.34722.16572.52071.249.17158.08237.34206.16769.515.24629.20917.09507.42106.18248.63226.272.17274.0732.3442.14977.51816.21931.219.08748.44078.16671.66178.24833.169.06241.33672.12865.50691.18764.23516.08144.47309.15406.71039.22889.15894.05012.31642.10476.47628.15186.26747.07889.53783.14814.80773.21868.13242.03457.26334.074.39629.10655q.60505.14818,1.21776.26863c.06752.01322.136.02245.2036.03515.34252.0645.68586.12581,1.03168.17715.14136.02094.28435.035.42617.05377.21526.02848.43057.05667.64664.08155l-.00864-.02128c-.03121-.08568-.05192-.17385-.08167-.25987q-.22126-.026-.442-.0547c-.18864-.02442-.378-.04582-.56561-.07413-.2253-.034-.44856-.07575-.6724-.11543-.18283-.03237-.36648-.06131-.54832-.09739-.2282-.0453-.45407-.0989-.68064-.15012-.17564-.03967-.35226-.07552-.52692-.11873-.23631-.05847-.47013-.12588-.70459-.19078-.16172-.04478-.32483-.08521-.48568-.13307-.26955-.08022-.53614-.17-.803-.25876-.12326-.041-.248-.07726-.37071-.12013q-.58235-.20334-1.15576-.43376c-.07013-.02819-.13875-.06068-.20876-.0895-.31184-.12849-.62269-.25952-.93023-.40018-.13109-.05992-.25975-.12657-.39-.18875-.23069-.11-.46172-.21909-.68986-.336a15.82011,15.82011,0,0,1,1.093-5.32332c.34316.2061.69931.38249,1.0514.56834.214.11293.42182.24.63887.34536.48034.2333.97275.43638,1.46771.63255.12135.04814.238.1083.36016.15412q.93081.34933,1.89294.61091c.18562.05058.37738.08144.56462.12709.40291.09815.806.19559,1.215.27338.00017-.02976-.00331-.059-.003-.08881.0007-.06258.00864-.12442.01-.18689-.34809-.06688-.69195-.14751-1.03557-.22906-.233-.05534-.47054-.09623-.70111-.15928-.5101-.13951-1.00987-.30941-1.507-.48638-.11949-.04258-.24327-.0732-.362-.11787q-.91888-.34593-1.80472-.77779c-.171-.08324-.33394-.18515-.503-.27315-.39763-.207-.79514-.41433-1.18134-.64728a15.86808,15.86808,0,0,1,2.73861-4.402c.29449.17576.59878.32907.90186.48493.12065.06206.237.1341.35894.193q.66865.3228,1.36231.582c.09652.036.19687.06085.294.095.36816.12929.73794.25371,1.11532.35592.17524.04745.3554.07871.53255.1203.24223.05685.48388.11578.72855.16456.01943-.05481.03289-.11108.053-.16572.01154-.0315.026-.06154.0377-.09292-.28939-.05482-.57617-.11862-.86126-.18753-.13214-.03191-.26741-.05349-.39844-.08875q-.704-.18951-1.3865-.44253c-.09484-.03526-.18568-.08126-.27988-.11833-.35685-.14043-.71207-.28556-1.05871-.45221-.16108-.07749-.31572-.17012-.47448-.25319-.24826-.12993-.49705-.25859-.7394-.40209a15.94036,15.94036,0,0,1,8.3976-4.84321l.481-.37077a16.19954,16.19954,0,0,0-9.11228,5.08121l-.00418-.00256-.07372.08289-.10632.11961.00585.00354a16.12666,16.12666,0,0,0-2.73941,4.40625l-.0058-.00354-.05893.14548-.04252.10488.00446.00272a16.07414,16.07414,0,0,0-1.12031,5.332l-.00917-.00475-.00545.21253-.0022.08347.0011.00058c-.00238.1134-.00441.22691-.00441.34089a16.13083,16.13083,0,0,0,.87089,5.21938l-.015-.00575.09861.27362.0207.05742.00238.00093a16.24654,16.24654,0,0,0,3.93752,6.05662l-.0257-.005.34873.32025.02761.02535.00354.0007a16.155,16.155,0,0,0,20.17621,1.304c-.16213.00581-.32419.00981-.48591.01085A15.78279,15.78279,0,0,1,63.32715,111.91262Z" style="fill:#3c3c3b;fill-rule:evenodd"/><polygon points="85.379 95.568 85.528 94.618 83.155 94.618 82.505 98.734 84.878 98.734 85.022 97.817 83.748 97.817 83.858 97.134 85.044 97.134 85.182 96.24 84.001 96.24 84.105 95.568 85.379 95.568" style="fill:#3c3c3b;fill-rule:evenodd"/><path d="M87.71466,97.22968l-.23608,1.50425h1.00366l.2362-1.4901c.00192-.0131.00366-.03.00557-.05069a3.77545,3.77545,0,0,0,.05064-.48632.88693.88693,0,0,0-.24322-.66491.93844.93844,0,0,0-.68463-.23765,1.02982,1.02982,0,0,0-.50326.12651,1.67135,1.67135,0,0,0-.46381.40778l.07025-.44432h-.9615l-.44989,2.8397h.98969l.20238-1.32426A1.32159,1.32159,0,0,1,86.943,96.808a.49064.49064,0,0,1,.409-.18822.40038.40038,0,0,1,.28956.09547.37476.37476,0,0,1,.09844.28121.949.949,0,0,1-.00708.10691Q87.726,97.16512,87.71466,97.22968Z" style="fill:#3c3c3b;fill-rule:evenodd"/><path d="M91.07114,99.11485a.65974.65974,0,0,1-.49479.18423.51144.51144,0,0,1-.32332-.09269.37452.37452,0,0,1-.13776-.26433h-1.0459a1.09658,1.09658,0,0,0,.44839.78022,1.75731,1.75731,0,0,0,1.03052.26555,2.17127,2.17127,0,0,0,.81393-.14472,1.48043,1.48043,0,0,0,.59177-.41746,2.63266,2.63266,0,0,0,.3627-1.17531q.0168-.11815.02814-.1855l.34014-2.17061h-.939l-.06468.3993a1.29242,1.29242,0,0,0-.42738-.36972,1.13112,1.13112,0,0,0-.52292-.11955,1.36086,1.36086,0,0,0-1.05993.47663A1.73558,1.73558,0,0,0,89.24652,97.48a1.37408,1.37408,0,0,0,.31485.93911,1.03338,1.03338,0,0,0,.81533.3598,1.19815,1.19815,0,0,0,.53-.11659,1.28534,1.28534,0,0,0,.43162-.35012l-.03654.24467A.96406.96406,0,0,1,91.07114,99.11485Zm-.23046-1.08951a.55987.55987,0,0,1-.4232-.16856.61139.61139,0,0,1-.16161-.44137.84209.84209,0,0,1,.19815-.57361.63627.63627,0,0,1,.50186-.22773.58986.58986,0,0,1,.4344.163.57882.57882,0,0,1,.1645.43017.857.857,0,0,1-.20377.58481A.64973.64973,0,0,1,90.84068,98.02534Z" style="fill:#3c3c3b;fill-rule:evenodd"/><polygon points="92.992 98.734 93.998 98.734 94.448 95.894 93.438 95.894 92.992 98.734" style="fill:#3c3c3b;fill-rule:evenodd"/><path d="M94.4366,94.66567a.53151.53151,0,0,0-.388-.15185.53489.53489,0,0,0-.53417.53428.52717.52717,0,0,0,.156.38365.51074.51074,0,0,0,.3782.15888.53758.53758,0,0,0,.54264-.54253A.51326.51326,0,0,0,94.4366,94.66567Z" style="fill:#3c3c3b;fill-rule:evenodd"/><path d="M96.91633,97.22968l-.23608,1.50425h1.00361l.23619-1.4901c.00192-.0131.00372-.03.00563-.05069a3.77237,3.77237,0,0,0,.05058-.48632.88713.88713,0,0,0-.24316-.66491.93855.93855,0,0,0-.68463-.23765,1.02982,1.02982,0,0,0-.50326.12651,1.6708,1.6708,0,0,0-.46387.40778l.07031-.44432h-.96156l-.44989,2.8397H95.73l.20238-1.32426a1.32234,1.32234,0,0,1,.2123-.60169.4908.4908,0,0,1,.409-.18822.40038.40038,0,0,1,.28956.09547.37476.37476,0,0,1,.09844.28121.949.949,0,0,1-.00708.10691Q96.92764,97.16512,96.91633,97.22968Z" style="fill:#3c3c3b;fill-rule:evenodd"/><path d="M101.47618,97.55318l.00836-.06764c.01131-.1029.01693-.1743.01693-.21357a1.44313,1.44313,0,0,0-.4007-1.06568,1.42862,1.42862,0,0,0-1.05848-.402,1.564,1.564,0,0,0-1.63917,1.63923,1.3716,1.3716,0,0,0,.38382,1.03609,1.491,1.491,0,0,0,1.0782.36972,2.05209,2.05209,0,0,0,.70715-.11537,1.58594,1.58594,0,0,0,.55807-.34583l-.5398-.54548a1.46718,1.46718,0,0,1-.35285.24885.81242.81242,0,0,1-.35006.07732.53767.53767,0,0,1-.402-.14049.56275.56275,0,0,1-.13777-.41051v-.06461Zm-1.812-.94485a.57861.57861,0,0,1,.37256-.132.51358.51358,0,0,1,.37106.135.53046.53046,0,0,1,.1547.36549H99.41537A.807.807,0,0,1,99.66416,96.60833Z" style="fill:#3c3c3b;fill-rule:evenodd"/><path d="M103.48079,95.80426a1.56392,1.56392,0,0,0-1.63917,1.63923,1.37157,1.37157,0,0,0,.38376,1.03609,1.491,1.491,0,0,0,1.0782.36972,2.05208,2.05208,0,0,0,.70714-.11537,1.58585,1.58585,0,0,0,.55807-.34583l-.53979-.54548a1.46835,1.46835,0,0,1-.35279.24885.81291.81291,0,0,1-.35012.07732.53789.53789,0,0,1-.402-.14049.563.563,0,0,1-.13776-.41051v-.06461h2.12839l.00835-.06764c.01131-.1029.01688-.1743.01688-.21357a1.44317,1.44317,0,0,0-.4007-1.06568A1.42849,1.42849,0,0,0,103.48079,95.80426Zm-.627,1.17252a.8074.8074,0,0,1,.24878-.36845.57861.57861,0,0,1,.37257-.132.51374.51374,0,0,1,.37112.135.53046.53046,0,0,1,.15464.36549Z" style="fill:#3c3c3b;fill-rule:evenodd"/><path d="M107.43379,95.82682a.9473.9473,0,0,0-.51729.14055.97983.97983,0,0,0-.35424.41045l.07024-.48359H105.671l-.44989,2.8397h.98969l.20243-1.29613a1.07066,1.07066,0,0,1,.22913-.56091.59085.59085,0,0,1,.45685-.18126,1.0852,1.0852,0,0,1,.1518.01119q.07874.0114.17714.03376l.19966-.89137q-.08431-.01392-.12367-.01815A.69365.69365,0,0,0,107.43379,95.82682Z" style="fill:#3c3c3b;fill-rule:evenodd"/><path d="M108.70985,94.51382a.53489.53489,0,0,0-.53417.53428.52717.52717,0,0,0,.156.38365.51076.51076,0,0,0,.3782.15888.53758.53758,0,0,0,.54264-.54253.51329.51329,0,0,0-.15464-.38243A.53153.53153,0,0,0,108.70985,94.51382Z" style="fill:#3c3c3b;fill-rule:evenodd"/><polygon points="107.653 98.734 108.659 98.734 109.109 95.894 108.1 95.894 107.653 98.734" style="fill:#3c3c3b;fill-rule:evenodd"/><path d="M111.70971,95.80426a1.02982,1.02982,0,0,0-.50326.12651,1.67064,1.67064,0,0,0-.46386.40778l.0703-.44432h-.96156l-.44988,2.8397h.98974l.20238-1.32426a1.32234,1.32234,0,0,1,.2123-.60169.49083.49083,0,0,1,.40905-.18822.40038.40038,0,0,1,.28956.09547.37476.37476,0,0,1,.09844.28121.949.949,0,0,1-.00708.10691q-.007.06177-.01827.12633l-.23608,1.50425h1.00361l.23619-1.4901c.00192-.0131.00372-.03.00563-.05069a3.77237,3.77237,0,0,0,.05058-.48632.88713.88713,0,0,0-.24316-.66491A.93853.93853,0,0,0,111.70971,95.80426Z" style="fill:#3c3c3b;fill-rule:evenodd"/><path d="M115.60882,95.89423l-.06461.3993a1.29255,1.29255,0,0,0-.42739-.36972,1.13112,1.13112,0,0,0-.52292-.11955,1.361,1.361,0,0,0-1.06.47663,1.73582,1.73582,0,0,0-.42454,1.19914,1.37406,1.37406,0,0,0,.31491.93911,1.03334,1.03334,0,0,0,.81532.3598,1.1977,1.1977,0,0,0,.52993-.11659,1.285,1.285,0,0,0,.43168-.35012l-.03654.24467a.96406.96406,0,0,1-.23063.558.65981.65981,0,0,1-.49479.18423.51162.51162,0,0,1-.32338-.09269.37452.37452,0,0,1-.13776-.26433h-1.04589a1.0968,1.0968,0,0,0,.44844.78022,1.75711,1.75711,0,0,0,1.03046.26555,2.171,2.171,0,0,0,.81393-.14472,1.48,1.48,0,0,0,.59177-.41746,2.63251,2.63251,0,0,0,.36276-1.17531q.0168-.11815.02814-.1855l.34014-2.17061Zm-.395,1.89787a.64973.64973,0,0,1-.51033.23324.55965.55965,0,0,1-.42314-.16856.61142.61142,0,0,1-.16166-.44137.84212.84212,0,0,1,.1982-.57361.63628.63628,0,0,1,.50186-.22773.59.59,0,0,1,.4344.163.57879.57879,0,0,1,.16445.43017A.857.857,0,0,1,115.21386,97.7921Z" style="fill:#3c3c3b;fill-rule:evenodd"/><path d="M99.94,104.77309a.69293.69293,0,0,0-.54879.25366.94175.94175,0,0,0-.21787.63673.62437.62437,0,0,0,.18231.46833.65343.65343,0,0,0,.47611.17767.708.708,0,0,0,.55488-.24577.90782.90782,0,0,0,.218-.62582.62933.62933,0,0,0-.66462-.6648Z" style="fill:#3c3c3b;fill-rule:evenodd"/><path d="M92.05143,104.73916a.68471.68471,0,0,0-.5456.27036,1.00088,1.00088,0,0,0-.22413.66022.63122.63122,0,0,0,.16386.45743.57719.57719,0,0,0,.43579.17.70687.70687,0,0,0,.56428-.26108,1.00113,1.00113,0,0,0,.221-.6695.62769.62769,0,0,0-.16537-.45905A.60207.60207,0,0,0,92.05143,104.73916Z" style="fill:#3c3c3b;fill-rule:evenodd"/><path d="M102.65485,101.586H82.63479a1.61708,1.61708,0,0,0-1.47931,1.71835v3.91055a1.61707,1.61707,0,0,0,1.47931,1.71834h20.02006a1.61707,1.61707,0,0,0,1.47931-1.71834v-3.91055A1.61708,1.61708,0,0,0,102.65485,101.586ZM86.6976,106.50438a2.24262,2.24262,0,0,1-1.728.6862,2.41288,2.41288,0,0,1-1.70489-.58423,2.031,2.031,0,0,1-.6322-1.5673,2.74205,2.74205,0,0,1,.19478-1.02791,2.54319,2.54319,0,0,1,.55952-.85488,2.34544,2.34544,0,0,1,.82083-.53011,2.81874,2.81874,0,0,1,1.0278-.184,2.3702,2.3702,0,0,1,1.13452.25975,2.33691,2.33691,0,0,1,.84085.79769l-.96451.65836a1.19135,1.19135,0,0,0-.422-.45743,1.12,1.12,0,0,0-.58887-.15145,1.21105,1.21105,0,0,0-.93974.411,1.49245,1.49245,0,0,0-.371,1.03882,1.16955,1.16955,0,0,0,.29374.833,1.01211,1.01211,0,0,0,.77588.31386,1.32749,1.32749,0,0,0,.33858-.04182,1.14353,1.14353,0,0,0,.29513-.12193.76388.76388,0,0,0,.20719-.187.93417.93417,0,0,0,.139-.26438H84.94479l.14531-.92432,2.27224.003A2.77788,2.77788,0,0,1,86.6976,106.50438Zm3.28-1.62606q-.10824-.02481-.19478-.03718a1.19746,1.19746,0,0,0-.16694-.0123.64982.64982,0,0,0-.50232.1993,1.17774,1.17774,0,0,0-.25192.61677l-.22257,1.42514H87.55085l.49467-3.12231h1.05721l-.07727.53167a1.078,1.078,0,0,1,.38945-.45134,1.04215,1.04215,0,0,1,.5688-.15446.75731.75731,0,0,1,.07738.00464c.02877.003.07419.00974.136.02Zm3.21454,1.81144a1.8691,1.8691,0,0,1-1.354.50714,1.62929,1.62929,0,0,1-1.17321-.42048,1.4755,1.4755,0,0,1-.44044-1.11921,1.749,1.749,0,0,1,.51932-1.30436,1.81753,1.81753,0,0,1,1.32931-.51016,1.67125,1.67125,0,0,1,1.19636.4235,1.48372,1.48372,0,0,1,.44821,1.13151A1.71752,1.71752,0,0,1,93.1921,106.68976Zm4.23485-1.32919-.00934.06479a2.48558,2.48558,0,0,1-.5101,1.34178,1.41612,1.41612,0,0,1-.53626.31683,2.23721,2.23721,0,0,1-.71572.10661,1.71433,1.71433,0,0,1-1.08656-.31218,1.01985,1.01985,0,0,1-.39728-.84694,2.80607,2.80607,0,0,1,.02164-.31085q.02157-.18672.08654-.57657l.19177-1.1963h1.09421L95.3619,105.24q-.03714.2565-.05876.42814-.02166.17141-.02163.22419a.48922.48922,0,0,0,.10667.34008.39838.39838,0,0,0,.31068.11729q.47593,0,.643-1.07878c.00615-.039.01126-.069.01549-.08968l.19478-1.23348h1.09735Zm3.84384,1.283a1.4824,1.4824,0,0,1-1.16695.53475,1.20308,1.20308,0,0,1-.57031-.13451,1.56192,1.56192,0,0,1-.48075-.41578q0,.14843-.00777.27361a2.16753,2.16753,0,0,1-.02309.21792l-.20412,1.3292H97.72974l.7141-4.501h1.03859l-.06793.43272a1.59678,1.59678,0,0,1,.507-.39862,1.33091,1.33091,0,0,1,.58736-.13312,1.1073,1.1073,0,0,1,.88412.40355,1.55975,1.55975,0,0,1,.34315,1.04647A1.97521,1.97521,0,0,1,101.27079,106.64353Z" style="fill:#3c3c3b;fill-rule:evenodd"/><text transform="translate(121.2426 98.23741)" style="font-size:14.740570068359375px;fill:#3c3c3b;font-family:Montserrat-BlackItalic, Montserrat;font-weight:800;font-style:italic"><tspan style="letter-spacing:-0.01997436953825833em">+</tspan><tspan x="8.82959" y="0">2</tspan><tspan x="17.7915" y="0" style="letter-spacing:-0.005001873632300179em">3</tspan><tspan x="26.76855" y="0" style="letter-spacing:0.00003312499094238529em">7 6 </tspan><tspan x="54.86377" y="0" style="letter-spacing:-0.010003747264600358em">9</tspan><tspan x="64.45996" y="0" style="letter-spacing:-0.00003312499094238529em">3 14 15 </tspan><tspan x="118.71875" y="0" style="letter-spacing:-0.0049687486413577935em">5</tspan><tspan x="127.76953" y="0">5 · 6 </tspan><tspan x="164.97363" y="0" style="letter-spacing:-0.014972495905958151em">7</tspan><tspan x="174.26025" y="0">8 12 15 98</tspan></text><path d="M695.85744,1.01068A57.35353,57.35353,0,1,0,753.211,58.36421,57.4185,57.4185,0,0,0,695.85744,1.01068Zm0,113.92008A56.56656,56.56656,0,1,1,752.424,58.36421,56.631,56.631,0,0,1,695.85744,114.93076Z" style="fill:#004c91"/><path d="M695.85744,4.39258a53.97182,53.97182,0,1,0,53.972,53.97163A54.03275,54.03275,0,0,0,695.85744,4.39258Zm0,106.76319A52.79137,52.79137,0,1,1,748.649,58.36421,52.85109,52.85109,0,0,1,695.85744,111.15577Z" style="fill:#004c91"/><path d="M732.9388,58.36421a37.08136,37.08136,0,1,0-37.08136,37.08136A37.1235,37.1235,0,0,0,732.9388,58.36421ZM695.85744,94.6586a36.29439,36.29439,0,1,1,36.29439-36.29439A36.336,36.336,0,0,1,695.85744,94.6586Z" style="fill:#004c91"/><path d="M652.40193,58.50408a3.91564,3.91564,0,0,0,1.63773-1.4064,4.45777,4.45777,0,0,0,.70243-2.14995,3.98,3.98,0,0,0-.33431-2.03852,3.766,3.766,0,0,0-1.30956-1.49785,3.8755,3.8755,0,0,0-1.92209-.68745l-.33354-.015-.3051,3.96944,1.411.10836.176-2.28483a2.3061,2.3061,0,0,1,.95759.94068,2.47022,2.47022,0,0,1,.22671,1.338,2.78223,2.78223,0,0,1-.94913,1.95244,2.60672,2.60672,0,0,1-1.99893.66747,2.54174,2.54174,0,0,1-1.8168-.93107,2.68633,2.68633,0,0,1-.6225-2.01085,3.13611,3.13611,0,0,1,1.24193-2.25908l-.96449-1.1378A4.44053,4.44053,0,0,0,646.98,52.45694a4.89242,4.89242,0,0,0-.52874,1.89633,4.09376,4.09376,0,0,0,1.1328,3.30313,3.96983,3.96983,0,0,0,2.64527,1.24462A4.25532,4.25532,0,0,0,652.40193,58.50408Z" style="fill:#004c91"/><rect x="650.65074" y="44.60874" width="1.46848" height="8.11277" transform="translate(465.47977 674.85195) rotate(-77.7373)" style="fill:#004c91"/><path d="M652.83692,47.02384a2.97065,2.97065,0,0,0,2.34631-.14525,2.92046,2.92046,0,0,0,1.53858-1.748,3.099,3.099,0,0,0,.11759-1.61313,2.96873,2.96873,0,0,0-.70781-1.42408,3.08124,3.08124,0,0,0-1.33493-.88688,3.02221,3.02221,0,0,0-1.58393-.10452,2.98924,2.98924,0,0,0-1.42946.71665,3.0962,3.0962,0,0,0-.89226,1.34223,3.06773,3.06773,0,0,0,1.94591,3.863Zm-.62866-3.44222a1.52249,1.52249,0,0,1,.81464-.93876,1.88663,1.88663,0,0,1,2.32325.79581,1.52207,1.52207,0,0,1,.08531,1.24079,1.50574,1.50574,0,0,1-.81387.92761,1.721,1.721,0,0,1-1.31648.02882,1.68854,1.68854,0,0,1-1.00754-.82194A1.50876,1.50876,0,0,1,652.20826,43.58162Z" style="fill:#004c91"/><path d="M658.63852,40.03641l-.54489-.29281a2.87552,2.87552,0,0,0,.92915-.48417,2.43721,2.43721,0,0,0,.60406-.74393,2.60949,2.60949,0,0,0,.15447-2.14611,3.06435,3.06435,0,0,0-1.534-1.76492A3.14155,3.14155,0,0,0,655.911,34.259a2.55425,2.55425,0,0,0-1.68461,1.30534,2.47443,2.47443,0,0,0-.29358.966,2.77064,2.77064,0,0,0,.11836,1.041l-2.55842-1.37489-.69014,1.28421,7.14575,3.83994Zm-1.29036-1.13895a1.75743,1.75743,0,0,1-1.32724-.19444,1.70671,1.70671,0,0,1-.87381-.98871,1.53319,1.53319,0,0,1,.12834-1.23809,1.49637,1.49637,0,0,1,.96373-.7766,1.72993,1.72993,0,0,1,1.30111.18637,1.74956,1.74956,0,0,1,.88227.996,1.49376,1.49376,0,0,1-.10529,1.22925A1.52152,1.52152,0,0,1,657.34816,38.89746Z" style="fill:#004c91"/><path d="M658.85908,33.66533a3.06827,3.06827,0,0,0,2.23411.68822,2.60655,2.60655,0,0,0,1.89826-1.00946,2.41264,2.41264,0,0,0,.43268-.85114,2.87816,2.87816,0,0,0,.06378-1.04212l.48879.37926.90071-1.1597-4.62192-3.59055-.90148,1.1597.5103.39618a2.69183,2.69183,0,0,0-.996.30818,2.48821,2.48821,0,0,0-.76392.65862,2.54919,2.54919,0,0,0-.50876,2.06772A3.143,3.143,0,0,0,658.85908,33.66533Zm.49955-3.4672a1.53157,1.53157,0,0,1,1.08131-.61982,1.70758,1.70758,0,0,1,1.25654.39887,1.76059,1.76059,0,0,1,.717,1.134,1.51433,1.51433,0,0,1-.32355,1.20159,1.48661,1.48661,0,0,1-1.079.591,1.75488,1.75488,0,0,1-1.2673-.40386,1.73352,1.73352,0,0,1-.69859-1.11321A1.48475,1.48475,0,0,1,659.35863,30.19813Z" style="fill:#004c91"/><rect x="662.57987" y="22.49602" width="1.46871" height="8.11283" transform="translate(180.60262 482.27197) rotate(-45.64478)" style="fill:#004c91"/><polygon points="673.38 23.449 672.509 22.253 670.226 23.917 669.001 22.234 671.283 20.571 670.431 19.401 668.148 21.065 667.305 19.908 669.588 18.245 668.719 17.054 665.229 19.598 669.889 25.994 673.38 23.449" style="fill:#004c91"/><path d="M675.50458,22.22775l-1.09976-2.07463a6.676,6.676,0,0,1-.49954-1.0794,1.59052,1.59052,0,0,1,.00538-.93606,1.07994,1.07994,0,0,1,.53566-.62174.91563.91563,0,0,1,.59407-.11105.95345.95345,0,0,1,.53489.30933A6.49473,6.49473,0,0,1,676.31,18.9l1.20044,2.26446,1.28344-.68015-1.81142-3.41763a2.08831,2.08831,0,0,0-1.16662-1.11091,2.01082,2.01082,0,0,0-1.59008.15486,2.19175,2.19175,0,0,0-.65632.53413,3.5298,3.5298,0,0,0-.5249.94144l-.28128-.5299-1.29727.68783,2.74133,5.17141Z" style="fill:#004c91"/><path d="M680.07807,19.03337a2.6476,2.6476,0,0,0,2.158.16716,2.57883,2.57883,0,0,0,.85768-.46919,2.43183,2.43183,0,0,0,.591-.78773,2.38745,2.38745,0,0,1,.18061.99524,1.10673,1.10673,0,0,1-.3297.61136,2.116,2.116,0,0,1-.84307.47841,2.3009,2.3009,0,0,1-.8.13718,1.34173,1.34173,0,0,1-.64479-.17676l-1.534.51914a2.57854,2.57854,0,0,0,.89072.76929,2.60449,2.60449,0,0,0,1.1405.28128,4.23108,4.23108,0,0,0,1.43944-.25976,2.99182,2.99182,0,0,0,1.98511-1.67116,3.323,3.323,0,0,0-.1345-2.26062l-1.60775-4.7491-1.38565.4688.20673.61174a3.03351,3.03351,0,0,0-1.049-.28973,2.4817,2.4817,0,0,0-.9645.13027,2.568,2.568,0,0,0-1.51783,1.32032,2.99366,2.99366,0,0,0-.09838,2.39588A2.98954,2.98954,0,0,0,680.07807,19.03337ZM680.05425,15.54a1.66094,1.66094,0,0,1,2.17339-.74393,1.632,1.632,0,0,1,.80465.98294,1.64893,1.64893,0,0,1-.03612,1.27845,1.50424,1.50424,0,0,1-.9207.79465,1.567,1.567,0,0,1-1.25116-.07109,1.63365,1.63365,0,0,1-.82232-.98794A1.61454,1.61454,0,0,1,680.05425,15.54Z" style="fill:#004c91"/><rect x="685.77074" y="12.04659" width="1.46902" height="5.85314" transform="translate(12.10145 144.17519) rotate(-12.09476)" style="fill:#004c91"/><path d="M685.08425,11.47877a.89683.89683,0,0,0,.71165.136.88492.88492,0,0,0,.58178-.40809.9182.9182,0,0,0,.12757-.712.92841.92841,0,0,0-.41269-.60483.932.932,0,0,0-1.42255.976A.9432.9432,0,0,0,685.08425,11.47877Z" style="fill:#004c91"/><path d="M690.39937,17.25347l-.24439-2.33555a6.68837,6.68837,0,0,1-.05994-1.18776,1.5897,1.5897,0,0,1,.35506-.86651,1.08,1.08,0,0,1,.72933-.37619.91828.91828,0,0,1,.59253.11874.95661.95661,0,0,1,.38042.48724,6.50518,6.50518,0,0,1,.23824,1.37412l.26668,2.5492,1.44483-.1514-.40271-3.84685a2.08959,2.08959,0,0,0-.66708-1.46635,2.00987,2.00987,0,0,0-1.53244-.45074,2.19436,2.19436,0,0,0-.80849.25016,3.53117,3.53117,0,0,0-.83923.67707l-.06225-.59676-1.461.15332.61021,5.8212Z" style="fill:#004c91"/><path d="M698.06618,17.12051a3.463,3.463,0,0,0,1.54705-.23555,2.91841,2.91841,0,0,0,1.15663-.91262l-1.20582-.644a1.95761,1.95761,0,0,1-1.44252.50223,1.71354,1.71354,0,0,1-1.11206-.42614,1.57141,1.57141,0,0,1-.49416-1.01945l4.71183.24247.02-.279a3.20365,3.20365,0,0,0-.7447-2.379,3.01048,3.01048,0,0,0-2.20029-.99947,2.90012,2.90012,0,0,0-2.208.77276,3.05567,3.05567,0,0,0-.9768,2.17723,2.95269,2.95269,0,0,0,.75316,2.21758A3.02906,3.02906,0,0,0,698.06618,17.12051Zm-.85-4.61691a1.75725,1.75725,0,0,1,1.09438-.28858,1.6599,1.6599,0,0,1,.9768.35736,1.47068,1.47068,0,0,1,.53259.82463l-3.18093-.1637A1.92472,1.92472,0,0,1,697.21619,12.5036Z" style="fill:#004c91"/><path d="M704.71854,18.01508a3.46623,3.46623,0,0,0,1.56549.01806,2.92192,2.92192,0,0,0,1.28881-.71358l-1.08592-.83039a1.95757,1.95757,0,0,1-1.50477.26207,1.71509,1.71509,0,0,1-1.02829-.6006,1.57287,1.57287,0,0,1-.32278-1.08593l4.61038,1.00177.06456-.27206a3.19721,3.19721,0,0,0-.34968-2.46812,3.00614,3.00614,0,0,0-2.0097-1.34223,2.89839,2.89839,0,0,0-2.304.405,3.05557,3.05557,0,0,0-1.31572,1.99009,2.95685,2.95685,0,0,0,.38426,2.31058A3.02962,3.02962,0,0,0,704.71854,18.01508Zm-.09069-4.69377a1.75739,1.75739,0,0,1,1.12589-.10759,1.66786,1.66786,0,0,1,.90687.51068,1.476,1.476,0,0,1,.39117.89994L703.94,13.948A1.914,1.914,0,0,1,704.62785,13.32131Z" style="fill:#004c91"/><path d="M709.66247,19.26624l.78312-2.23411.08915-.2709a3.83984,3.83984,0,0,1,.76545-1.476.67149.67149,0,0,1,.67938-.20635,1.00516,1.00516,0,0,1,.35813.26245l.85-1.04212a1.37517,1.37517,0,0,0-.51414-.33969,1.31168,1.31168,0,0,0-.77467-.03228,1.5681,1.5681,0,0,0-.73164.445l.24362-.69552-1.18814-.41654L708.28681,18.784Z" style="fill:#004c91"/><path d="M714.8431,14.47294a.88465.88465,0,0,0,.71011.00577.91471.91471,0,0,0,.51722-.50608.93093.93093,0,0,0,.01614-.73163.93221.93221,0,0,0-1.72534-.0319.947.947,0,0,0-.01921.73933A.90114.90114,0,0,0,714.8431,14.47294Z" style="fill:#004c91"/><rect x="710.54274" y="16.88434" width="5.85323" height="1.46816" transform="translate(413.82303 665.35372) rotate(-66.58902)" style="fill:#004c91"/><path d="M715.32112,21.73974l1.15817-2.04274a6.68174,6.68174,0,0,1,.64172-1.00139,1.5918,1.5918,0,0,1,.79158-.49916,1.08283,1.08283,0,0,1,.81233.118.91323.91323,0,0,1,.41347.44113.95524.95524,0,0,1,.02613.61713,6.43249,6.43249,0,0,1-.60483,1.25692l-1.26423,2.22988,1.26423.71627,1.90748-3.36461a2.08722,2.08722,0,0,0,.30971-1.58086,2.01,2.01,0,0,0-.98525-1.2573,2.19773,2.19773,0,0,0-.80311-.2663,3.52192,3.52192,0,0,0-1.0767.0634l.29588-.52182-1.27729-.72434-2.88735,5.09148Z" style="fill:#004c91"/><path d="M721.497,25.7891a2.588,2.588,0,0,0,.85768.47034,2.4323,2.4323,0,0,0,.98217.07377,2.38868,2.38868,0,0,1-.74163.68784,1.10084,1.10084,0,0,1-.69244.05149,2.1197,2.1197,0,0,1-.85767-.45266,2.304,2.304,0,0,1-.54642-.60022,1.35034,1.35034,0,0,1-.19828-.63826l-1.26346-1.01292a2.52189,2.52189,0,0,0,.209,2.27714,4.22578,4.22578,0,0,0,.99447,1.07286,2.98722,2.98722,0,0,0,2.47619.77237,3.31536,3.31536,0,0,0,1.83217-1.3307l3.13635-3.9118L726.5439,22.333l-.40425.50377a3.01057,3.01057,0,0,0-.32124-1.0402,2.47351,2.47351,0,0,0-.62865-.742,2.566,2.566,0,0,0-1.92977-.56833,3.29724,3.29724,0,0,0-2.7836,3.39458A2.64451,2.64451,0,0,0,721.497,25.7891Zm.8254-3.179a1.61064,1.61064,0,0,1,1.08439-.63019,1.66072,1.66072,0,0,1,1.79758,1.43061,1.62971,1.62971,0,0,1-.39579,1.20659,1.64871,1.64871,0,0,1-1.09669.65862,1.504,1.504,0,0,1-1.16508-.34814,1.56766,1.56766,0,0,1-.614-1.09207A1.63476,1.63476,0,0,1,722.32239,22.61009Z" style="fill:#004c91"/><path d="M729.22375,34.09917a3.97131,3.97131,0,0,0,1.58393,1.3257,3.76049,3.76049,0,0,0,1.9705.28013,3.8789,3.8789,0,0,0,1.9044-.73394l.26207-.20674-2.36014-3.20552-1.13972.83885,1.35875,1.84523A2.307,2.307,0,0,1,731.464,34.156a2.47836,2.47836,0,0,1-1.0452-.86575,2.784,2.784,0,0,1-.55641-2.09846,2.6056,2.6056,0,0,1,1.079-1.81064,2.54075,2.54075,0,0,1,1.98357-.4811,2.68388,2.68388,0,0,1,1.78451,1.11705,3.13792,3.13792,0,0,1,.53413,2.52192l1.47326.23209a4.426,4.426,0,0,0,.0123-1.85253,4.87262,4.87262,0,0,0-.8377-1.78182,4.09154,4.09154,0,0,0-3.01415-1.76223,3.96784,3.96784,0,0,0-2.81588.78428,4.25492,4.25492,0,0,0-1.38719,1.7188,3.91613,3.91613,0,0,0-.322,2.13458A4.46132,4.46132,0,0,0,729.22375,34.09917Z" style="fill:#004c91"/><path d="M732.54378,39.04809l2.09116-1.10937.249-.13872a3.83541,3.83541,0,0,1,1.56395-.56448.67279.67279,0,0,1,.63941.30933,1.019,1.019,0,0,1,.08454.43575l1.33108-.18828a1.36857,1.36857,0,0,0-.14678-.5983,1.31094,1.31094,0,0,0-.54719-.54988,1.57206,1.57206,0,0,0-.83923-.16985l.65094-.34545-.58946-1.112L731.86056,37.76Z" style="fill:#004c91"/><path d="M736.22809,39.66829a2.97573,2.97573,0,0,0-1.71535,1.60814,2.9231,2.9231,0,0,0-.06994,2.32748,3.09823,3.09823,0,0,0,.93837,1.31725,2.96838,2.96838,0,0,0,1.45329.64594,3.07529,3.07529,0,0,0,1.59392-.1683,3.02455,3.02455,0,0,0,1.28651-.92915,2.99,2.99,0,0,0,.644-1.464,3.10581,3.10581,0,0,0-.1683-1.60276,3.06917,3.06917,0,0,0-3.96252-1.73456Zm2.67908,2.25062a1.519,1.519,0,0,1-.0292,1.24271,1.88624,1.88624,0,0,1-2.29636.86843,1.52026,1.52026,0,0,1-.85691-.90109,1.50506,1.50506,0,0,1,.03536-1.23387,1.72172,1.72172,0,0,1,.99524-.8619,1.69319,1.69319,0,0,1,1.30111-.00922A1.50946,1.50946,0,0,1,738.90717,41.91891Z" style="fill:#004c91"/><path d="M737.38856,47.18792a2.27312,2.27312,0,0,0-1.00292,1.06441,2.59428,2.59428,0,0,0-.10222,1.61237,2.6625,2.6625,0,0,0,.66017,1.35683,2.287,2.287,0,0,0,1.21273.63672,6.08128,6.08128,0,0,0,2.10345-.19213l2.42778-.50761-.3005-1.43753-2.80742.58677a3.93521,3.93521,0,0,1-1.07671.13142,1.02568,1.02568,0,0,1-.581-.26706,1.07769,1.07769,0,0,1-.29819-.5737,1.04418,1.04418,0,0,1,.04688-.641.99942.99942,0,0,1,.4127-.458,3.904,3.904,0,0,1,1.09592-.34468l2.759-.57716-.30356-1.45328-2.38551.49877A7.27715,7.27715,0,0,0,737.38856,47.18792Z" style="fill:#004c91"/><path d="M735.05839,55.07722l2.75747-.128a2.87721,2.87721,0,0,0-.54872.89265,2.43914,2.43914,0,0,0-.1368.94874,2.613,2.613,0,0,0,.96988,1.92093,3.06512,3.06512,0,0,0,2.22257.72626,3.1448,3.1448,0,0,0,2.18262-.9034,2.55593,2.55593,0,0,0,.77467-1.98549,2.47377,2.47377,0,0,0-.24439-.97949,2.76026,2.76026,0,0,0-.63634-.83231l.64479-.03-.06686-1.45636-7.98575.37Zm3.8311.21558a1.75707,1.75707,0,0,1,1.23887-.5153,1.70716,1.70716,0,0,1,1.2573.39963,1.53316,1.53316,0,0,1,.52644,1.1282A1.49693,1.49693,0,0,1,741.484,57.467a1.73076,1.73076,0,0,1-1.21274.50838,1.75023,1.75023,0,0,1-1.26807-.40155,1.49459,1.49459,0,0,1-.541-1.1086A1.51949,1.51949,0,0,1,738.88949,55.2928Z" style="fill:#004c91"/><polygon points="651.243 67.238 653.197 68.658 652.451 66.36 654.405 64.94 651.989 64.94 651.243 62.643 650.496 64.94 648.08 64.94 650.035 66.36 649.288 68.658 651.243 67.238" style="fill:#004c91"/><polygon points="741.219 64.94 740.473 62.643 739.726 64.94 737.31 64.94 739.265 66.36 738.518 68.658 740.473 67.238 742.427 68.658 741.68 66.36 743.635 64.94 741.219 64.94" style="fill:#004c91"/><polygon points="655.643 78.323 656.706 77.844 655.295 74.71 654.232 75.19 654.684 76.196 650.079 78.269 650.572 79.364 655.178 77.29 655.643 78.323" style="fill:#004c91"/><path d="M653.378,82.81485a1.3456,1.3456,0,0,1-.1929-.91532,1.23588,1.23588,0,0,1,.46188-.7616l1.84984,3.21243.1929-.106a2.51149,2.51149,0,0,0,1.25193-1.50631,2.36468,2.36468,0,0,0-.27974-1.87828,2.27441,2.27441,0,0,0-1.45175-1.12666,2.39965,2.39965,0,0,0-1.85291.28436,2.32,2.32,0,0,0-1.142,1.44252,2.38394,2.38394,0,0,0,.2882,1.86828,2.72818,2.72818,0,0,0,.8154.9207,2.29877,2.29877,0,0,0,1.09592.3735l-.08992-1.06979A1.54064,1.54064,0,0,1,653.378,82.81485Zm1.80911-2.01661a1.37837,1.37837,0,0,1,.65709.59868,1.30641,1.30641,0,0,1,.18137.797,1.15736,1.15736,0,0,1-.3174.7032l-1.24886-2.16878A1.50663,1.50663,0,0,1,655.18707,80.79824Z" style="fill:#004c91"/><polygon points="657.303 80.525 659.511 81.038 658.83 79.855 656.889 79.807 657.303 80.525" style="fill:#004c91"/><rect x="654.2066" y="84.30685" width="6.37419" height="1.15373" transform="translate(68.3133 388.78503) rotate(-34.64622)" style="fill:#004c91"/><path d="M656.728,87.68346a.6325.6325,0,0,0-.48878.12911.66044.66044,0,1,0,.48878-.12911Z" style="fill:#004c91"/><path d="M660.08642,86.29473a.66334.66334,0,0,0-1.06133-.61405.63367.63367,0,0,0-.25285.43806.66541.66541,0,0,0,.57178.74393.63625.63625,0,0,0,.488-.12834A.64271.64271,0,0,0,660.08642,86.29473Z" style="fill:#004c91"/><path d="M665.4246,90.205l-.35352-1.06979-3.34386,1.0744a5.82563,5.82563,0,0,0-.91685.34891,2.01518,2.01518,0,0,0-.47187.34738,1.8861,1.8861,0,0,0-.55565,1.34338,1.85564,1.85564,0,0,0,.57332,1.4064,1.93334,1.93334,0,0,0,2.74364.00615,1.93421,1.93421,0,0,0,.60713-1.38565,1.8094,1.8094,0,0,0-.54719-1.35184Zm-3.12944,2.62375a.83426.83426,0,0,1-.59868.26206.76788.76788,0,0,1-.57025-.23132.735.735,0,0,1-.21211-.561.90387.90387,0,0,1,.84461-.85613.72783.72783,0,0,1,.55949.22441.76789.76789,0,0,1,.23824.57716A.82491.82491,0,0,1,662.29516,92.82874Z" style="fill:#004c91"/><path d="M668.717,94.88839a1.88816,1.88816,0,0,0,.415-1.39642,1.94457,1.94457,0,0,0-3.4476-1.05826,1.92767,1.92767,0,0,0-.458,1.441,1.81654,1.81654,0,0,0,.68629,1.28882l-2.18184.95374.465,1.02214,3.21627-1.41947a5.92947,5.92947,0,0,0,.87382-.4396A1.98971,1.98971,0,0,0,668.717,94.88839Zm-.91685-.70859a.83554.83554,0,0,1-.54873.31894.72663.72663,0,0,1-.581-.16292.7639.7639,0,0,1-.29589-.551.89314.89314,0,0,1,.76546-.92914.76212.76212,0,0,1,.59176.16984.73543.73543,0,0,1,.27052.53566A.8454.8454,0,0,1,667.80011,94.1798Z" style="fill:#004c91"/><path d="M672.07234,94.82537a1.90607,1.90607,0,0,0-1.51169-.29128,1.88437,1.88437,0,0,0-1.01983.65633l.95143.6225a.77352.77352,0,0,1,.45574-.17983.75762.75762,0,0,1,.46957.123.65433.65433,0,0,1,.29819.39425.55641.55641,0,0,1-.08147.44959.65439.65439,0,0,1-.29895.24439.79322.79322,0,0,1-.42115.05,1.92286,1.92286,0,0,1-.6056-.23671l-.55488.84845a1.70887,1.70887,0,0,1,.72318.83232.89267.89267,0,0,1-.66784,1.19429,1.02845,1.02845,0,0,1-1.142-.70859,1.18291,1.18291,0,0,1,.11066-.78389l-.97987-.641a2.15526,2.15526,0,0,0-.292,1.58931,2.0424,2.0424,0,0,0,.9353,1.26576,2.19994,2.19994,0,0,0,1.63389.37427,1.87277,1.87277,0,0,0,1.29266-.84922,1.59339,1.59339,0,0,0,.2759-1.00446,1.67271,1.67271,0,0,0-.41885-.97757,1.61781,1.61781,0,0,0,.85306-.10375,1.3534,1.3534,0,0,0,.60406-.50953,1.52913,1.52913,0,0,0,.19752-1.24962A1.80563,1.80563,0,0,0,672.07234,94.82537Z" style="fill:#004c91"/><polygon points="677.076 97.83 675.996 98.564 677.165 99.088 675.073 103.747 676.146 104.228 678.692 98.556 677.076 97.83" style="fill:#004c91"/><path d="M682.73026,99.8815l-3.80344,2.9665-.34045,1.04059,2.57917.84384-.39733,1.2135,1.1013.36044.39656-1.2135.52644.17215.34045-1.04059-.52644-.17215,1.245-3.8042Zm-1.22427,3.81035-1.34953-.44114,1.9974-1.53935Z" style="fill:#004c91"/><polygon points="687.07 102.332 688.334 102.533 687.53 107.575 688.69 107.76 689.67 101.621 687.922 101.342 687.07 102.332" style="fill:#004c91"/><path d="M691.53141,105.338l.95067.26744a1.39776,1.39776,0,0,1,.3858-.27129.82652.82652,0,0,1,.38657-.07608.81047.81047,0,0,1,.60329.30972,1.10274,1.10274,0,0,1-.09607,1.43176.89419.89419,0,0,1-.68245.2467.939.939,0,0,1-.50876-.17753,1.06914,1.06914,0,0,1-.35429-.46189l-1.2404-.06686a2.08112,2.08112,0,0,0,2.01891,1.80219,2.04116,2.04116,0,0,0,1.53782-.54027,2.09076,2.09076,0,0,0,.70167-1.49709,2.03633,2.03633,0,0,0-.47956-1.50554,1.87743,1.87743,0,0,0-1.37182-.65171,1.29023,1.29023,0,0,0-.19521.00384,1.75629,1.75629,0,0,0-.209.03305l.31433-1.11282,2.02583.10989.05918-1.09361-2.9081-.15755Z" style="fill:#004c91"/><path d="M701.98643,104.412a1.88064,1.88064,0,0,0-1.45635-.43421,1.39409,1.39409,0,0,0-.19137.03381,1.66645,1.66645,0,0,0-.20212.06533l.13987-1.14818,2.01892-.20212-.10836-1.089-2.89811.28973-.405,3.51063.97987.11835a1.39076,1.39076,0,0,1,.33969-.32662.82074.82074,0,0,1,1.01446.07915,1.10245,1.10245,0,0,1,.12373,1.42946.89159.89159,0,0,1-.63634.34814.9334.9334,0,0,1-.53028-.0976,1.06415,1.06415,0,0,1-.42039-.40194l-1.23655.12373a2.08225,2.08225,0,0,0,2.271,1.4725,2.04642,2.04642,0,0,0,1.43791-.77083,2.09237,2.09237,0,0,0,.46342-1.58624A2.03462,2.03462,0,0,0,701.98643,104.412Z" style="fill:#004c91"/><path d="M706.769,103.52431a1.87769,1.87769,0,0,0-1.49325-.279,1.36773,1.36773,0,0,0-.18752.0538,1.75094,1.75094,0,0,0-.19367.08531l.01922-1.15664,1.98664-.41193-.22288-1.07209-2.85123.59177-.03535,3.53445.98756.01537a1.40355,1.40355,0,0,1,.3028-.36121.8408.8408,0,0,1,.35505-.17292.81229.81229,0,0,1,.66247.14525,1.10408,1.10408,0,0,1,.27283,1.40948.89345.89345,0,0,1-.59638.4127.941.941,0,0,1-.5372-.0415,1.0717,1.0717,0,0,1-.46034-.35583l-1.21658.25284a2.0809,2.0809,0,0,0,2.4124,1.2258,2.04794,2.04794,0,0,0,1.34953-.91685,2.08728,2.08728,0,0,0,.29435-1.6262A2.03169,2.03169,0,0,0,706.769,103.52431Z" style="fill:#004c91"/><rect x="711.08545" y="102.57428" width="2.14713" height="1.0735" transform="translate(7.69296 249.84182) rotate(-20.00413)" style="fill:#004c91"/><polygon points="718.889 95.57 717.789 96.171 717.847 98.687 715.758 97.281 714.643 97.889 717.936 100.107 719.227 102.47 720.273 101.899 718.982 99.536 718.889 95.57" style="fill:#004c91"/><path d="M723.04711,94.62171l.29434.4127a2.13358,2.13358,0,0,0-.81848.00768,1.93767,1.93767,0,0,0-.72318.32432,2.00316,2.00316,0,0,0-.84922,1.44175,2.47,2.47,0,0,0,.50185,1.78606,2.41321,2.41321,0,0,0,1.52706,1.02137,2.04908,2.04908,0,0,0,1.65617-.33278,1.89234,1.89234,0,0,0,.51722-.54257,2.26374,2.26374,0,0,0,.28281-.77084l.282.39579.93991-.67015-2.67139-3.74349Zm1.37182,1.83524a1.38374,1.38374,0,0,1,.28435,1.01522,1.19373,1.19373,0,0,1-.51414.83154,1.16871,1.16871,0,0,1-.94529.20213,1.511,1.511,0,0,1-1.13819-1.5847,1.1671,1.1671,0,0,1,.50416-.82463,1.20584,1.20584,0,0,1,.953-.22288A1.34149,1.34149,0,0,1,724.41893,96.457Z" style="fill:#004c91"/><path d="M729.73328,91.88729a2.3671,2.3671,0,0,0-1.04981-.67246,2.3431,2.3431,0,0,0-1.25577-.04918,2.432,2.432,0,0,0-1.12281.58485,2.4177,2.4177,0,0,0,3.26469,3.56672,2.43119,2.43119,0,0,0,.69321-1.06517,2.33208,2.33208,0,0,0,.053-1.24809A2.41192,2.41192,0,0,0,729.73328,91.88729Zm-.88,2.63067a1.18094,1.18094,0,0,1-.91224.32892,1.354,1.354,0,0,1-.91685-.47879,1.33078,1.33078,0,0,1-.38119-.94836,1.2741,1.2741,0,0,1,1.3257-1.21657,1.48273,1.48273,0,0,1,1.29651,1.42869A1.19589,1.19589,0,0,1,728.85332,94.518Z" style="fill:#004c91"/><path d="M732.86733,87.81334l-1.471-1.27806-.757.87151,1.70075,1.4771a3.1174,3.1174,0,0,1,.59407.61175.80384.80384,0,0,1,.10836.49032.84134.84134,0,0,1-.21672.45958.82069.82069,0,0,1-.42346.27513.7888.7888,0,0,1-.4834-.04073,3.08109,3.08109,0,0,1-.73625-.52183l-1.67154-1.45251-.76546.88,1.4456,1.25654a5.70034,5.70034,0,0,0,1.23733.89533,1.781,1.781,0,0,0,1.14279.1222,2.03694,2.03694,0,0,0,1.0575-.70167,2.09877,2.09877,0,0,0,.53566-1.05826,1.796,1.796,0,0,0-.17753-1.06133A4.79573,4.79573,0,0,0,732.86733,87.81334Z" style="fill:#004c91"/><path d="M734.42667,82.87556a1.57661,1.57661,0,0,0-1.05212.68476,1.72869,1.72869,0,0,0-.2636.61021,2.78218,2.78218,0,0,0-.02459.84691l-.38811-.26744-.65478.94989L735.83,88.30981l.65479-.9499-1.51938-1.0475a5.24961,5.24961,0,0,1-.73932-.571,1.25059,1.25059,0,0,1-.33585-.654.84685.84685,0,0,1,.14833-.62789.71257.71257,0,0,1,.3735-.2928.74738.74738,0,0,1,.48494.02151,5.1138,5.1138,0,0,1,.94222.56026l1.6577,1.1428.64787-.93991-2.50232-1.72457A1.63906,1.63906,0,0,0,734.42667,82.87556Z" style="fill:#004c91"/><path d="M734.90776,77.65266l2.01815,1.06518a2.1288,2.1288,0,0,0-.72779.375,1.941,1.941,0,0,0-.50108.61405,2.00555,2.00555,0,0,0-.11144,1.66924,2.47249,2.47249,0,0,0,1.25039,1.371,2.4102,2.4102,0,0,0,1.82295.22671A2.04649,2.04649,0,0,0,739.99,81.93335a1.90432,1.90432,0,0,0,.21826-.7178,2.2756,2.2756,0,0,0-.093-.81541l.42961.22748.53873-1.0206-5.6379-2.975Zm2.593,1.71612a1.34329,1.34329,0,0,1,1.02675.1368,1.38172,1.38172,0,0,1,.70935.77928,1.18629,1.18629,0,0,1-.08608.97372,1.1673,1.1673,0,0,1-.75392.60483,1.51173,1.51173,0,0,1-1.72842-.90455,1.16536,1.16536,0,0,1,.0807-.963A1.2005,1.2005,0,0,1,737.50077,79.36878Z" style="fill:#004c91"/><path d="M741.66464,74.54551a1.5406,1.5406,0,0,1,.02767,1.19967,1.34214,1.34214,0,0,1-.58716.72856,1.23051,1.23051,0,0,1-.88073.12451l1.31725-3.46529-.20442-.08223a2.50953,2.50953,0,0,0-1.95821-.01614,2.36069,2.36069,0,0,0-1.27805,1.4041,2.28208,2.28208,0,0,0,.04534,1.83754,2.40262,2.40262,0,0,0,1.39257,1.255,2.31945,2.31945,0,0,0,1.83985-.02844,2.38094,2.38094,0,0,0,1.265-1.40486,2.72567,2.72567,0,0,0,.19674-1.21428,2.29074,2.29074,0,0,0-.40347-1.08438Zm-2.27176,1.68231a1.504,1.504,0,0,1-.40655-.60791,1.38073,1.38073,0,0,1,.04765-.88764,1.31069,1.31069,0,0,1,.50261-.6448,1.1627,1.1627,0,0,1,.74547-.199Z" style="fill:#004c91"/><polygon points="735.952 73.395 737.142 74.928 737.436 74.154 736.437 72.119 735.952 73.395" style="fill:#004c91"/><polygon points="703.257 47.163 701.148 48.128 702.724 51.57 704.832 50.605 704.48 49.835 703.286 50.381 703.019 49.799 704.145 49.284 703.808 48.547 702.682 49.062 702.409 48.465 703.603 47.919 703.257 47.163" style="fill:#004c91"/><path d="M699.38445,49.58966a.939.939,0,0,1,.46082-.03151,1.08755,1.08755,0,0,1,.442.20371l.72573-.67659a1.9259,1.9259,0,0,0-.88255-.40881,2.12364,2.12364,0,0,0-1.00452.08435,2.1993,2.1993,0,0,0-.71626.37317,1.9153,1.9153,0,0,0-.71848,1.33454,2.13843,2.13843,0,0,0,.46828,1.48349,1.91855,1.91855,0,0,0,.591.48811,1.80429,1.80429,0,0,0,.73687.21212,2.2468,2.2468,0,0,0,.822-.11226,1.914,1.914,0,0,0,1.22407-.94821,2.10124,2.10124,0,0,0,.03991-1.60017c-.01825-.05807-.0317-.101-.04174-.13022-.01013-.02925-.02051-.05653-.02987-.08035l-1.935.60593.23733.75786.98016-.30693a.7319.7319,0,0,1-.14011.58019,1.08053,1.08053,0,0,1-.56823.37946.90982.90982,0,0,1-.78918-.07829,1.47965,1.47965,0,0,1-.50627-1.61684A.91416.91416,0,0,1,699.38445,49.58966Z" style="fill:#004c91"/><path d="M705.36223,46.75212a.9376.9376,0,0,1,.435-.15524,1.08693,1.08693,0,0,1,.48062.07623l.51515-.848a1.92673,1.92673,0,0,0-.96032-.15423,2.12322,2.12322,0,0,0-.94408.35352,2.201,2.201,0,0,0-.58826.55334,1.91545,1.91545,0,0,0-.3298,1.47941,2.13839,2.13839,0,0,0,.853,1.301,1.91811,1.91811,0,0,0,.70123.30948,1.80319,1.80319,0,0,0,.76675.00447,2.248,2.248,0,0,0,.76079-.3309,1.91354,1.91354,0,0,0,.92113-1.24458,2.10085,2.10085,0,0,0-.39541-1.551c-.03328-.051-.05783-.08862-.07546-.11408-.01763-.02531-.035-.0487-.05048-.06926l-1.6983,1.10793.43388.66515.86027-.56121a.73217.73217,0,0,1,.02243.59647,1.08077,1.08077,0,0,1-.44406.51928.90957.90957,0,0,1-.78082.13858,1.47973,1.47973,0,0,1-.92569-1.419A.91381.91381,0,0,1,705.36223,46.75212Z" style="fill:#004c91"/><path d="M689.16757,42.67433a17.16131,17.16131,0,0,0-.02728,11.78245A17.39794,17.39794,0,0,0,690.1777,56.764a17.20437,17.20437,0,0,0,14.69474,9.02018,16.0424,16.0424,0,0,1-2.92842-1.341,15.76312,15.76312,0,0,1-4.972-4.58507,16.43808,16.43808,0,0,1-.98084-1.58951,16.02862,16.02862,0,0,1-1.42734-3.65323,15.79261,15.79261,0,0,1-.34651-6.03869,15.92343,15.92343,0,0,1,8.22976-11.91378c.38892-.21014.792-.40708,1.2-.58538l.12023-.05153.11412.05807a16.26275,16.26275,0,0,1,1.36375.94452c.25554.18737.49392.36264.67073.4869.01715-.04447.03233-.09347.05149-.15812a6.45325,6.45325,0,0,1,1.08492-2.01171,65.10841,65.10841,0,0,0,3.99316-5.25532c-5.03763-.98645-12.633,1.30058-16.94637,4.16536.31212-.03079.6263-.05356.93741-.06816l.91724-.04093-.74451.53792A17.07932,17.07932,0,0,0,689.16757,42.67433Z" style="fill:#004c91"/><path d="M703.92662,37.76311c-.2209.21543-.44987.42106-.6812.62385-.05773.05058-.1122.10524-.17061.155q-.43849.37422-.90009.71771c-.08684.0647-.17806.12267-.266.18569-.2235.1601-.44738.31952-.678.46866-.12277.07925-.25.15111-.37465.22734-.202.1234-.40353.2478-.61041.36284-.13915.07733-.28214.14751-.42345.2211-.19833.10322-.39632.20692-.59868.30246-.14987.0707-.303.13492-.455.2014-.19977.08732-.39964.17436-.60281.25419-.15746.06182-.31717.11787-.47659.17508-.046.01647-.0926.0316-.13891.0476-.101.14026-.21494.27066-.3112.41433.15121-.05168.30241-.10332.45309-.15644.14722-.05188.29718-.09717.44277-.15289.26567-.10169.52514-.21677.78505-.331.10461-.046.21225-.0856.316-.13363q.541-.25072,1.06349-.53734c.09578-.05255.18714-.11283.28195-.16716.25011-.14328.50041-.28637.74322-.44185.12959-.08305.25313-.17523.38061-.26159.20164-.13675.40511-.27033.60108-.41544.13819-.10226.26961-.21379.40482-.32028.17787-.13987.35828-.27633.53091-.42322.13718-.11676.26711-.24247.40088-.36356.16254-.14707.32778-.29074.48494-.444.132-.12868.2564-.26582.38455-.39882.07546-.07829.15049-.15707.22643-.23478-.08036-.05894-.15861-.11581-.238-.1735-.09439.09967-.1881.2002-.284.29829C704.11962,37.56267,704.02605,37.66618,703.92662,37.76311Z" style="fill:#004c91"/><path d="M712.56048,46.33453l.003-.00293-.02921-.08627-.07426-.21874-.008.00783a17.505,17.505,0,0,0-2.88764-5.17252l.0037-.00418-.07815-.09553-.108-.13195-.00481.00543a17.65341,17.65341,0,0,0-2.99768-2.82611,1.22943,1.22943,0,0,1-.16336.24064,17.321,17.321,0,0,1,2.96718,2.79633c-.27023.30242-.559.58322-.84293.86978-.20226.20409-.394.42077-.603.61669-.33859.31755-.69749.6081-1.05274.90365-.18733.15582-.36462.32518-.55636.47485-.48912.38157-.99716.73505-1.51323,1.07517-.06994.04606-.13478.10015-.20524.14544q-.88506.5697-1.81757,1.05576c-.19074.09957-.39118.17873-.58465.27292-.43614.21241-.87093.428-1.31975.61266-.25357.10438-.517.1844-.77434.27975-.39992.14813-.79663.30419-1.205.43013-.28652.08848-.58158.15121-.87189.22854-.38993.1039-.77689.217-1.173.30049-.30649.06466-.61976.103-.92953.15534-.30875.05217-.61717.10539-.92818.14828-.01187.07853-.03454.15524-.04511.23392-.00321.024-.00317.04813-.00624.07219.35856-.04856.7129-.11451,1.06854-.17517.28834-.04924.58067-.08223.86608-.142.44521-.09328.8801-.219,1.31749-.33748.25116-.068.50771-.1195.75609-.19578.55554-.17051,1.0987-.37408,1.63868-.58485.12172-.04755.24824-.08271.36909-.13223q.98469-.40362,1.92895-.89543c.20731-.10783.403-.23694.60709-.351.41529-.2321.83322-.45948,1.23415-.71684.24353-.1563.47241-.33556.71027-.501.34689-.24117.699-.47394,1.03323-.73413.24185-.18824.46736-.39882.70229-.59681.31221-.26322.63048-.518.92987-.79816.23233-.21735.44685-.45607.67106-.68346.26226-.266.53442-.52024.785-.79975a17.21527,17.21527,0,0,1,2.85608,5.17055c-.3393.33128-.69964.63691-1.05384.95033-.24852.21994-.4858.45391-.74129.66487-.41587.34324-.853.6567-1.28627.97574-.22412.165-.43777.34516-.66626.50352-.57448.3982-1.16845.76526-1.76877,1.1209-.10038.05951-.19491.129-.29593.18723q-1.05963.61062-2.16637,1.13093c-.1711.08041-.34992.14285-.5225.22-.57.25477-1.14136.507-1.72645.72482-.27576.10265-.5604.17979-.83918.27408-.49176.16629-.98093.34045-1.48119.48037-.3236.0905-.65483.15275-.9816.23195-.46472.11278-.92675.23618-1.39723.32591-.35.06671-.70589.10375-1.05864.15754-.38988.05947-.779.12282-1.17128.16956.00936.0379.01374.07637.02339.11422.01494.05879.04006.1147.05572.1733.40381-.04952.80412-.11844,1.20572-.1807.336-.05206.6752-.08751,1.00883-.1512.50516-.09645,1.00168-.22715,1.50031-.35.29694-.07311.5982-.12882.89254-.21115.60262-.16855,1.194-.37221,1.78418-.57865.18191-.06365.369-.112.5496-.17917q1.14918-.42732,2.26-.94889c.21149-.09923.41274-.21893.62188-.32316.52313-.26072,1.04707-.52,1.55429-.81142.27288-.15673.53173-.33719.7997-.50271.42884-.265.8621-.5226,1.27744-.80955.28387-.19607.55151-.41543.82861-.62159.382-.28421.76934-.56021,1.1378-.86315.27768-.2283.53744-.4786.807-.71737.31837-.282.64686-.55132.95336-.84768a17.29434,17.29434,0,0,1,.84129,5.34692c0,.23733-.005.47739-.01445.71468-.33561.26288-.68433.50679-1.02891.75666-.24262.17589-.47836.36212-.72525.53153-.38883.26673-.79067.512-1.18958.76228-.223.14-.43946.29074-.6655.42548-.5127.30563-1.03765.58864-1.56491.86709-.12085.06383-.23728.13626-.35885.19861q-.97836.50183-1.98635.94053c-.18992.08262-.38575.15068-.57707.22994-.48475.20068-.969.40309-1.46236.58153-.27508.09948-.5567.18012-.83423.27263-.41717.139-.832.28522-1.25448.40823-.29862.0869-.60281.15405-.90369.23287-.40794.10682-.81363.22177-1.22551.31356-.31437.07008-.63336.11969-.9498.18094-.34233.06614-.684.135-1.028.19338.00653.00927.01153.01988.018.0291.05721.08176.12455.15366.18315.23412.33225-.05875.66228-.12772.99318-.19286.29684-.05845.59575-.10668.89077-.17282.45079-.10115.89552-.22426,1.34155-.34329.2602-.06936.52332-.12777.78174-.20318.53878-.15726,1.07012-.33767,1.60045-.52077.16019-.05533.32365-.10044.48293-.15808q1.02929-.37227,2.0339-.80882c.19127-.08305.37619-.18.566-.26649.47485-.21643.94995-.43229,1.41486-.67.2539-.12974.49934-.27556.75008-.41154.392-.2126.78625-.42068,1.17012-.64835.26779-.15885.5263-.3333.78995-.4994.35612-.22431.71488-.44387,1.06307-.6812.26735-.18229.525-.37941.7874-.56924.28911-.20918.58451-.40876.86742-.627a17.32921,17.32921,0,0,1-2.29688,7.58294c-.50146.27105-1.01416.51982-1.52658.769-.19218.09343-.37912.19766-.57274.288q-1.073.5006-2.17387.93659c-.17547.06945-.35569.12585-.53211.1928-.56146.21322-1.12349.42524-1.69378.61266-.27638.09088-.55815.16341-.8364.24814-.40962.12474-.81925.24977-1.2318.36385.122.0709.24862.133.3724.20044.41409-.11768.82544-.24468,1.23631-.37331.19694-.06163.39642-.11413.59239-.17888q1.08816-.35909,2.15509-.77952c.15885-.06268.31347-.1356.47159-.20035.5494-.225,1.09645-.45554,1.63557-.70473.25342-.11716.50079-.24646.75181-.3689.35361-.17253.71107-.337,1.05955-.5199a17.28047,17.28047,0,0,1-4.1728,4.57839l.34358.08468a17.558,17.558,0,0,0,4.32675-4.9287l.00374-.002.02042-.035.26144-.44766-.0257.014a17.617,17.617,0,0,0,2.13372-7.56786l.00216-.00168.003-.06643.01407-.316-.0072.00567c.00442-.1624.0108-.32485.0108-.48638A17.57816,17.57816,0,0,0,712.56048,46.33453Z" style="fill:#004c91"/><path d="M679.1996,57.58526l-.01628-.00625.1073.29781.02253.06254.0026.001a17.684,17.684,0,0,0,4.28573,6.59222l-.028-.00553.37956.34858.03.02757.00389.00077a17.58357,17.58357,0,0,0,21.96038,1.41927c-.17643.00634-.35285.01066-.52885.01182a17.3022,17.3022,0,0,1-20.87988-1.32624c.26846.04914.54.0855.80993.12911.26462.04285.52813.089.79394.12657.34641.04885.6947.08684,1.04284.12671.28786.03305.57476.0709.86354.09784.28733.02666.57581.04213.864.06269.9743.07012,1.95095.11725,2.92876.11725a40.82517,40.82517,0,0,0,5.00343-.315c.12494-.01542.25093-.02532.37567-.04184.38095-.05077.75844-.11542,1.13679-.17686.12964-.021.25957-.041.3895-.06061-.17167-.06816-.341-.14156-.51025-.21505-.16379.026-.32754.05236-.49186.07662-.27143.04-.54229.08242-.81492.11691-.34425.04342-.69033.07719-1.03617.11172-.26331.02632-.52605.056-.79014.07719-.35852.02872-.71814.04669-1.07771.0659-.25352.01355-.50675.03137-.7607.04016-.37393.01292-.7484.01422-1.12272.01691-.24074.00177-.48133.00859-.72208.00614-.39319-.00408-.7861-.02094-1.17891-.03631-.22216-.00874-.44464-.01148-.66656-.02382-.42316-.02349-.84484-.06081-1.26653-.09746-.19107-.01662-.38287-.02671-.57356-.046-.505-.05115-1.00748-.11677-1.509-.18685-.10611-.01484-.21327-.02435-.31913-.04q-.8994-.13306-1.78855-.30755a17.40727,17.40727,0,0,1-4.44434-6.5573c.21384.07959.43061.14876.64566.224.22911.08017.45727.16341.68778.23863.26836.08771.53912.16643.80921.24747.23137.06936.46188.14208.69446.20663.2747.076.55161.14285.828.21212.23032.05768.45972.11945.69114.17243.28292.0647.568.11951.85254.1771.228.04621.455.09684.684.13843.29267.05317.58735.09578.88155.14136.223.03459.44488.07417.66862.10443.312.04217.626.07305.93952.10682.20793.02243.41486.05044.62347.06912.34751.03113.69691.05019,1.0461.071.17691.01052.35276.02714.53009.035q.79038.03523,1.58562.03569l.091-.00034c-.081-.09309-.14919-.19789-.2284-.29285-.48493-.00193-.96887-.011-1.451-.03267-.16932-.00763-.33733-.02406-.50636-.03415-.35765-.02128-.71569-.04044-1.07157-.07267-.20908-.01888-.41644-.048-.6249-.07071-.31366-.0341-.62794-.06426-.94-.10687-.22431-.03064-.44646-.07181-.66986-.10682-.29449-.04616-.59-.08786-.88294-.14156-.22681-.04155-.45118-.09376-.67693-.13992-.28695-.05865-.5749-.11283-.86027-.17873-.2282-.05279-.45391-.11595-.681-.17344-.28051-.07095-.56213-.13738-.84086-.21538-.23214-.065-.4616-.14064-.69254-.21058-.27023-.0819-.54171-.15908-.81012-.24766-.2344-.07733-.46573-.16528-.69869-.24775-.25231-.08939-.50593-.17446-.75661-.26985a17.26911,17.26911,0,0,1-.99865-5.80976q0-.11218.00139-.224c.18728.09482.37793.18036.56674.271.1868.08963.37235.18253.56059.26807.22768.10347.45829.19862.68817.296.188.07969.37466.163.564.23872.23839.0952.47975.18142.7203.27028.184.06792.36649.14.55171.20424.256.08862.515.16768.77323.2491.173.05456.3444.114.51842.16528.29108.08588.58538.16125.87914.23805.14415.03761.28662.08055.43134.11595q.65853.16133,1.32542.29238c.07349.01441.148.02445.22162.03828.37283.07022.74653.13694,1.12291.1928.15385.02282.30948.03809.46386.05856.2343.031.46865.06167.70382.08876l-.00941-.0232c-.034-.09323-.05649-.1892-.08886-.28282q-.24087-.0283-.4811-.05956c-.20534-.02656-.4114-.04986-.61564-.08069-.24521-.037-.4882-.08243-.73187-.12561-.199-.03526-.39887-.06676-.59681-.106-.24838-.04933-.49421-.10764-.74081-.16341-.19117-.04318-.3834-.08218-.57351-.1292-.25722-.06365-.5117-.137-.7669-.2077-.176-.0487-.35357-.0927-.52865-.14482-.29338-.08732-.58355-.185-.874-.28161-.13421-.04467-.27-.08411-.40353-.13075q-.63381-.22134-1.25793-.47216c-.07632-.03065-.151-.066-.22724-.09741-.3394-.13983-.67775-.28244-1.01249-.43556-.1427-.06523-.28272-.13776-.42451-.20544-.25112-.11975-.50257-.23844-.75085-.36567A17.219,17.219,0,0,1,679.74,45.56216c.3735.22431.76113.4163,1.14438.61856.23291.123.4591.26121.69537.37591.52279.254,1.05874.475,1.59748.6885.13209.05241.259.11787.392.16773q1.01315.38028,2.06036.665c.202.055.41073.08862.61454.13833.43854.10683.87727.21289,1.32249.29752.00019-.03237-.00361-.06427-.00322-.09664.00077-.06811.00941-.13541.011-.20342-.37888-.07277-.75316-.16058-1.12719-.24934-.25361-.06023-.51212-.10471-.7631-.17335-.55521-.15183-1.09918-.33676-1.64022-.52937-.13007-.04635-.26481-.07969-.394-.1283q-1.00018-.37653-1.96435-.84658c-.18608-.09059-.36346-.20154-.54743-.29732-.43277-.22532-.86545-.45093-1.28579-.7045a17.27065,17.27065,0,0,1,2.98078-4.79127c.32052.19126.65175.35813.98164.52778.13133.06754.25789.146.39065.21005q.72777.35131,1.48278.6335c.10505.03915.21427.06624.32.10342.40074.14074.80321.27614,1.21394.38738.19073.05164.38685.08569.57966.13094.26365.06187.52668.126.793.17912.02113-.05966.03579-.1209.05764-.18037.01258-.03429.02829-.067.041-.10115-.315-.05966-.62712-.12912-.93741-.2041-.14381-.03472-.291-.05821-.43369-.09659q-.76617-.20628-1.50909-.48167c-.10323-.03838-.20208-.08848-.30463-.12878-.38839-.15289-.77506-.31082-1.15231-.49224-.17536-.08435-.34367-.18517-.51645-.27556-.27023-.14141-.541-.28148-.80479-.43763a17.34979,17.34979,0,0,1,9.14022-5.27151l.52351-.40357a17.632,17.632,0,0,0-9.91811,5.53055l-.00451-.00279-.08027.09021-.11571.13021.00634.00385a17.5529,17.5529,0,0,0-2.98164,4.79588l-.00634-.00384-.06412.15837-.0463.11412.0049.003a17.49576,17.49576,0,0,0-1.21941,5.80352l-.01-.00519-.00595.23133-.0024.09088.0012.00062c-.0026.12345-.00481.247-.00481.37106A17.557,17.557,0,0,0,679.1996,57.58526Z" style="fill:#004c91"/><polygon points="680.146 76.017 678.962 76.017 678.962 82.235 681.87 82.235 681.87 81.106 680.146 81.106 680.146 76.017" style="fill:#004c91"/><path d="M684.80758,77.5174a2.28058,2.28058,0,0,0-1.70151.69552,2.40252,2.40252,0,0,0-.67861,1.74762,2.32465,2.32465,0,0,0,.68091,1.71,2.38133,2.38133,0,0,0,1.763.68245,2.71838,2.71838,0,0,0,1.20428-.24746,2.29005,2.29005,0,0,0,.87074-.76238l-.97219-.4565a1.5383,1.5383,0,0,1-1.112.45189,1.34512,1.34512,0,0,1-.88919-.28973,1.233,1.233,0,0,1-.4296-.78006h3.70736l.00461-.21979a2.51257,2.51257,0,0,0-.68091-1.836A2.36356,2.36356,0,0,0,684.80758,77.5174Zm-1.2135,1.84293a1.516,1.516,0,0,1,.42346-.59638,1.38633,1.38633,0,0,1,.84691-.27052,1.30832,1.30832,0,0,1,.78159.24132,1.15515,1.15515,0,0,1,.45036.62558Z" style="fill:#004c91"/><path d="M693.45349,76.20476a4.13266,4.13266,0,0,0-1.46865-.18752h-1.25577v6.21737h1.18353v-2.633a5.32028,5.32028,0,0,0,1.24732-.0976,1.76676,1.76676,0,0,0,.92376-.60022,1.693,1.693,0,0,0,.34046-1.08208,1.877,1.877,0,0,0-.26053-1.00831A1.48907,1.48907,0,0,0,693.45349,76.20476Zm-.27436,1.969a.54842.54842,0,0,1-.27283.20981,2.034,2.034,0,0,1-.61712.06379h-.37658V77.1708h.33431a1.58646,1.58646,0,0,1,.75238.123.56676.56676,0,0,1,.279.52567A.61577.61577,0,0,1,693.17913,78.17372Z" style="fill:#004c91"/><path d="M699.003,76.35309a4.61406,4.61406,0,0,0-2.01431-.33585h-1.40179v6.21737h1.42254a6.47483,6.47483,0,0,0,1.69767-.15217,2.32816,2.32816,0,0,0,.91071-.54949,2.74529,2.74529,0,0,0,.65862-.99985,3.83382,3.83382,0,0,0-.18829-3.08794A2.61951,2.61951,0,0,0,699.003,76.35309Zm.08377,3.91486a1.41092,1.41092,0,0,1-.59869.62635,2.74244,2.74244,0,0,1-1.17661.186h-.55026V77.15773h.40194a2.21927,2.21927,0,0,1,1.60237.49109,2.06168,2.06168,0,0,1,.55334,1.53628A2.30026,2.30026,0,0,1,699.08679,80.268Z" style="fill:#004c91"/><path d="M704.69164,79.08135v1.11206h1.79989a1.81386,1.81386,0,0,1-.67861.807,1.94353,1.94353,0,0,1-1.03443.25822,2.1897,2.1897,0,0,1-1.587-.62558,2.04883,2.04883,0,0,1-.64326-1.52629,1.99774,1.99774,0,0,1,.61944-1.47941,2.10891,2.10891,0,0,1,1.53782-.60867,2.46589,2.46589,0,0,1,1.84523.83692l.83308-.82386a3.47621,3.47621,0,0,0-1.16662-.8715,3.84286,3.84286,0,0,0-1.51784-.29973,3.21563,3.21563,0,0,0-2.51923,1.0867,3.12028,3.12028,0,0,0-.8154,2.14726,3.34466,3.34466,0,0,0,.4419,1.67769,3.07536,3.07536,0,0,0,1.20043,1.19813,3.49906,3.49906,0,0,0,1.72611.42115,3.1179,3.1179,0,0,0,1.577-.385,2.95413,2.95413,0,0,0,1.09438-1.1159,3.04012,3.04012,0,0,0,.42269-1.547l-.00769-.26207Z" style="fill:#004c91"/><path d="M804.15491,24.91637a31.11957,31.11957,0,0,0-2.58593-2.05756,25.24985,25.24985,0,0,0-2.79414-1.76734,29.07368,29.07368,0,0,0-2.992-1.41125,33.0729,33.0729,0,0,0-3.13631-1.05368,42.3565,42.3565,0,0,0-6.48992-1.259,64.08183,64.08183,0,0,0-6.59727-.43995c-2.20528-.03491-4.41053.04615-6.61012.2-1.09759.102-2.19844.17546-3.29175.31942l-1.64228.1955-1.6356.24485a98.4374,98.4374,0,0,0-47.59371,21.71014,128.04637,128.04637,0,0,0-9.61946,9.08336c-1.53572,1.58107-3.04235,3.18791-4.544,4.79774-1.49715,1.60862-3.01557,3.21691-4.41937,4.935a31.39158,31.39158,0,0,0-6.28755,11.682,29.34692,29.34692,0,0,0-1.03011,6.603,24.81712,24.81712,0,0,0,3.06495,12.91186,25.8536,25.8536,0,0,0,3.978,5.3875c.77125.80828,1.62855,1.55133,2.45127,2.2639.82888.72411,1.66657,1.45386,2.55924,2.13157a15.12016,15.12016,0,0,0,2.88706,1.77839,9.42827,9.42827,0,0,0,3.33439.86084,10.31175,10.31175,0,0,0,8.869-4.45875,13.54443,13.54443,0,0,0,1.5263-3.04444,33.43275,33.43275,0,0,0,1.49016-6.5147l.00172-.01253a7.11584,7.11584,0,0,0,.3075-.68406,15.40469,15.40469,0,0,0,.697-3.32064c.531-4.403.677-8.79689,1.17666-13.15588a41.32075,41.32075,0,0,1,1.13856-6.43361,25.34109,25.34109,0,0,1,1.47077-3.85842,38.22407,38.22407,0,0,0-.40587,9.61542,39.29042,39.29042,0,0,0,2.85055,11.65846.28979.28979,0,0,0,.52211.03005,31.90656,31.90656,0,0,0,2.0902-4.65288l.00868.03137a16.11407,16.11407,0,0,0,1.00129,2.52962,18.77732,18.77732,0,0,0,1.15255,1.933c-.02355.192-.0451.38447-.05976.57818a18.25719,18.25719,0,0,0,.44417,5.38183c.099.44084.20929.87953.35266,1.313a4.38757,4.38757,0,0,0,.26234.645.9121.9121,0,0,0,.24876.31948.3032.3032,0,0,0,.15864.05258.37264.37264,0,0,0,.16669-.0556.59125.59125,0,0,0,.14547-.176,4.14078,4.14078,0,0,0,.34035-1.359,10.85327,10.85327,0,0,0,.065-1.36266,10.67769,10.67769,0,0,0-.36-2.70323A8.5095,8.5095,0,0,0,735.613,81.879c-.09667-.14476-.19144-.28961-.286-.43459a28.57786,28.57786,0,0,1,1.07856-4.36817,43.6278,43.6278,0,0,0,1.294-5.23066,38.87113,38.87113,0,0,0,.57794-5.35591q.05039-1.34658.00477-2.69421c-.00619-.17872-.01973-.35707-.02863-.53567a13.3004,13.3004,0,0,0-.05378-1.67589c-.00887-.05622-.01743-.11194-.03159-.16924a.34825.34825,0,0,0-.013-.04476.14469.14469,0,0,0-.01223-.02765c-.00083-.031-.07749-.0327-.08528.00647a.35347.35347,0,0,0-.0064.09956l.02155.33758.04778.67054c.02559.39719.0424.79484.05493,1.19254a13.12453,13.12453,0,0,1-3.13278,7.93372,13.09779,13.09779,0,0,0,3.1442-7.2778c.00976.72682.00332,1.45383-.02925,2.17985a38.7272,38.7272,0,0,1-.61534,5.33224,43.449,43.449,0,0,1-1.32788,5.20126,30.66252,30.66252,0,0,0-1.07758,4.12984,16.77744,16.77744,0,0,1-.8939-1.55795,15.73878,15.73878,0,0,1-.95791-2.47534c-.05936-.19455-.105-.393-.15831-.5893a31.17212,31.17212,0,0,0,1.203-4.88536,35.51788,35.51788,0,0,0,.47947-5.397,13.56984,13.56984,0,0,0-.05711-1.37034,3.91493,3.91493,0,0,0-.127-.70986,1.38935,1.38935,0,0,0-.07466-.1954l-.06792-.1113a.47682.47682,0,0,0-.14488-.12465.36747.36747,0,0,0-.24925-.03877.48809.48809,0,0,0-.16345.07294.84618.84618,0,0,0-.17478.16416,5.09649,5.09649,0,0,0-.63849,1.27043c-.16154.42849-.298.86237-.42123,1.29958a18.4025,18.4025,0,0,0-.05871,9.75126,31.31036,31.31036,0,0,1-2.0399,4.764,38.59336,38.59336,0,0,1-2.53227-10.90226,37.51349,37.51349,0,0,1,.91038-11.76834.33967.33967,0,0,0-.62418-.24965,27.105,27.105,0,0,0-2.65822,6.11727,36.504,36.504,0,0,0-1.00569,5.10977c.22247-4.76264.33854-9.52827.43047-14.28454.057-2.1957.1-4.39772.2764-6.56258.03424-.54995.11773-1.05852.18737-1.61038a11.80457,11.80457,0,0,0,.11866-1.71758,17.19651,17.19651,0,0,0-.38992-3.37944,10.34622,10.34622,0,0,0-.51562-1.65958,4.16257,4.16257,0,0,0-1.04458-1.53815c-.06376-.05492-.12487-.11194-.1919-.16354l-.229-.13079-.23217-.12493-.25556-.07081A1.565,1.565,0,0,0,722.32357,38a2.15253,2.15253,0,0,0-.50013.02229c-.04474.00555-.08485.01872-.12851.026a98.39906,98.39906,0,0,1,19.65759-12.03052,97.41638,97.41638,0,0,1,25.0874-7.74594l1.62672-.25584,1.63363-.20665c1.08777-.15147,2.183-.2325,3.27541-.34226,2.189-.16932,4.38433-.26624,6.57988-.24768A52.36927,52.36927,0,0,1,792.59445,18.814a32.88078,32.88078,0,0,1,3.12584,1.02456,28.91368,28.91368,0,0,1,2.98481,1.38111,25.10914,25.10914,0,0,1,2.79362,1.7384,31.00052,31.00052,0,0,1,2.59169,2.03111,33.55831,33.55831,0,0,1,7.8892,10.46669A33.60674,33.60674,0,0,0,804.15491,24.91637ZM735.31339,82.07724a8.1602,8.1602,0,0,1,1.18247,2.345,10.3578,10.3578,0,0,1,.36674,2.61389,10.548,10.548,0,0,1-.05317,1.32378,3.983,3.983,0,0,1-.29094,1.24146.26771.26771,0,0,1-.054.07718.73388.73388,0,0,1-.14815-.205,4.12858,4.12858,0,0,1-.24753-.59838c-.14153-.41719-.25368-.8487-.35433-1.28206a18.002,18.002,0,0,1-.478-5.30133c.00656-.09645.01872-.19208.02759-.28819ZM734.08446,64.163c-.00172-.00006-.0008.00114-.00243-.00431Zm-.933,2.46781c.12324-.42508.25935-.84659.41738-1.2563a4.8687,4.8687,0,0,1,.55694-1.1132.40029.40029,0,0,1,.01782.0495,3.516,3.516,0,0,1,.10437.61328,13.09412,13.09412,0,0,1,.04889,1.31717,35.01432,35.01432,0,0,1-.49472,5.31139,30.56047,30.56047,0,0,1-.9262,3.95158A17.81741,17.81741,0,0,1,733.15143,66.6308ZM720.697,94.21591a10.3884,10.3884,0,0,1-3.5943,5.09382,9.12611,9.12611,0,0,1-5.88782,1.82857,10.60332,10.60332,0,0,1-5.74081-2.45219c-.86121-.65183-1.68544-1.367-2.5142-2.08912-.841-.72661-1.64939-1.42541-2.39991-2.20879a24.98333,24.98333,0,0,1-3.84885-5.19751A24.4781,24.4781,0,0,1,694.375,83.163a26.05283,26.05283,0,0,1,.33441-12.85192,30.59429,30.59429,0,0,1,6.08941-11.413c1.37462-1.6968,2.87262-3.29748,4.36648-4.91577,1.49339-1.61432,2.99035-3.22418,4.51431-4.80618q2.66624-2.77564,5.46068-5.41883a17.73965,17.73965,0,0,0-1.50112,2.64741,19.67556,19.67556,0,0,0-1.09193,3.20158c-.53908,2.17037-.92223,4.34037-1.24805,6.53428-.6375,4.39123-.84236,8.79994-1.16356,13.185a95.31266,95.31266,0,0,0-.25812,13.25446,57.20554,57.20554,0,0,0,.84871,6.6027c.11074.54859.23167,1.097.39644,1.6492a6.50208,6.50208,0,0,0,.30516.83544,2.00008,2.00008,0,0,0,.64632.85653,1.034,1.034,0,0,0,.72269.16455,1.30511,1.30511,0,0,0,.58588-.26412,3.13029,3.13029,0,0,0,.645-.73181,10.54427,10.54427,0,0,0,.807-1.53c.88984-2.06643,1.53292-4.17486,2.20054-6.27666q.60358-1.92172,1.16668-3.86683c.11573.44755.23355.89455.35892,1.33893.63245,2.12471,1.34268,4.21888,2.17141,6.28088l.1503.388a2.56149,2.56149,0,0,0,.21757.42693,1.31846,1.31846,0,0,0,.41132.42868.77666.77666,0,0,0,.39925.11681c.01711.00006.03195-.00542.04876-.00647A29.00768,29.00768,0,0,1,720.697,94.21591Zm-.53868-40.05644a4.205,4.205,0,0,1,.116.488,25.41209,25.41209,0,0,1,.26329,3.22264,54.50543,54.50543,0,0,1-.147,6.54214,70.58508,70.58508,0,0,1-2.13838,11.95866,43.31082,43.31082,0,0,1-.80754-8.14313,34.97539,34.97539,0,0,1,.57966-6.48471,51.65536,51.65536,0,0,1,1.59409-6.33285A7.24694,7.24694,0,0,1,720.15829,54.15947Zm1.79919-15.15292a1.36456,1.36456,0,0,1,1.14122.31461,3.21353,3.21353,0,0,1,.781,1.17422,9.38766,9.38766,0,0,1,.4627,1.48788,16.27362,16.27362,0,0,1,.37055,3.16639,10.83992,10.83992,0,0,1-.106,1.57233c-.06755.53917-.1592,1.11871-.1918,1.66746-.17777,2.22221-.21631,4.42324-.27084,6.626-.158,8.80135-.38431,17.58876-1.24678,26.33181-.23,2.18194-.44457,4.37087-.76522,6.53385l-.01622.10658a.6889.6889,0,0,1-.19054.19393.59388.59388,0,0,1-.13854-.16434,1.78433,1.78433,0,0,1-.15351-.30855l-.146-.38213c-.804-2.02542-1.50007-4.105-2.11437-6.20058q-.38376-1.3779-.701-2.77453c.075-.27278.15766-.54343.23032-.81672A73.46113,73.46113,0,0,0,721.29131,64.486a55.41329,55.41329,0,0,0,.1403-6.64866,26.06238,26.06238,0,0,0-.28195-3.3508,3.70133,3.70133,0,0,0-.26369-.90656,1.14115,1.14115,0,0,0-.18762-.28139.66032.66032,0,0,0-.53114-.219.60053.60053,0,0,0-.2748.07977.69973.69973,0,0,0-.16875.11782,1.34657,1.34657,0,0,0-.20384.226,6.893,6.893,0,0,0-.73818,1.61721,52.37756,52.37756,0,0,0-1.619,6.46246,35.84584,35.84584,0,0,0-.58529,6.64592,45.65664,45.65664,0,0,0,1.18053,9.96354c-.50248,1.81283-1.04261,3.61372-1.61112,5.41523-.66571,2.08934-1.31609,4.19748-2.17157,6.174a9.68724,9.68724,0,0,1-.73027,1.38622,2.2818,2.2818,0,0,1-.43481.50661.40917.40917,0,0,1-.154.0805.08042.08042,0,0,1-.05979-.01819,1.21851,1.21851,0,0,1-.30895-.4639,5.61344,5.61344,0,0,1-.258-.71408c-.14932-.50241-.26575-1.02955-.37175-1.5593a56.29591,56.29591,0,0,1-.824-6.48534,94.4217,94.4217,0,0,1,.27632-13.12155c.32711-4.38941.53914-8.78562,1.17372-13.10878.72125-4.29215,1.27967-8.76391,3.87364-12.23941a21.22159,21.22159,0,0,1,2.03164-2.49812,12.049,12.049,0,0,1,2.42233-2.01607A3.79737,3.79737,0,0,1,721.95748,39.00655Z" style="fill:#000065"/></svg>