<svg xmlns="http://www.w3.org/2000/svg" xmlns:xlink="http://www.w3.org/1999/xlink" viewBox="0 0 841.9 233.6"><defs><style>.a,.aa,.ab,.ac,.ad,.ae,.af,.ag,.ah,.ai,.aj,.al,.o,.p,.q,.r,.s,.t,.u,.v,.w,.x,.y,.z{fill:none;}.b{fill:#dadada;}.c,.d{fill:#3c3c3b;}.c{fill-rule:evenodd;}.d{font-size:14.78px;font-family:Montserrat-BlackItalic, Montserrat;font-weight:800;font-style:italic;}.e{letter-spacing:-0.02em;}.f{letter-spacing:0em;}.g{letter-spacing:0em;}.h{letter-spacing:-0.01em;}.i{letter-spacing:0em;}.j{letter-spacing:-0.02em;}.k{fill:#004c91;}.l{fill:#000065;}.m{clip-path:url(#a);}.n{opacity:0.5;}.aa,.ab,.ac,.ad,.ae,.af,.ag,.ah,.ai,.aj,.al,.o,.p,.q,.r,.s,.t,.u,.v,.w,.x,.y,.z{stroke-miterlimit:10;stroke-width:0.5px;}.o{stroke:url(#b);}.p{stroke:url(#c);}.q{stroke:url(#d);}.r{stroke:url(#e);}.s{stroke:url(#f);}.t{stroke:url(#g);}.u{stroke:url(#h);}.v{stroke:url(#i);}.w{stroke:url(#j);}.x{stroke:url(#k);}.y{stroke:url(#l);}.z{stroke:url(#m);}.aa{stroke:url(#n);}.ab{stroke:url(#o);}.ac{stroke:url(#p);}.ad{stroke:url(#q);}.ae{stroke:url(#r);}.af{stroke:url(#s);}.ag{stroke:url(#t);}.ah{stroke:url(#u);}.ai{stroke:url(#v);}.aj{stroke:url(#w);}.ak{clip-path:url(#x);}.al{stroke:url(#y);}</style><clipPath id="a"><rect class="a" y="263.2" width="595.3" height="228.84"/></clipPath><radialGradient id="b" cx="-21.61" cy="1236.2" r="187.9" gradientTransform="matrix(0.6, 0.8, 0.8, -0.6, -599.28, 1117.04)" gradientUnits="userSpaceOnUse"><stop offset="0" stop-color="#007aff"/><stop offset="0.11" stop-color="#0179fb" stop-opacity="0.98"/><stop offset="0.23" stop-color="#0476f1" stop-opacity="0.93"/><stop offset="0.37" stop-color="#0a70e0" stop-opacity="0.84"/><stop offset="0.5" stop-color="#1169c8" stop-opacity="0.72"/><stop offset="0.64" stop-color="#1a5fa9" stop-opacity="0.56"/><stop offset="0.78" stop-color="#265383" stop-opacity="0.37"/><stop offset="0.92" stop-color="#334557" stop-opacity="0.14"/><stop offset="1" stop-color="#3c3c3b" stop-opacity="0"/></radialGradient><radialGradient id="c" cx="-23.33" cy="1234.28" r="188.92" xlink:href="#b"/><radialGradient id="d" cx="-25.03" cy="1232.36" r="189.95" xlink:href="#b"/><radialGradient id="e" cx="-28.81" cy="1230.44" r="191.41" xlink:href="#b"/><radialGradient id="f" cx="-33.91" cy="1228.52" r="193.15" xlink:href="#b"/><radialGradient id="g" cx="-39.01" cy="1226.61" r="194.9" xlink:href="#b"/><radialGradient id="h" cx="-44.1" cy="1224.69" r="196.66" xlink:href="#b"/><radialGradient id="i" cx="-49.18" cy="1222.77" r="198.43" xlink:href="#b"/><radialGradient id="j" cx="-54.27" cy="1220.85" r="200.22" xlink:href="#b"/><radialGradient id="k" cx="-59.34" cy="1218.93" r="202.01" xlink:href="#b"/><radialGradient id="l" cx="-64.42" cy="1217.01" r="203.81" xlink:href="#b"/><radialGradient id="m" cx="-69.49" cy="1215.09" r="205.62" xlink:href="#b"/><radialGradient id="n" cx="-74.55" cy="1213.17" r="207.44" xlink:href="#b"/><radialGradient id="o" cx="-79.61" cy="1211.25" r="209.26" xlink:href="#b"/><radialGradient id="p" cx="-84.67" cy="1209.33" r="211.1" xlink:href="#b"/><radialGradient id="q" cx="-89.72" cy="1207.42" r="212.95" xlink:href="#b"/><radialGradient id="r" cx="-94.78" cy="1205.5" r="214.8" xlink:href="#b"/><radialGradient id="s" cx="-99.82" cy="1203.58" r="216.66" xlink:href="#b"/><radialGradient id="t" cx="-104.87" cy="1201.66" r="218.54" xlink:href="#b"/><radialGradient id="u" cx="-109.92" cy="1199.74" r="220.41" xlink:href="#b"/><radialGradient id="v" cx="-114.95" cy="1197.82" r="222.3" xlink:href="#b"/><radialGradient id="w" cx="-119.99" cy="1195.9" r="224.2" xlink:href="#b"/><clipPath id="x"><rect class="a" x="849.7" y="263.2" width="595.3" height="228.84"/></clipPath><radialGradient id="y" cx="391.11" cy="1874.68" r="224.2" xlink:href="#b"/></defs><rect class="b" x="32.1" y="157.4" width="784.7" height="53.75" rx="3.3"/><polygon class="c" points="68.1 183.1 66.2 184 67.6 187.2 69.6 186.3 69.3 185.6 68.2 186.1 67.9 185.6 69 185.1 68.6 184.4 67.6 184.9 67.4 184.3 68.5 183.8 68.1 183.1"/><path class="c" d="M64.6,185.4H65l.4.2.7-.6-.8-.4h-1l-.6.3-.5.6a1.4,1.4,0,0,0-.2.7,2,2,0,0,0,.1.7l.3.6.6.5.7.2h.7a1.7,1.7,0,0,0,1.1-.9,1.6,1.6,0,0,0,.1-1.5h-.1l-1.8.6.3.7.9-.3a.8.8,0,0,1-.2.5,1,1,0,0,1-.5.4.6.6,0,0,1-.7-.1,1,1,0,0,1-.5-.7,1.1,1.1,0,0,1,0-.8A.7.7,0,0,1,64.6,185.4Z"/><path class="c" d="M70.1,182.7h.8l.5-.8a1.4,1.4,0,0,0-.9-.1l-.9.3-.5.5-.3.6a2.2,2.2,0,0,0,0,.8.9.9,0,0,0,.3.6,1.2,1.2,0,0,0,.5.5.9.9,0,0,0,.6.3h.7a.9.9,0,0,0,.7-.3,1.9,1.9,0,0,0,.9-1.1,1.9,1.9,0,0,0-.4-1.4H72l-1.6,1,.4.6.8-.5a.6.6,0,0,1,0,.6c0,.1-.2.3-.4.4a.8.8,0,0,1-.7.2,1.7,1.7,0,0,1-.6-.6.7.7,0,0,1-.2-.7A.8.8,0,0,1,70.1,182.7Z"/><path class="c" d="M92.9,182.1l.5-.2a1.4,1.4,0,0,0,.2-.6c0-.2,0-.4-.2-.5l-.4-.2a.9.9,0,0,0-.6.3,1.1,1.1,0,0,0-.2.6c0,.2.1.3.2.5Z"/><path class="c" d="M96.9,182.1c.2,0,.4,0,.5-.2a1.4,1.4,0,0,0,.2-.6c0-.2,0-.4-.2-.5H97a.7.7,0,0,0-.6.2,1.4,1.4,0,0,0-.2.6c0,.2.1.3.2.5Z"/><path class="c" d="M88.9,182.2l.6-.3a1.4,1.4,0,0,0,.2-.6.8.8,0,0,0-.2-.5h-.4c-.2,0-.4,0-.5.2a.9.9,0,0,0-.3.7l.2.4Z"/><path class="c" d="M80.9,184.3h20a1.7,1.7,0,0,0,1.7-1.7v-3.9a1.7,1.7,0,0,0-1.7-1.7h-20a1.7,1.7,0,0,0-1.7,1.7v3.9A1.7,1.7,0,0,0,80.9,184.3Zm19-6H101l-.8,4.6h-1Zm-4.3,2a1.6,1.6,0,0,1,1.1-.5h.6c.2.1.3.3.4.4v-.4h1l-.5,3h-.9v-.4a1,1,0,0,1-.5.4h-.5a1,1,0,0,1-.9-.4,1.5,1.5,0,0,1-.3-1A2,2,0,0,1,95.6,180.3Zm-3.8-2h1l-.3,1.6v.4l.5-.4h.6a.9.9,0,0,1,.8.4,1.3,1.3,0,0,1,.4,1,1.9,1.9,0,0,1-.5,1.3,1.4,1.4,0,0,1-1.1.5h-.5a1,1,0,0,1-.5-.4v.4H91Zm-4,2a2.1,2.1,0,0,1,1.3-.5,1.6,1.6,0,0,1,1.2.4,1.8,1.8,0,0,1,.4,1.1,1.7,1.7,0,0,1-1.8,1.7,1.2,1.2,0,0,1-1.1-.4,1.4,1.4,0,0,1-.5-1.1A1.7,1.7,0,0,1,87.8,180.3Zm-1.6-2h1l-.7,4.6H85.4ZM80.9,180a2.6,2.6,0,0,1,.5-.9l.8-.5h1a2.2,2.2,0,0,1,1.1.2l.8.8-1,.6-.4-.4-.5-.2a1,1,0,0,0-.9.4,1.3,1.3,0,0,0-.4,1,1.1,1.1,0,0,0,.3.8.9.9,0,0,0,.7.3h.6l.2-.2.2-.3h-1v-.9h2.2a2.9,2.9,0,0,1-.6,1.9,2.4,2.4,0,0,1-1.7.6,2.5,2.5,0,0,1-1.6-.5,2.1,2.1,0,0,1-.6-1.6A1.5,1.5,0,0,1,80.9,180Z"/><path class="c" d="M55.2,179a13.9,13.9,0,0,0-1,5.3,16.7,16.7,0,0,0,.9,5.5,14.7,14.7,0,0,0,1,2.2,18.7,18.7,0,0,0,2,2.9,15.8,15.8,0,0,0,6.2,4.3,16.2,16.2,0,0,0,5.3,1.1,16.6,16.6,0,0,1-2.7-1.3,14.1,14.1,0,0,1-4.6-4.2l-.9-1.4a19.9,19.9,0,0,1-1.3-3.4,17.5,17.5,0,0,1-.3-5.6,15.1,15.1,0,0,1,2.3-6.1,14.4,14.4,0,0,1,5.3-4.8l1.1-.6h.2l1.3.9.6.4h0a11.8,11.8,0,0,1,1-1.9,41,41,0,0,0,3.7-4.8c-4.6-.9-11.6,1.2-15.6,3.8h1.7l-.7.5A15.6,15.6,0,0,0,55.2,179Z"/><path class="c" d="M68.8,174.5l-.7.5v.2l-.9.6-.2.2-.6.5-.4.2-.5.3-.4.2-.6.3-.4.2-.6.2-.4.2h-.1l-.3.4.4-.2h.4l.7-.3h.3l1-.5.3-.2.7-.4.3-.2.6-.4.3-.3.5-.4.4-.3.4-.4.4-.4.2-.2-.2-.2-.3.3Z"/><path class="c" d="M76.7,182.4h0v-.2h0a16.4,16.4,0,0,0-2.7-4.8h-.1a17.3,17.3,0,0,0-2.8-2.6v.2a16.6,16.6,0,0,1,2.7,2.6l-.8.8-.5.6-1,.8-.5.4-1.4,1-.2.2-1.7.9-.5.3-1.2.6-.7.2-1.2.4-.8.2-1,.3h-.9l-.8.2v.2h0l1-.2h.8l1.2-.3.7-.2,1.5-.6h.3a9.8,9.8,0,0,0,1.8-.8l.6-.3,1.1-.7.7-.5.9-.6.7-.6.8-.7.6-.6.8-.8a18.7,18.7,0,0,1,2.6,4.8l-1,.9-.7.6-1.1.9-.7.4-1.6,1.1H71l-1.9,1.1-.5.2-1.6.7-.8.2-1.4.4-.9.3-1.2.3h-1l-1.1.2h1.2l.9-.2,1.4-.3.8-.2,1.7-.5.5-.2a12.1,12.1,0,0,0,2-.9l.6-.3a6.1,6.1,0,0,0,1.4-.7l.8-.5,1.2-.7.7-.6,1.1-.8.7-.7.9-.7a16.2,16.2,0,0,1,.8,4.9v.7l-1,.6a1.8,1.8,0,0,1-.7.5,4.1,4.1,0,0,1-1.1.7l-.6.4-1.4.8-.3.2-1.9.9-.5.2-1.3.5-.8.3-1.2.4-.8.2-1.1.3h-.9l-1,.2h.1v.2h.9l.9-.2,1.2-.3.7-.2,1.5-.5h.4l1.9-.8.5-.2,1.3-.6.7-.4,1.1-.6.7-.5,1-.6.7-.5.8-.6a14.3,14.3,0,0,1-2.1,7l-1.4.7-.5.3-2,.8-.5.2-1.6.6-.7.2-1.2.3.4.2,1.1-.3.6-.2,1.9-.7.5-.2,1.5-.6.7-.4,1-.5a17.9,17.9,0,0,1-3.9,4.3h.3a14.4,14.4,0,0,0,4-4.5h0l.3-.5h0a17.4,17.4,0,0,0,1.9-7h0v-.3h0v-.4A14.4,14.4,0,0,0,76.7,182.4Z"/><path class="c" d="M61.3,203.4a15.9,15.9,0,0,1-10.4-3.8h6.7a34.4,34.4,0,0,0,4.6-.3H64l-.5-.2H53.8l-1.3-.2h-.3l-1.7-.3a16.5,16.5,0,0,1-4.1-6l.6.2.6.2.8.2.6.2.8.2.6.2h.8l.6.2h5.9l-.2-.3H51.2l-.8-.2-.6-.2-.8-.2-.6-.2-.8-.2-.6-.2-.7-.3a16,16,0,0,1-.9-5.3v-.2l.5.2.5.3.6.3.6.2.6.2.5.2.8.2.4.2.8.2h.4l1.3.3h.2l1,.2h1.1v-.2H51.7l-.6-.2h-.7l-.5-.2-.8-.2-.3-.2-1.2-.4h-.2l-.9-.4-.4-.2-.7-.3a13.6,13.6,0,0,1,1.1-5.3l1,.5.7.4,1.4.6.4.2,1.9.6h.6l1.2.3h0v-.2l-1-.2-.7-.2-1.6-.5h-.3l-1.8-.8-.5-.3-1.2-.6a15.3,15.3,0,0,1,2.7-4.4l.9.5.4.2,1.4.5h.3l1.1.4h.5l.7.2v-.2h0l-.8-.2h-.4l-1.4-.4h-.3l-1.1-.5-.4-.2-.8-.4a15.7,15.7,0,0,1,8.4-4.9l.5-.4a16.9,16.9,0,0,0-9.1,5.1h-.2a15,15,0,0,0-2.7,4.5h-.1a16.3,16.3,0,0,0-1.2,5.4h0v.2h0v.3a15.4,15.4,0,0,0,.9,5.2h0v.3h0a16.8,16.8,0,0,0,3.9,6h0l.4.3h0a16.3,16.3,0,0,0,10.9,4.2,16,16,0,0,0,9.3-2.9h-.5A15.9,15.9,0,0,1,61.3,203.4Z"/><polygon class="c" points="83.4 187.1 83.6 186.1 81.2 186.1 80.5 190.2 82.9 190.2 83.1 189.3 81.8 189.3 81.9 188.6 83.1 188.6 83.2 187.7 82 187.7 82.2 187.1 83.4 187.1"/><path class="c" d="M85.8,188.7l-.3,1.5h1l.3-1.5h0v-.5a1.4,1.4,0,0,0-.2-.7l-.7-.2h-.5l-.5.4v-.4H84l-.4,2.8h1l.2-1.3a.8.8,0,0,1,.2-.6l.4-.2h.3a.4.4,0,0,1,.1.3h0Z"/><path class="c" d="M89.1,190.6l-.5.2h-.3c-.1-.1-.1-.1-.1-.3H87.1a1.1,1.1,0,0,0,.5.8,1.5,1.5,0,0,0,1,.3l.8-.2a.9.9,0,0,0,.6-.4,2.4,2.4,0,0,0,.4-1.2h0l.4-2.2h-1v.4a.8.8,0,0,0-.4-.4h-.5a1.5,1.5,0,0,0-1.5,1.7,1.2,1.2,0,0,0,.3.9.9.9,0,0,0,.8.4H89l.4-.4v.3C89.3,190.3,89.3,190.5,89.1,190.6Zm-.2-1.1h-.4c-.1-.2-.2-.3-.2-.5a1.4,1.4,0,0,1,.2-.6l.5-.2.5.2c.1.1.1.2.1.4a1.4,1.4,0,0,1-.2.6Z"/><polygon class="c" points="91.1 190.2 92.1 190.2 92.5 187.4 91.5 187.4 91.1 190.2"/><path class="c" d="M92.5,186.2l-.4-.2-.4.2a.4.4,0,0,0-.1.3c0,.2,0,.3.1.4l.4.2.4-.2a.5.5,0,0,0,.2-.4Z"/><path class="c" d="M95,188.7l-.2,1.5h1l.2-1.5h0a4.3,4.3,0,0,1,.1-.5.9.9,0,0,0-.3-.7l-.7-.2h-.5c-.1.1-.3.2-.4.4v-.4h-.9l-.5,2.8h1l.2-1.3a.8.8,0,0,1,.2-.6l.4-.2h.3a.4.4,0,0,1,.1.3h0Z"/><path class="c" d="M99.6,189h0v-.2a1.4,1.4,0,0,0-1.5-1.5,1.3,1.3,0,0,0-1.2.5,1.5,1.5,0,0,0-.4,1.1,1.4,1.4,0,0,0,.4,1.1,1.5,1.5,0,0,0,1,.3h.8a.9.9,0,0,0,.5-.3l-.5-.6-.4.3H98l-.4-.2a.5.5,0,0,1-.2-.4h2.2Zm-1.9-.9h.8c.1.1.1.2.1.4H97.5C97.6,188.3,97.6,188.2,97.7,188.1Z"/><path class="c" d="M101.6,187.3a1.3,1.3,0,0,0-1.2.5,1.6,1.6,0,0,0-.5,1.1,1.8,1.8,0,0,0,.4,1.1,1.8,1.8,0,0,0,1.1.3h.7l.6-.3-.6-.6-.3.3h-.4l-.4-.2c-.1-.1-.1-.2-.1-.4H103v-.2a1.4,1.4,0,0,0-.4-1.1A1.2,1.2,0,0,0,101.6,187.3Zm-.7,1.2.3-.4h.7a.5.5,0,0,1,.2.4Z"/><path class="c" d="M105.5,187.3l-.5.2c-.1.1-.3.2-.3.4v-.5h-.9l-.5,2.8h1l.2-1.3c.1-.2.1-.4.2-.5a.6.6,0,0,1,.5-.2h.3l.2-.9h-.2Z"/><path class="c" d="M106.8,186l-.4.2a.4.4,0,0,0-.1.3c0,.2,0,.3.1.4l.4.2.4-.2a.5.5,0,0,0,.2-.4l-.2-.3Z"/><polygon class="c" points="105.8 190.2 106.8 190.2 107.2 187.4 106.2 187.4 105.8 190.2"/><path class="c" d="M109.8,187.3h-.5c-.1.1-.3.2-.4.4v-.4H108l-.5,2.8h1l.2-1.3a.8.8,0,0,1,.2-.6l.4-.2h.3a.4.4,0,0,1,.1.3h0l-.2,1.5h1l.2-1.5h0a4.3,4.3,0,0,1,.1-.5.9.9,0,0,0-.3-.7Z"/><path class="c" d="M113.7,187.4v.4l-.5-.4h-.5a1.6,1.6,0,0,0-1.1.5,2.1,2.1,0,0,0-.4,1.2,1.2,1.2,0,0,0,.3.9,1.1,1.1,0,0,0,.9.4h.5l.4-.4v.3a.8.8,0,0,1-.2.5l-.5.2h-.4c0-.1-.1-.1-.1-.3H111a1.1,1.1,0,0,0,.5.8,1.5,1.5,0,0,0,1,.3l.8-.2a.9.9,0,0,0,.6-.4,2.4,2.4,0,0,0,.4-1.2h0l.4-2.2Zm-.4,1.9-.5.2h-.4c-.1-.2-.2-.3-.2-.5a1.4,1.4,0,0,1,.2-.6l.5-.2.5.2c.1.1.1.2.1.4A.7.7,0,0,1,113.3,189.3Z"/><path class="c" d="M98,196.3l-.5.2a.8.8,0,0,0-.2.7c0,.2,0,.3.1.4a.6.6,0,0,0,.5.2l.6-.2a1.4,1.4,0,0,0,.2-.6.8.8,0,0,0-.2-.5C98.4,196.3,98.2,196.3,98,196.3Z"/><path class="c" d="M90.1,196.3c-.2,0-.4,0-.5.2a.9.9,0,0,0-.3.7.5.5,0,0,0,.2.4.4.4,0,0,0,.4.2.7.7,0,0,0,.8-.9.7.7,0,0,0-.1-.5Z"/><path class="c" d="M100.7,193.1h-20a1.7,1.7,0,0,0-1.5,1.7v3.9a1.7,1.7,0,0,0,1.5,1.8h20a1.6,1.6,0,0,0,1.5-1.8v-3.9A1.6,1.6,0,0,0,100.7,193.1Zm-16,4.9a2.1,2.1,0,0,1-1.7.7,2.4,2.4,0,0,1-1.7-.6,2,2,0,0,1-.6-1.5,2,2,0,0,1,.2-1.1,2.2,2.2,0,0,1,.5-.8l.9-.6,1-.2a2,2,0,0,1,1.1.3,3.2,3.2,0,0,1,.9.8l-1,.7-.4-.5h-.6a1.3,1.3,0,0,0-1,.4,1.5,1.5,0,0,0-.3,1,1,1,0,0,0,.3.8.8.8,0,0,0,.7.4h.7l.2-.2c0-.1.1-.2.1-.3H83v-.9h2.3A2.4,2.4,0,0,1,84.7,198Zm3.3-1.6h-.3l-.5.2c-.2.2-.2.4-.3.7l-.2,1.4H85.6l.5-3.1h1.1v.5a1,1,0,0,1,.4-.5h.8Zm3.3,1.8a2.2,2.2,0,0,1-1.4.5,1.6,1.6,0,0,1-1.2-.4,1.5,1.5,0,0,1-.4-1.1,1.7,1.7,0,0,1,.5-1.3,1.7,1.7,0,0,1,1.3-.5,1.6,1.6,0,0,1,1.2.4,1.4,1.4,0,0,1,.5,1.1A1.9,1.9,0,0,1,91.3,198.2Zm4.2-1.3h0a2.7,2.7,0,0,1-.5,1.4l-.6.3h-.7a2,2,0,0,1-1.1-.3,1.3,1.3,0,0,1-.4-.9v-.8l.2-1.2h1.1l-.2,1.3v.6c0,.2,0,.3.1.3s.1.2.3.2.5-.4.6-1.1h0l.2-1.2h1.1Zm3.9,1.3a1.8,1.8,0,0,1-1.2.5h-.6l-.5-.5v.5l-.2,1.4H95.8l.7-4.5h1.1v.4l.5-.4h.6a1,1,0,0,1,.9.4,1.5,1.5,0,0,1,.3,1A2.1,2.1,0,0,1,99.4,198.2Z"/><text class="d" transform="translate(119.4 189.7)"><tspan class="e">+</tspan><tspan class="f" x="8.9" y="0">2</tspan><tspan class="g" x="17.8" y="0">3</tspan><tspan x="26.8" y="0">7 6 </tspan><tspan class="h" x="55" y="0">9</tspan><tspan x="64.6" y="0">3 14 15 </tspan><tspan class="g" x="119" y="0">5</tspan><tspan class="i" x="128.1" y="0">5 · 6 </tspan><tspan class="j" x="165.4" y="0">7</tspan><tspan x="174.7" y="0">8 12 15 98</tspan></text><path class="k" d="M695.4,4.7a57.5,57.5,0,1,0,57.5,57.5A57.6,57.6,0,0,0,695.4,4.7Zm0,114.2a56.7,56.7,0,1,1,56.7-56.7A56.8,56.8,0,0,1,695.4,118.9Z"/><path class="k" d="M695.4,8.1a54.1,54.1,0,1,0,54.1,54.1A54.1,54.1,0,0,0,695.4,8.1Zm0,107a52.9,52.9,0,1,1,52.9-52.9A52.9,52.9,0,0,1,695.4,115.1Z"/><path class="k" d="M732.6,62.2a37.2,37.2,0,1,0-37.2,37.1A37.3,37.3,0,0,0,732.6,62.2ZM695.4,98.6a36.4,36.4,0,1,1,36.4-36.4A36.5,36.5,0,0,1,695.4,98.6Z"/><path class="k" d="M651.8,62.3a3.9,3.9,0,0,0,1.7-1.4,4.8,4.8,0,0,0,.7-2.1,4.6,4.6,0,0,0-.4-2.1,3.7,3.7,0,0,0-1.3-1.5,4.4,4.4,0,0,0-1.9-.7h-.3l-.3,4h1.4V56.3a3,3,0,0,1,1,.9,2.2,2.2,0,0,1,.2,1.4,2.3,2.3,0,0,1-.9,1.9,2.6,2.6,0,0,1-2,.7,2.3,2.3,0,0,1-1.8-.9,3.1,3.1,0,0,1-.7-2,3.2,3.2,0,0,1,1.3-2.3l-1-1.1a3.1,3.1,0,0,0-1.2,1.4,3.8,3.8,0,0,0-.5,1.9,4,4,0,0,0,1.1,3.3,4.2,4.2,0,0,0,2.6,1.2A4.1,4.1,0,0,0,651.8,62.3Z"/><rect class="k" x="650.1" y="48.4" width="1.5" height="8.13" transform="translate(461.3 677.3) rotate(-77.7)"/><path class="k" d="M652.3,50.8a3,3,0,0,0,2.3-.1,3.1,3.1,0,0,0,1.6-1.8,4.3,4.3,0,0,0,.1-1.6,3.7,3.7,0,0,0-.7-1.4,4.2,4.2,0,0,0-1.4-.9,2.9,2.9,0,0,0-1.6-.1,2.7,2.7,0,0,0-1.4.7,3.8,3.8,0,0,0-.9,1.3,3.3,3.3,0,0,0,.1,2.2A2.9,2.9,0,0,0,652.3,50.8Zm-.7-3.4a1.6,1.6,0,0,1,.8-1,1.7,1.7,0,0,1,1.4,0,1.6,1.6,0,0,1,1,.8,1.9,1.9,0,0,1,.1,1.3,2,2,0,0,1-.9.9,1.5,1.5,0,0,1-1.3,0,1.6,1.6,0,0,1-1-.8A1.7,1.7,0,0,1,651.6,47.4Z"/><path class="k" d="M658.1,43.8l-.6-.3,1-.5.6-.7a2.8,2.8,0,0,0,.1-2.2,2.8,2.8,0,0,0-1.5-1.7,3,3,0,0,0-2.4-.4,2.3,2.3,0,0,0-1.6,1.3,1.9,1.9,0,0,0-.3,1,1.7,1.7,0,0,0,.1,1L650.9,40l-.7,1.2,7.2,3.9Zm-1.3-1.1a2.4,2.4,0,0,1-1.4-.2,1.9,1.9,0,0,1-.8-1,1.5,1.5,0,0,1,.1-1.3,1.3,1.3,0,0,1,1-.7,1.5,1.5,0,0,1,1.3.1,2.8,2.8,0,0,1,.9,1,1.9,1.9,0,0,1-.1,1.3A2.5,2.5,0,0,1,656.8,42.7Z"/><path class="k" d="M658.3,37.4a2.7,2.7,0,0,0,2.2.7,2.6,2.6,0,0,0,1.9-1,4.1,4.1,0,0,0,.5-.9,1.7,1.7,0,0,0,0-1l.5.4.9-1.2-4.6-3.6-.9,1.2.5.4a1.7,1.7,0,0,0-1,.3c-.3.1-.5.4-.8.6a3,3,0,0,0-.5,2.1A3.4,3.4,0,0,0,658.3,37.4Zm.5-3.5a2,2,0,0,1,1.1-.6,1.9,1.9,0,0,1,1.2.4,1.6,1.6,0,0,1,.8,1.2,1.9,1.9,0,0,1-.4,1.2,1.7,1.7,0,0,1-1,.6,2.2,2.2,0,0,1-2-1.6A1.4,1.4,0,0,1,658.8,33.9Z"/><rect class="k" x="662" y="26.2" width="1.5" height="8.13" transform="translate(177.8 483) rotate(-45.6)"/><polygon class="k" points="672.9 27.2 672 26 669.7 27.6 668.5 26 670.7 24.3 669.9 23.1 667.6 24.8 666.8 23.6 669 22 668.2 20.8 664.7 23.3 669.4 29.7 672.9 27.2"/><path class="k" d="M675,26l-1.1-2.1a4.1,4.1,0,0,1-.5-1.1,1.4,1.4,0,0,1,0-.9,1.8,1.8,0,0,1,.5-.7h.6l.6.3.7,1.2,1.2,2.3,1.3-.7-1.8-3.4c-.4-.6-.7-1-1.2-1.1a1.8,1.8,0,0,0-1.6.1,2,2,0,0,0-.7.6l-.5.9-.3-.5-1.3.7,2.8,5.1Z"/><path class="k" d="M679.6,22.8a2.6,2.6,0,0,0,2.1.1,1.9,1.9,0,0,0,.9-.5l.6-.7a4.4,4.4,0,0,1,.2,1,2.1,2.1,0,0,1-.4.6,1.5,1.5,0,0,1-.8.4l-.8.2-.7-.2-1.5.5a1.8,1.8,0,0,0,.9.8,2,2,0,0,0,1.1.3,4.4,4.4,0,0,0,1.5-.3,2.9,2.9,0,0,0,2-1.7,2.9,2.9,0,0,0-.2-2.2l-1.6-4.8-1.4.5.2.6a1.9,1.9,0,0,0-1-.3h-1a2.6,2.6,0,0,0-1.5,1.4,2.8,2.8,0,0,0-.1,2.4A3.4,3.4,0,0,0,679.6,22.8Zm-.1-3.6a2.1,2.1,0,0,1,1-.8,1.7,1.7,0,0,1,1.2.1,1.4,1.4,0,0,1,.8,1,1.5,1.5,0,0,1,0,1.3,1.8,1.8,0,0,1-.9.8,1.9,1.9,0,0,1-1.3-.1,1.4,1.4,0,0,1-.8-1A1.9,1.9,0,0,1,679.5,19.2Z"/><rect class="k" x="685.3" y="15.7" width="1.5" height="5.87" transform="translate(11.3 144.2) rotate(-12.1)"/><path class="k" d="M684.6,15.2a.8.8,0,0,0,.7.1c.2,0,.4-.2.6-.4a.9.9,0,0,0,.1-.7.7.7,0,0,0-.4-.6,1,1,0,0,0-.7-.2c-.3.1-.5.2-.6.5a.8.8,0,0,0-.1.7C684.2,14.8,684.4,15,684.6,15.2Z"/><path class="k" d="M689.9,21l-.2-2.4a6.8,6.8,0,0,1-.1-1.2,2,2,0,0,1,.4-.8.8.8,0,0,1,.7-.4h.6a1,1,0,0,1,.4.5,8.8,8.8,0,0,1,.2,1.4l.3,2.5h1.4l-.4-3.9a2.3,2.3,0,0,0-.6-1.4,1.9,1.9,0,0,0-1.6-.5l-.8.2-.8.7v-.6l-1.5.2.6,5.8Z"/><path class="k" d="M697.6,20.8a2.4,2.4,0,0,0,1.5-.2,2.7,2.7,0,0,0,1.2-.9l-1.2-.7a1.6,1.6,0,0,1-1.4.5,1.6,1.6,0,0,1-1.2-.4,2.3,2.3,0,0,1-.5-1l4.8.2v-.2a3.2,3.2,0,0,0-.8-2.4,2.5,2.5,0,0,0-2.2-1,2.9,2.9,0,0,0-2.2.7,3.5,3.5,0,0,0-1,2.2,2.9,2.9,0,0,0,.8,2.2A2.6,2.6,0,0,0,697.6,20.8Zm-.9-4.6a2.3,2.3,0,0,1,1.1-.3,1.8,1.8,0,0,1,1,.4,1.6,1.6,0,0,1,.6.8l-3.2-.2A1.3,1.3,0,0,1,696.7,16.2Z"/><path class="k" d="M704.3,21.7a1.9,1.9,0,0,0,1.5,0,2.4,2.4,0,0,0,1.3-.7l-1.1-.8a1.9,1.9,0,0,1-1.5.3,1.7,1.7,0,0,1-1-.6,2,2,0,0,1-.3-1.1l4.6,1v-.3a3.1,3.1,0,0,0-.4-2.5,2.9,2.9,0,0,0-2-1.3,2.6,2.6,0,0,0-2.3.4,2.9,2.9,0,0,0-1.3,2,2.7,2.7,0,0,0,.4,2.3A2.9,2.9,0,0,0,704.3,21.7Zm-.1-4.7a2,2,0,0,1,1.1-.1,1.9,1.9,0,0,1,.9.5,1.8,1.8,0,0,1,.4.9l-3.1-.6A1.5,1.5,0,0,1,704.2,17Z"/><path class="k" d="M709.2,23l.8-2.3v-.2c.3-.8.5-1.3.8-1.5s.4-.3.6-.2l.4.2.9-1a.9.9,0,0,0-.6-.3h-.7a1.8,1.8,0,0,0-.8.5l.3-.7-1.2-.4-2,5.5Z"/><path class="k" d="M714.4,18.2a.9.9,0,0,0,.7,0,.8.8,0,0,0,.5-.5,1.1,1.1,0,0,0,.1-.8l-.5-.5h-.8l-.5.5a1.1,1.1,0,0,0,0,.8Z"/><rect class="k" x="710.1" y="20.6" width="5.9" height="1.47" transform="translate(410.2 667.2) rotate(-66.6)"/><path class="k" d="M714.9,25.5l1.2-2.1.6-1a1.4,1.4,0,0,1,.8-.5,1.1,1.1,0,0,1,.8.1,1,1,0,0,1,.4.5.6.6,0,0,1,0,.6,4,4,0,0,1-.6,1.3l-1.2,2.2,1.2.7,2-3.4a2.4,2.4,0,0,0,.3-1.6,2.3,2.3,0,0,0-1-1.2l-.8-.3h-1.1l.3-.5-1.3-.8-2.9,5.1Z"/><path class="k" d="M721.1,29.5l.8.5h1l-.7.7h-.7a1.8,1.8,0,0,1-.9-.4l-.5-.6a2.5,2.5,0,0,1-.2-.7l-1.3-1a5,5,0,0,0-.2,1.2,4.9,4.9,0,0,0,.4,1.1l1,1.1a3.1,3.1,0,0,0,2.5.7,3,3,0,0,0,1.8-1.3l3.2-3.9-1.2-.9-.4.5a2,2,0,0,0-.3-1.1c-.1-.3-.4-.5-.6-.7a2.3,2.3,0,0,0-1.9-.6,3,3,0,0,0-2.1,1.2,2.7,2.7,0,0,0-.7,2.2A2.4,2.4,0,0,0,721.1,29.5Zm.8-3.2a2.4,2.4,0,0,1,1.1-.6,1.5,1.5,0,0,1,1.2.4,1.2,1.2,0,0,1,.6,1,1.6,1.6,0,0,1-.4,1.2,1.5,1.5,0,0,1-1.1.7,1.8,1.8,0,0,1-1.2-.3,2.4,2.4,0,0,1-.6-1.1A2,2,0,0,1,721.9,26.3Z"/><path class="k" d="M728.8,37.9a4.8,4.8,0,0,0,1.6,1.3,6.4,6.4,0,0,0,2,.3,4.6,4.6,0,0,0,1.9-.8l.3-.2-2.4-3.2-1.1.8,1.3,1.9a1.9,1.9,0,0,1-1.3-.1A1.9,1.9,0,0,1,730,37a3,3,0,0,1-.5-2.1,2.7,2.7,0,0,1,3-2.3,2.6,2.6,0,0,1,1.8,1.2,3.1,3.1,0,0,1,.6,2.5l1.4.2a3.8,3.8,0,0,0,.1-1.8,5.1,5.1,0,0,0-.9-1.8,4,4,0,0,0-5.8-1,4.6,4.6,0,0,0-1.4,1.7,4.1,4.1,0,0,0-.3,2.2A4.6,4.6,0,0,0,728.8,37.9Z"/><path class="k" d="M732.2,42.8l2.1-1.1h.2a3.5,3.5,0,0,1,1.6-.6.7.7,0,0,1,.7.7h1.3c0-.3,0-.5-.1-.6a.9.9,0,0,0-.6-.6l-.8-.2.6-.3-.5-1.1-5.2,2.7Z"/><path class="k" d="M735.9,43.4a3.5,3.5,0,0,0-1.8,1.6,3.3,3.3,0,0,0,0,2.4,3,3,0,0,0,.9,1.3,2.5,2.5,0,0,0,1.5.6,3,3,0,0,0,1.6-.1,2.3,2.3,0,0,0,1.2-1,2.7,2.7,0,0,0,.7-1.4,2.9,2.9,0,0,0-.2-1.6,3.1,3.1,0,0,0-3.9-1.8Zm2.6,2.3a1.3,1.3,0,0,1,0,1.2,1.8,1.8,0,0,1-1,.9,1.5,1.5,0,0,1-1.3,0,2,2,0,0,1-.9-.9,1.7,1.7,0,0,1,.1-1.2,1.8,1.8,0,0,1,1-.9,1.5,1.5,0,0,1,1.3,0A1.4,1.4,0,0,1,738.5,45.7Z"/><path class="k" d="M737,51a1.9,1.9,0,0,0-1,1,3.1,3.1,0,0,0-.1,1.7,2.1,2.1,0,0,0,.7,1.3,2.4,2.4,0,0,0,1.2.7,10,10,0,0,0,2.1-.2l2.4-.5-.3-1.5-2.8.6a2.3,2.3,0,0,1-1.1.1l-.6-.2-.3-.6a1.5,1.5,0,0,1,.1-.7c.1-.1.2-.3.4-.4l1.1-.4,2.8-.5-.3-1.5-2.4.5A7,7,0,0,0,737,51Z"/><path class="k" d="M734.7,58.9h2.7l-.5.8a1.7,1.7,0,0,0-.1,1,2.3,2.3,0,0,0,.9,1.9,3.1,3.1,0,0,0,2.3.8,3,3,0,0,0,2.1-1,2.1,2.1,0,0,0,.8-1.9,3,3,0,0,0-.2-1l-.7-.9h.7V57.1l-8,.3Zm3.8.2a1.7,1.7,0,0,1,1.3-.5,1.6,1.6,0,0,1,1.2.4,1.2,1.2,0,0,1,.5,1.1,1.3,1.3,0,0,1-.4,1.2,1.7,1.7,0,0,1-1.2.5,2,2,0,0,1-1.3-.4,1.7,1.7,0,0,1-.1-2.3Z"/><polygon class="k" points="650.7 71.1 652.6 72.5 651.9 70.2 653.8 68.8 651.4 68.8 650.7 66.5 649.9 68.8 647.5 68.8 649.4 70.2 648.7 72.5 650.7 71.1"/><polygon class="k" points="740.9 68.8 740.1 66.5 739.4 68.8 736.9 68.8 738.9 70.2 738.1 72.5 740.1 71.1 742.1 72.5 741.3 70.2 743.3 68.8 740.9 68.8"/><polygon class="k" points="655.1 82.2 656.1 81.7 654.7 78.6 653.7 79 654.1 80.1 649.5 82.1 650 83.2 654.6 81.1 655.1 82.2"/><path class="k" d="M652.8,86.7a1.5,1.5,0,0,1-.2-.9,1.4,1.4,0,0,1,.5-.8l1.8,3.2h.2a2.3,2.3,0,0,0,1-3.4,2.2,2.2,0,0,0-1.5-1.1,2,2,0,0,0-1.8.3,2.4,2.4,0,0,0-1.2,1.4,3.1,3.1,0,0,0,.3,1.9,3.6,3.6,0,0,0,.8.9,2.5,2.5,0,0,0,1.1.4V87.4A1.3,1.3,0,0,1,652.8,86.7Zm1.8-2a1.3,1.3,0,0,1,.7.6,1.9,1.9,0,0,1,.2.8,2.5,2.5,0,0,1-.4.7l-1.2-2.2Z"/><polygon class="k" points="656.7 84.4 658.9 84.9 658.3 83.7 656.3 83.7 656.7 84.4"/><rect class="k" x="653.6" y="88.2" width="6.4" height="1.16" transform="translate(66 389.1) rotate(-34.6)"/><path class="k" d="M656.2,91.6a.4.4,0,0,0-.5.1.5.5,0,0,0-.3.4.7.7,0,0,0,.1.5c.2.2.3.3.5.3h.5c.1-.2.2-.3.2-.5s0-.3-.1-.5Z"/><path class="k" d="M659.5,90.2a.7.7,0,0,0-.1-.5c-.1-.2-.3-.2-.4-.3s-.4,0-.5.2-.3.2-.3.4a.9.9,0,0,0,.1.5l.5.2c.2.1.3,0,.5-.1A.5.5,0,0,0,659.5,90.2Z"/><path class="k" d="M664.9,94.1l-.4-1.1-3.3,1.1-.9.3-.5.4a1.8,1.8,0,0,0-.6,1.3,2,2,0,0,0,.6,1.5,2.2,2.2,0,0,0,1.4.5,1.9,1.9,0,0,0,1.3-.5,2.7,2.7,0,0,0,.7-1.4,1.8,1.8,0,0,0-.6-1.4Zm-3.2,2.6a.6.6,0,0,1-.6.3l-.5-.2c-.2-.2-.3-.4-.2-.6a.7.7,0,0,1,.2-.6.7.7,0,0,1,1.2,0,.8.8,0,0,1,.2.5A.6.6,0,0,1,661.7,96.7Z"/><path class="k" d="M668.2,98.8a2.3,2.3,0,0,0,.4-1.4,2.3,2.3,0,0,0-.7-1.4,2.3,2.3,0,0,0-1.4-.4,2.3,2.3,0,0,0-1.4.7,2,2,0,0,0-.4,1.5,1.9,1.9,0,0,0,.7,1.3l-2.2.9.4,1,3.3-1.4.8-.4Zm-.9-.7a.9.9,0,0,1-.6.3.7.7,0,0,1-.6-.2.5.5,0,0,1-.3-.5,1.4,1.4,0,0,1,.2-.6.9.9,0,0,1,.6-.3.7.7,0,0,1,.6.1,1.1,1.1,0,0,1,.3.6A1.4,1.4,0,0,1,667.3,98.1Z"/><path class="k" d="M671.5,98.7a1.9,1.9,0,0,0-1.5-.3,1.7,1.7,0,0,0-1,.7l1,.6.4-.2.5.2.3.4a.6.6,0,0,1-.1.4l-.3.2h-.4l-.6-.2-.6.8a1.7,1.7,0,0,1,.7.8,1.1,1.1,0,0,1,0,.8.7.7,0,0,1-.6.4,1.1,1.1,0,0,1-.8-.1,1.3,1.3,0,0,1-.4-.6,2.5,2.5,0,0,1,.1-.8l-.9-.6a1.6,1.6,0,0,0-.3,1.6,2.2,2.2,0,0,0,.9,1.3,2.3,2.3,0,0,0,1.6.3,1.7,1.7,0,0,0,1.3-.8,1.9,1.9,0,0,0,.3-1,1.8,1.8,0,0,0-.4-1h.8a1.8,1.8,0,0,0,.7-.5,1.5,1.5,0,0,0,.1-1.3A1.7,1.7,0,0,0,671.5,98.7Z"/><polygon class="k" points="676.6 101.7 675.5 102.5 676.6 103 674.5 107.7 675.6 108.2 678.2 102.5 676.6 101.7"/><path class="k" d="M682.2,103.8l-3.8,3-.3,1,2.6.9-.4,1.2,1.1.3.4-1.2.5.2.3-1.1h-.5l1.2-3.8Zm-1.2,3.8-1.4-.4,2-1.6Z"/><polygon class="k" points="686.6 106.3 687.8 106.5 687 111.5 688.2 111.7 689.2 105.5 687.4 105.3 686.6 106.3"/><path class="k" d="M691,109.3l1,.2.4-.2h.4a.9.9,0,0,1,.6.3,1.4,1.4,0,0,1,.2.7.8.8,0,0,1-.3.7.9.9,0,0,1-.7.3l-.5-.2a1,1,0,0,1-.4-.5h-1.2a1.9,1.9,0,0,0,.7,1.2,2,2,0,0,0,1.3.6,2.5,2.5,0,0,0,1.6-.6,2.6,2.6,0,0,0,.7-1.5,2.5,2.5,0,0,0-.5-1.5,1.8,1.8,0,0,0-1.4-.6h-.4l.3-1.1h2V106l-2.9-.2Z"/><path class="k" d="M701.5,108.3a1.8,1.8,0,0,0-1.4-.4h-.4v-1.2l2-.2v-1l-2.9.2-.4,3.6h1q.1-.3.3-.3l.4-.2.7.2a1.5,1.5,0,0,1,.3.7,1.9,1.9,0,0,1-.2.8.9.9,0,0,1-.7.3h-.5a.8.8,0,0,1-.4-.4H698a2.3,2.3,0,0,0,.9,1.2,1.7,1.7,0,0,0,1.4.3,2,2,0,0,0,1.9-2.3A2.1,2.1,0,0,0,701.5,108.3Z"/><path class="k" d="M706.3,107.4a1.9,1.9,0,0,0-1.5-.2h-.4v-1.2l2-.4-.3-1-2.8.6v3.5h1l.3-.4h.4a.7.7,0,0,1,.6.1.8.8,0,0,1,.4.7.6.6,0,0,1-.1.7.5.5,0,0,1-.6.4h-.5l-.5-.4-1.2.3a2.7,2.7,0,0,0,1,1.1,2.2,2.2,0,0,0,1.4.1,1.9,1.9,0,0,0,1.4-.9,2.2,2.2,0,0,0,.3-1.6A2.3,2.3,0,0,0,706.3,107.4Z"/><rect class="k" x="710.6" y="106.5" width="2.2" height="1.08" transform="translate(6.3 249.9) rotate(-20)"/><polygon class="k" points="718.5 99.5 717.4 100.1 717.4 102.6 715.3 101.2 714.2 101.8 717.5 104 718.8 106.4 719.9 105.8 718.6 103.4 718.5 99.5"/><path class="k" d="M722.6,98.5l.3.4h-.8l-.7.4a1.9,1.9,0,0,0-.9,1.4,3.1,3.1,0,0,0,.5,1.8,2.1,2.1,0,0,0,1.6,1,1.8,1.8,0,0,0,1.6-.3c.2-.2.4-.3.5-.6a.9.9,0,0,0,.3-.7l.3.4,1-.7-2.7-3.8Zm1.4,1.9a1.2,1.2,0,0,1,.3,1,1.4,1.4,0,0,1-.5.8,1.2,1.2,0,0,1-1,.2,1.6,1.6,0,0,1-.8-.6,1,1,0,0,1-.3-1,1,1,0,0,1,.5-.8,1.2,1.2,0,0,1,1-.2A.9.9,0,0,1,724,100.4Z"/><path class="k" d="M729.3,95.8a2.3,2.3,0,0,0-1-.7H727a2.2,2.2,0,0,0-1.1.5,3,3,0,0,0-.8,1.6,2.4,2.4,0,0,0,.7,1.8,2.1,2.1,0,0,0,1.7.8,1.9,1.9,0,0,0,1.7-.6,3.6,3.6,0,0,0,.7-1,2.8,2.8,0,0,0,0-1.3A2.4,2.4,0,0,0,729.3,95.8Zm-.8,2.6a1,1,0,0,1-1,.3,1.2,1.2,0,0,1-.9-.4,1.8,1.8,0,0,1-.4-1,2,2,0,0,1,.5-.9,1.2,1.2,0,0,1,.9-.3,1.4,1.4,0,0,1,.9.5,1.8,1.8,0,0,1,.4.9A1.3,1.3,0,0,1,728.5,98.4Z"/><path class="k" d="M732.5,91.7,731,90.4l-.8.9,1.8,1.5c.3.3.5.5.5.6a.8.8,0,0,1,.2.5c-.1.1-.1.3-.3.4s-.2.3-.4.3h-.5l-.7-.6-1.7-1.4-.7.9,1.4,1.2,1.2.9a2.5,2.5,0,0,0,1.2.2,1.9,1.9,0,0,0,1-.8,1.8,1.8,0,0,0,.6-1,2.2,2.2,0,0,0-.2-1.1A3.6,3.6,0,0,0,732.5,91.7Z"/><path class="k" d="M734,86.7a1.8,1.8,0,0,0-1,.7l-.3.6v.9l-.4-.3-.6,1,3.8,2.6.6-1-1.5-1-.8-.6c-.1-.2-.3-.4-.3-.6a.8.8,0,0,1,.2-.7l.3-.3h.5a2.9,2.9,0,0,1,1,.5l1.6,1.2.7-1-2.5-1.7A2.4,2.4,0,0,0,734,86.7Z"/><path class="k" d="M734.5,81.5l2.1,1.1-.8.4a1,1,0,0,0-.5.6,1.8,1.8,0,0,0-.1,1.6,2.2,2.2,0,0,0,1.3,1.4,2.3,2.3,0,0,0,1.8.2,1.9,1.9,0,0,0,1.3-1,1.9,1.9,0,0,0,.2-.7,1.1,1.1,0,0,0-.1-.8l.5.2.5-1-5.6-3Zm2.6,1.7a1.5,1.5,0,0,1,1.1.2,1.6,1.6,0,0,1,.7.7,1.6,1.6,0,0,1-.1,1,1.2,1.2,0,0,1-.8.6,1.2,1.2,0,0,1-1-.1,1.1,1.1,0,0,1-.7-.8,1,1,0,0,1,.1-.9A1,1,0,0,1,737.1,83.2Z"/><path class="k" d="M741.3,78.4a1.3,1.3,0,0,1,0,1.2,1.1,1.1,0,0,1-.6.7,1.1,1.1,0,0,1-.8.2l1.3-3.5H741a2.3,2.3,0,0,0-2,0,2.4,2.4,0,0,0,.2,4.5,2.8,2.8,0,0,0,1.8,0,2.9,2.9,0,0,0,1.3-1.4,6.9,6.9,0,0,0,.2-1.3,7.6,7.6,0,0,0-.4-1.1ZM739,80.1a2.1,2.1,0,0,1-.4-.6,1,1,0,0,1,.1-.9,1.2,1.2,0,0,1,.5-.7l.7-.2Z"/><polygon class="k" points="735.6 77.2 736.8 78.8 737.1 78 736.1 76 735.6 77.2"/><polygon class="k" points="702.8 50.9 700.7 51.9 702.3 55.4 704.4 54.4 704 53.6 702.8 54.2 702.6 53.6 703.7 53.1 703.4 52.3 702.2 52.9 702 52.3 703.1 51.7 702.8 50.9"/><path class="k" d="M698.9,53.4h.5c.1.1.3.1.4.3l.8-.7a1.8,1.8,0,0,0-.9-.4,1.7,1.7,0,0,0-1,0l-.8.4-.5.6a2.4,2.4,0,0,0-.2.8,2.5,2.5,0,0,0,.1.8l.4.6a1.3,1.3,0,0,0,.6.5c.2.2.5.2.7.3l.8-.2a1.8,1.8,0,0,0,1.3-.9,2.2,2.2,0,0,0,0-1.6h0a.1.1,0,0,0-.1-.1l-1.9.6.2.7,1-.3a.7.7,0,0,1-.1.6.9.9,0,0,1-.6.4.8.8,0,0,1-.8-.1,1.3,1.3,0,0,1-.5-.7,1.4,1.4,0,0,1,0-.9C698.4,53.6,698.6,53.5,698.9,53.4Z"/><path class="k" d="M704.9,50.5h.9l.5-.9a1.4,1.4,0,0,0-.9-.1,1.9,1.9,0,0,0-1,.3l-.6.6-.3.7v.7l.3.8.6.5.7.4h.7l.8-.4a1.8,1.8,0,0,0,.9-1.2,2,2,0,0,0-.4-1.6h0c-.1,0-.1,0-.1-.1l-1.7,1.2.4.6.9-.5a.6.6,0,0,1,0,.6l-.4.5a1.1,1.1,0,0,1-.8.1,1,1,0,0,1-.7-.6.8.8,0,0,1-.2-.8A1,1,0,0,1,704.9,50.5Z"/><path class="k" d="M688.7,46.4a16.6,16.6,0,0,0-1.1,5.8,18.1,18.1,0,0,0,1,6.1l1.1,2.3a13.4,13.4,0,0,0,2.2,3.1,16.9,16.9,0,0,0,6.7,4.8,16.6,16.6,0,0,0,5.8,1.1,15.1,15.1,0,0,1-2.9-1.3,15.7,15.7,0,0,1-5-4.6,14,14,0,0,1-1-1.6,16.6,16.6,0,0,1-1.4-3.7,17.4,17.4,0,0,1-.4-6,17.5,17.5,0,0,1,2.5-6.7,17.3,17.3,0,0,1,5.8-5.3l1.2-.6h.2l1.4,1,.7.5v-.2a8.4,8.4,0,0,1,1.1-2c.9-1,3.3-4.2,4-5.3-5-1-12.7,1.3-17,4.2h1.9l-.8.5A17.7,17.7,0,0,0,688.7,46.4Z"/><path class="k" d="M703.5,41.5l-.7.7h-.2l-.9.7-.3.2-.6.5-.4.2-.6.4-.4.2-.6.3-.5.2-.6.3h-.6l-.3.4.4-.2h.5l.8-.3.3-.2,1-.5.3-.2.8-.4.3-.3.6-.4.5-.3.5-.5.4-.3c.1-.2.3-.3.5-.5l.4-.4.2-.2-.3-.2c0,.1-.1.2-.2.3Z"/><path class="k" d="M712.1,50.1h0v-.2h0a15.7,15.7,0,0,0-2.9-5.2h-.2a15.8,15.8,0,0,0-3-2.8v.2a15.4,15.4,0,0,1,2.9,2.8l-.8.9-.6.6-1.1.9-.5.5-1.5,1.1H704l-1.9,1.1-.6.2-1.3.7-.8.2-1.2.5-.8.2-1.2.3-.9.2h-1v.2h0l1-.2h.9l1.3-.3.8-.2,1.6-.6.4-.2a6.6,6.6,0,0,0,1.9-.9l.6-.3,1.3-.7.7-.5,1-.8.7-.6a3.9,3.9,0,0,0,1-.8l.6-.7a3,3,0,0,0,.8-.8,17.8,17.8,0,0,1,2.9,5.2,5.2,5.2,0,0,1-1.1,1l-.7.7-1.3.9a1.8,1.8,0,0,1-.7.5l-1.7,1.2H706a23.9,23.9,0,0,1-2.2,1.2l-.5.2-1.8.7-.8.3-1.5.5-1,.2a5.8,5.8,0,0,1-1.4.3l-1,.2-1.2.2h0a.3.3,0,0,1,.1.2l1.2-.2,1-.2,1.5-.3.9-.2,1.8-.6.5-.2,2.3-.9.6-.4,1.6-.8.8-.5,1.3-.8.8-.6,1.1-.9.8-.7,1-.9a16.8,16.8,0,0,1,.8,5.4v.7l-1,.8-.7.5-1.2.8-.7.4-1.6.9-.3.2-2,.9-.6.2-1.5.6-.8.3-1.2.4-1,.2-1.2.4H698l-1.1.2h.1a.3.3,0,0,1,.1.2l1-.2.9-.2,1.4-.3.8-.2,1.6-.5.4-.2,2.1-.8.5-.3,1.5-.7.7-.4,1.2-.6.8-.5,1-.7.8-.6.9-.6a18.2,18.2,0,0,1-2.3,7.6l-1.5.8-.6.3-2.2.9-.5.2-1.7.6-.8.3-1.3.3.4.2,1.2-.3.6-.2,2.2-.8.5-.2,1.6-.7.7-.4,1.1-.5a16.7,16.7,0,0,1-4.2,4.6h.4a18.7,18.7,0,0,0,4.3-5h0l.3-.5h0a18.8,18.8,0,0,0,2.1-7.6h0v-.3h0v-.5A17.7,17.7,0,0,0,712.1,50.1Z"/><path class="k" d="M678.7,61.4h0v.3h0a18.8,18.8,0,0,0,4.3,6.6h0l.3.3h.1a17.4,17.4,0,0,0,11.9,4.6,18.2,18.2,0,0,0,10.1-3.1H705a17.4,17.4,0,0,1-9.6,2.9A17.2,17.2,0,0,1,684,68.8l.8.2h6.6l5-.3h1.9l-.5-.2H687.2l-1.5-.2h-.3l-1.8-.3a17,17,0,0,1-4.4-6.6l.6.2.7.3.8.2.7.2.8.2.7.2.9.2H686l.6.2h4.8l-.2-.3h-5.3l-.8-.2h-.7l-.9-.2-.7-.2-.8-.2-.7-.2-.8-.3-.7-.2-.8-.3a18.6,18.6,0,0,1-1-5.8v-.2l.6.2.6.3.6.3.6.3.7.2.6.2.8.3h.5l.9.3h.4l1.3.3h.2l1.2.2h1.1a.3.3,0,0,0-.1-.2h-2.4l-.7-.2h-.6l-.8-.2-.5-.2-.9-.2-.4-.2-1.2-.4h-.3l-1-.5-.4-.2-.8-.3a19.4,19.4,0,0,1,1.2-5.9l1.2.7.7.3,1.6.7.4.2,2,.7h.6l1.4.3h0V52l-1.2-.2-.7-.2-1.7-.6h-.4l-1.9-.8-.6-.3-1.3-.7a19.5,19.5,0,0,1,3-4.8l1,.5.4.2,1.5.6h.3l1.2.4.6.2h.8a.1.1,0,0,1,.1-.1h0l-.9-.2h-.5l-1.5-.5-.3-.2-1.1-.4-.6-.3-.8-.5a17.7,17.7,0,0,1,9.2-5.2l.5-.5a17.7,17.7,0,0,0-9.9,5.6h-.2a17.5,17.5,0,0,0-3,4.8h0v.2h0a14.3,14.3,0,0,0-1.2,5.8h-.1v.2h0v.4A18,18,0,0,0,678.7,61.4Z"/><polygon class="k" points="679.6 79.9 678.4 79.9 678.4 86.1 681.4 86.1 681.4 85 679.6 85 679.6 79.9"/><path class="k" d="M684.3,81.4a2.2,2.2,0,0,0-1.7.7,2.4,2.4,0,0,0,0,3.4,2.3,2.3,0,0,0,1.8.7l1.2-.2a2,2,0,0,0,.8-.8l-.9-.4a1.5,1.5,0,0,1-1.1.4,1.2,1.2,0,0,1-.9-.3,1.1,1.1,0,0,1-.5-.8h3.8v-.2a2.7,2.7,0,0,0-.7-1.8A2.4,2.4,0,0,0,684.3,81.4Zm-1.2,1.8a1.5,1.5,0,0,1,.4-.6,1.3,1.3,0,0,1,.9-.2.8.8,0,0,1,.7.2,1.3,1.3,0,0,1,.5.6Z"/><path class="k" d="M693,80.1a3,3,0,0,0-1.5-.2h-1.3v6.2h1.2V83.5h1.3a1.5,1.5,0,0,0,.9-.6,2,2,0,0,0,.3-1.1,1.6,1.6,0,0,0-.2-1A1.3,1.3,0,0,0,693,80.1Zm-.3,1.9-.3.2h-1V81h.4l.7.2a.5.5,0,0,1,.3.5A.4.4,0,0,1,692.7,82Z"/><path class="k" d="M698.5,80.2a4.9,4.9,0,0,0-2-.3h-1.4v6.2h3.1a2.1,2.1,0,0,0,1-.6,3.3,3.3,0,0,0,.6-1,2.8,2.8,0,0,0,.3-1.3,3.5,3.5,0,0,0-.5-1.8A2.3,2.3,0,0,0,698.5,80.2Zm.1,3.9a1.3,1.3,0,0,1-.6.7h-1.7V81h.4a2.3,2.3,0,0,1,1.6.5,2,2,0,0,1,.6,1.5A1.8,1.8,0,0,1,698.6,84.1Z"/><path class="k" d="M704.2,82.9v1.2H706a2.4,2.4,0,0,1-.6.8l-1.1.2a2.5,2.5,0,0,1-1.6-.6,2.2,2.2,0,0,1,0-3,2.1,2.1,0,0,1,1.6-.6,2.5,2.5,0,0,1,1.8.8l.8-.8a3.1,3.1,0,0,0-1.1-.9,4.1,4.1,0,0,0-1.6-.3,3.4,3.4,0,0,0-2.5,1.1,3.3,3.3,0,0,0-.8,2.2,4.2,4.2,0,0,0,.4,1.6,2.3,2.3,0,0,0,1.2,1.2,3.7,3.7,0,0,0,1.8.5,4.2,4.2,0,0,0,1.6-.4,5.7,5.7,0,0,0,1.1-1.1,4.2,4.2,0,0,0,.4-1.6v-.3Z"/><path class="l" d="M781.9,16.9l-2.6-2.1a26.1,26.1,0,0,0-2.8-1.7,21,21,0,0,0-3-1.5l-3.1-1a46.7,46.7,0,0,0-6.5-1.3c-2.2-.2-4.4-.4-6.6-.4a50,50,0,0,0-6.7.2l-3.3.3-1.6.2-1.6.2a98.1,98.1,0,0,0-25.4,7.7,100.6,100.6,0,0,0-22.4,14.1c-3.3,2.9-6.5,5.9-9.6,9.1l-4.6,4.8c-1.5,1.6-3,3.2-4.4,5a31.6,31.6,0,0,0-6.3,11.7,29.3,29.3,0,0,0-1,6.6,25.4,25.4,0,0,0,.6,6.7,26,26,0,0,0,2.5,6.2,23.2,23.2,0,0,0,3.9,5.4,26.1,26.1,0,0,0,2.5,2.3,26.5,26.5,0,0,0,2.6,2.1,10.8,10.8,0,0,0,2.9,1.8,9,9,0,0,0,3.3.9,10.9,10.9,0,0,0,6.5-2,11.4,11.4,0,0,0,2.4-2.5,16.8,16.8,0,0,0,1.5-3,31.4,31.4,0,0,0,1.5-6.6h0l.3-.7a13,13,0,0,0,.7-3.3c.6-4.4.7-8.8,1.2-13.2.3-2.2.6-4.3,1.1-6.4a31.2,31.2,0,0,1,1.5-3.9,39.3,39.3,0,0,0-.4,9.7,36,36,0,0,0,2.9,11.6v.2c.1.1.3,0,.4-.1a39.6,39.6,0,0,0,2.1-4.7h0a20,20,0,0,0,1,2.6,10,10,0,0,0,1.2,1.9,1.3,1.3,0,0,0-.1.6,19.7,19.7,0,0,0,.4,5.4l.4,1.3c.1.2.1.4.3.6a.5.5,0,0,0,.2.4h.3l.2-.2a3.5,3.5,0,0,0,.3-1.4,5.7,5.7,0,0,0,.1-1.3,8.6,8.6,0,0,0-.4-2.8,7.7,7.7,0,0,0-1.2-2.4l-.3-.4a31.5,31.5,0,0,1,1.1-4.4,42.2,42.2,0,0,0,1.9-10.6V55.3a10.3,10.3,0,0,0-.1-1.7h-.1v1a4.9,4.9,0,0,1,.1,1.2,13.2,13.2,0,0,1-3.2,8,13.1,13.1,0,0,0,3.2-7.3v2.2a32.1,32.1,0,0,1-.7,5.3,30.4,30.4,0,0,1-1.3,5.2c-.4,1.4-.8,2.7-1.1,4.2l-.9-1.6a10.6,10.6,0,0,1-.9-2.5c-.1-.2-.1-.4-.2-.6a20.7,20.7,0,0,0,1.2-4.9,32.9,32.9,0,0,0,.5-5.4,7.1,7.1,0,0,0-.1-1.4,2,2,0,0,0-.1-.7.3.3,0,0,0-.1-.2h-.6l-.2.2a5.2,5.2,0,0,0-.6,1.3,5,5,0,0,0-.4,1.3,18.1,18.1,0,0,0-.1,9.8,27.6,27.6,0,0,1-2,4.7,37.7,37.7,0,0,1-2.6-10.9,36.1,36.1,0,0,1,1-11.8.8.8,0,0,0-.2-.4.4.4,0,0,0-.5.2,25.5,25.5,0,0,0-2.6,6.1,30.6,30.6,0,0,0-1,5.1c.2-4.8.3-9.5.4-14.3q0-3.3.3-6.6a8.8,8.8,0,0,1,.2-1.6c0-.6.1-1.2.1-1.7a18.6,18.6,0,0,0-.4-3.4,10.9,10.9,0,0,0-.5-1.7,5.3,5.3,0,0,0-1.1-1.5c0-.1-.1-.1-.2-.2h-1.7c-.1,0-.1,0-.1.1A99.2,99.2,0,0,1,719,18a96.2,96.2,0,0,1,25.1-7.8l1.6-.2,1.7-.2,3.3-.4,6.6-.2a47.3,47.3,0,0,1,13,1.6l3.2,1,3,1.4,2.8,1.7,2.6,2.1a34.2,34.2,0,0,1,7.9,10.5A33.1,33.1,0,0,0,781.9,16.9Zm-69,57.3a7.2,7.2,0,0,1,1.2,2.3,25.1,25.1,0,0,1,.4,2.7,5.7,5.7,0,0,1-.1,1.3,2.4,2.4,0,0,1-.3,1.2h0c-.1,0-.1-.1-.2-.2a1.4,1.4,0,0,1-.2-.6,5,5,0,0,1-.4-1.3,18.7,18.7,0,0,1-.5-5.3c0-.1.1-.2.1-.3Zm-1.2-18Zm-1,2.5c.2-.4.3-.8.5-1.3a5.4,5.4,0,0,1,.5-1.1h0a1.3,1.3,0,0,1,.1.6,5.7,5.7,0,0,1,.1,1.3,30.7,30.7,0,0,1-.5,5.3,25.9,25.9,0,0,1-.9,4A17.9,17.9,0,0,1,710.7,58.7ZM698.3,86.4a11.6,11.6,0,0,1-3.6,5.1,9.8,9.8,0,0,1-5.9,1.8,10.1,10.1,0,0,1-5.8-2.5,16.4,16.4,0,0,1-2.5-2.1,17,17,0,0,1-2.4-2.2,25.3,25.3,0,0,1-3.9-5.2,25.7,25.7,0,0,1-2.3-6,26.8,26.8,0,0,1,.3-12.9A30.7,30.7,0,0,1,678.3,51c1.4-1.7,2.9-3.3,4.4-5l4.5-4.8c1.8-1.8,3.6-3.7,5.5-5.4a13.5,13.5,0,0,0-1.5,2.6,24.4,24.4,0,0,0-1.1,3.2c-.5,2.2-.9,4.4-1.3,6.6-.6,4.4-.8,8.8-1.1,13.2a98.5,98.5,0,0,0-.3,13.3,49.8,49.8,0,0,0,.9,6.6,10.5,10.5,0,0,0,.4,1.7,4.2,4.2,0,0,0,.9,1.7.9.9,0,0,0,.7.1.8.8,0,0,0,.6-.2l.7-.8a10.9,10.9,0,0,0,.8-1.5c.9-2.1,1.5-4.2,2.2-6.3l1.2-3.9.3,1.4c.7,2.1,1.4,4.2,2.2,6.3v.4l.3.4c.1.1.2.3.4.4h.4A31.3,31.3,0,0,1,698.3,86.4Zm-.6-40.2a.9.9,0,0,1,.1.5,16.6,16.6,0,0,1,.3,3.2c.1,2.2,0,4.4-.1,6.6a84.2,84.2,0,0,1-2.2,12,45.6,45.6,0,0,1-.8-8.2,34.9,34.9,0,0,1,.6-6.5,44.7,44.7,0,0,1,1.6-6.3A5,5,0,0,1,697.7,46.2ZM699.5,31a1.7,1.7,0,0,1,1.2.3,3.6,3.6,0,0,1,.8,1.2c.1.5.3,1,.4,1.5a16.5,16.5,0,0,1,.4,3.2,9.2,9.2,0,0,1-.1,1.6,8.8,8.8,0,0,0-.2,1.6c-.2,2.2-.2,4.5-.3,6.7-.1,8.8-.4,17.6-1.2,26.4-.3,2.1-.5,4.3-.8,6.5h0l-.2.2a.3.3,0,0,1-.1-.2c-.1,0-.2-.1-.2-.3v-.3a52.5,52.5,0,0,1-2.2-6.3c-.2-.9-.5-1.8-.7-2.7l.3-.9a80.5,80.5,0,0,0,2.4-13c.1-2.3.2-4.5.1-6.7s-.1-2.2-.3-3.4a3.7,3.7,0,0,0-.2-.9l-.2-.3-.6-.2h-.4l-.2.2a6.5,6.5,0,0,0-.8,1.7,49.9,49.9,0,0,0-1.6,6.4,37.9,37.9,0,0,0-.6,6.7,48,48,0,0,0,1.2,10c-.5,1.8-1,3.6-1.6,5.4a65,65,0,0,1-2.2,6.2,6.1,6.1,0,0,1-.7,1.4l-.4.5h-.3c0-.1-.2-.3-.3-.5a1.9,1.9,0,0,1-.2-.7,7.5,7.5,0,0,1-.4-1.6,46.2,46.2,0,0,1-.8-6.5,82.2,82.2,0,0,1,.3-13.1c.3-4.4.5-8.8,1.1-13.2s1.3-8.7,3.9-12.2a16.9,16.9,0,0,1,2-2.5,16.4,16.4,0,0,1,2.5-2.1Z"/><g class="m"><g class="n"><path class="o" d="M153.7,483.1c33.8-58.1,83.1-123.6,138.8-120.5,52.7,2.9,73.3,65.3,111.4,63.4,34.7-1.7,79.7-56.5,125.8-285.8"/><path class="p" d="M145.8,478.8c34.5-58.4,84.1-123.6,139.1-120,53.2,3.6,72,70.6,110.9,69.6,35.1-.9,81.8-56.8,133.3-288.8"/><path class="q" d="M138,474.5c35.2-58.7,85-123.6,139.3-119.4S348,431,387.6,430.8c35.5-.1,84-57.1,140.8-291.9"/><path class="r" d="M130.2,470.3c35.8-59.2,85.9-123.6,139.6-119s69.3,81.2,109.6,82c35.9.6,86.1-57.5,148.3-295"/><path class="s" d="M122.3,466c36.6-59.5,86.9-123.6,139.9-118.5,54.8,5.3,68,86.5,109.1,88.2,36.2,1.4,88.2-57.8,155.8-298"/><path class="t" d="M114.5,461.7c37.2-59.8,87.8-123.6,140.1-117.9,55.3,5.9,66.7,91.8,108.5,94.3,36.6,2.2,90.4-58.1,163.3-301.1"/><path class="u" d="M106.7,457.4C144.5,397.3,195.4,333.9,247,340c55.9,6.6,65.4,97.1,107.9,100.5,37,3,92.6-58.3,170.8-304.1"/><path class="v" d="M98.8,453.1c38.6-60.5,89.6-123.4,140.7-116.9,56.3,7.2,64,102.4,107.3,106.7,37.3,3.8,94.6-58.6,178.3-307.1"/><path class="w" d="M91,448.9c39.2-60.9,90.5-123.4,140.9-116.5,56.9,7.9,62.7,107.7,106.7,112.9,37.7,4.5,96.8-58.9,185.8-310.2"/><path class="x" d="M83.2,444.6c39.9-61.2,91.4-123.3,141.1-115.9,57.4,8.5,61.4,112.9,106.2,119.1,38,5.2,98.9-59.3,193.2-313.3"/><path class="y" d="M75.3,440.3c40.6-61.6,92.4-123.2,141.4-115.4,57.9,9.2,60.1,118.2,105.6,125.3,38.4,6,101.1-59.6,200.8-316.3"/><path class="z" d="M67.5,436c41.3-61.9,93.3-123.1,141.6-114.9,58.5,9.9,58.8,123.5,105,131.5,38.8,6.7,103.3-59.9,208.3-319.4"/><path class="aa" d="M59.7,431.8c41.9-62.3,94.2-123,141.9-114.4C260.5,328,259,446.1,306,455c39.1,7.5,105.3-60.2,215.7-322.4"/><path class="ab" d="M51.9,427.5c42.6-62.6,95-122.9,142.1-113.9,59.5,11.3,56.1,134,103.8,143.8C337.4,465.6,405.3,396.9,521,132"/><path class="ac" d="M44,423.2c43.3-63,96-122.7,142.4-113.4,60,12.1,54.8,139.2,103.2,150.1,40,8.9,109.7-60.9,230.8-328.6"/><path class="ad" d="M36.2,418.9C80.1,355.6,133.1,296.3,178.8,306c60.5,12.9,53.5,144.5,102.7,156.3,40.3,9.6,111.8-61.2,238.2-331.6"/><path class="ae" d="M28.4,414.7C73,351,126.2,292.2,171.2,302.3c61,13.6,52.2,149.7,102.1,162.4C314,475,387.2,403.3,519,130.1"/><path class="af" d="M20.5,410.4c45.3-64.1,98.7-122.3,143.2-111.9,61.5,14.4,50.8,154.9,101.5,168.6,41,11.1,116-61.7,253.2-337.7"/><path class="ag" d="M12.7,406.1c46-64.4,99.6-122.1,143.4-111.4,62,15.2,49.5,160.2,100.9,174.8,41.4,11.8,118.2-62,260.7-340.7"/><path class="ah" d="M4.9,401.8C51.5,337.1,105.4,279.9,148.5,291c62.5,16,48.3,165.3,100.3,180.9,41.9,12.5,120.4-62.3,268.2-343.8"/><path class="ai" d="M-3,397.6C44.4,332.4,98.4,275.8,140.9,287.2c63,16.8,47,170.6,99.8,187.2,42.2,13.1,122.4-62.7,275.7-346.9"/><path class="aj" d="M-10.8,393.3c48-65.5,102.3-121.6,144.2-109.9,63.4,17.7,45.6,175.9,99.1,193.4,42.6,13.9,124.6-63,283.2-349.9"/></g></g><g class="ak"><g class="n"><path class="al" d="M838.9,393.3c48-65.5,102.2-121.6,144.1-109.9,63.4,17.7,45.7,175.9,99.2,193.4,42.6,13.9,124.6-63,283.2-349.9"/></g></g></svg>