<svg xmlns="http://www.w3.org/2000/svg" xmlns:xlink="http://www.w3.org/1999/xlink" viewBox="0 0 841.9 158.5"><defs><style>.a{fill:none;}.b,.g,.h{fill:#ccc;}.b{clip-rule:evenodd;}.c{fill:#fff;}.d{clip-path:url(#a);}.e,.f{fill:#2e3191;}.e,.g{fill-rule:evenodd;}.i{clip-path:url(#b);}.j{fill:#dadada;}</style><clipPath id="a"><path class="a" d="M105.2,121.6a41,41,0,0,1-23.7-16.1,40.6,40.6,0,0,1-2.5-4.1,41,41,0,0,1-3.7-9.3,42.2,42.2,0,0,1-.9-15.4,41.5,41.5,0,0,1,6.4-16.9A40.5,40.5,0,0,1,95.5,46.4l3.1-1.5c1,.5,4.9,3.5,5.9,4,1-1.1-.1-1.3,3.3-6.2,2.4-2.6,10.3-12.8,10.9-14.5C104.8,25,82,31.9,70.7,40.6a43.5,43.5,0,0,1,5.2-.6,44.8,44.8,0,0,0-16,21.1,45.4,45.4,0,0,0-2.8,15.1,43.6,43.6,0,0,0,2.7,15.9,47.8,47.8,0,0,0,2.8,6.1,41.8,41.8,0,0,0,5.8,8.4,44.3,44.3,0,0,0,17.8,12.3,45,45,0,0,0,18.5,3l.5-.3"/></clipPath><clipPath id="b"><path class="b" d="M105.2,121.6a41,41,0,0,1-23.7-16.1,40.6,40.6,0,0,1-2.5-4.1,41,41,0,0,1-3.7-9.3,42.2,42.2,0,0,1-.9-15.4,41.5,41.5,0,0,1,6.4-16.9A40.5,40.5,0,0,1,95.5,46.4l3.1-1.5c1,.5,4.9,3.5,5.9,4,1-1.1-.1-1.3,3.3-6.2,2.4-2.6,10.3-12.8,10.9-14.5C104.8,25,82,31.9,70.7,40.6a43.5,43.5,0,0,1,5.2-.6,44.8,44.8,0,0,0-16,21.1,45.4,45.4,0,0,0-2.8,15.1,43.6,43.6,0,0,0,2.7,15.9,47.8,47.8,0,0,0,2.8,6.1,41.8,41.8,0,0,0,5.8,8.4,44.3,44.3,0,0,0,17.8,12.3,45,45,0,0,0,18.5,3l.5-.3"/></clipPath></defs><path class="c" d="M59.9,62.5h-.2a46.3,46.3,0,0,1-16.5-6.1,1.3,1.3,0,0,1-.6-1,1.4,1.4,0,0,1,.3-1.2,47.3,47.3,0,0,1,27.6-15,45.2,45.2,0,0,1,5.3-.6h.1a1.4,1.4,0,0,1,1.3,1,1.3,1.3,0,0,1-.5,1.6A44.2,44.2,0,0,0,61.2,61.6,1.4,1.4,0,0,1,59.9,62.5Z"/><path class="c" d="M57.1,77.7h-.2a60.5,60.5,0,0,1-21.8-8.1,1.4,1.4,0,0,1-.6-1.8,47.6,47.6,0,0,1,8.4-13.5,1.5,1.5,0,0,1,1.1-.4,1,1,0,0,1,.7.2,45.5,45.5,0,0,0,15.4,5.7,1.4,1.4,0,0,1,1,.7,1.3,1.3,0,0,1,.1,1.2,45.5,45.5,0,0,0-2.7,14.7,1.2,1.2,0,0,1-.5,1A1.8,1.8,0,0,1,57.1,77.7Z"/><path class="c" d="M75.3,93.5a1.3,1.3,0,0,1-1.3-1,41,41,0,0,1-1-16,1.5,1.5,0,0,1,1.3-1.2,59.5,59.5,0,0,0,37.9-19.6,1.6,1.6,0,0,1,1.1-.5h0a1.6,1.6,0,0,1,1.1.5,46.6,46.6,0,0,1,8.1,14.6,1.4,1.4,0,0,1-.3,1.4A78,78,0,0,1,75.5,93.5Z"/><path class="c" d="M67.5,122a109.8,109.8,0,0,1-20.6-2,.9.9,0,0,1-.6-.3,47.1,47.1,0,0,1-12.5-18.6,1.4,1.4,0,0,1,.4-1.5,1.5,1.5,0,0,1,1-.4h.5a88.3,88.3,0,0,0,31.8,5.8h.9a1.6,1.6,0,0,1,1.1.5,43.3,43.3,0,0,0,17.2,12,1.3,1.3,0,0,1,.9,1.5,1.3,1.3,0,0,1-1.1,1.2A100.2,100.2,0,0,1,67.5,122Z"/><path class="c" d="M81.5,106.9a1.3,1.3,0,0,1-1.1-.6,22.6,22.6,0,0,1-2.6-4.2A37.7,37.7,0,0,1,74,92.5a1.3,1.3,0,0,1,.2-1.2,1.7,1.7,0,0,1,1-.6,75.3,75.3,0,0,0,45-21,1.2,1.2,0,0,1,1-.4h.3a1.7,1.7,0,0,1,1,1,47.2,47.2,0,0,1,2.5,15,14.8,14.8,0,0,1-.1,2.1,1.2,1.2,0,0,1-.5,1,92.5,92.5,0,0,1-42.7,18.5Z"/><path class="c" d="M94.3,118.6l-.8-.2a41,41,0,0,1-13.1-12.1,1.4,1.4,0,0,1-.2-1.4,1.5,1.5,0,0,1,1.1-.8,89.1,89.1,0,0,0,41.3-17.9l.9-.3.7.2a1.1,1.1,0,0,1,.7,1.3,46.3,46.3,0,0,1-6.3,21.4,1,1,0,0,1-.6.5,107.8,107.8,0,0,1-23.4,9.3Z"/><path class="c" d="M78,132a46.8,46.8,0,0,1-31.7-12.3A1.4,1.4,0,0,1,46,118a1.3,1.3,0,0,1,1.2-.8h.3a103.6,103.6,0,0,0,20,2A104.4,104.4,0,0,0,86,117.5h.7a44.1,44.1,0,0,0,16,3h2a1.5,1.5,0,0,1,1.4,1,1.4,1.4,0,0,1-.5,1.6A47.1,47.1,0,0,1,78,132Z"/><path class="c" d="M105.2,123h-.3a43.3,43.3,0,0,1-11.4-4.6,1.5,1.5,0,0,1,.4-2.6,104.1,104.1,0,0,0,22.8-9h.7a1.3,1.3,0,0,1,1,.4,1.5,1.5,0,0,1,.2,1.7,45,45,0,0,1-12.5,13.9A1.6,1.6,0,0,1,105.2,123Z"/><path class="c" d="M80.8,61.2a1.4,1.4,0,0,1-1.1-.6,1.4,1.4,0,0,1-.1-1.6A42.6,42.6,0,0,1,94.9,45.1a31.3,31.3,0,0,1,3.2-1.5h1.2l3,1.7a1.4,1.4,0,0,1,.7,1,1.5,1.5,0,0,1-.4,1.2A46.6,46.6,0,0,1,81.2,61.1Z"/><path class="c" d="M59.7,93.5a75.6,75.6,0,0,1-27.9-8.2,1.4,1.4,0,0,1-.7-1.3,45.7,45.7,0,0,1,3.4-16.3,2,2,0,0,1,.8-.8h.5a1,1,0,0,1,.7.2,57.5,57.5,0,0,0,20.8,7.7,1.6,1.6,0,0,1,1.2,1.5,42.2,42.2,0,0,0,2.7,15.3,1.7,1.7,0,0,1-.3,1.4,1.1,1.1,0,0,1-1.1.6Z"/><path class="c" d="M74.4,78.2A1.6,1.6,0,0,1,73,76.5,43.8,43.8,0,0,1,79.6,59a1.6,1.6,0,0,1,.8-.6,43.7,43.7,0,0,0,20.1-12.8,1.6,1.6,0,0,1,1.1-.5l.7.2a48.3,48.3,0,0,1,12.1,10.4,1.5,1.5,0,0,1-.1,1.9A62.1,62.1,0,0,1,74.6,78.1C74.6,78.2,74.5,78.2,74.4,78.2Z"/><path class="c" d="M67.5,108a91.2,91.2,0,0,1-32.8-6,2,2,0,0,1-.9-.9,47.3,47.3,0,0,1-2.7-15.8V84a1.2,1.2,0,0,1,.7-1.1.8.8,0,0,1,.7-.2h.6A74.6,74.6,0,0,0,60,90.7a1.5,1.5,0,0,1,1.2,1,42.9,42.9,0,0,0,2.6,5.8,42.2,42.2,0,0,0,5.7,8.1,1.6,1.6,0,0,1,.2,1.5,1.4,1.4,0,0,1-1.3.9Z"/><path class="c" d="M78,132.9a47.7,47.7,0,1,1,47.9-47.6A47.8,47.8,0,0,1,78,132.9Zm0-91.7a44.1,44.1,0,1,0,44.4,44.1A44.3,44.3,0,0,0,78,41.2Z"/><path class="c" d="M190.1,77.8H133.5a6.3,6.3,0,0,1-6.3-6.3v-11a6.3,6.3,0,0,1,6.3-6.3h56.6a6.3,6.3,0,0,1,6.3,6.3v11A6.3,6.3,0,0,1,190.1,77.8ZM133.5,57.1a3.4,3.4,0,0,0-3.4,3.4v11a3.5,3.5,0,0,0,3.4,3.5h56.6a3.5,3.5,0,0,0,3.5-3.5v-11a3.5,3.5,0,0,0-3.5-3.4Z"/><path class="c" d="M186.8,123.2H132.6c-3,0-5.4-2.8-5.4-6.3v-11c0-3.5,2.4-6.3,5.4-6.3h54.2c3,0,5.4,2.8,5.4,6.3v11C192.2,120.4,189.8,123.2,186.8,123.2Zm-54.2-20.8c-1.4,0-2.5,1.6-2.5,3.5v11c0,1.9,1.1,3.5,2.5,3.5h54.2c1.4,0,2.6-1.6,2.6-3.5v-11c0-1.9-1.2-3.5-2.6-3.5Z"/><path class="c" d="M237.1,100.6H133.5a6.3,6.3,0,0,1-6.3-6.3V83.2a6.3,6.3,0,0,1,6.3-6.2H237.1a6.3,6.3,0,0,1,6.3,6.2V94.3A6.3,6.3,0,0,1,237.1,100.6ZM133.5,79.8a3.4,3.4,0,0,0-3.4,3.4V94.3a3.4,3.4,0,0,0,3.4,3.4H237.1a3.5,3.5,0,0,0,3.5-3.4V83.2a3.5,3.5,0,0,0-3.5-3.4Z"/><path class="c" d="M139.2,74.1a8,8,0,0,1-5.6-2,6.7,6.7,0,0,1-2.2-5.3,9.6,9.6,0,0,1,.6-3.3,8.7,8.7,0,0,1,1.9-2.8,7.3,7.3,0,0,1,2.7-1.7,8.8,8.8,0,0,1,3.3-.6,7.5,7.5,0,0,1,3.7.9,6.3,6.3,0,0,1,2.8,2.6,1.3,1.3,0,0,1-.4,1.9l-.6.5h.3a1.4,1.4,0,0,1,1,.4,1.8,1.8,0,0,1,.4,1,9.2,9.2,0,0,1-2.2,6.1A7.6,7.6,0,0,1,139.2,74.1Zm-1-9a3,3,0,0,0-.5,1.6c0,.2.1.4.1.6l.3-1.9A.4.4,0,0,1,138.2,65.1Zm2-.9h0Z"/><path class="c" d="M146.3,73.7a1.3,1.3,0,0,1-1.1-.5,1.4,1.4,0,0,1-.3-1.1l2.1-13a1.4,1.4,0,0,1,1.4-1.1h3a1.3,1.3,0,0,1,1.1.5,1.4,1.4,0,0,1,.3,1.1l-2.1,12.9a1.4,1.4,0,0,1-1.4,1.2Z"/><path class="c" d="M156.1,74.1a6,6,0,0,1-4.2-1.5,5.4,5.4,0,0,1-1.6-4.1,6.1,6.1,0,0,1,1.8-4.5,6.3,6.3,0,0,1,4.6-1.8,5.8,5.8,0,0,1,4.2,1.5,5.3,5.3,0,0,1,1.7,4.1,5.8,5.8,0,0,1-1.9,4.5A6.2,6.2,0,0,1,156.1,74.1Zm.6-6.7c-.2,0-.3.1-.4.3s-.3.4-.3.8v.3h.2a.6.6,0,0,0,.5-.2,2.2,2.2,0,0,0,.2-.9v-.2Z"/><path class="c" d="M168,74.1a5,5,0,0,1-2.1-.5h-.1a1.3,1.3,0,0,1-.8.2h-2.8a1.3,1.3,0,0,1-1.1-.5,1.1,1.1,0,0,1-.3-1.1l2-13a1.4,1.4,0,0,1,1.4-1.1h2.9a1.2,1.2,0,0,1,1.1.4,1.4,1.4,0,0,1,.3,1.2l-.4,2.7h1a4.6,4.6,0,0,1,3.5,1.6,5.5,5.5,0,0,1,1.3,3.8,6.4,6.4,0,0,1-1.6,4.5A5.5,5.5,0,0,1,168,74.1Zm-.3-6.7-.5.2c-.1.1-.2.3-.2.8s0,.2.1.3h.3c.2,0,.3,0,.4-.2a.9.9,0,0,0,.3-.7.4.4,0,0,0-.1-.3Z"/><path class="c" d="M177.2,74.1a4.3,4.3,0,0,1-3.4-1.6,5.5,5.5,0,0,1-1.3-3.8,6.8,6.8,0,0,1,1.6-4.6,5.7,5.7,0,0,1,4.2-1.9,5.9,5.9,0,0,1,2.3.5l.8-.2h2.8a1.3,1.3,0,0,1,1.1.5,1.1,1.1,0,0,1,.3,1.1l-1.3,8.4a1.4,1.4,0,0,1-1.4,1.2h-3.5A5.4,5.4,0,0,1,177.2,74.1Zm1.8-6.7-.4.2a1.5,1.5,0,0,0-.3.8.4.4,0,0,0,.1.3h.3c.2,0,.3,0,.4-.2a1.2,1.2,0,0,0,.3-.8.4.4,0,0,0-.1-.3Z"/><path class="c" d="M185.2,73.7a1.3,1.3,0,0,1-1.1-.5,1.1,1.1,0,0,1-.3-1.1l2.1-13a1.4,1.4,0,0,1,1.4-1.1h3a1.3,1.3,0,0,1,1.1.5,2,2,0,0,1,.3,1.1l-2.1,12.9a1.4,1.4,0,0,1-1.4,1.2Z"/><path class="c" d="M139.2,118.7a8,8,0,0,1-5.6-2,6.6,6.6,0,0,1-2.2-5.2,9.7,9.7,0,0,1,.6-3.4,8.3,8.3,0,0,1,1.9-2.7,6.4,6.4,0,0,1,2.7-1.8,8.8,8.8,0,0,1,3.3-.6,7.5,7.5,0,0,1,3.7.9,7,7,0,0,1,2.8,2.6,1.4,1.4,0,0,1-.4,2l-.6.4h.3a1.4,1.4,0,0,1,1,.4,1.8,1.8,0,0,1,.4,1,9.2,9.2,0,0,1-2.2,6.1A7.6,7.6,0,0,1,139.2,118.7Zm-1-9a3,3,0,0,0-.5,1.6c0,.3.1.4.1.6l.3-1.8C138.1,109.9,138.1,109.8,138.2,109.7Zm2-.8h0Z"/><path class="c" d="M146.2,118.4a1.6,1.6,0,0,1-1.1-.5,1.4,1.4,0,0,1-.3-1.2l1.3-8.4a1.4,1.4,0,0,1,1.4-1.2H151a5.7,5.7,0,0,1,1.8-.3h.8a1.1,1.1,0,0,1,.9.6,1.4,1.4,0,0,1,.3,1.1l-.6,2.6a1.3,1.3,0,0,1-.7.9,1,1,0,0,1-.7.2h-1c-.3,0-.3.1-.3.1s-.3.3-.4.9l-.6,3.9a1.4,1.4,0,0,1-1.4,1.2Z"/><path class="c" d="M157.9,118.7a6,6,0,0,1-4.2-1.5,5.4,5.4,0,0,1-1.6-4.1,6.1,6.1,0,0,1,1.8-4.5,6.3,6.3,0,0,1,4.6-1.8,5.8,5.8,0,0,1,4.2,1.5,5.2,5.2,0,0,1,1.7,4.1,5.8,5.8,0,0,1-1.9,4.5A6.2,6.2,0,0,1,157.9,118.7Zm.6-6.6a.4.4,0,0,0-.4.2,1.3,1.3,0,0,0-.3.9v.2h.2a.6.6,0,0,0,.5-.2,1.7,1.7,0,0,0,.2-.9v-.2Z"/><path class="c" d="M168.3,118.7a6,6,0,0,1-3.8-1.2,4,4,0,0,1-1.6-3.4v-1a11.6,11.6,0,0,0,.3-1.6l.5-3.2a1.4,1.4,0,0,1,1.4-1.2h3a1.6,1.6,0,0,1,1.1.5.8.8,0,0,1,.2.4,1.5,1.5,0,0,1,1.4-.9h2.9a1.4,1.4,0,0,1,1.1.5,1.1,1.1,0,0,1,.3,1.1l-.6,4c-.3,2.2-.9,3.6-1.8,4.4a3.7,3.7,0,0,1-2,1.2A6.1,6.1,0,0,1,168.3,118.7Z"/><path class="c" d="M174,122.1a1.6,1.6,0,0,1-1.1-.5,1.2,1.2,0,0,1-.3-1.2l1.9-12.1a1.4,1.4,0,0,1,1.4-1.2h2.8a.8.8,0,0,1,.7.2,5.4,5.4,0,0,1,2.1-.5,4.6,4.6,0,0,1,3.5,1.6,5.5,5.5,0,0,1,1.3,3.8,6.9,6.9,0,0,1-1.6,4.5,5.5,5.5,0,0,1-4.3,2,5.1,5.1,0,0,1-1.7-.3l-.4,2.5a1.4,1.4,0,0,1-1.4,1.2Zm6-10-.4.2a1.5,1.5,0,0,0-.3.8.4.4,0,0,0,.1.3h.3a.5.5,0,0,0,.4-.2,1,1,0,0,0,.3-.8c0-.2-.1-.2-.1-.3Z"/><path class="c" d="M60.1,62.9h-.5A47,47,0,0,1,43,56.7l-.3-.2a1.2,1.2,0,0,1-.7-1,1.4,1.4,0,0,1,.3-1.2l.3-.3A47.5,47.5,0,0,1,70.4,38.8a49.5,49.5,0,0,1,5.4-.6h1.4a1.4,1.4,0,0,1,1.3.9,1.6,1.6,0,0,1-.5,1.7l-1,.7A43.3,43.3,0,0,0,61.6,61.7V62A1.4,1.4,0,0,1,60.1,62.9ZM46.8,54.8a46.5,46.5,0,0,0,12,4.3A46.3,46.3,0,0,1,70.1,42.5,43.8,43.8,0,0,0,46.8,54.8Z"/><path class="c" d="M57.5,78.1h-.7a61.2,61.2,0,0,1-21.9-8.2l-.3-.2a1.3,1.3,0,0,1-.6-1.7v-.3A47.9,47.9,0,0,1,42.6,54l.2-.2a1.6,1.6,0,0,1,1.1-.5l.7.2.3.2a44.1,44.1,0,0,0,15.3,5.6h.4a1.4,1.4,0,0,1,1.1,1.9v.4a42.9,42.9,0,0,0-2.7,14.6v.4a1.4,1.4,0,0,1-1.4,1.4ZM38.1,67.5a59.5,59.5,0,0,0,17.3,6.6,44.8,44.8,0,0,1,2.1-11.6,47.3,47.3,0,0,1-13.1-5A40.2,40.2,0,0,0,38.1,67.5Z"/><path class="c" d="M75,94a1.4,1.4,0,0,1-1.3-1.1v-.3a39.8,39.8,0,0,1-.9-16.1v-.3A1.5,1.5,0,0,1,74,75h.2a59.2,59.2,0,0,0,37.7-19.6l.3-.3a1.6,1.6,0,0,1,1.1-.5h0a1.6,1.6,0,0,1,1.1.5l.3.4a49,49,0,0,1,8.2,14.6v.3a1.2,1.2,0,0,1-.3,1.4l-.2.2A78.4,78.4,0,0,1,75.5,93.9H75Zm1.1-15.7a39.5,39.5,0,0,0,.6,11.9,75.6,75.6,0,0,0,42.4-20,43.5,43.5,0,0,0-5.9-10.8A63.3,63.3,0,0,1,76.1,78.3Z"/><path class="c" d="M67.5,122.4a109,109,0,0,1-20.6-2h-.1l-.7-.4H46a46.7,46.7,0,0,1-12.5-18.8l-.3-.7a1.4,1.4,0,0,1,.3-1.5,1.4,1.4,0,0,1,1-.4H35l.8.3a89.9,89.9,0,0,0,31.7,5.8h1.1a1.2,1.2,0,0,1,1,.4v.2a45.9,45.9,0,0,0,17.2,11.9l1.2.5a1.3,1.3,0,0,1,.9,1.4,1.4,1.4,0,0,1-1.1,1.3l-1.3.2A111.2,111.2,0,0,1,67.5,122.4ZM48.1,117a104.8,104.8,0,0,0,19.5,1.8c4.1,0,8.3-.3,12.4-.7a51.2,51.2,0,0,1-12.4-9.7h-.1a91.9,91.9,0,0,1-29.1-4.7A42.2,42.2,0,0,0,48.1,117Z"/><path class="c" d="M81.3,107.3a1.3,1.3,0,0,1-1.1-.6l-.2-.2a42.8,42.8,0,0,1-2.6-4.2,44.4,44.4,0,0,1-3.8-9.7v-.5a1.4,1.4,0,0,1,.2-1.1,1.1,1.1,0,0,1,1-.6h.5a74.6,74.6,0,0,0,44.7-20.9l.4-.4a2.1,2.1,0,0,1,1-.4h.4a1.9,1.9,0,0,1,1,1l.2.5a48.9,48.9,0,0,1,2.5,15.2c0,.7-.1,1.4-.1,2.1v.2a1.2,1.2,0,0,1-.5,1h-.2a91.6,91.6,0,0,1-42.8,18.6h-.5ZM77.6,93.7a42.3,42.3,0,0,0,3,6.9,17.5,17.5,0,0,0,1.8,2.9,88.1,88.1,0,0,0,39.4-17.1V85.3A42.8,42.8,0,0,0,120.3,74,79.2,79.2,0,0,1,77.6,93.7Z"/><path class="c" d="M94.2,119l-.7-.2h-.1A42.3,42.3,0,0,1,80,106.5l-.3-.5a1.5,1.5,0,0,1-.2-1.3,1.6,1.6,0,0,1,1.1-.9h.6a88.1,88.1,0,0,0,41.2-17.8l.7-.5a1.1,1.1,0,0,1,.8-.3l.7.2a1.1,1.1,0,0,1,.7,1.3v.8a45.6,45.6,0,0,1-6.4,21.6h0c-.2.2-.3.4-.6.5h-.1a103.4,103.4,0,0,1-23.5,9.2h-.5Zm-9.5-12.2a42,42,0,0,0,9.8,8.5,105.8,105.8,0,0,0,21.6-8.6,44.6,44.6,0,0,0,5.3-15.5A94.3,94.3,0,0,1,84.7,106.8Z"/><path class="c" d="M78,132.4A47.4,47.4,0,0,1,46,120l-1-.9a1.6,1.6,0,0,1-.3-1.7,1.4,1.4,0,0,1,1.3-.8h.2l1.4.3a102,102,0,0,0,20,1.9,102,102,0,0,0,18.3-1.6h1a45,45,0,0,0,15.7,2.9H106a1.4,1.4,0,0,1,1.3,1,1.5,1.5,0,0,1-.5,1.6l-1,.7A46.9,46.9,0,0,1,78,132.4ZM53.8,121.5A44.3,44.3,0,0,0,78,128.8a43.5,43.5,0,0,0,20.7-5.2,45.1,45.1,0,0,1-12.6-2.8,114.8,114.8,0,0,1-18.6,1.6A105.1,105.1,0,0,1,53.8,121.5Z"/><path class="c" d="M105.3,123.4h-.5a39,39,0,0,1-11.4-4.6l-.8-.4a1.4,1.4,0,0,1,.3-2.6l.9-.3a98.3,98.3,0,0,0,22.7-8.9l1.2-.6a1,1,0,0,1,.7-.2,1.3,1.3,0,0,1,1,.4,1.5,1.5,0,0,1,.2,1.7l-.7,1.2a46.9,46.9,0,0,1-12.6,14h-.2A1.1,1.1,0,0,1,105.3,123.4Zm-6.2-5.7c1.9.8,3.8,1.4,5.7,2a51.5,51.5,0,0,0,7.1-6.9A109.2,109.2,0,0,1,99.1,117.7Z"/><path class="c" d="M79.9,61.8a1.6,1.6,0,0,1-1.1-.5,1.4,1.4,0,0,1,0-1.7l.5-.8a43.1,43.1,0,0,1,15.4-14l3.2-1.6h.2l.5-.2.7.2h.1a30.7,30.7,0,0,1,3.1,1.7l.4.2a1.4,1.4,0,0,1,.7,1,1.7,1.7,0,0,1-.4,1.2l-.3.3A46.8,46.8,0,0,1,81.3,61.5l-1,.3ZM98.6,46.9l-2.2,1a38.8,38.8,0,0,0-10.1,7.9,43.4,43.4,0,0,0,12.4-8.9Z"/><path class="c" d="M60.2,94h-.6a77.5,77.5,0,0,1-27.9-8.2h-.2a1.6,1.6,0,0,1-.8-1.3V84a46.2,46.2,0,0,1,3.4-16.4l.2-.4a1.4,1.4,0,0,1,.9-.8h.4l.7.2.4.2a59.8,59.8,0,0,0,20.7,7.8h.3a1.4,1.4,0,0,1,1.2,1.4v.4a41.6,41.6,0,0,0,2.6,15.2l.2.6a1.2,1.2,0,0,1-.2,1.3,1.4,1.4,0,0,1-1.1.6ZM34.3,83a74.1,74.1,0,0,0,22.9,7,46.4,46.4,0,0,1-1.9-12.3,62.1,62.1,0,0,1-18.6-6.8A41.3,41.3,0,0,0,34.3,83Z"/><path class="c" d="M74,78.6a1.8,1.8,0,0,1-1-.4,1.5,1.5,0,0,1-.4-1.2v-.5a41.9,41.9,0,0,1,6.6-17.7h.1a1.6,1.6,0,0,1,.8-.6h.1a44.8,44.8,0,0,0,20-12.8l.2-.2a1.2,1.2,0,0,1,1-.5l.8.2.2.2a48.9,48.9,0,0,1,12.2,10.5l.2.2a1.5,1.5,0,0,1-.1,1.9l-.2.2a62.6,62.6,0,0,1-40,20.7H74Zm8-17.3a39.7,39.7,0,0,0-5.4,13.3,59.3,59.3,0,0,0,34.3-18,44.7,44.7,0,0,0-9-7.8A46.8,46.8,0,0,1,82,61.3Z"/><path class="c" d="M67.5,108.4a93.2,93.2,0,0,1-33-6.1h-.1a2,2,0,0,1-.9-.9v-.2a45.1,45.1,0,0,1-2.8-15.9V83.4a1.4,1.4,0,0,1,.7-1.1,1,1,0,0,1,.7-.2h.7l.5.3A75.6,75.6,0,0,0,60,90.4h.2a1.3,1.3,0,0,1,1.2.9v.2a34.7,34.7,0,0,0,2.7,5.9,47.4,47.4,0,0,0,5.5,8l.6.6a1.6,1.6,0,0,1,.2,1.5,1.3,1.3,0,0,1-1.3.8ZM36.6,99.3a89.2,89.2,0,0,0,28,5.4A66.5,66.5,0,0,1,61,99.1a51.2,51.2,0,0,1-2.5-5.3A81.6,81.6,0,0,1,34.3,87,43.1,43.1,0,0,0,36.6,99.3Z"/><path class="c" d="M87.7,88.4h-.4a6.5,6.5,0,0,1-2.6-.8,6.2,6.2,0,0,1-2-1.6,7,7,0,0,1-1.3-2.4,6.3,6.3,0,0,1-.3-2.7,5.9,5.9,0,0,1,.7-2.6,9.1,9.1,0,0,1,1.8-2.1A9,9,0,0,1,86,75a6.6,6.6,0,0,1,2.3-.4h1.1l1.2.3a1,1,0,0,1,.1-.9,1.3,1.3,0,0,1,.7-.8l5.8-2.6h.6a1.4,1.4,0,0,1,.9.3,10,10,0,0,1,.8-1.4,7,7,0,0,1,2-1.8,6.6,6.6,0,0,1,3.2-1.2h.7a5.8,5.8,0,0,1,2.6.5,1.4,1.4,0,0,1,.8.9.9.9,0,0,1,.1.5h.4a1.4,1.4,0,0,1,1.1.5l.2.3c.1,0,.1.2.2.3a7.2,7.2,0,0,1,1.3,5.3,6.6,6.6,0,0,1-3.1,4.3,7.3,7.3,0,0,1-2.6,1.1l-1.3.2-1.4-.2L103,80l.4.8a1.4,1.4,0,0,1,0,1.1,1.8,1.8,0,0,1-.7.8l-5.8,2.6h-.6a1.6,1.6,0,0,1-1.3-.8l-.3-.8-.4.9A6.5,6.5,0,0,1,90.1,88,6.7,6.7,0,0,1,87.7,88.4Z"/><g class="d"><rect class="c" x="55.6" y="23.6" width="64.5" height="100.08" rx="1.4"/></g><path class="c" d="M102.7,123.8A47.3,47.3,0,0,1,61,99.1a58.9,58.9,0,0,1-2.9-6.3,47.1,47.1,0,0,1-2.8-16.6,46.5,46.5,0,0,1,2.9-15.7,45.8,45.8,0,0,1,11.9-18h-.8a1.3,1.3,0,0,1-1.3-.9,1.2,1.2,0,0,1,.4-1.6l1.2-1C79.7,31.4,97.4,25.6,111,25.6a33.5,33.5,0,0,1,8.1.9h.4a1.6,1.6,0,0,1,1,.8,1.1,1.1,0,0,1,0,1.1v.4c-.8,2.2-9.2,12.7-11.2,15s-2.2,3.8-2.4,4.5a4.1,4.1,0,0,1-1,1.8l-.2.3a1.5,1.5,0,0,1-1.1.4,1,1,0,0,1-.7-.2h-.3L101,48.7l-2.5-1.8-2.1,1A39.1,39.1,0,0,0,76.2,77a38.4,38.4,0,0,0,.9,14.7,35.8,35.8,0,0,0,3.5,8.9,41.1,41.1,0,0,0,2.4,3.9,38.2,38.2,0,0,0,12.2,11.1,39.4,39.4,0,0,0,10.4,4.3l.8.2a1.3,1.3,0,0,1,1.1,1,1.5,1.5,0,0,1-.6,1.5l-1.2.9-.8.2h-2.2ZM77.6,38.3a1.4,1.4,0,0,1,.9.8,1.6,1.6,0,0,1-.5,1.7l-1,.7A43.4,43.4,0,0,0,58.9,76.3a41.6,41.6,0,0,0,2.6,15.2,34.7,34.7,0,0,0,2.7,5.9,47.4,47.4,0,0,0,5.5,8,45.9,45.9,0,0,0,17.2,11.9,49.9,49.9,0,0,0,7.8,2.2l-1.3-.8A42.3,42.3,0,0,1,80,106.5a42.8,42.8,0,0,1-2.6-4.2,44.4,44.4,0,0,1-3.8-9.7,39.8,39.8,0,0,1-.9-16.1,41.9,41.9,0,0,1,6.6-17.7,43.1,43.1,0,0,1,15.4-14l3.2-1.6h.2l.5-.2.7.2h.1a36.7,36.7,0,0,1,3.8,2.5,1,1,0,0,0,.5.4,24.8,24.8,0,0,1,2.6-4.5.1.1,0,0,0,.1-.1c2.1-2.3,7-8.7,9.4-12.1a36.8,36.8,0,0,0-4.9-.3C100.7,29.2,87.3,32.9,77.6,38.3Z"/><path class="c" d="M135.1,94.6a1.2,1.2,0,0,1-1-.5,1.5,1.5,0,0,1-.4-1.1l2-12.3a1.4,1.4,0,0,1,1.4-1.2h7.1a1.6,1.6,0,0,1,1.1.5,1.6,1.6,0,0,1,.3,1.2l-.5,2.8a1.1,1.1,0,0,1-.7,1,3,3,0,0,1,.2,1l-.5,2.6a1.3,1.3,0,0,1-.4.9h.1a2.4,2.4,0,0,1,.3,1.2l-.5,2.7a1.4,1.4,0,0,1-1.4,1.2Z"/><path class="c" d="M150,94.6a1.6,1.6,0,0,1-1.1-.5,1.4,1.4,0,0,1-.3-.9v.2a1.4,1.4,0,0,1-1.4,1.2h-3a1.6,1.6,0,0,1-1.1-.5,2,2,0,0,1-.3-1.1l1.4-8.5a1.4,1.4,0,0,1,1.4-1.2h2.8l.7.2a4.6,4.6,0,0,1,2-.5,4.1,4.1,0,0,1,3.1,1.2,4,4,0,0,1,1.1,2.9,6.2,6.2,0,0,1-.2,1.7V89l-.7,4.4a1.4,1.4,0,0,1-1.4,1.2Z"/><path class="c" d="M159.2,98.3a6.7,6.7,0,0,1-3.9-1,4.7,4.7,0,0,1-1.9-3.3,1.1,1.1,0,0,1,.3-1.1,1.2,1.2,0,0,1,.9-.5,5.6,5.6,0,0,1-.7-3,6.5,6.5,0,0,1,1.6-4.5,5.7,5.7,0,0,1,4.2-1.9,4.6,4.6,0,0,1,2.3.6h0a1.1,1.1,0,0,1,.8-.3h2.8a1.6,1.6,0,0,1,1.1.5A1.6,1.6,0,0,1,167,85s-1.1,6.7-1.1,6.9a8.7,8.7,0,0,1-1.4,4.2,5.5,5.5,0,0,1-2.3,1.7A9.4,9.4,0,0,1,159.2,98.3Zm1.2-10c-.2,0-.3,0-.4.2a1,1,0,0,0-.3.8.4.4,0,0,0,.1.3h.3c.2,0,.3-.1.4-.3a1,1,0,0,0,.3-.8c0-.2-.1-.2-.1-.2S160.6,88.3,160.4,88.3Z"/><path class="c" d="M166.5,94.6a1.6,1.6,0,0,1-1.1-.5,1.4,1.4,0,0,1-.3-1.1l1.3-8.5a1.5,1.5,0,0,1,.6-.9,3.2,3.2,0,0,1-.3-1.4,3.2,3.2,0,0,1,.8-2.1,2.9,2.9,0,0,1,2.2-.9,2.9,2.9,0,0,1,2.1.9,2.7,2.7,0,0,1,.9,2.1,2.8,2.8,0,0,1-.6,1.8,1.6,1.6,0,0,1,.2,1l-1.4,8.4a1.4,1.4,0,0,1-1.4,1.2Z"/><path class="c" d="M177.5,94.6a1.2,1.2,0,0,1-1-.5,1.5,1.5,0,0,1-.4-.9v.2a1.4,1.4,0,0,1-1.4,1.2h-3a1.2,1.2,0,0,1-1-.5,1.5,1.5,0,0,1-.4-1.1l1.4-8.5a1.4,1.4,0,0,1,1.4-1.2H176l.7.2a4.3,4.3,0,0,1,5,.7,4,4,0,0,1,1.1,2.9,12.3,12.3,0,0,1-.1,1.7.3.3,0,0,1-.1.2l-.7,4.4a1.4,1.4,0,0,1-1.4,1.2Z"/><path class="c" d="M187.1,94.9a5.7,5.7,0,0,1-4.2-1.5,5.1,5.1,0,0,1-1.6-4.1,6.1,6.1,0,0,1,1.8-4.5,6,6,0,0,1,4.5-1.8,5.7,5.7,0,0,1,4.2,1.7,5.7,5.7,0,0,1,1.6,4.1,2.8,2.8,0,0,1-.1.8v.3a1.4,1.4,0,0,1-1.4,1.2h-.1a1.4,1.4,0,0,1,0,2.1,5.7,5.7,0,0,1-2.1,1.3A7.5,7.5,0,0,1,187.1,94.9Z"/><path class="c" d="M197.3,94.9a6,6,0,0,1-4.2-1.5,5.4,5.4,0,0,1-1.5-4.1,6.4,6.4,0,0,1,1.7-4.5,6.2,6.2,0,0,1,4.6-1.8,5.8,5.8,0,0,1,5.8,5.8c0,.2-.1.4-.1.8v.3a1.4,1.4,0,0,1-1.4,1.2h-.1a1.2,1.2,0,0,1,.4,1.1,1.3,1.3,0,0,1-.4,1,5.4,5.4,0,0,1-2.2,1.3A6.8,6.8,0,0,1,197.3,94.9Z"/><path class="c" d="M203.1,94.6a1.6,1.6,0,0,1-1.1-.5,1.1,1.1,0,0,1-.3-1.1l1.3-8.5a1.4,1.4,0,0,1,1.4-1.2h2.9l.6.2a3.9,3.9,0,0,1,1.8-.4h.8a2.1,2.1,0,0,1,1,.6,2,2,0,0,1,.2,1.1l-.6,2.7a1.3,1.3,0,0,1-.7.8,1.1,1.1,0,0,1-.7.3h-1.3a1.5,1.5,0,0,0-.4,1l-.6,3.8a1.4,1.4,0,0,1-1.4,1.2Z"/><path class="c" d="M210.4,94.6a1.3,1.3,0,0,1-1.1-.5A1.1,1.1,0,0,1,209,93l1.3-8.5a1.1,1.1,0,0,1,.5-.9,3.2,3.2,0,0,1-.3-1.4,3.1,3.1,0,0,1,3-3,3.1,3.1,0,0,1,3.1,3,2.9,2.9,0,0,1-.7,1.8,1.2,1.2,0,0,1,.2,1l-1.3,8.4a1.4,1.4,0,0,1-1.4,1.2Z"/><path class="c" d="M221.4,94.6a1.6,1.6,0,0,1-1.1-.5,1.4,1.4,0,0,1-.3-.9v.2a1.4,1.4,0,0,1-1.4,1.2h-2.9a1.6,1.6,0,0,1-1.1-.5,1.1,1.1,0,0,1-.3-1.1l1.3-8.5a1.4,1.4,0,0,1,1.4-1.2h2.9l.7.2a4.6,4.6,0,0,1,2-.5,3.9,3.9,0,0,1,3,1.2,3.7,3.7,0,0,1,1.2,2.9c0,.4-.1.9-.2,1.7V89l-.7,4.4a1.4,1.4,0,0,1-1.4,1.2Z"/><path class="c" d="M230.6,98.3a6.7,6.7,0,0,1-3.9-1,4.8,4.8,0,0,1-2-3.3,1.5,1.5,0,0,1,.4-1.1,1.1,1.1,0,0,1,.9-.5,5.6,5.6,0,0,1-.7-3,6.5,6.5,0,0,1,1.6-4.5,5.5,5.5,0,0,1,4.2-1.9,4.3,4.3,0,0,1,2.2.6h0a1.3,1.3,0,0,1,.8-.3H237a1.2,1.2,0,0,1,1,.5,1.6,1.6,0,0,1,.4,1.2s-1.1,6.7-1.1,6.9c-.4,2.1-.8,3.5-1.4,4.2a5.9,5.9,0,0,1-2.4,1.7A9.3,9.3,0,0,1,230.6,98.3Zm1.2-10a.6.6,0,0,0-.5.2c-.1.1-.2.3-.2.8a.4.4,0,0,0,.1.3h.2a.5.5,0,0,0,.5-.3,1,1,0,0,0,.3-.8c0-.2-.1-.2-.1-.2S232,88.3,231.8,88.3Z"/><path class="e" d="M59.9,61.1A44.8,44.8,0,0,1,75.9,40a43.5,43.5,0,0,0-5.2.6A45.4,45.4,0,0,0,44,55.2,45.4,45.4,0,0,0,59.9,61.1Z"/><path class="e" d="M57.1,76.2a45.4,45.4,0,0,1,2.8-15.1A45.4,45.4,0,0,1,44,55.2a43.3,43.3,0,0,0-8.2,13.1A60.1,60.1,0,0,0,57.1,76.2Z"/><path class="e" d="M113.3,56.6A60.8,60.8,0,0,1,74.4,76.7a42.2,42.2,0,0,0,.9,15.4,76.7,76.7,0,0,0,45.9-21.4A46.6,46.6,0,0,0,113.3,56.6Z"/><path class="e" d="M67.5,106.6a88.7,88.7,0,0,1-32.3-6,45.3,45.3,0,0,0,12,18,105.1,105.1,0,0,0,20.3,2,104,104,0,0,0,18.7-1.7,44.3,44.3,0,0,1-17.8-12.3Z"/><path class="e" d="M75.3,92.1a41,41,0,0,0,3.7,9.3,40.6,40.6,0,0,0,2.5,4.1,89.5,89.5,0,0,0,42-18.2c0-.7.1-1.3.1-2a47,47,0,0,0-2.4-14.6A76.7,76.7,0,0,1,75.3,92.1Z"/><path class="e" d="M123.5,87.3a89.5,89.5,0,0,1-42,18.2,39.7,39.7,0,0,0,12.8,11.7,104.8,104.8,0,0,0,23.1-9.1A44.6,44.6,0,0,0,123.5,87.3Z"/><path class="e" d="M104.7,121.9a45,45,0,0,1-18.5-3,104,104,0,0,1-18.7,1.7,105.1,105.1,0,0,1-20.3-2,45.6,45.6,0,0,0,30.8,12A44.9,44.9,0,0,0,104.7,121.9Z"/><path class="e" d="M94.3,117.2a39.6,39.6,0,0,0,10.9,4.4,45,45,0,0,0,12.2-13.5A104.8,104.8,0,0,1,94.3,117.2Z"/><path class="e" d="M95.5,46.4A40.5,40.5,0,0,0,80.8,59.8a45.8,45.8,0,0,0,20.8-13.3l-3-1.6Z"/><path class="e" d="M57.1,76.2a60.1,60.1,0,0,1-21.3-7.9,43.7,43.7,0,0,0-3.3,15.8,74.5,74.5,0,0,0,27.3,8A43.6,43.6,0,0,1,57.1,76.2Z"/><path class="e" d="M80.8,59.8a41.5,41.5,0,0,0-6.4,16.9,60.8,60.8,0,0,0,38.9-20.1,47.1,47.1,0,0,0-11.7-10.1A45.8,45.8,0,0,1,80.8,59.8Z"/><path class="e" d="M62.6,98.2a47.8,47.8,0,0,1-2.8-6.1,74.5,74.5,0,0,1-27.3-8v1.2a43.2,43.2,0,0,0,2.7,15.3,88.7,88.7,0,0,0,32.3,6h.9A41.8,41.8,0,0,1,62.6,98.2Z"/><path class="f" d="M78,131.5a46.3,46.3,0,1,1,46.5-46.2A46.4,46.4,0,0,1,78,131.5Zm0-91.7a45.5,45.5,0,1,0,45.8,45.5A45.6,45.6,0,0,0,78,39.8Z"/><path class="g" d="M133.5,55.6h56.6a4.9,4.9,0,0,1,4.9,4.9v11a4.9,4.9,0,0,1-4.9,4.9H133.5a4.9,4.9,0,0,1-4.9-4.9v-11a4.9,4.9,0,0,1,4.9-4.9"/><path class="g" d="M132.6,101h54.2c2.2,0,4,2.2,4,4.9v11c0,2.7-1.8,4.9-4,4.9H132.6c-2.2,0-4-2.2-4-4.9v-11c0-2.7,1.8-4.9,4-4.9"/><path class="e" d="M133.5,78.4H237.1a4.9,4.9,0,0,1,4.9,4.8V94.3a4.8,4.8,0,0,1-4.9,4.8H133.5a4.8,4.8,0,0,1-4.9-4.8V83.2a4.9,4.9,0,0,1,4.9-4.8"/><path class="f" d="M139.5,65.7h6.2a7.8,7.8,0,0,1-1.8,5.1,6.5,6.5,0,0,1-4.7,1.9,7,7,0,0,1-4.7-1.6,5.8,5.8,0,0,1-1.7-4.3,8.1,8.1,0,0,1,.5-2.7,7.8,7.8,0,0,1,1.6-2.4,5.5,5.5,0,0,1,2.2-1.4,8.2,8.2,0,0,1,2.8-.5,6.2,6.2,0,0,1,3.1.7,7.9,7.9,0,0,1,2.3,2.2l-2.7,1.8a3.6,3.6,0,0,0-1.1-1.3,2.9,2.9,0,0,0-1.6-.4,3.6,3.6,0,0,0-2.6,1.1,4.5,4.5,0,0,0-1,2.8,3.4,3.4,0,0,0,.8,2.3,3,3,0,0,0,2.1.8h.9l.8-.3c.3-.2.5-.3.6-.5a2.5,2.5,0,0,0,.4-.7h-2.8Z"/><path class="f" d="M148.4,59.4h3l-2.1,12.9h-3Z"/><path class="f" d="M151.7,68.5a4.8,4.8,0,0,1,1.4-3.5,5.1,5.1,0,0,1,3.6-1.4,4.9,4.9,0,0,1,3.3,1.1,4.1,4.1,0,0,1,1.2,3.1,4.8,4.8,0,0,1-1.4,3.5,5.3,5.3,0,0,1-3.7,1.4,4.4,4.4,0,0,1-3.2-1.2A3.8,3.8,0,0,1,151.7,68.5Zm5-2.5a1.9,1.9,0,0,0-1.5.8,2.4,2.4,0,0,0-.6,1.7,1.7,1.7,0,0,0,.4,1.3,1.6,1.6,0,0,0,1.2.4,1.8,1.8,0,0,0,1.5-.7,2.4,2.4,0,0,0,.6-1.8,1.6,1.6,0,0,0-.4-1.2A1.7,1.7,0,0,0,156.7,66Z"/><path class="f" d="M166.4,63.8a.9.9,0,0,1-.1.5,2.4,2.4,0,0,1-.2.8,4.8,4.8,0,0,1,1.5-1.1,4.2,4.2,0,0,1,1.5-.4,3,3,0,0,1,2.4,1.1,4.1,4.1,0,0,1,1,2.9,5.2,5.2,0,0,1-1.3,3.6,3.9,3.9,0,0,1-3.2,1.5,4.2,4.2,0,0,1-1.5-.4,4.5,4.5,0,0,1-1.4-1.1v1.1h-2.8l2-12.9h2.9Zm3.1,4a1.7,1.7,0,0,0-.5-1.3,2.1,2.1,0,0,0-1.3-.5,1.8,1.8,0,0,0-1.5.7,2.4,2.4,0,0,0-.6,1.7,1.7,1.7,0,0,0,.5,1.3,1.7,1.7,0,0,0,1.3.5,2.1,2.1,0,0,0,1.5-.7A2.5,2.5,0,0,0,169.5,67.8Z"/><path class="f" d="M180.2,71.2a4.9,4.9,0,0,1-1.4,1.1,4.1,4.1,0,0,1-1.6.3,3,3,0,0,1-2.4-1.1,4.1,4.1,0,0,1-.9-2.8,4.8,4.8,0,0,1,1.3-3.6,3.9,3.9,0,0,1,3.1-1.5,2.9,2.9,0,0,1,1.6.4,3.3,3.3,0,0,1,1.3,1.1l.2-1.2h2.8l-1.3,8.4h-2.8Zm-3.3-2.8a1.7,1.7,0,0,0,1.8,1.8,1.8,1.8,0,0,0,1.5-.7,2.4,2.4,0,0,0,.6-1.7A1.7,1.7,0,0,0,179,66a1.8,1.8,0,0,0-1.5.7A2.5,2.5,0,0,0,176.9,68.4Z"/><path class="f" d="M187.3,59.4h3l-2.1,12.9h-3Z"/><path class="f" d="M139.5,110.3h6.2a7.8,7.8,0,0,1-1.8,5.1,6.5,6.5,0,0,1-4.7,1.9,7,7,0,0,1-4.7-1.6,5.7,5.7,0,0,1-1.7-4.2,8.2,8.2,0,0,1,.5-2.8,6.3,6.3,0,0,1,1.6-2.3,5.7,5.7,0,0,1,2.2-1.5,8.2,8.2,0,0,1,2.8-.5,7.4,7.4,0,0,1,3.1.7,7.9,7.9,0,0,1,2.3,2.2l-2.7,1.8a3.6,3.6,0,0,0-1.1-1.3,4.2,4.2,0,0,0-1.6-.4,3.6,3.6,0,0,0-2.6,1.1,4.5,4.5,0,0,0-1,2.8,3.4,3.4,0,0,0,.8,2.3,2.6,2.6,0,0,0,2.1.8h.9a1.9,1.9,0,0,0,.8-.3,1,1,0,0,0,.6-.5,1.6,1.6,0,0,0,.4-.7h-2.8Z"/><path class="f" d="M146.2,116.9l1.3-8.4h2.9l-.2,1.4a4,4,0,0,1,1-1.2,2.9,2.9,0,0,1,1.6-.4h.6l-.6,2.6h-1a2.2,2.2,0,0,0-1.4.5,4.6,4.6,0,0,0-.7,1.7l-.6,3.8Z"/><path class="f" d="M153.5,113.1a4.8,4.8,0,0,1,1.4-3.5,5.2,5.2,0,0,1,3.6-1.4,4.5,4.5,0,0,1,3.3,1.2,3.8,3.8,0,0,1,1.2,3,4.8,4.8,0,0,1-1.4,3.5,5.3,5.3,0,0,1-3.7,1.4,4.4,4.4,0,0,1-3.2-1.2A3.8,3.8,0,0,1,153.5,113.1Zm5-2.5a1.9,1.9,0,0,0-1.5.8,2.8,2.8,0,0,0-.6,1.8,1.6,1.6,0,0,0,.4,1.2,1.7,1.7,0,0,0,1.2.5,1.9,1.9,0,0,0,1.5-.8,2.4,2.4,0,0,0,.6-1.8,1.6,1.6,0,0,0-.4-1.2A1.7,1.7,0,0,0,158.5,110.6Z"/><path class="f" d="M165.1,108.5h3l-.6,3.5c0,.5-.1.8-.1,1.2a1.8,1.8,0,0,0-.1.6,1.2,1.2,0,0,0,.3.9,1.1,1.1,0,0,0,.8.3c.9,0,1.5-1,1.8-2.9v-.3l.6-3.3h2.9l-.6,3.8v.2c-.3,1.8-.7,3-1.4,3.6a4.2,4.2,0,0,1-1.4.9,6.4,6.4,0,0,1-2,.3,4.4,4.4,0,0,1-2.9-.9,2.5,2.5,0,0,1-1.1-2.3v-.8a11.6,11.6,0,0,0,.3-1.6Z"/><path class="f" d="M174,120.7l1.9-12.2h2.8v1.2a3.3,3.3,0,0,1,1.3-1.1,4.7,4.7,0,0,1,1.6-.4,3,3,0,0,1,2.4,1.1,4.1,4.1,0,0,1,1,2.9,5.7,5.7,0,0,1-1.3,3.6,3.9,3.9,0,0,1-3.2,1.4,3,3,0,0,1-2.8-1.5v.8a1.3,1.3,0,0,0-.1.6l-.6,3.6Zm7.8-8.2a2.1,2.1,0,0,0-.5-1.3,1.9,1.9,0,0,0-1.3-.5,2.1,2.1,0,0,0-1.5.7,2.5,2.5,0,0,0-.6,1.7,1.7,1.7,0,0,0,.5,1.3,1.9,1.9,0,0,0,1.3.5,1.8,1.8,0,0,0,1.5-.7A2.4,2.4,0,0,0,181.8,112.5Z"/><path class="h" d="M60.1,61.5h-.3a45.6,45.6,0,0,1-16-6l-.4-.2.3-.4A46.5,46.5,0,0,1,70.6,40.2a31.7,31.7,0,0,1,5.3-.5h1.3l-1.1.7A44.8,44.8,0,0,0,60.3,61.2ZM44.6,55.1a44.6,44.6,0,0,0,15,5.6A46,46,0,0,1,74.7,40.5l-3.9.4A45.6,45.6,0,0,0,44.6,55.1Z"/><path class="h" d="M57.5,76.7H57a61,61,0,0,1-21.4-8l-.3-.2v-.3a48.1,48.1,0,0,1,8.3-13.2l.2-.2.3.2A44.3,44.3,0,0,0,60,60.7h.4v.4a43.3,43.3,0,0,0-2.8,15ZM36.3,68.1a60.2,60.2,0,0,0,20.4,7.7,44.3,44.3,0,0,1,2.7-14.4A47.8,47.8,0,0,1,44,55.7,46.8,46.8,0,0,0,36.3,68.1Z"/><path class="h" d="M75,92.5v-.3a40.5,40.5,0,0,1-.9-15.5v-.3h.3a60.9,60.9,0,0,0,38.6-20l.3-.4.3.4a43.1,43.1,0,0,1,7.9,14.2v.2l-.2.2a77.2,77.2,0,0,1-46,21.5Zm-.2-15.4a39.9,39.9,0,0,0,.8,14.6,76.3,76.3,0,0,0,45.1-21.1,45,45,0,0,0-7.4-13.4A61.8,61.8,0,0,1,74.8,77.1Z"/><path class="h" d="M67.5,121a107.7,107.7,0,0,1-20.4-2H47a45.4,45.4,0,0,1-12.2-18.1l-.3-.8.8.3a90.5,90.5,0,0,0,32.2,5.9h1.2a44.9,44.9,0,0,0,17.7,12.3l1.2.5-1.3.2A106.9,106.9,0,0,1,67.5,121Zm-20.1-2.7a107.3,107.3,0,0,0,37.5.5,46.1,46.1,0,0,1-16.7-11.9h-.7a92,92,0,0,1-31.7-5.6A46,46,0,0,0,47.4,118.3Z"/><path class="h" d="M81.3,105.9v-.2a34.5,34.5,0,0,1-2.5-4.1A36.1,36.1,0,0,1,75,92.2v-.4h.4a76.6,76.6,0,0,0,45.6-21.4l.4-.4.2.6a45.3,45.3,0,0,1,2.4,14.7v2.2h-.1a91.9,91.9,0,0,1-42.2,18.3ZM75.8,92.5a41.4,41.4,0,0,0,3.5,8.8,30.3,30.3,0,0,0,2.4,3.8,90.2,90.2,0,0,0,41.4-18,10.9,10.9,0,0,0,.1-1.8A46.4,46.4,0,0,0,121,71.4,77.4,77.4,0,0,1,75.8,92.5Z"/><path class="h" d="M94.2,117.6h-.1a40.5,40.5,0,0,1-12.9-11.8l-.3-.5h.6A90.1,90.1,0,0,0,123.3,87l.6-.5v.8a45.8,45.8,0,0,1-6.2,21h-.1a104.5,104.5,0,0,1-23.2,9.1Zm-12-11.8a38.6,38.6,0,0,0,12.1,11,104.1,104.1,0,0,0,22.8-9,44.4,44.4,0,0,0,6-19.7A91.4,91.4,0,0,1,82.2,105.8Z"/><path class="h" d="M78,130.9a45.6,45.6,0,0,1-31-12l-1-.9,1.3.3a106,106,0,0,0,38.9.3h.2a44.1,44.1,0,0,0,18.3,3H106l-1,.8A46.4,46.4,0,0,1,78,130.9ZM48.5,119.3a45.5,45.5,0,0,0,55,3.1,44.9,44.9,0,0,1-17.3-3.1A108.5,108.5,0,0,1,48.5,119.3Z"/><path class="h" d="M105.3,122h-.2a42.4,42.4,0,0,1-11-4.5l-.8-.5.9-.2a101.1,101.1,0,0,0,23-9.1l1.2-.6-.7,1.2a45.6,45.6,0,0,1-12.3,13.6Zm-10.1-4.7a46.3,46.3,0,0,0,9.9,3.9,44.4,44.4,0,0,0,11.2-12.1A106,106,0,0,1,95.2,117.3Z"/><path class="h" d="M79.9,60.4l.6-.8A41.4,41.4,0,0,1,95.4,46v0l3.1-1.5h.3l3,1.7.4.2-.3.4a45.8,45.8,0,0,1-21,13.3ZM95.7,46.7a41.7,41.7,0,0,0-14,12.4A44.3,44.3,0,0,0,101,46.6l-2.4-1.3-2.9,1.4Z"/><path class="h" d="M60.4,92.6h-.6a75.4,75.4,0,0,1-27.5-8.1h-.2v-.2a48.6,48.6,0,0,1,3.3-16l.2-.4.4.3a61,61,0,0,0,21.2,7.9h.3v.3A42.7,42.7,0,0,0,60.2,92ZM32.9,83.9a75.4,75.4,0,0,0,26.4,7.8,46.1,46.1,0,0,1-2.6-15.1A59.8,59.8,0,0,1,36,68.8,43.3,43.3,0,0,0,32.9,83.9Z"/><path class="h" d="M74,77.2v-.5a40.4,40.4,0,0,1,6.4-17.1v-.2h.1a45,45,0,0,0,20.6-13.1l.2-.3.3.2a45.9,45.9,0,0,1,11.8,10.2l.2.2-.2.3A61.7,61.7,0,0,1,74.5,77.1Zm7.1-17.1a39.6,39.6,0,0,0-6.2,16.2,60.3,60.3,0,0,0,37.9-19.7A46.3,46.3,0,0,0,101.7,47,46.4,46.4,0,0,1,81.1,60.1Z"/><path class="h" d="M67.5,106.9A92.1,92.1,0,0,1,35,101h-.2a45.6,45.6,0,0,1-2.7-15.5V83.5l.6.2a75.8,75.8,0,0,0,27.2,8.1h.2V92a40.6,40.6,0,0,0,2.7,6h0a44.1,44.1,0,0,0,5.8,8.3l.5.6H67.5Zm-32-6.6a89.4,89.4,0,0,0,32,5.9h.1a41.7,41.7,0,0,1-5.4-7.8h0a44.1,44.1,0,0,1-2.6-5.9,76.9,76.9,0,0,1-26.7-7.8v.6A42.7,42.7,0,0,0,35.5,100.3Z"/><path class="h" d="M105.8,74.6l-1.2-1.8,4.7-3V70c.1,0,.2.1.2.3a5.4,5.4,0,0,1,1.1,4.2,4.9,4.9,0,0,1-2.5,3.4,4.8,4.8,0,0,1-2.1.9,3.7,3.7,0,0,1-2.1,0,4.6,4.6,0,0,1-1.9-.8,5.7,5.7,0,0,1-1.5-1.6,5.2,5.2,0,0,1-.9-2,5,5,0,0,1,.1-2.1,4.6,4.6,0,0,1,.8-1.9,6.1,6.1,0,0,1,1.7-1.5,5.3,5.3,0,0,1,2.5-1,5.1,5.1,0,0,1,2.7.4l-1.4,2.3-1.3-.2-1.2.4a2.5,2.5,0,0,0-1.3,1.8A3.7,3.7,0,0,0,103,75a3.4,3.4,0,0,0,1.9,1.5,2.3,2.3,0,0,0,2.1-.4,2.4,2.4,0,0,0,1.2-1.4,1.8,1.8,0,0,0,0-1.6ZM96.3,84,92,74.6,97.8,72l.9,2-3.3,1.5.8,1.7,3.1-1.4.9,2-3.1,1.4.8,1.6,3.2-1.5,1,2.1Zm-8-1.1-.7-2.1,5.3-1.7v.2c.1.1.1.2.1.4a5.5,5.5,0,0,1-.1,4.4,5.2,5.2,0,0,1-3.3,2.6l-2.3.3a6.6,6.6,0,0,1-2-.6,5.1,5.1,0,0,1-1.6-1.3,7.2,7.2,0,0,1-1.1-1.9,5.7,5.7,0,0,1-.2-2.2,5,5,0,0,1,2-3.6,5.9,5.9,0,0,1,1.9-1.1,6.8,6.8,0,0,1,2.8-.2,5.8,5.8,0,0,1,2.4,1.1l-2,1.9a3.4,3.4,0,0,0-1.2-.6,3,3,0,0,0-1.3.1A2.5,2.5,0,0,0,85.5,80a3.3,3.3,0,0,0,0,2.4,3.1,3.1,0,0,0,1.4,2,2.2,2.2,0,0,0,2.1.2,2.9,2.9,0,0,0,1.6-1A2.3,2.3,0,0,0,91,82Z"/><path class="g" d="M105.2,121.6a41,41,0,0,1-23.7-16.1,40.6,40.6,0,0,1-2.5-4.1,41,41,0,0,1-3.7-9.3,42.2,42.2,0,0,1-.9-15.4,41.5,41.5,0,0,1,6.4-16.9A40.5,40.5,0,0,1,95.5,46.4l3.1-1.5c1,.5,4.9,3.5,5.9,4,1-1.1-.1-1.3,3.3-6.2,2.4-2.6,10.3-12.8,10.9-14.5C104.8,25,82,31.9,70.7,40.6a43.5,43.5,0,0,1,5.2-.6,44.8,44.8,0,0,0-16,21.1,45.4,45.4,0,0,0-2.8,15.1,43.6,43.6,0,0,0,2.7,15.9,47.8,47.8,0,0,0,2.8,6.1,41.8,41.8,0,0,0,5.8,8.4,44.3,44.3,0,0,0,17.8,12.3,45,45,0,0,0,18.5,3l.5-.3"/><g class="i"><rect class="h" x="57" y="25" width="61.7" height="97.25"/></g><path class="f" d="M102.7,122.4a46.3,46.3,0,0,1-34.6-15.6,55.1,55.1,0,0,1-5.9-8.4,47.2,47.2,0,0,1-2.7-6.1,45.1,45.1,0,0,1,0-31.3A45.8,45.8,0,0,1,74.7,40.5l-3.9.4-1.5.3,1.2-.9c11.1-8.6,34.2-15.7,48.3-12.5h.4v.4c-.7,1.8-8.6,12-11,14.7a17.5,17.5,0,0,0-2.7,4.9,2.4,2.4,0,0,1-.7,1.3l-.2.2h-.2l-2.4-1.7-3.3-2.3-2.9,1.4A41.5,41.5,0,0,0,81.1,60a40.4,40.4,0,0,0-6.3,16.8A39,39,0,0,0,75.7,92a40.7,40.7,0,0,0,3.6,9.3c.8,1.3,1.6,2.7,2.5,4a42.3,42.3,0,0,0,12.6,11.6,42.7,42.7,0,0,0,10.9,4.3l.8.2-.7.5c-.1.1-.3.2-.4.4h-2.3ZM77.2,39.6l-1.1.7A44.8,44.8,0,0,0,60.3,61.2a43.3,43.3,0,0,0-2.8,15A42.7,42.7,0,0,0,60.2,92a40.6,40.6,0,0,0,2.7,6,44.1,44.1,0,0,0,5.8,8.3,45.3,45.3,0,0,0,35.1,15.3,37.7,37.7,0,0,1-9.7-4.1,40.5,40.5,0,0,1-12.9-11.8,34.5,34.5,0,0,1-2.5-4.1A36.1,36.1,0,0,1,75,92.2a40.9,40.9,0,0,1,5.5-32.6A41.4,41.4,0,0,1,95.4,46l3.1-1.5h.3a31.9,31.9,0,0,1,3.5,2.5l2.1,1.4a3.4,3.4,0,0,0,.3-.8,17.5,17.5,0,0,1,2.8-5.1h0a168.9,168.9,0,0,0,10.7-14C104.7,25.6,83.4,32,72.1,40a24.3,24.3,0,0,1,3.8-.3Z"/><path class="h" d="M138.9,90.5h3.8l-.5,2.7h-7.1l2-12.3h7.1l-.5,2.9h-3.8l-.3,2h3.6l-.5,2.6h-3.5Z"/><path class="h" d="M144.2,93.2l1.4-8.5h2.8l-.2,1.4a7.9,7.9,0,0,1,1.4-1.3,4,4,0,0,1,1.5-.3,2.8,2.8,0,0,1,2.1.7,2.4,2.4,0,0,1,.7,1.9c0,.3-.1.8-.2,1.5h0l-.7,4.5h-3l.7-4.5c0-.1.1-.2.1-.4V88a1,1,0,0,0-.3-.8,1.2,1.2,0,0,0-.9-.3,1.7,1.7,0,0,0-1.2.5,3.8,3.8,0,0,0-.6,1.8l-.6,4Z"/><path class="h" d="M164.6,91.2a4.3,4.3,0,0,0-.1.5c-.3,1.8-.6,3-1.1,3.5a4,4,0,0,1-1.8,1.3,6.1,6.1,0,0,1-2.4.4,5.7,5.7,0,0,1-3.1-.8,3.2,3.2,0,0,1-1.3-2.3h3.1a1.2,1.2,0,0,0,.4.8,1.7,1.7,0,0,0,1,.3,2,2,0,0,0,1.5-.6,3.4,3.4,0,0,0,.7-1.6v-.8a4.5,4.5,0,0,1-1.3,1.1,4.1,4.1,0,0,1-1.6.3,3.1,3.1,0,0,1-2.5-1.1,4.1,4.1,0,0,1-.9-2.8,4.8,4.8,0,0,1,1.3-3.5,3.8,3.8,0,0,1,3.1-1.4,4.1,4.1,0,0,1,1.6.3,4.5,4.5,0,0,1,1.3,1.1l.2-1.2h2.8Zm-6.3-1.9a2.1,2.1,0,0,0,.5,1.3,1.9,1.9,0,0,0,1.3.5,2.1,2.1,0,0,0,1.5-.7,2.8,2.8,0,0,0,.6-1.8,1.7,1.7,0,0,0-.5-1.2,1.4,1.4,0,0,0-1.3-.5,1.8,1.8,0,0,0-1.5.7A2.4,2.4,0,0,0,158.3,89.3Z"/><path class="h" d="M166.5,93.2l1.3-8.5h3.1l-1.4,8.5Zm1.6-11a1.5,1.5,0,0,1,.4-1.1,1.7,1.7,0,0,1,1.2-.5,1.7,1.7,0,0,1,1.6,1.6,1.8,1.8,0,0,1-.5,1.2,1.5,1.5,0,0,1-1.1.4,1.6,1.6,0,0,1-1.2-.4A1.7,1.7,0,0,1,168.1,82.2Z"/><path class="h" d="M171.7,93.2l1.4-8.5H176l-.3,1.4a7.9,7.9,0,0,1,1.4-1.3,4,4,0,0,1,1.5-.3,2.8,2.8,0,0,1,2.1.7,2.4,2.4,0,0,1,.7,1.9,9.9,9.9,0,0,1-.1,1.5c0,.1,0,.1-.1.1l-.7,4.5h-3l.7-4.5c.1-.1.1-.2.1-.4V88a1,1,0,0,0-.3-.8,1.1,1.1,0,0,0-.8-.3,1.7,1.7,0,0,0-1.3.5,3.8,3.8,0,0,0-.6,1.8l-.6,4Z"/><path class="h" d="M185.5,89.7v.2a2.1,2.1,0,0,0,.4,1.2,1.6,1.6,0,0,0,1.2.4l1.1-.2a3.5,3.5,0,0,0,1-.8l1.6,1.6a4.6,4.6,0,0,1-1.6,1.1,7.6,7.6,0,0,1-2.1.3,4.4,4.4,0,0,1-3.3-1.1,4.2,4.2,0,0,1-1.1-3.1,4.5,4.5,0,0,1,1.4-3.5,4.6,4.6,0,0,1,3.5-1.3,4.4,4.4,0,0,1,3.2,1.2,4.1,4.1,0,0,1,1.2,3.1,5.6,5.6,0,0,0-.1.7v.2Zm3.6-1.7a1.2,1.2,0,0,0-.4-1.1,1.7,1.7,0,0,0-2.2,0,1.9,1.9,0,0,0-.8,1.1Z"/><path class="h" d="M195.8,89.7v.2a1.4,1.4,0,0,0,1.6,1.6l1.1-.2,1-.8,1.6,1.6a5.7,5.7,0,0,1-1.6,1.1,7.8,7.8,0,0,1-2.2.3,4.3,4.3,0,0,1-3.2-1.1,4.2,4.2,0,0,1-1.1-3.1,4.8,4.8,0,0,1,1.3-3.5,4.8,4.8,0,0,1,3.6-1.3,4.1,4.1,0,0,1,4.3,4.3v.9Zm3.6-1.7a1.6,1.6,0,0,0-.4-1.1,1.5,1.5,0,0,0-1.1-.4,1.7,1.7,0,0,0-1.2.4A2.3,2.3,0,0,0,196,88Z"/><path class="h" d="M203.1,93.2l1.3-8.5h2.9l-.2,1.5a2.5,2.5,0,0,1,1-1.2,3,3,0,0,1,1.6-.5h.6l-.6,2.6h-1a1.8,1.8,0,0,0-1.4.6,4,4,0,0,0-.7,1.6l-.6,3.9Z"/><path class="h" d="M210.4,93.2l1.3-8.5h3l-1.3,8.5Zm1.5-11a1.7,1.7,0,0,1,1.6-1.6,1.7,1.7,0,0,1,1.2.5,1.5,1.5,0,0,1,.4,1.1,1.4,1.4,0,0,1-1.6,1.6,1.5,1.5,0,0,1-1.1-.4A1.8,1.8,0,0,1,211.9,82.2Z"/><path class="h" d="M215.6,93.2l1.3-8.5h2.9l-.2,1.4a5.5,5.5,0,0,1,1.4-1.3,3.3,3.3,0,0,1,1.5-.3,2.6,2.6,0,0,1,2,.7,2.4,2.4,0,0,1,.8,1.9c0,.3-.1.8-.2,1.5h0l-.7,4.5h-3l.7-4.5v-.4a.4.4,0,0,0,.1-.3,1,1,0,0,0-.3-.8,1.2,1.2,0,0,0-.9-.3,1.7,1.7,0,0,0-1.2.5,5.2,5.2,0,0,0-.7,1.8l-.6,4Z"/><path class="h" d="M235.9,91.2a1.1,1.1,0,0,1-.1.5,7.7,7.7,0,0,1-1,3.5,4.6,4.6,0,0,1-1.8,1.3,6.1,6.1,0,0,1-2.4.4,5.4,5.4,0,0,1-3.1-.8,3.3,3.3,0,0,1-1.4-2.3h3.2a.9.9,0,0,0,.4.8,1.2,1.2,0,0,0,.9.3,1.8,1.8,0,0,0,1.5-.6,2.6,2.6,0,0,0,.7-1.6v-.8a4.5,4.5,0,0,1-1.3,1.1,3.8,3.8,0,0,1-1.6.3,2.9,2.9,0,0,1-2.4-1.1,4.1,4.1,0,0,1-.9-2.8,5.1,5.1,0,0,1,1.2-3.5,4,4,0,0,1,3.2-1.4,3,3,0,0,1,2.8,1.4l.2-1.2H237Zm-6.2-1.9a1.7,1.7,0,0,0,1.7,1.8,2.4,2.4,0,0,0,1.6-.7,2.8,2.8,0,0,0,.6-1.8,1.7,1.7,0,0,0-.5-1.2,1.5,1.5,0,0,0-1.3-.5,1.8,1.8,0,0,0-1.5.7A2.4,2.4,0,0,0,229.7,89.3Z"/><rect class="j" x="459.4" y="34.6" width="355.5" height="52.05" rx="4"/></svg>