<svg xmlns="http://www.w3.org/2000/svg" xmlns:xlink="http://www.w3.org/1999/xlink" viewBox="0 0 595.28 102.79"><defs><style>.cls-1{fill:none;}.cls-2,.cls-7,.cls-8{fill:#ccc;}.cls-2{clip-rule:evenodd;}.cls-3{fill:#fff;}.cls-4{clip-path:url(#clip-path);}.cls-5,.cls-6{fill:#2e3191;}.cls-5,.cls-7{fill-rule:evenodd;}.cls-9{clip-path:url(#clip-path-2);}.cls-10{fill:#dadada;}</style><clipPath id="clip-path"><path class="cls-1" d="M84.08,88.86a28.07,28.07,0,0,1-7.46-3A27.59,27.59,0,0,1,66.23,75.13a27.38,27.38,0,0,1-3.1-16.83A27.6,27.6,0,0,1,77.5,37.62c.69-.37,1.39-.71,2.09-1,.69.35,3.31,2.37,4,2.77.72-.8,0-.9,2.29-4.23,1.59-1.81,7-8.72,7.42-9.9-9.46-2.18-25,2.55-32.7,8.43a31.85,31.85,0,0,1,3.55-.37A30.87,30.87,0,0,0,51.31,58a30.41,30.41,0,0,0,1.86,10.83A29.92,29.92,0,0,0,55,72.93,31.06,31.06,0,0,0,83.76,89.09l.32-.23"/></clipPath><clipPath id="clip-path-2"><path class="cls-2" d="M84.08,88.86a28.07,28.07,0,0,1-7.46-3A27.59,27.59,0,0,1,66.23,75.13a27.38,27.38,0,0,1-3.1-16.83A27.6,27.6,0,0,1,77.5,37.62c.69-.37,1.39-.71,2.09-1,.69.35,3.31,2.37,4,2.77.72-.8,0-.9,2.29-4.23,1.59-1.81,7-8.72,7.42-9.9-9.46-2.18-25,2.55-32.7,8.43a31.85,31.85,0,0,1,3.55-.37A30.87,30.87,0,0,0,51.31,58a30.41,30.41,0,0,0,1.86,10.83A29.92,29.92,0,0,0,55,72.93,31.06,31.06,0,0,0,83.76,89.09l.32-.23"/></clipPath></defs><g id="Calque_2" data-name="Calque 2"><g id="Calque_1-2" data-name="Calque 1"><path class="cls-3" d="M53.22,49.06,53,49a32.25,32.25,0,0,1-11.34-4.2,1.39,1.39,0,0,1-.67-1,1.41,1.41,0,0,1,.34-1.16,32.61,32.61,0,0,1,19-10.41,30.68,30.68,0,0,1,3.71-.38h.06A1.42,1.42,0,0,1,65,34.46,29.32,29.32,0,0,0,54.54,48.13,1.4,1.4,0,0,1,53.22,49.06Z"/><path class="cls-3" d="M51.31,59.38l-.24,0a42.85,42.85,0,0,1-15-5.61A1.41,1.41,0,0,1,35.49,52a32.17,32.17,0,0,1,5.82-9.32,1.47,1.47,0,0,1,1.06-.47,1.4,1.4,0,0,1,.73.21,29.56,29.56,0,0,0,10.35,3.83,1.4,1.4,0,0,1,1.09,1.88A29.6,29.6,0,0,0,52.73,58a1.42,1.42,0,0,1-1.42,1.4Z"/><path class="cls-3" d="M63.73,70.2a1.41,1.41,0,0,1-1.37-1.06,28.66,28.66,0,0,1-.64-11A1.43,1.43,0,0,1,63,56.89,40.06,40.06,0,0,0,88.52,43.65a1.42,1.42,0,0,1,1.06-.47h0a1.44,1.44,0,0,1,1.07.51,32,32,0,0,1,5.61,10.05,1.41,1.41,0,0,1-.35,1.47,53.65,53.65,0,0,1-32.06,15Z"/><path class="cls-3" d="M58.42,89.59a74,74,0,0,1-14.11-1.36,1.46,1.46,0,0,1-.68-.34A32.3,32.3,0,0,1,35,75.06a1.42,1.42,0,0,1,1.83-1.81,60.32,60.32,0,0,0,21.55,3.94H59a1.43,1.43,0,0,1,1.06.48,29.6,29.6,0,0,0,11.6,8,1.42,1.42,0,0,1-.26,2.72A74,74,0,0,1,58.42,89.59Z"/><path class="cls-3" d="M67.94,79.3a1.42,1.42,0,0,1-1.16-.6A28.65,28.65,0,0,1,65,75.8a29,29,0,0,1-2.62-6.66A1.43,1.43,0,0,1,62.57,68a1.45,1.45,0,0,1,1-.6A50.89,50.89,0,0,0,94,53.19a1.44,1.44,0,0,1,1-.41,1.86,1.86,0,0,1,.33,0,1.44,1.44,0,0,1,1,.92A32.06,32.06,0,0,1,98,64.12c0,.48,0,1,0,1.45a1.42,1.42,0,0,1-.54,1.06A63.31,63.31,0,0,1,68.15,79.29Z"/><path class="cls-3" d="M76.62,87.26a1.41,1.41,0,0,1-.72-.19,28.86,28.86,0,0,1-9.12-8.37,1.41,1.41,0,0,1,.94-2.21,60.38,60.38,0,0,0,28-12.1,1.42,1.42,0,0,1,1.53-.14A1.4,1.4,0,0,1,98,65.57a32.15,32.15,0,0,1-4.37,14.8,1.64,1.64,0,0,1-.55.53A73.2,73.2,0,0,1,77,87.22,1.47,1.47,0,0,1,76.62,87.26Z"/><path class="cls-3" d="M65.56,96.38a32.45,32.45,0,0,1-21.93-8.49,1.42,1.42,0,0,1,.95-2.47l.28,0a70.59,70.59,0,0,0,13.56,1.31A71.24,71.24,0,0,0,70.9,85.65l.25,0a1.44,1.44,0,0,1,.51.09,29.68,29.68,0,0,0,10.7,2c.45,0,.89,0,1.34,0h.06a1.41,1.41,0,0,1,.83,2.56A32.27,32.27,0,0,1,65.56,96.38Z"/><path class="cls-3" d="M84.08,90.28a2.09,2.09,0,0,1-.34,0,29.66,29.66,0,0,1-7.84-3.17,1.44,1.44,0,0,1-.69-1.42,1.42,1.42,0,0,1,1.05-1.18A69.66,69.66,0,0,0,91.69,78.4a1.45,1.45,0,0,1,.67-.17,1.42,1.42,0,0,1,1.23,2.14A32.4,32.4,0,0,1,84.93,90,1.47,1.47,0,0,1,84.08,90.28Z"/><path class="cls-3" d="M67.47,48.16A1.41,1.41,0,0,1,66.29,46a29.18,29.18,0,0,1,10.54-9.59c.72-.39,1.46-.75,2.2-1.07a1.38,1.38,0,0,1,.56-.12,1.44,1.44,0,0,1,.64.16c.72.36,1.43.75,2.12,1.17a1.4,1.4,0,0,1,.32,2.15A32.41,32.41,0,0,1,67.88,48.1,1.45,1.45,0,0,1,67.47,48.16Z"/><path class="cls-3" d="M53,70.2A53.31,53.31,0,0,1,33.9,64.57a1.44,1.44,0,0,1-.77-1.3A31.78,31.78,0,0,1,35.49,52a1.4,1.4,0,0,1,1.31-.88,1.46,1.46,0,0,1,.73.2,39.76,39.76,0,0,0,14,5.24A1.43,1.43,0,0,1,52.73,58,28.85,28.85,0,0,0,54.5,68.3a1.42,1.42,0,0,1-1.33,1.91Z"/><path class="cls-3" d="M63.13,59.72a1.42,1.42,0,0,1-1.41-1.61A29.41,29.41,0,0,1,66.29,46a1.38,1.38,0,0,1,.77-.57,29.6,29.6,0,0,0,13.5-8.62,1.39,1.39,0,0,1,1-.47,1.41,1.41,0,0,1,.74.21,32.51,32.51,0,0,1,8.32,7.18,1.42,1.42,0,0,1,0,1.85A43,43,0,0,1,63.28,59.71Z"/><path class="cls-3" d="M58.42,80A63.19,63.19,0,0,1,35.86,75.9a1.39,1.39,0,0,1-.82-.84,32,32,0,0,1-1.92-10.94c0-.29,0-.57,0-.85a1.4,1.4,0,0,1,.7-1.18,1.33,1.33,0,0,1,.72-.2,1.51,1.51,0,0,1,.65.15,50.27,50.27,0,0,0,18.11,5.34,1.41,1.41,0,0,1,1.19.92,29.11,29.11,0,0,0,1.78,4,29.71,29.71,0,0,0,3.78,5.42A1.42,1.42,0,0,1,59,80Z"/><path class="cls-3" d="M65.56,97a32.92,32.92,0,1,1,33.1-32.91A33,33,0,0,1,65.56,97Zm0-62.48A29.57,29.57,0,1,0,95.3,64.12,29.69,29.69,0,0,0,65.56,34.55Z"/><path class="cls-3" d="M141.9,59.48H103.35a4.74,4.74,0,0,1-4.74-4.72V47.24a4.74,4.74,0,0,1,4.74-4.72H141.9a4.73,4.73,0,0,1,4.74,4.72v7.52A4.73,4.73,0,0,1,141.9,59.48ZM103.35,45.36a1.89,1.89,0,0,0-1.9,1.88v7.52a1.9,1.9,0,0,0,1.9,1.89H141.9a1.9,1.9,0,0,0,1.91-1.89V47.24a1.89,1.89,0,0,0-1.91-1.88Z"/><path class="cls-3" d="M139.63,90.39H102.76a4.47,4.47,0,0,1-4.15-4.72V78.15a4.47,4.47,0,0,1,4.15-4.72h36.87a4.47,4.47,0,0,1,4.14,4.72v7.52A4.47,4.47,0,0,1,139.63,90.39ZM102.76,76.27c-.7,0-1.31.88-1.31,1.88v7.52c0,1,.61,1.89,1.31,1.89h36.87c.69,0,1.3-.88,1.3-1.89V78.15c0-1-.61-1.88-1.3-1.88Z"/><path class="cls-3" d="M173.93,75H103.35a4.73,4.73,0,0,1-4.74-4.72V62.73A4.74,4.74,0,0,1,103.35,58h70.58a4.74,4.74,0,0,1,4.74,4.72v7.52A4.73,4.73,0,0,1,173.93,75ZM103.35,60.85a1.89,1.89,0,0,0-1.9,1.88v7.52a1.9,1.9,0,0,0,1.9,1.89h70.58a1.91,1.91,0,0,0,1.91-1.89V62.73a1.9,1.9,0,0,0-1.91-1.88Z"/><path class="cls-3" d="M107.2,56.94a5.88,5.88,0,0,1-4.12-1.45,5.13,5.13,0,0,1-1.63-3.93,6.45,6.45,0,0,1,.47-2.43,6.08,6.08,0,0,1,1.34-2,5.89,5.89,0,0,1,2-1.3,6.61,6.61,0,0,1,2.41-.43,5.81,5.81,0,0,1,2.77.64,5.7,5.7,0,0,1,2.07,1.94,1.41,1.41,0,0,1-.08,1.67,1.06,1.06,0,0,1,.2.17,1.43,1.43,0,0,1,.4,1,6.55,6.55,0,0,1-1.61,4.42A5.54,5.54,0,0,1,107.2,56.94Z"/><path class="cls-3" d="M112.07,56.71a1.41,1.41,0,0,1-1.4-1.64l1.41-8.82a1.41,1.41,0,0,1,1.4-1.19h2.06a1.41,1.41,0,0,1,1.39,1.64l-1.42,8.82a1.41,1.41,0,0,1-1.39,1.19Z"/><path class="cls-3" d="M118.72,57a4.36,4.36,0,0,1-3.14-1.17,4.1,4.1,0,0,1-1.26-3.09,4.65,4.65,0,0,1,1.39-3.41,4.75,4.75,0,0,1,3.45-1.34,4.52,4.52,0,0,1,3.19,1.16,4.16,4.16,0,0,1,1.27,3.12,4.61,4.61,0,0,1-1.41,3.4A4.86,4.86,0,0,1,118.72,57Z"/><path class="cls-3" d="M126.87,56.94a3.69,3.69,0,0,1-1.55-.34,1.46,1.46,0,0,1-.55.11h-1.9a1.41,1.41,0,0,1-1.4-1.64l1.41-8.82a1.41,1.41,0,0,1,1.4-1.19h2a1.41,1.41,0,0,1,1.4,1.64L127.45,48h.16a3.5,3.5,0,0,1,2.72,1.24,4.25,4.25,0,0,1,1,2.85,5,5,0,0,1-1.21,3.41A4.19,4.19,0,0,1,126.87,56.94Z"/><path class="cls-3" d="M133.13,56.92a3.43,3.43,0,0,1-2.71-1.24,4.25,4.25,0,0,1-1-2.85,5.05,5.05,0,0,1,1.21-3.42A4.23,4.23,0,0,1,133.88,48a3.72,3.72,0,0,1,1.5.3,1.31,1.31,0,0,1,.56-.12h1.94a1.42,1.42,0,0,1,1.4,1.64l-.92,5.75a1.41,1.41,0,0,1-1.4,1.19h-1.9a1.41,1.41,0,0,1-.45-.07A3.9,3.9,0,0,1,133.13,56.92Z"/><path class="cls-3" d="M138.55,56.71a1.41,1.41,0,0,1-1.4-1.64l1.41-8.82a1.42,1.42,0,0,1,1.4-1.19H142a1.41,1.41,0,0,1,1.4,1.64L142,55.52a1.42,1.42,0,0,1-1.4,1.19Z"/><path class="cls-3" d="M107.2,87.32a5.86,5.86,0,0,1-4.12-1.45,5.1,5.1,0,0,1-1.63-3.93,6.44,6.44,0,0,1,.47-2.42,6.08,6.08,0,0,1,1.34-2,5.75,5.75,0,0,1,2-1.3,6.65,6.65,0,0,1,2.41-.44,5.84,5.84,0,0,1,2.77.65,5.75,5.75,0,0,1,2.07,1.93,1.43,1.43,0,0,1-.08,1.68,1.56,1.56,0,0,1,.2.16,1.45,1.45,0,0,1,.4,1,6.55,6.55,0,0,1-1.61,4.42A5.55,5.55,0,0,1,107.2,87.32Z"/><path class="cls-3" d="M112,87.1a1.4,1.4,0,0,1-1.08-.5,1.42,1.42,0,0,1-.32-1.14l.92-5.75a1.41,1.41,0,0,1,1.4-1.19h1.95a1.61,1.61,0,0,1,.44.06,3.6,3.6,0,0,1,1.2-.2l.28,0a2,2,0,0,1,.34,0,1.39,1.39,0,0,1,1.15,1.7l-.4,1.81a1.44,1.44,0,0,1-.63.89,1.46,1.46,0,0,1-.76.22,1.65,1.65,0,0,1-.31,0l-.25,0h0a1.63,1.63,0,0,0-.07.31l-.41,2.61a1.43,1.43,0,0,1-1.4,1.2Z"/><path class="cls-3" d="M120,87.33a4.4,4.4,0,0,1-3.15-1.16,4.11,4.11,0,0,1-1.26-3.09,4.62,4.62,0,0,1,1.39-3.41,4.72,4.72,0,0,1,3.45-1.35,4.48,4.48,0,0,1,3.19,1.17,4.15,4.15,0,0,1,1.27,3.11A4.58,4.58,0,0,1,123.44,86,4.85,4.85,0,0,1,120,87.33Z"/><path class="cls-3" d="M127.06,87.32a4.6,4.6,0,0,1-2.89-.87,3.31,3.31,0,0,1-1.28-2.68c0-.19,0-.44,0-.74s.09-.62.17-1.13l.36-2.19a1.41,1.41,0,0,1,1.4-1.19h2a1.46,1.46,0,0,1,.92.33,1.37,1.37,0,0,1,.91-.33h2a1.41,1.41,0,0,1,1.4,1.64l-.42,2.7a5.71,5.71,0,0,1-1.37,3.28,4,4,0,0,1-1.53.91A5.52,5.52,0,0,1,127.06,87.32Z"/><path class="cls-3" d="M130.91,89.64a1.42,1.42,0,0,1-1.4-1.64l1.33-8.29a1.4,1.4,0,0,1,1.39-1.19h1.93a1.5,1.5,0,0,1,.47.08,3.86,3.86,0,0,1,1.43-.27,3.46,3.46,0,0,1,2.71,1.24,4.25,4.25,0,0,1,1,2.85,5,5,0,0,1-1.21,3.41,4.19,4.19,0,0,1-3.23,1.47,4.07,4.07,0,0,1-.79-.08l-.19,1.22a1.42,1.42,0,0,1-1.4,1.2Z"/><path class="cls-3" d="M53.38,49.35l-.23,0-.21,0A32.41,32.41,0,0,1,41.5,45.06l-.26-.16a1.41,1.41,0,0,1-.67-1,1.44,1.44,0,0,1,.34-1.16l.21-.23A32.78,32.78,0,0,1,60.3,32a33.31,33.31,0,0,1,3.75-.39l.92,0a1.42,1.42,0,0,1,.83,2.57l-.7.5A28.94,28.94,0,0,0,54.79,48.22l-.08.2A1.41,1.41,0,0,1,53.38,49.35Zm-8.3-6.13a29.23,29.23,0,0,0,7.09,2.52,32.43,32.43,0,0,1,6.59-10A29.61,29.61,0,0,0,45.08,43.22Z"/><path class="cls-3" d="M51.56,59.68l-.24,0-.29,0A43,43,0,0,1,35.93,54l-.19-.12a1.42,1.42,0,0,1-.58-1.74l.09-.2a32.37,32.37,0,0,1,5.87-9.4l.14-.16a1.43,1.43,0,0,1,1.06-.47,1.49,1.49,0,0,1,.73.2l.18.12A29.3,29.3,0,0,0,53.49,46l.31,0a1.44,1.44,0,0,1,1,.69,1.41,1.41,0,0,1,.1,1.2l-.1.29A29.13,29.13,0,0,0,53,58v.3a1.42,1.42,0,0,1-1.42,1.4ZM38.93,51.84a39.53,39.53,0,0,0,10.79,4.1,32.5,32.5,0,0,1,1.3-7,32.06,32.06,0,0,1-8.28-3.14A29.06,29.06,0,0,0,38.93,51.84Z"/><path class="cls-3" d="M63.54,70.48a1.43,1.43,0,0,1-1.38-1.06l0-.22a28.93,28.93,0,0,1-.64-11.12l0-.2a1.42,1.42,0,0,1,1.25-1.22l.2,0A39.88,39.88,0,0,0,88.33,43.48l.19-.22a1.44,1.44,0,0,1,1.06-.48h0a1.42,1.42,0,0,1,1.07.52l.19.23a32.42,32.42,0,0,1,5.66,10.13l0,.15a1.43,1.43,0,0,1-.35,1.47l-.12.12A54,54,0,0,1,63.9,70.45l-.22,0Zm1.11-10.69A25.64,25.64,0,0,0,65,67a50.71,50.71,0,0,0,28-13.2,29.13,29.13,0,0,0-3.54-6.57A43.2,43.2,0,0,1,64.65,59.79Z"/><path class="cls-3" d="M58.42,89.85a73.64,73.64,0,0,1-14.16-1.37,1.72,1.72,0,0,1-.76-.36,32.75,32.75,0,0,1-8.71-13l-.19-.53a1.42,1.42,0,0,1,.34-1.49,1.41,1.41,0,0,1,1-.41,1.47,1.47,0,0,1,.5.09L37,73a60,60,0,0,0,21.46,3.93h.7a1.42,1.42,0,0,1,1.06.49l.08.08a29.23,29.23,0,0,0,11.49,8l.86.33a1.42,1.42,0,0,1-.26,2.72l-.9.16A73.58,73.58,0,0,1,58.42,89.85ZM45.37,85.29a70.9,70.9,0,0,0,13.06,1.2h0c2.36,0,4.72-.11,7.06-.34a32.81,32.81,0,0,1-7.23-5.87,63.53,63.53,0,0,1-18.83-2.87A29.5,29.5,0,0,0,45.37,85.29Z"/><path class="cls-3" d="M67.82,79.58a1.42,1.42,0,0,1-1.16-.6l-.09-.13a29.45,29.45,0,0,1-4.46-9.65L62,68.91a1.43,1.43,0,0,1,1.24-1.76l.29,0A50.61,50.61,0,0,0,93.77,53l.29-.28a1.44,1.44,0,0,1,1-.41,1.86,1.86,0,0,1,.33,0,1.42,1.42,0,0,1,1,.92l.14.39a32.49,32.49,0,0,1,1.72,10.46c0,.48,0,1,0,1.47v.11a1.39,1.39,0,0,1-.55,1l-.09.08A63.46,63.46,0,0,1,68.19,79.54l-.15,0ZM65.9,70.21a26,26,0,0,0,1.8,4.12c.32.59.66,1.17,1,1.73A60.23,60.23,0,0,0,94.9,64.67v-.55a29,29,0,0,0-.81-6.85A54.18,54.18,0,0,1,65.9,70.21Z"/><path class="cls-3" d="M76.58,87.54a1.45,1.45,0,0,1-.71-.19l-.1-.06a29.14,29.14,0,0,1-9.2-8.44l-.24-.34a1.42,1.42,0,0,1,.94-2.21l.41-.07a60.09,60.09,0,0,0,27.84-12l.44-.34a1.39,1.39,0,0,1,.87-.3,1.51,1.51,0,0,1,.65.15A1.44,1.44,0,0,1,98.25,65l0,.56a32.32,32.32,0,0,1-4.41,14.9,1.7,1.7,0,0,1-.59.6A72.8,72.8,0,0,1,77,87.46l-.1,0A1.49,1.49,0,0,1,76.58,87.54ZM71,79.05a26,26,0,0,0,5.9,5A69.73,69.73,0,0,0,91.15,78.4a29.18,29.18,0,0,0,3.32-9.29A63.54,63.54,0,0,1,71,79.05Z"/><path class="cls-3" d="M65.56,96.63a32.72,32.72,0,0,1-22.11-8.56l-.67-.61A1.42,1.42,0,0,1,43.73,85,1.27,1.27,0,0,1,44,85l.9.18a70.65,70.65,0,0,0,13.52,1.29A70.32,70.32,0,0,0,70.86,85.4a1.45,1.45,0,0,1,.3,0,1.51,1.51,0,0,1,.53.09,29.55,29.55,0,0,0,10.64,2q.67,0,1.35,0l.93,0a1.4,1.4,0,0,1,1.33,1,1.42,1.42,0,0,1-.5,1.62l-.7.5A32.6,32.6,0,0,1,65.56,96.63Zm-14.5-7.15a29.6,29.6,0,0,0,27,1A32.85,32.85,0,0,1,71,88.77a73.85,73.85,0,0,1-12.56,1.07Q54.73,89.84,51.06,89.48Z"/><path class="cls-3" d="M84.14,90.55a1.32,1.32,0,0,1-.34,0l-.12,0a29.7,29.7,0,0,1-7.91-3.19L75.24,87a1.41,1.41,0,0,1-.69-1.42,1.43,1.43,0,0,1,1-1.18l.6-.15a69.73,69.73,0,0,0,15.38-6.06l.81-.43a1.34,1.34,0,0,1,.67-.17,1.41,1.41,0,0,1,1.22,2.13l-.46.8a32.64,32.64,0,0,1-8.73,9.7l-.1.07A1.37,1.37,0,0,1,84.14,90.55Zm-2.88-4.33c.8.31,1.62.58,2.45.81a29,29,0,0,0,3.23-2.93C85.08,84.89,83.18,85.6,81.26,86.22Z"/><path class="cls-3" d="M66.86,48.61A1.39,1.39,0,0,1,65.73,48a1.41,1.41,0,0,1,0-1.63l.39-.59A29.61,29.61,0,0,1,76.7,36.14c.72-.38,1.47-.75,2.22-1.07L79,35a1.38,1.38,0,0,1,.56-.12,1.43,1.43,0,0,1,.64.15l.11.06c.72.37,1.44.76,2.13,1.18l.26.16a1.41,1.41,0,0,1,.33,2.15l-.21.23A32.69,32.69,0,0,1,68,48.35l-.69.2A1.4,1.4,0,0,1,66.86,48.61Zm10-8.72a25.52,25.52,0,0,0-2.83,2A29.65,29.65,0,0,0,76.91,39.89Z"/><path class="cls-3" d="M53.41,70.5l-.41,0a53.63,53.63,0,0,1-19.22-5.67l-.14-.07a1.42,1.42,0,0,1-.77-1.3v-.16a32.18,32.18,0,0,1,2.38-11.35l.11-.28a1.44,1.44,0,0,1,.87-.82,1.62,1.62,0,0,1,.44-.07,1.41,1.41,0,0,1,.74.21l.26.16a39.78,39.78,0,0,0,13.92,5.2l.22,0A1.41,1.41,0,0,1,53,57.76V58a29,29,0,0,0,1.76,10.23l.14.39a1.42,1.42,0,0,1-1.33,1.9ZM36.27,62.29A50,50,0,0,0,50.78,66.8a31.74,31.74,0,0,1-1.13-7.45,43.22,43.22,0,0,1-12-4.37A28.76,28.76,0,0,0,36.27,62.29Z"/><path class="cls-3" d="M62.83,60a1.42,1.42,0,0,1-1.41-1.61l0-.32a29.54,29.54,0,0,1,4.6-12.26,1.72,1.72,0,0,1,.83-.65A29.38,29.38,0,0,0,80.36,36.6l.15-.16a1.39,1.39,0,0,1,1-.47,1.46,1.46,0,0,1,.73.2l.19.12a32.66,32.66,0,0,1,8.39,7.24l.14.17a1.41,1.41,0,0,1,0,1.84l-.14.17A43.22,43.22,0,0,1,63.31,60L63,60Zm5.72-11.85a26.53,26.53,0,0,0-3.37,8.16A39.84,39.84,0,0,0,87.33,44.56a28.94,28.94,0,0,0-5.44-4.68A32.7,32.7,0,0,1,68.55,48.16Z"/><path class="cls-3" d="M58.42,80.29a63.48,63.48,0,0,1-22.65-4.15l-.11,0a1.43,1.43,0,0,1-.83-.84l0-.11a32.3,32.3,0,0,1-1.93-11c0-.29,0-.58,0-.86v-.41a1.45,1.45,0,0,1,.7-1.18,1.42,1.42,0,0,1,.72-.2,1.36,1.36,0,0,1,.65.16l.36.19a50.07,50.07,0,0,0,18,5.3l.17,0a1.41,1.41,0,0,1,1.19.92l.05.16a30.44,30.44,0,0,0,1.77,3.91,29.19,29.19,0,0,0,3.75,5.37l.37.42a1.42,1.42,0,0,1-1.05,2.36Zm-20.73-7a60.08,60.08,0,0,0,17.82,3.58,30.84,30.84,0,0,1-1.94-3.14A32.74,32.74,0,0,1,52,70.34,53.07,53.07,0,0,1,36.27,66,29.22,29.22,0,0,0,37.69,73.29Z"/><path class="cls-3" d="M72.18,66.69h-.32a4.84,4.84,0,0,1-1.94-.55,4.91,4.91,0,0,1-1.54-1.26,5.37,5.37,0,0,1-1.2-3.78,5,5,0,0,1,.58-1.92,5,5,0,0,1,1.3-1.56,5.5,5.5,0,0,1,1.8-.93,5.77,5.77,0,0,1,1.71-.28,4.58,4.58,0,0,1,.83.08l.29.05a1.09,1.09,0,0,1,0-.17,1.45,1.45,0,0,1,.74-.8l3.94-1.79a1.37,1.37,0,0,1,.59-.13,1.41,1.41,0,0,1,.45.07,4.15,4.15,0,0,1,.35-.57,5.77,5.77,0,0,1,1.48-1.39,5.37,5.37,0,0,1,2.4-.88,4,4,0,0,1,.49,0,5.09,5.09,0,0,1,2,.42,1.43,1.43,0,0,1,.8.87v0a1.44,1.44,0,0,1,1,.56l.13.18.17.24a5.33,5.33,0,0,1,.94,3.93,4.91,4.91,0,0,1-2.34,3.24,5.52,5.52,0,0,1-1.91.81,4.59,4.59,0,0,1-1,.1,4.82,4.82,0,0,1-.65,0,1.48,1.48,0,0,1-.06.78,1.42,1.42,0,0,1-.74.8l-4,1.8a1.51,1.51,0,0,1-.58.12,1.42,1.42,0,0,1-1.09-.5,5,5,0,0,1-3,2.24A5.74,5.74,0,0,1,72.18,66.69Z"/><g class="cls-4"><rect class="cls-3" x="49.85" y="21.64" width="44.84" height="69.07" rx="1.42"/></g><path class="cls-3" d="M82.33,90.8A32.83,32.83,0,0,1,57.74,79.71,32.42,32.42,0,0,1,59.09,35.4a1.39,1.39,0,0,1-.78-.76A1.4,1.4,0,0,1,58.75,33l.8-.62C66.47,27,78.7,23,88,23a25.26,25.26,0,0,1,5.66.58l.29.07a1.4,1.4,0,0,1,.92.71A1.39,1.39,0,0,1,95,25.55l-.1.27c-.58,1.57-6.23,8.69-7.68,10.35A9.46,9.46,0,0,0,85.59,39a3.41,3.41,0,0,1-.78,1.45l-.14.16a1.43,1.43,0,0,1-1.06.47,1.49,1.49,0,0,1-.73-.2l-.18-.11c-.32-.2-.86-.58-1.69-1.2L79.46,38.5c-.4.19-.79.39-1.17.59a26,26,0,0,0-13.5,19.44,25.67,25.67,0,0,0,.56,9.84,26,26,0,0,0,2.35,6,24.8,24.8,0,0,0,1.61,2.59,25.69,25.69,0,0,0,8.15,7.48,26.11,26.11,0,0,0,7,2.83l.53.13a1.42,1.42,0,0,1,.51,2.52l-.78.57a1.65,1.65,0,0,1-.83.31C83.33,90.79,82.83,90.8,82.33,90.8ZM66.1,32.16a1.28,1.28,0,0,1,.21.38,1.41,1.41,0,0,1-.51,1.62l-.7.5A29,29,0,0,0,54.74,68.21a30,30,0,0,0,1.77,3.92A29.21,29.21,0,0,0,71.75,85.48c.81.31,1.62.59,2.44.82A29.25,29.25,0,0,1,61.47,58.08,29.3,29.3,0,0,1,76.7,36.14c.72-.38,1.47-.75,2.22-1.07L79,35a1.38,1.38,0,0,1,.56-.12,1.43,1.43,0,0,1,.64.15l.11.06a24.67,24.67,0,0,1,2.51,1.72,20.68,20.68,0,0,1,1.61-2.65l.12-.15c1.23-1.38,4.18-5.15,5.9-7.54-.8-.08-1.64-.12-2.53-.12C81.27,26.37,72.59,28.74,66.1,32.16Z"/><path class="cls-3" d="M104.47,70.92a1.44,1.44,0,0,1-1.08-.5,1.39,1.39,0,0,1-.32-1.14l1.32-8.34a1.41,1.41,0,0,1,1.4-1.19h4.83a1.43,1.43,0,0,1,1.08.49,1.39,1.39,0,0,1,.32,1.14l-.3,1.93a1.36,1.36,0,0,1-.42.8,1.46,1.46,0,0,1,0,.55L111,66.48a1.31,1.31,0,0,1-.19.51,1.38,1.38,0,0,1,.14.87l-.29,1.86a1.42,1.42,0,0,1-1.4,1.2Z"/><path class="cls-3" d="M114.6,70.92a1.4,1.4,0,0,1-1-.39,1.43,1.43,0,0,1-1,.39h-2a1.44,1.44,0,0,1-1.08-.5,1.42,1.42,0,0,1-.32-1.15l.91-5.75a1.43,1.43,0,0,1,1.4-1.19h2a1.5,1.5,0,0,1,.47.08,3.66,3.66,0,0,1,1.36-.26,3.26,3.26,0,0,1,2.38.88,3.18,3.18,0,0,1,.92,2.36,8.43,8.43,0,0,1-.11,1.2l0,.09-.48,3a1.42,1.42,0,0,1-1.4,1.2Z"/><path class="cls-3" d="M120.85,73.45a5,5,0,0,1-2.91-.79,3.68,3.68,0,0,1-1.51-2.54,1.45,1.45,0,0,1,.34-1.13,1.26,1.26,0,0,1,.33-.28,4.66,4.66,0,0,1-.32-1.75A4.89,4.89,0,0,1,118,63.58a4.19,4.19,0,0,1,3.21-1.43,3.72,3.72,0,0,1,1.5.3,1.39,1.39,0,0,1,.57-.12h1.91a1.4,1.4,0,0,1,1.08.5A1.39,1.39,0,0,1,126.6,64l-.75,4.75a6.24,6.24,0,0,1-1,3.09A4.43,4.43,0,0,1,123,73.06,5.87,5.87,0,0,1,120.85,73.45Z"/><path class="cls-3" d="M125.83,70.92a1.44,1.44,0,0,1-1.08-.5,1.39,1.39,0,0,1-.32-1.14l.91-5.75a1.31,1.31,0,0,1,.27-.65,2.66,2.66,0,0,1-.14-.85,2.52,2.52,0,0,1,4.29-1.78A2.45,2.45,0,0,1,130.5,62a2.48,2.48,0,0,1-.35,1.3,1.38,1.38,0,0,1,0,.64l-.91,5.75a1.43,1.43,0,0,1-1.4,1.2Z"/><path class="cls-3" d="M133.34,70.92a1.4,1.4,0,0,1-1-.39,1.41,1.41,0,0,1-1,.39h-2a1.44,1.44,0,0,1-1.08-.5,1.42,1.42,0,0,1-.32-1.15l.91-5.75a1.43,1.43,0,0,1,1.4-1.19h2a1.5,1.5,0,0,1,.47.08,3.66,3.66,0,0,1,1.36-.26,3.26,3.26,0,0,1,2.38.88,3.18,3.18,0,0,1,.93,2.36,8.79,8.79,0,0,1-.12,1.2v.09l-.49,3a1.42,1.42,0,0,1-1.4,1.2Z"/><path class="cls-3" d="M139.83,71.15A4.45,4.45,0,0,1,136.65,70a4.16,4.16,0,0,1-1.22-3.13,4.59,4.59,0,0,1,1.35-3.4,4.68,4.68,0,0,1,3.41-1.33,4.23,4.23,0,0,1,4.39,4.39c0,.11,0,.3-.05.59l0,.16a1.4,1.4,0,0,1-.76,1.08,1.33,1.33,0,0,1,.07.45,1.49,1.49,0,0,1-.44,1,4.72,4.72,0,0,1-1.63,1A5.65,5.65,0,0,1,139.83,71.15Z"/><path class="cls-3" d="M146.83,71.15A4.45,4.45,0,0,1,143.65,70a4.16,4.16,0,0,1-1.22-3.13,4.63,4.63,0,0,1,1.35-3.4,4.69,4.69,0,0,1,3.41-1.33,4.21,4.21,0,0,1,4.39,4.39c0,.11,0,.3,0,.58l0,.17a1.45,1.45,0,0,1-.76,1.08,1.63,1.63,0,0,1,.06.45,1.4,1.4,0,0,1-.44,1,4.72,4.72,0,0,1-1.63,1A5.65,5.65,0,0,1,146.83,71.15Z"/><path class="cls-3" d="M150.73,70.92a1.41,1.41,0,0,1-1.07-.5,1.46,1.46,0,0,1-.33-1.15l.92-5.75a1.42,1.42,0,0,1,1.4-1.19h2a1.25,1.25,0,0,1,.43.07,3.36,3.36,0,0,1,1.2-.21l.28,0,.35,0a1.39,1.39,0,0,1,.94.61A1.42,1.42,0,0,1,157,64l-.41,1.8a1.4,1.4,0,0,1-.63.89,1.43,1.43,0,0,1-.75.22,1.17,1.17,0,0,1-.32,0l-.25,0h0a2.13,2.13,0,0,0-.07.31l-.41,2.62a1.42,1.42,0,0,1-1.4,1.2Z"/><path class="cls-3" d="M155.69,70.92a1.44,1.44,0,0,1-1.08-.5,1.39,1.39,0,0,1-.32-1.14l.91-5.75a1.24,1.24,0,0,1,.28-.65,2.41,2.41,0,0,1-.15-.85,2.53,2.53,0,0,1,2.51-2.5,2.49,2.49,0,0,1,1.78.72,2.45,2.45,0,0,1,.74,1.78,2.48,2.48,0,0,1-.35,1.3,1.38,1.38,0,0,1,0,.64l-.91,5.75a1.43,1.43,0,0,1-1.4,1.2Z"/><path class="cls-3" d="M163.2,70.92a1.4,1.4,0,0,1-1-.39,1.41,1.41,0,0,1-1,.39h-2a1.44,1.44,0,0,1-1.08-.5,1.42,1.42,0,0,1-.32-1.15l.91-5.75a1.43,1.43,0,0,1,1.4-1.19h2a1.5,1.5,0,0,1,.47.08,3.66,3.66,0,0,1,1.36-.26,3.26,3.26,0,0,1,2.38.88,3.18,3.18,0,0,1,.93,2.36,8.79,8.79,0,0,1-.12,1.2v.09l-.49,3a1.42,1.42,0,0,1-1.4,1.2Z"/><path class="cls-3" d="M169.45,73.45a5,5,0,0,1-2.91-.79,3.63,3.63,0,0,1-1.5-2.54,1.4,1.4,0,0,1,.33-1.13,1.44,1.44,0,0,1,.33-.28,4.66,4.66,0,0,1-.32-1.75,4.89,4.89,0,0,1,1.23-3.38,4.19,4.19,0,0,1,3.21-1.43,3.72,3.72,0,0,1,1.5.3,1.39,1.39,0,0,1,.57-.12h1.91a1.4,1.4,0,0,1,1.08.5A1.39,1.39,0,0,1,175.2,64l-.74,4.75a6.33,6.33,0,0,1-1.06,3.09,4.43,4.43,0,0,1-1.77,1.25A5.87,5.87,0,0,1,169.45,73.45Z"/><path class="cls-5" d="M53.22,47.64A30.79,30.79,0,0,1,64.12,33.3a31.85,31.85,0,0,0-3.55.37,31,31,0,0,0-18.2,10A30.75,30.75,0,0,0,53.22,47.64Z"/><path class="cls-5" d="M51.31,58a30.77,30.77,0,0,1,1.91-10.32,30.75,30.75,0,0,1-10.85-4,30.68,30.68,0,0,0-5.57,8.91A41.5,41.5,0,0,0,51.31,58Z"/><path class="cls-5" d="M89.58,44.6A41.58,41.58,0,0,1,63.13,58.3a27.33,27.33,0,0,0,.6,10.48A52,52,0,0,0,94.94,54.2,30.68,30.68,0,0,0,89.58,44.6Z"/><path class="cls-5" d="M58.42,78.61a62,62,0,0,1-22.05-4,30.87,30.87,0,0,0,8.21,12.26,72.57,72.57,0,0,0,13.84,1.33,72.1,72.1,0,0,0,12.73-1.12A31,31,0,0,1,59,78.61Z"/><path class="cls-5" d="M63.73,68.78a27.13,27.13,0,0,0,2.5,6.35,27.66,27.66,0,0,0,1.71,2.76A61.71,61.71,0,0,0,96.55,65.51c0-.46,0-.93,0-1.39a30.71,30.71,0,0,0-1.64-9.92A52,52,0,0,1,63.73,68.78Z"/><path class="cls-5" d="M96.55,65.51A61.71,61.71,0,0,1,67.94,77.89a27.64,27.64,0,0,0,8.68,8,71.24,71.24,0,0,0,15.74-6.2A30.55,30.55,0,0,0,96.55,65.51Z"/><path class="cls-5" d="M83.76,89.09a31.23,31.23,0,0,1-12.61-2,72.1,72.1,0,0,1-12.73,1.12,72.57,72.57,0,0,1-13.84-1.33,31.16,31.16,0,0,0,39.18,2.25Z"/><path class="cls-5" d="M76.62,85.85a28.07,28.07,0,0,0,7.46,3,30.91,30.91,0,0,0,8.28-9.21A71.24,71.24,0,0,1,76.62,85.85Z"/><path class="cls-5" d="M77.5,37.62a27.64,27.64,0,0,0-10,9.12,31,31,0,0,0,14.14-9c-.65-.4-1.33-.77-2-1.12C78.89,36.91,78.19,37.25,77.5,37.62Z"/><path class="cls-5" d="M51.31,58A41.5,41.5,0,0,1,36.8,52.54,30.59,30.59,0,0,0,34.55,63.3a51.83,51.83,0,0,0,18.62,5.49A30.41,30.41,0,0,1,51.31,58Z"/><path class="cls-5" d="M67.47,46.74A27.59,27.59,0,0,0,63.13,58.3,41.58,41.58,0,0,0,89.58,44.6a31.11,31.11,0,0,0-8-6.88A31,31,0,0,1,67.47,46.74Z"/><path class="cls-5" d="M55,72.93a29.92,29.92,0,0,1-1.87-4.14A51.83,51.83,0,0,1,34.55,63.3c0,.27,0,.54,0,.82a30.51,30.51,0,0,0,1.83,10.46,62,62,0,0,0,22.05,4H59A31.12,31.12,0,0,1,55,72.93Z"/><path class="cls-6" d="M65.56,95.61A31.5,31.5,0,1,1,97.24,64.12,31.62,31.62,0,0,1,65.56,95.61Zm0-62.48a31,31,0,1,0,31.16,31A31.11,31.11,0,0,0,65.56,33.13Z"/><path class="cls-7" d="M103.35,43.94H141.9a3.33,3.33,0,0,1,3.33,3.3v7.52a3.32,3.32,0,0,1-3.33,3.3H103.35a3.32,3.32,0,0,1-3.32-3.3V47.24a3.33,3.33,0,0,1,3.32-3.3"/><path class="cls-7" d="M102.76,74.85h36.87a3.06,3.06,0,0,1,2.72,3.3v7.52a3.06,3.06,0,0,1-2.72,3.3H102.76a3.06,3.06,0,0,1-2.73-3.3V78.15a3.06,3.06,0,0,1,2.73-3.3"/><path class="cls-5" d="M103.35,59.43h70.58a3.32,3.32,0,0,1,3.32,3.31v7.51a3.32,3.32,0,0,1-3.32,3.31H103.35A3.33,3.33,0,0,1,100,70.25V62.74a3.33,3.33,0,0,1,3.32-3.31"/><path class="cls-6" d="M107.42,50.76h4.21a5,5,0,0,1-1.23,3.48,4.14,4.14,0,0,1-3.2,1.27A4.49,4.49,0,0,1,104,54.44a3.72,3.72,0,0,1-1.17-2.88,5.06,5.06,0,0,1,.36-1.9,4.73,4.73,0,0,1,1-1.57,4.33,4.33,0,0,1,1.52-1,5.34,5.34,0,0,1,1.9-.34,4.4,4.4,0,0,1,2.1.48,4.35,4.35,0,0,1,1.56,1.47l-1.79,1.21a2.27,2.27,0,0,0-.78-.84,2.13,2.13,0,0,0-1.09-.28,2.27,2.27,0,0,0-1.74.76,2.72,2.72,0,0,0-.69,1.91,2.18,2.18,0,0,0,.55,1.54,1.89,1.89,0,0,0,1.44.57,2.45,2.45,0,0,0,.62-.07,2.06,2.06,0,0,0,.55-.23,1.24,1.24,0,0,0,.38-.34,1.53,1.53,0,0,0,.26-.49h-1.91Z"/><path class="cls-6" d="M113.48,46.47h2.06l-1.42,8.83h-2.05Z"/><path class="cls-6" d="M115.74,52.69a3.22,3.22,0,0,1,1-2.4,3.4,3.4,0,0,1,2.46-.94,3.09,3.09,0,0,1,2.21.78,2.71,2.71,0,0,1,.83,2.09,3.17,3.17,0,0,1-1,2.38,3.48,3.48,0,0,1-2.51.93,3.06,3.06,0,0,1-2.17-.77A2.74,2.74,0,0,1,115.74,52.69ZM119.12,51a1.28,1.28,0,0,0-1,.5,1.83,1.83,0,0,0-.42,1.22,1.13,1.13,0,0,0,.31.84,1.05,1.05,0,0,0,.8.31,1.31,1.31,0,0,0,1-.48,1.84,1.84,0,0,0,.41-1.23A1.07,1.07,0,0,0,119.12,51Z"/><path class="cls-6" d="M125.78,49.48c0,.12,0,.24-.08.38s-.09.3-.16.48a3.78,3.78,0,0,1,1-.72,2.63,2.63,0,0,1,1.06-.23,2.08,2.08,0,0,1,1.64.74,2.85,2.85,0,0,1,.64,1.93,3.58,3.58,0,0,1-.86,2.47,2.73,2.73,0,0,1-2.16,1,2.2,2.2,0,0,1-1.05-.25,3.28,3.28,0,0,1-.92-.76l-.13.79h-1.9l1.41-8.83h2Zm2.06,2.73A1.17,1.17,0,0,0,126.61,51a1.28,1.28,0,0,0-1,.47,1.69,1.69,0,0,0-.41,1.17,1.16,1.16,0,0,0,1.22,1.2,1.33,1.33,0,0,0,1-.46A1.66,1.66,0,0,0,127.84,52.21Z"/><path class="cls-6" d="M135.16,54.53a3,3,0,0,1-.93.73,2.57,2.57,0,0,1-1.1.25,2.06,2.06,0,0,1-1.64-.75,2.89,2.89,0,0,1-.63-1.93,3.6,3.6,0,0,1,.86-2.48,2.76,2.76,0,0,1,2.16-1,2.31,2.31,0,0,1,1.07.25,2.49,2.49,0,0,1,.86.77l.13-.83h1.94L137,55.3h-1.9Zm-2.25-1.9a1.17,1.17,0,0,0,1.23,1.22,1.28,1.28,0,0,0,1-.47,1.72,1.72,0,0,0,.41-1.17,1.18,1.18,0,0,0-.34-.87,1.22,1.22,0,0,0-.88-.34,1.31,1.31,0,0,0-1,.47A1.67,1.67,0,0,0,132.91,52.63Z"/><path class="cls-6" d="M140,46.47H142L140.6,55.3h-2Z"/><path class="cls-6" d="M107.42,81.15h4.21a5,5,0,0,1-1.23,3.49,4.18,4.18,0,0,1-3.2,1.27A4.49,4.49,0,0,1,104,84.83a3.74,3.74,0,0,1-1.17-2.89,5,5,0,0,1,.36-1.89,4.63,4.63,0,0,1,1-1.57,4.33,4.33,0,0,1,1.52-1,5.34,5.34,0,0,1,1.9-.34,4.4,4.4,0,0,1,2.1.48,4.35,4.35,0,0,1,1.56,1.47l-1.79,1.21a2.2,2.2,0,0,0-.78-.84,2,2,0,0,0-1.09-.28A2.24,2.24,0,0,0,106,80a2.72,2.72,0,0,0-.69,1.91,2.14,2.14,0,0,0,.55,1.53,1.86,1.86,0,0,0,1.44.58,2.07,2.07,0,0,0,.62-.08,2,2,0,0,0,.55-.22,1.38,1.38,0,0,0,.38-.34,1.64,1.64,0,0,0,.26-.49h-1.91Z"/><path class="cls-6" d="M112,85.68l.92-5.75h1.95l-.14,1a2,2,0,0,1,.72-.83,1.93,1.93,0,0,1,1.06-.28h.14l.25,0-.41,1.81a2.83,2.83,0,0,0-.36-.07,1.62,1.62,0,0,0-.31,0,1.23,1.23,0,0,0-.93.36,2.23,2.23,0,0,0-.46,1.14L114,85.68Z"/><path class="cls-6" d="M117,83.08a3.22,3.22,0,0,1,1-2.4,3.36,3.36,0,0,1,2.46-.94,3.13,3.13,0,0,1,2.22.78,2.74,2.74,0,0,1,.83,2.08,3.14,3.14,0,0,1-1,2.38,3.44,3.44,0,0,1-2.51.94,3,3,0,0,1-2.17-.78A2.7,2.7,0,0,1,117,83.08Zm3.38-1.69a1.28,1.28,0,0,0-1,.5,1.82,1.82,0,0,0-.42,1.21,1.18,1.18,0,0,0,.31.85,1.06,1.06,0,0,0,.81.31,1.3,1.3,0,0,0,1-.48,1.84,1.84,0,0,0,.41-1.23,1.07,1.07,0,0,0-1.14-1.16Z"/><path class="cls-6" d="M124.87,79.93h2l-.37,2.38c0,.32-.09.58-.11.79a3.42,3.42,0,0,0,0,.41.9.9,0,0,0,.19.63.75.75,0,0,0,.58.22c.59,0,1-.66,1.19-2a1.16,1.16,0,0,1,0-.16l.36-2.28h2l-.41,2.61,0,.12a4.56,4.56,0,0,1-.94,2.47,2.66,2.66,0,0,1-1,.58,4.16,4.16,0,0,1-1.32.2,3.2,3.2,0,0,1-2-.58,1.87,1.87,0,0,1-.74-1.56,4.43,4.43,0,0,1,0-.57c0-.23.08-.58.16-1.06Z"/><path class="cls-6" d="M130.91,88.22l1.32-8.29h1.93l-.13.8A2.89,2.89,0,0,1,135,80a2.39,2.39,0,0,1,1.09-.25,2.06,2.06,0,0,1,1.64.75,2.85,2.85,0,0,1,.63,1.92,3.65,3.65,0,0,1-.86,2.48,2.75,2.75,0,0,1-2.16,1,2.33,2.33,0,0,1-1.06-.24,3.13,3.13,0,0,1-.89-.77c0,.18,0,.35,0,.5s0,.29,0,.4l-.38,2.45Zm5.33-5.54a1.21,1.21,0,0,0-.34-.89,1.25,1.25,0,0,0-.89-.34,1.3,1.3,0,0,0-1,.47,1.71,1.71,0,0,0-.4,1.17,1.18,1.18,0,0,0,.33.87,1.26,1.26,0,0,0,.89.32,1.31,1.31,0,0,0,1-.45A1.67,1.67,0,0,0,136.24,82.68Z"/><path class="cls-8" d="M53.38,47.93l-.21,0a31.25,31.25,0,0,1-10.93-4L42,43.69l.21-.23a31.33,31.33,0,0,1,18.35-10,30.58,30.58,0,0,1,3.58-.37L65,33l-.7.5A30.41,30.41,0,0,0,53.46,47.73ZM42.77,43.57a30.72,30.72,0,0,0,10.28,3.79A30.86,30.86,0,0,1,63.28,33.61c-.9.07-1.79.17-2.67.31A30.85,30.85,0,0,0,42.77,43.57Z"/><path class="cls-8" d="M51.56,58.26l-.29,0a41.69,41.69,0,0,1-14.61-5.45l-.18-.12.08-.2a30.92,30.92,0,0,1,5.62-9l.14-.16.18.11a30.55,30.55,0,0,0,10.76,4l.3,0-.1.29A30.37,30.37,0,0,0,51.57,58ZM37.12,52.43a41,41,0,0,0,13.94,5.23,31.12,31.12,0,0,1,1.81-9.82A31.05,31.05,0,0,1,42.42,44,30.63,30.63,0,0,0,37.12,52.43Z"/><path class="cls-8" d="M63.54,69.06l-.06-.21a27.73,27.73,0,0,1-.61-10.58l0-.2.2,0A41.29,41.29,0,0,0,89.38,44.43l.2-.23.2.23a31.15,31.15,0,0,1,5.41,9.69l0,.15-.12.11A52.55,52.55,0,0,1,63.76,69Zm-.18-10.53a27,27,0,0,0,.57,10A52.06,52.06,0,0,0,94.64,54.13,30.27,30.27,0,0,0,89.57,45,41.78,41.78,0,0,1,63.36,58.53Z"/><path class="cls-8" d="M58.42,88.43a72.5,72.5,0,0,1-13.89-1.34h-.07l-.05,0a31.24,31.24,0,0,1-8.28-12.36l-.19-.53.52.2a61.69,61.69,0,0,0,22,4h.7l.07.09a30.83,30.83,0,0,0,12.06,8.37l.85.33-.9.16A72.73,72.73,0,0,1,58.42,88.43ZM44.7,86.6A72.69,72.69,0,0,0,70.22,87a31.35,31.35,0,0,1-11.34-8.08h-.46A62.14,62.14,0,0,1,36.81,75,30.7,30.7,0,0,0,44.7,86.6Z"/><path class="cls-8" d="M67.82,78.16,67.73,78A26.37,26.37,0,0,1,66,75.25a28.31,28.31,0,0,1-2.52-6.4l-.07-.29.3,0A52,52,0,0,0,94.76,54l.29-.29.14.39a31,31,0,0,1,1.65,10c0,.46,0,.94,0,1.4v.12l-.09.07A62.06,62.06,0,0,1,68,78.14ZM64.06,69a27.62,27.62,0,0,0,2.39,6,28.86,28.86,0,0,0,1.61,2.6A61.53,61.53,0,0,0,96.29,65.38q0-.63,0-1.26a30.47,30.47,0,0,0-1.49-9.45A52.66,52.66,0,0,1,64.06,69Z"/><path class="cls-8" d="M76.58,86.12l-.09-.05a27.73,27.73,0,0,1-8.76-8l-.24-.33.41-.07A61.54,61.54,0,0,0,96.39,65.31l.44-.35,0,.56a31,31,0,0,1-4.21,14.26l0,.06-.06,0a70.94,70.94,0,0,1-15.81,6.22Zm-8.19-8a27.19,27.19,0,0,0,8.27,7.49,71.18,71.18,0,0,0,15.52-6.11,30.59,30.59,0,0,0,4.08-13.4A62.19,62.19,0,0,1,68.39,78.08Z"/><path class="cls-8" d="M65.56,95.21A31.27,31.27,0,0,1,44.41,87l-.67-.62.89.18a72.53,72.53,0,0,0,26.48.2h.07l.07,0a30.86,30.86,0,0,0,12.5,2l.86,0-.7.5A31.16,31.16,0,0,1,65.56,95.21ZM45.45,87.26a30.92,30.92,0,0,0,37.46,2.12,31.28,31.28,0,0,1-11.78-2.07A73.12,73.12,0,0,1,45.45,87.26Z"/><path class="cls-8" d="M84.14,89.14l-.12,0a28.33,28.33,0,0,1-7.53-3L76,85.75l.6-.15a70.85,70.85,0,0,0,15.69-6.18l.81-.43-.46.79a31.13,31.13,0,0,1-8.35,9.28Zm-6.85-3.21A28,28,0,0,0,84,88.58a30.67,30.67,0,0,0,7.63-8.27A70.84,70.84,0,0,1,77.29,85.93Z"/><path class="cls-8" d="M66.86,47.2l.39-.6a28.26,28.26,0,0,1,10.12-9.21l.13.23-.13-.23c.69-.37,1.41-.71,2.12-1l.11,0,.11,0c.69.35,1.37.73,2,1.13l.26.16-.2.23A31.28,31.28,0,0,1,67.54,47Zm10.76-9.36a27.7,27.7,0,0,0-9.52,8.44,30.81,30.81,0,0,0,13.11-8.5c-.53-.31-1.08-.61-1.63-.89-.66.29-1.32.61-2,1Z"/><path class="cls-8" d="M53.55,69.09l-.41,0a51.92,51.92,0,0,1-18.71-5.51l-.14-.07V63.3a30.79,30.79,0,0,1,2.27-10.86l.11-.28.26.16a41.1,41.1,0,0,0,14.42,5.39l.22,0V58A30.23,30.23,0,0,0,53.41,68.7ZM34.81,63.15a51.42,51.42,0,0,0,18,5.34,30.67,30.67,0,0,1-1.74-10.31,41.65,41.65,0,0,1-14.13-5.27A30.38,30.38,0,0,0,34.81,63.15Z"/><path class="cls-8" d="M62.83,58.59l0-.32A28.18,28.18,0,0,1,67.25,46.6l.06-.07.08,0a30.77,30.77,0,0,0,14-9l.14-.16.19.11a31.35,31.35,0,0,1,8,6.93l.14.17-.15.17A41.77,41.77,0,0,1,63.16,58.56ZM67.63,47a27.73,27.73,0,0,0-4.2,11A41.29,41.29,0,0,0,89.24,44.59a31,31,0,0,0-7.58-6.54A31.24,31.24,0,0,1,67.63,47Z"/><path class="cls-8" d="M58.42,78.87a62,62,0,0,1-22.14-4.05l-.11,0,0-.11a30.76,30.76,0,0,1-1.85-10.55c0-.28,0-.55,0-.82v-.41l.37.19a51.68,51.68,0,0,0,18.52,5.46h.16l.06.15a30.85,30.85,0,0,0,1.86,4.11h0a30.64,30.64,0,0,0,3.92,5.63l.37.42H58.42ZM36.57,74.38a61.5,61.5,0,0,0,21.85,4h0a31.74,31.74,0,0,1-3.63-5.31h0A32.24,32.24,0,0,1,53,69,52.21,52.21,0,0,1,34.8,63.72v.4A30.29,30.29,0,0,0,36.57,74.38Z"/><path class="cls-8" d="M84.5,56.87l-.82-1.24,3.18-2.06.1.13a2.45,2.45,0,0,1,.14.21,3.91,3.91,0,0,1,.74,2.88,3.58,3.58,0,0,1-1.73,2.32,4,4,0,0,1-1.42.61,3.45,3.45,0,0,1-1.43,0,3.53,3.53,0,0,1-1.32-.58,3.82,3.82,0,0,1-1-1.06,3.73,3.73,0,0,1-.57-1.36,3.5,3.5,0,0,1,0-1.44A3.7,3.7,0,0,1,81,54a4.07,4.07,0,0,1,1.11-1,3.94,3.94,0,0,1,1.76-.66,3.57,3.57,0,0,1,1.8.29l-1,1.57a2.28,2.28,0,0,0-.9-.14,1.8,1.8,0,0,0-.82.29,1.73,1.73,0,0,0-.83,1.22,2.75,2.75,0,0,0,1.74,2.64,1.7,1.7,0,0,0,1.46-.25,2.06,2.06,0,0,0,.83-1,1.38,1.38,0,0,0,0-1.11ZM78,63.26l-2.94-6.41L79,55.06l.65,1.4-2.23,1,.51,1.11,2.1-1L80.67,59l-2.1,1,.5,1.08,2.23-1L82,61.46Zm-5.46-.8-.44-1.41,3.62-1.12a1.31,1.31,0,0,1,0,.15,2.18,2.18,0,0,1,.08.24,3.89,3.89,0,0,1-.07,3,3.64,3.64,0,0,1-2.29,1.76,4.29,4.29,0,0,1-1.54.21,3.27,3.27,0,0,1-1.38-.4,3.67,3.67,0,0,1-1.11-.9,4.19,4.19,0,0,1-.7-1.3,3.92,3.92,0,0,1-.17-1.46A3.61,3.61,0,0,1,69,59.83a3.83,3.83,0,0,1,.93-1.11A4.25,4.25,0,0,1,71.28,58a4,4,0,0,1,1.88-.16,3.65,3.65,0,0,1,1.65.76l-1.35,1.26a2.2,2.2,0,0,0-.83-.38,1.81,1.81,0,0,0-.86.06,1.67,1.67,0,0,0-1.13,1,2.25,2.25,0,0,0,0,1.64,2.32,2.32,0,0,0,1,1.36,1.73,1.73,0,0,0,1.48.15A2,2,0,0,0,74.12,63a1.34,1.34,0,0,0,.26-1.08Z"/><path class="cls-7" d="M84.08,88.86a28.07,28.07,0,0,1-7.46-3A27.59,27.59,0,0,1,66.23,75.13a27.38,27.38,0,0,1-3.1-16.83A27.6,27.6,0,0,1,77.5,37.62c.69-.37,1.39-.71,2.09-1,.69.35,3.31,2.37,4,2.77.72-.8,0-.9,2.29-4.23,1.59-1.81,7-8.72,7.42-9.9-9.46-2.18-25,2.55-32.7,8.43a31.85,31.85,0,0,1,3.55-.37A30.87,30.87,0,0,0,51.31,58a30.41,30.41,0,0,0,1.86,10.83A29.92,29.92,0,0,0,55,72.93,31.06,31.06,0,0,0,83.76,89.09l.32-.23"/><g class="cls-9"><rect class="cls-8" x="51.27" y="23.06" width="42" height="66.23"/></g><path class="cls-6" d="M82.33,89.38a31.21,31.21,0,0,1-29.4-20.5A30.61,30.61,0,0,1,51.05,58,31.07,31.07,0,0,1,63.28,33.61c-.9.07-1.79.17-2.67.31l-1,.16.8-.61C68,27.63,83.71,22.77,93.33,25l.29.07-.1.27c-.45,1.21-5.87,8.15-7.47,10a10.83,10.83,0,0,0-1.82,3.33,1.93,1.93,0,0,1-.48.91l-.14.16-.18-.11c-.29-.17-.91-.62-1.62-1.14S80,37.14,79.58,36.89c-.66.29-1.32.61-2,1a27.46,27.46,0,0,0-14.24,20.5A27.08,27.08,0,0,0,64,68.72,27.79,27.79,0,0,0,66.45,75a28.31,28.31,0,0,0,1.7,2.73,27.13,27.13,0,0,0,8.6,7.88,27.63,27.63,0,0,0,7.39,3l.53.13-.43.32-.33.24-.06,0h-.08Q83.05,89.38,82.33,89.38ZM65,33l-.7.5a30.54,30.54,0,0,0-5.08,44.93A30.92,30.92,0,0,0,83.08,88.86a28.56,28.56,0,0,1-6.59-2.79,27.73,27.73,0,0,1-8.76-8A26.37,26.37,0,0,1,66,75.25a28.31,28.31,0,0,1-2.52-6.4,27.73,27.73,0,0,1-.61-10.58,27.88,27.88,0,0,1,14.5-20.88c.69-.37,1.41-.71,2.12-1l.11,0,.11,0A29.19,29.19,0,0,1,82.12,38c.54.39,1.06.77,1.39,1a1.72,1.72,0,0,0,.23-.55A11.39,11.39,0,0,1,85.64,35v0a104.89,104.89,0,0,0,7.25-9.55c-9.17-1.94-23.67,2.42-31.35,7.85.85-.11,1.7-.18,2.56-.22Z"/><path class="cls-8" d="M107,67.64h2.59l-.29,1.86h-4.83l1.32-8.34h4.83l-.3,1.93h-2.59l-.22,1.36h2.41l-.28,1.81h-2.42Z"/><path class="cls-8" d="M110.65,69.5l.91-5.75h2l-.14.9a3.34,3.34,0,0,1,.94-.83,2.16,2.16,0,0,1,1-.26,1.91,1.91,0,0,1,1.39.49,1.79,1.79,0,0,1,.5,1.34,7.78,7.78,0,0,1-.11,1,.31.31,0,0,1,0,.1l-.48,3h-2l.48-3c0-.09,0-.17,0-.25s0-.16,0-.22a.77.77,0,0,0-.2-.57.81.81,0,0,0-.59-.19,1,1,0,0,0-.83.38,2.67,2.67,0,0,0-.44,1.22l-.41,2.68Z"/><path class="cls-8" d="M124.51,68.14c0,.09,0,.22-.06.38a5.25,5.25,0,0,1-.74,2.38,2.9,2.9,0,0,1-1.2.84,4.38,4.38,0,0,1-1.66.3,3.59,3.59,0,0,1-2.1-.54,2.23,2.23,0,0,1-.91-1.58H120a.72.72,0,0,0,.28.53,1,1,0,0,0,.66.19,1.33,1.33,0,0,0,1-.37,1.87,1.87,0,0,0,.47-1.13l.08-.5a2.45,2.45,0,0,1-2,1,2.1,2.1,0,0,1-1.66-.73,2.77,2.77,0,0,1-.64-1.9,3.52,3.52,0,0,1,.86-2.43,2.81,2.81,0,0,1,2.16-1,2.37,2.37,0,0,1,1.07.25,2.73,2.73,0,0,1,.87.75l.13-.81h1.91Zm-4.26-1.31a1.22,1.22,0,0,0,.33.89,1.14,1.14,0,0,0,.86.34,1.29,1.29,0,0,0,1-.47,1.71,1.71,0,0,0,.42-1.18,1.16,1.16,0,0,0-1.22-1.21,1.3,1.3,0,0,0-1,.47A1.68,1.68,0,0,0,120.25,66.83Z"/><path class="cls-8" d="M125.83,69.5l.91-5.75h2l-.91,5.75ZM126.89,62A1.09,1.09,0,0,1,128,61a1.06,1.06,0,0,1,.79.31,1.1,1.1,0,0,1-.79,1.87,1.09,1.09,0,0,1-1.09-1.1Z"/><path class="cls-8" d="M129.39,69.5l.91-5.75h2l-.14.9a3.48,3.48,0,0,1,.94-.83,2.16,2.16,0,0,1,1-.26,1.91,1.91,0,0,1,1.39.49,1.79,1.79,0,0,1,.5,1.34,7.78,7.78,0,0,1-.11,1,.31.31,0,0,1,0,.1l-.48,3h-2l.48-3c0-.09,0-.17,0-.25a1.86,1.86,0,0,0,0-.22.77.77,0,0,0-.2-.57.81.81,0,0,0-.59-.19,1,1,0,0,0-.83.38,2.57,2.57,0,0,0-.43,1.22l-.42,2.68Z"/><path class="cls-8" d="M138.77,67.11v.13a1.13,1.13,0,0,0,.28.83,1.1,1.1,0,0,0,.82.28,1.71,1.71,0,0,0,.71-.15,3,3,0,0,0,.72-.51l1.1,1.11a3.4,3.4,0,0,1-1.13.7,4.35,4.35,0,0,1-1.44.23,3,3,0,0,1-2.2-.75,2.78,2.78,0,0,1-.78-2.1,3.21,3.21,0,0,1,.93-2.39,3.26,3.26,0,0,1,2.41-.93,2.92,2.92,0,0,1,2.15.82,2.89,2.89,0,0,1,.82,2.16,3.31,3.31,0,0,1,0,.43c0,.06,0,.11,0,.14Zm2.48-1.17a1.08,1.08,0,0,0-.32-.74,1.05,1.05,0,0,0-.76-.27,1.14,1.14,0,0,0-.75.26,1.57,1.57,0,0,0-.51.75Z"/><path class="cls-8" d="M145.77,67.11v.13a1.13,1.13,0,0,0,.29.83,1.08,1.08,0,0,0,.81.28,1.75,1.75,0,0,0,.72-.15,3.46,3.46,0,0,0,.72-.51l1.09,1.11a3.21,3.21,0,0,1-1.13.7,4.35,4.35,0,0,1-1.44.23,3.06,3.06,0,0,1-2.2-.75,2.78,2.78,0,0,1-.78-2.1,3.21,3.21,0,0,1,.93-2.39,3.26,3.26,0,0,1,2.41-.93,2.92,2.92,0,0,1,2.15.82,2.89,2.89,0,0,1,.82,2.16c0,.08,0,.22,0,.43a1.15,1.15,0,0,0,0,.14Zm2.48-1.17a1.08,1.08,0,0,0-.32-.74,1,1,0,0,0-.75-.27,1.15,1.15,0,0,0-.76.26,1.73,1.73,0,0,0-.51.75Z"/><path class="cls-8" d="M150.73,69.5l.92-5.75h2l-.14,1a1.84,1.84,0,0,1,.72-.83,1.92,1.92,0,0,1,1.05-.29h.14l.26,0-.41,1.8-.36-.07-.31,0a1.2,1.2,0,0,0-.93.37,2.16,2.16,0,0,0-.47,1.13l-.41,2.63Z"/><path class="cls-8" d="M155.69,69.5l.91-5.75h2.05l-.91,5.75ZM156.75,62A1.09,1.09,0,0,1,157.84,61a1.06,1.06,0,0,1,.79.31,1.1,1.1,0,0,1-.79,1.87,1.09,1.09,0,0,1-1.09-1.1Z"/><path class="cls-8" d="M159.25,69.5l.91-5.75h2l-.14.9a3.48,3.48,0,0,1,.94-.83,2.16,2.16,0,0,1,1-.26,1.91,1.91,0,0,1,1.39.49,1.79,1.79,0,0,1,.5,1.34,9.45,9.45,0,0,1-.1,1s0,.07,0,.1l-.48,3h-2l.48-3c0-.09,0-.17,0-.25a1.86,1.86,0,0,0,0-.22.77.77,0,0,0-.2-.57.81.81,0,0,0-.59-.19,1,1,0,0,0-.83.38,2.57,2.57,0,0,0-.43,1.22l-.42,2.68Z"/><path class="cls-8" d="M173.11,68.14c0,.09,0,.22-.06.38a5.25,5.25,0,0,1-.74,2.38,2.9,2.9,0,0,1-1.2.84,4.35,4.35,0,0,1-1.66.3,3.59,3.59,0,0,1-2.1-.54,2.23,2.23,0,0,1-.91-1.58h2.13a.75.75,0,0,0,.28.53,1,1,0,0,0,.66.19,1.35,1.35,0,0,0,1-.37,2,2,0,0,0,.47-1.13l.07-.5a2.45,2.45,0,0,1-2,1,2.1,2.1,0,0,1-1.66-.73,2.77,2.77,0,0,1-.64-1.9,3.52,3.52,0,0,1,.86-2.43,2.81,2.81,0,0,1,2.16-1,2.34,2.34,0,0,1,1.07.25,2.63,2.63,0,0,1,.87.75l.13-.81h1.91Zm-4.25-1.31a1.26,1.26,0,0,0,.32.89,1.15,1.15,0,0,0,.87.34,1.32,1.32,0,0,0,1-.47,1.75,1.75,0,0,0,.41-1.18,1.18,1.18,0,0,0-.33-.87,1.19,1.19,0,0,0-.89-.34,1.3,1.3,0,0,0-1,.47A1.67,1.67,0,0,0,168.86,66.83Z"/><rect class="cls-10" x="325.34" y="29.59" width="242.15" height="35.45" rx="3.99"/><rect class="cls-1" width="595.28" height="102.79"/></g></g></svg>