<svg xmlns="http://www.w3.org/2000/svg" xmlns:xlink="http://www.w3.org/1999/xlink" viewBox="0 0 595.28 147.11"><defs><linearGradient id="Dégradé_sans_nom_4" x1="447.73" y1="136.37" x2="201.54" y2="-65.85" gradientTransform="matrix(-1, 0, 0, 1, 668.59, 0)" gradientUnits="userSpaceOnUse"><stop offset="0" stop-color="#0094ff"/><stop offset="1" stop-color="#fff"/></linearGradient><linearGradient id="Dégradé_sans_nom_2" x1="454.92" y1="220.91" x2="284.02" y2="80.37" gradientTransform="matrix(-1, 0, 0, 1, 668.59, 0)" gradientUnits="userSpaceOnUse"><stop offset="0" stop-color="aqua"/><stop offset="1" stop-color="blue"/></linearGradient><linearGradient id="Dégradé_sans_nom_6" x1="448.67" y1="215.65" x2="202.48" y2="13.43" gradientTransform="matrix(-1, 0, 0, 1, 668.59, 0)" gradientUnits="userSpaceOnUse"><stop offset="0" stop-color="aqua"/><stop offset="1" stop-color="#fff"/></linearGradient><linearGradient id="Dégradé_sans_nom_2-2" x1="142.38" y1="113.25" x2="49.4" y2="36.79" gradientTransform="matrix(1, 0, 0, 1, 0, 0)" xlink:href="#Dégradé_sans_nom_2"/><linearGradient id="Dégradé_sans_nom_2-3" x1="129.61" y1="105.33" x2="85.76" y2="69.27" gradientTransform="matrix(1, 0, 0, 1, 0, 0)" xlink:href="#Dégradé_sans_nom_2"/></defs><title>Fichier 4</title><g id="Calque_2" data-name="Calque 2"><g id="Calque_1-2" data-name="Calque 1"><rect width="595.28" height="147.11" fill="#fff"/><line x1="548.87" y1="35.26" x2="139.04" y2="35.26" fill="none" stroke-miterlimit="10" stroke-width="3" stroke="url(#Dégradé_sans_nom_4)"/><line x1="547.93" y1="114.54" x2="138.1" y2="114.54" stroke-miterlimit="10" stroke-width="3" fill="url(#Dégradé_sans_nom_2)" stroke="url(#Dégradé_sans_nom_6)"/><path d="M95.89,135.24A60.22,60.22,0,1,1,156.11,75,60.29,60.29,0,0,1,95.89,135.24Zm0-117.31A57.09,57.09,0,1,0,153,75,57.15,57.15,0,0,0,95.89,17.93Z" fill="url(#Dégradé_sans_nom_2-2)"/><path d="M132.94,68.26V61.6H128.3v2.67l-9-7.73L109.5,65V59.76L84.2,38,58.89,59.76V93.65h77.27V71Zm-3-5.06h1.43v3.68l-1.43-1.23ZM89,91.24H79.38V69.55H89Zm18.07,0H91.43V67.14H77v24.1H61.3V60.86L84.2,41.19l22.89,19.67V91.24Zm13.56,0H118V83.43h2.69Zm13.1,0H123.06V81h-7.51V91.24h-6V68.14l9.8-8.42,14.45,12.41Z" fill="url(#Dégradé_sans_nom_2-3)"/><path d="M65.61,98.75a3.6,3.6,0,0,1,1.12,4.56,3.48,3.48,0,0,1-1.12,1.26,3.59,3.59,0,0,1-1.5.58,12.48,12.48,0,0,1-1.62.11H61.17v-1.08h1.24c.37,0,.73,0,1.07,0a2.72,2.72,0,0,0,1-.29,2.42,2.42,0,0,0,1-.88,2.34,2.34,0,0,0,.37-1.32,2.31,2.31,0,0,0-.37-1.33,2.49,2.49,0,0,0-1-.88,2.4,2.4,0,0,0-1-.29c-.34,0-.7,0-1.07,0H60.33v11H59.11V98h3.38a10.94,10.94,0,0,1,1.62.12A3.48,3.48,0,0,1,65.61,98.75Z" fill="#808285"/><path d="M74,110.13h-1.5L67.79,104l4.62-6h1.46L69.21,104Z" fill="#808285"/><path d="M85.16,98.07v12.05H84V99.69h-.21l-7.16,10.43H75.11l8.41-12.05Z" fill="#808285"/><path d="M94.14,102a3.5,3.5,0,0,1-1,2.56,3.64,3.64,0,0,1-1.14.77,4,4,0,0,1-1.42.34l3.4,4.49h-1.5l-4.08-5.45h1.29c.23,0,.46,0,.68-.06a4.54,4.54,0,0,0,.6-.12,2.91,2.91,0,0,0,1.45-1,2.5,2.5,0,0,0,.54-1.61,2.67,2.67,0,0,0-.35-1.33,2.41,2.41,0,0,0-1-1,3.09,3.09,0,0,0-1.13-.38,9.38,9.38,0,0,0-1.21-.07H86V98.09H89c.47,0,1,0,1.51.08a4.54,4.54,0,0,1,1.45.4,3.62,3.62,0,0,1,1.6,1.39A3.83,3.83,0,0,1,94.14,102Z" fill="#808285"/><path d="M95.36,98H102v1.09H96.58v4.34h3.14v1.1H96.58V109H102v1.08H95.36Z" fill="#808285"/><path d="M112.76,98.07v12.06h-1.22l-7.14-10.6h0v10.6h-1.22V98.07h1.63l6.74,10h0V99.18h-2.86V98.07h4.08Z" fill="#808285"/><path d="M119.5,110.13a6,6,0,0,1-2.33-.46,6.44,6.44,0,0,1-2-1.27,6,6,0,0,1-1.35-1.9,5.46,5.46,0,0,1-.51-2.33,6,6,0,0,1,1.8-4.33,6.34,6.34,0,0,1,2-1.3,6.26,6.26,0,0,1,6.73,1.28,6,6,0,0,1,1.34,1.91,5.84,5.84,0,0,1,0,4.73,6.22,6.22,0,0,1-3.3,3.21A6.15,6.15,0,0,1,119.5,110.13Zm0-11a4.73,4.73,0,0,0-2,.4A5.2,5.2,0,0,0,116,100.6a5.07,5.07,0,0,0-1.06,1.61,5.18,5.18,0,0,0-.38,2,4.53,4.53,0,0,0,.4,1.9,5.06,5.06,0,0,0,1.08,1.56,5.21,5.21,0,0,0,1.59,1.06,4.93,4.93,0,0,0,1.91.38,5,5,0,0,0,1.93-.38,5.24,5.24,0,0,0,1.59-1.07A5,5,0,0,0,124.1,106a4.71,4.71,0,0,0,.4-1.94,5,5,0,0,0-5-5Z" fill="#808285"/><path d="M130.42,98.07v1.09h-2.88v9.35h.2l3.58-5.29.78-1.08,2.81-4.07h1.46L128,110.13h-1.64V98.07h4.1Z" fill="#808285"/><text transform="translate(172.41 83.43)" font-size="48" fill="#58595b" font-family="CenturyGothic-BoldItalic, Century Gothic" font-weight="700" font-style="italic">PKARENOV<tspan font-size="12"><tspan x="0" y="18">38 Rue Anatole France|Batiment A|69800 SAINT-PRIEST, France</tspan></tspan></text></g></g></svg>