<svg id="Calque_1" data-name="Calque 1" xmlns="http://www.w3.org/2000/svg" viewBox="0 0 295.12 60.64"><title>StatesBars</title><path d="M278.24,26.88H232.7a12.88,12.88,0,0,0-25.39,0H164.19a16.74,16.74,0,0,0-33.2,0H87.87a13.12,13.12,0,0,1,.19,2.19A12.26,12.26,0,0,1,87.91,31h43a16.75,16.75,0,0,0,33.27,0h43a12.88,12.88,0,0,0,25.48,0h45.5a2.06,2.06,0,1,0,0-4.12ZM151.06,31.69V34H144v-.58c3.83-4.53,4.36-5.26,4.36-6.07a.81.81,0,0,0-.83-.87.84.84,0,0,0-.86.94v.18h-2.52v-.18a3.06,3.06,0,0,1,3.35-3.2c2,0,3.42,1.25,3.42,3,0,1.2-.45,2.12-2.48,4.48Zm68.83,2.48a3.3,3.3,0,0,1-3.51-3.31h2.44A1.07,1.07,0,0,0,219.9,32a1.16,1.16,0,1,0-.11-2.31h-1.53v-.53l1.56-2.55h-3.2V24.42h6.54v.44l-1.92,3.06h0a2.88,2.88,0,0,1,2.24,2.92A3.34,3.34,0,0,1,219.89,34.17Z" fill="#e6e6e6"/><path d="M14.87,27H62.46a.59.59,0,0,1,0-.13H14.87a2.06,2.06,0,0,0-2.06,2.06V29A2.06,2.06,0,0,1,14.87,27Z" fill="#e6e6e6"/><path d="M87.87,26.88a12.88,12.88,0,0,0-25.39,0,.59.59,0,0,0,0,.13H14.87a2.06,2.06,0,0,0-2.06,2v.06a2.06,2.06,0,0,0,2.06,2.06H62.46A12.88,12.88,0,0,0,87.91,31a12.26,12.26,0,0,0,.15-1.93A13.12,13.12,0,0,0,87.87,26.88ZM74.34,34.2V26.83H72.93V24.68h4V34.2Z" fill="#00b9ff"/><polygon points="76.91 24.68 72.93 24.68 72.93 26.83 74.34 26.83 74.34 34.2 76.91 34.2 76.91 24.68" fill="#fff"/><path d="M150.89,27.21c0-1.79-1.4-3-3.42-3a3.06,3.06,0,0,0-3.35,3.2v.18h2.52v-.18a.84.84,0,0,1,.86-.94.81.81,0,0,1,.83.87c0,.81-.53,1.54-4.36,6.07V34h7.09V31.69h-2.65C150.44,29.33,150.89,28.41,150.89,27.21Z" fill="#fff"/><path d="M221.24,27.92h0l1.92-3.06v-.44h-6.54v2.17h3.2l-1.56,2.55v.53h1.53A1.16,1.16,0,1,1,219.9,32a1.07,1.07,0,0,1-1.08-1.12h-2.44a3.3,3.3,0,0,0,3.51,3.31,3.34,3.34,0,0,0,3.59-3.33A2.88,2.88,0,0,0,221.24,27.92Z" fill="#fff"/></svg>