<svg id="Calque_1" data-name="Calque 1" xmlns="http://www.w3.org/2000/svg" xmlns:xlink="http://www.w3.org/1999/xlink" viewBox="0 0 295.12 60.64"><defs><linearGradient id="Dégradé_sans_nom_28" x1="78.27" y1="31.32" x2="142.95" y2="31.32" gradientUnits="userSpaceOnUse"><stop offset="0" stop-color="#00b9ff"/><stop offset="0.53" stop-color="#00b9ff"/><stop offset="0.64" stop-color="#03b6fe"/><stop offset="0.72" stop-color="#0daefd"/><stop offset="0.8" stop-color="#1d9ffa"/><stop offset="0.87" stop-color="#348bf6"/><stop offset="0.94" stop-color="#5170f1"/><stop offset="1" stop-color="#7451eb"/></linearGradient><linearGradient id="Dégradé_sans_nom_28-2" x1="78.27" y1="29.26" x2="142.95" y2="29.26" xlink:href="#Dégradé_sans_nom_28"/><linearGradient id="Dégradé_sans_nom_2" x1="130.84" y1="29.32" x2="164.34" y2="29.32" gradientUnits="userSpaceOnUse"><stop offset="0" stop-color="#1d9ffa"/><stop offset="0.08" stop-color="#2697f8"/><stop offset="0.49" stop-color="#5071f1"/><stop offset="0.81" stop-color="#6a5aed"/><stop offset="1" stop-color="#7451eb"/></linearGradient></defs><title>StatesBars</title><path d="M14.87,27.26H62.46a.51.51,0,0,1,0-.13H14.87a2.06,2.06,0,0,0-2.06,2.06v.07A2.06,2.06,0,0,1,14.87,27.26Z" fill="#e6e6e6"/><path d="M278.24,27.13H232.7a12.88,12.88,0,0,0-25.39,0H164.19a15.9,15.9,0,0,1,.15,2.19,15.39,15.39,0,0,1-.12,1.93h43a12.89,12.89,0,0,0,25.48,0h45.5a2.06,2.06,0,1,0,0-4.12Zm-58.35,7.29a3.3,3.3,0,0,1-3.51-3.31h2.44a1.07,1.07,0,0,0,1.08,1.12,1.16,1.16,0,1,0-.11-2.31h-1.53v-.53l1.56-2.55h-3.2V24.67h6.54v.43l-1.92,3.07h0a2.87,2.87,0,0,1,2.24,2.92A3.34,3.34,0,0,1,219.89,34.42Z" fill="#e6e6e6"/><path d="M131,27.26a.59.59,0,0,1,0-.13H87.87a.51.51,0,0,1,0,.13Z" fill="#e6e6e6"/><path d="M87.91,31.25a.51.51,0,0,1,0,.13H131s0-.08,0-.13Z" fill="url(#Dégradé_sans_nom_28)"/><path d="M131,27.26H87.89a12.73,12.73,0,0,1,.17,2.06,12.26,12.26,0,0,1-.15,1.93h43a16.67,16.67,0,0,1,0-4Z" fill="#e6e6e6"/><path d="M131,27.26H87.89a12.73,12.73,0,0,1,.17,2.06,12.26,12.26,0,0,1-.15,1.93h43a16.67,16.67,0,0,1,0-4Z" fill="url(#Dégradé_sans_nom_28-2)"/><path d="M88.06,29.32a12.73,12.73,0,0,0-.17-2.06.51.51,0,0,0,0-.13,12.88,12.88,0,0,0-25.39,0,.51.51,0,0,0,0,.13H14.87a2.06,2.06,0,0,0-2.06,2v.06a2.06,2.06,0,0,0,2.06,2.06H62.46a12.88,12.88,0,0,0,25.43,0,.51.51,0,0,0,0-.13A12.26,12.26,0,0,0,88.06,29.32ZM74.34,34.45V27.08H72.93V24.92h4v9.53Z" fill="#00b9ff"/><path d="M140.89,27.26a2.06,2.06,0,0,1,.71,4H146c2-2.46,2.37-3.06,2.37-3.71a.91.91,0,0,0-.09-.41h-1.49a1.07,1.07,0,0,0-.11.49v.18h-2.52v-.18a3.89,3.89,0,0,1,0-.49H131a.59.59,0,0,0,0,.13Z" fill="#e6e6e6"/><path d="M164.19,27.13H150.87c0,.11,0,.21,0,.33,0,1.07-.36,1.93-1.91,3.79h15.24a15.39,15.39,0,0,0,.12-1.93A15.9,15.9,0,0,0,164.19,27.13Z" fill="#e6e6e6"/><path d="M141.6,31.25H131c0,.05,0,.09,0,.13h9.92A2.08,2.08,0,0,0,141.6,31.25Z" fill="url(#Dégradé_sans_nom_28)"/><path d="M143,29.32a2.06,2.06,0,0,0-2.06-2.06H131a16.67,16.67,0,0,0,0,4H141.6A2.05,2.05,0,0,0,143,29.32Z" fill="#e6e6e6"/><path d="M143,29.32a2.06,2.06,0,0,0-2.06-2.06H131a16.67,16.67,0,0,0,0,4H141.6A2.05,2.05,0,0,0,143,29.32Z" fill="url(#Dégradé_sans_nom_28-2)"/><path d="M164.19,27.13a16.74,16.74,0,0,0-33.2,0,.59.59,0,0,0,0,.13,16.67,16.67,0,0,0,0,4c0,.05,0,.09,0,.13a16.74,16.74,0,0,0,33.25-.13,15.39,15.39,0,0,0,.12-1.93A15.9,15.9,0,0,0,164.19,27.13Zm-13.13,4.81V34.2H144v-.58l2-2.37c2-2.46,2.37-3.06,2.37-3.71a.91.91,0,0,0-.09-.41.84.84,0,0,0-1.49,0,1.07,1.07,0,0,0-.11.49v.18h-2.52v-.18a3.89,3.89,0,0,1,0-.49,3,3,0,0,1,3.31-2.71,3.12,3.12,0,0,1,3.4,2.71c0,.11,0,.21,0,.33,0,1.07-.36,1.93-1.91,3.79-.17.22-.36.44-.57.69Z" fill="url(#Dégradé_sans_nom_2)"/><polygon points="76.91 24.92 72.93 24.92 72.93 27.08 74.34 27.08 74.34 34.45 76.91 34.45 76.91 24.92" fill="#fff"/><path d="M147.47,24.42a3,3,0,0,0-3.31,2.71,3.89,3.89,0,0,0,0,.49v.18h2.52v-.18a1.07,1.07,0,0,1,.11-.49.84.84,0,0,1,1.49,0,.91.91,0,0,1,.09.41c0,.65-.33,1.25-2.37,3.71l-2,2.37v.58h7.09V31.94h-2.65c.21-.25.4-.47.57-.69,1.55-1.86,1.91-2.72,1.91-3.79,0-.12,0-.22,0-.33A3.12,3.12,0,0,0,147.47,24.42Z" fill="#fff"/><path d="M221.24,28.17h0l1.92-3.07v-.43h-6.54v2.17h3.2l-1.56,2.55v.53h1.53a1.16,1.16,0,1,1,.11,2.31,1.07,1.07,0,0,1-1.08-1.12h-2.44a3.3,3.3,0,0,0,3.51,3.31,3.34,3.34,0,0,0,3.59-3.33A2.87,2.87,0,0,0,221.24,28.17Z" fill="#fff"/></svg>