<svg id="Calque_1" data-name="Calque 1" xmlns="http://www.w3.org/2000/svg" xmlns:xlink="http://www.w3.org/1999/xlink" viewBox="0 0 295.12 60.64"><defs><linearGradient id="Dégradé_sans_nom_2" x1="130.84" y1="29.57" x2="164.34" y2="29.57" gradientUnits="userSpaceOnUse"><stop offset="0" stop-color="#1d9ffa"/><stop offset="0.08" stop-color="#2697f8"/><stop offset="0.49" stop-color="#5071f1"/><stop offset="0.81" stop-color="#6a5aed"/><stop offset="1" stop-color="#7451eb"/></linearGradient><linearGradient id="Dégradé_sans_nom_28" x1="78.27" y1="31.57" x2="142.95" y2="31.57" gradientUnits="userSpaceOnUse"><stop offset="0" stop-color="#00b9ff"/><stop offset="0.53" stop-color="#00b9ff"/><stop offset="0.64" stop-color="#03b6fe"/><stop offset="0.72" stop-color="#0daefd"/><stop offset="0.8" stop-color="#1d9ffa"/><stop offset="0.87" stop-color="#348bf6"/><stop offset="0.94" stop-color="#5170f1"/><stop offset="1" stop-color="#7451eb"/></linearGradient><linearGradient id="Dégradé_sans_nom_28-2" x1="78.27" y1="29.5" x2="142.95" y2="29.5" xlink:href="#Dégradé_sans_nom_28"/><linearGradient id="Dégradé_sans_nom_30" x1="150.17" y1="31.57" x2="214.85" y2="31.57" gradientUnits="userSpaceOnUse"><stop offset="0" stop-color="#00b9ff"/><stop offset="0.03" stop-color="#18a3fb"/><stop offset="0.07" stop-color="#358af6"/><stop offset="0.12" stop-color="#4c75f2"/><stop offset="0.17" stop-color="#5e65ef"/><stop offset="0.24" stop-color="#6b59ed"/><stop offset="0.33" stop-color="#7253eb"/><stop offset="0.53" stop-color="#7451eb"/><stop offset="0.95" stop-color="#7451eb"/><stop offset="1" stop-color="#7451eb"/></linearGradient><linearGradient id="Dégradé_sans_nom_30-2" x1="150.17" y1="29.5" x2="214.85" y2="29.5" xlink:href="#Dégradé_sans_nom_30"/></defs><title>StatesBars</title><path d="M164.19,27.38a16.74,16.74,0,0,0-33.2,0,.51.51,0,0,0,0,.13,16.67,16.67,0,0,0,0,4s0,.09,0,.13a16.74,16.74,0,0,0,33.25-.13,15.39,15.39,0,0,0,.12-1.93A15.9,15.9,0,0,0,164.19,27.38Zm-13.13,4.81v2.26H144v-.58l2-2.37c2-2.46,2.37-3.06,2.37-3.71a.91.91,0,0,0-.09-.41.84.84,0,0,0-1.49,0,1.07,1.07,0,0,0-.11.49v.18h-2.52v-.18a3.89,3.89,0,0,1,0-.49,3,3,0,0,1,3.31-2.71,3.12,3.12,0,0,1,3.4,2.71c0,.11,0,.21,0,.32,0,1.08-.36,1.93-1.91,3.8-.17.22-.36.44-.57.69Z" fill="url(#Dégradé_sans_nom_2)"/><path d="M14.87,27.51H62.46a.51.51,0,0,1,0-.13H14.87a2.06,2.06,0,0,0-2.06,2.06v.06A2.06,2.06,0,0,1,14.87,27.51Z" fill="#e6e6e6"/><path d="M278.24,27.51a2.06,2.06,0,0,1,2.06,2s0,0,0-.06a2.07,2.07,0,0,0-2.07-2.06H232.7a.51.51,0,0,1,0,.13Z" fill="#e6e6e6"/><path d="M131,27.51a.51.51,0,0,1,0-.13H87.87a.51.51,0,0,1,0,.13Z" fill="#e6e6e6"/><path d="M207.28,27.51l0-.13H164.19s0,.08,0,.13Z" fill="#e6e6e6"/><path d="M87.91,31.5a.51.51,0,0,1,0,.13H131s0-.09,0-.13Z" fill="url(#Dégradé_sans_nom_28)"/><path d="M131,27.51H87.89a12.73,12.73,0,0,1,.17,2.06,12.26,12.26,0,0,1-.15,1.93h43a16.67,16.67,0,0,1,0-4Z" fill="#e6e6e6"/><path d="M131,27.51H87.89a12.73,12.73,0,0,1,.17,2.06,12.26,12.26,0,0,1-.15,1.93h43a16.67,16.67,0,0,1,0-4Z" fill="url(#Dégradé_sans_nom_28-2)"/><path d="M164.22,31.5s0,.09,0,.13h43.07a.69.69,0,0,0,0-.13Z" fill="url(#Dégradé_sans_nom_30)"/><path d="M164.34,29.57a15.39,15.39,0,0,1-.12,1.93h43a13.59,13.59,0,0,1-.14-1.93,14,14,0,0,1,.16-2.06H164.21A17.39,17.39,0,0,1,164.34,29.57Z" fill="#e6e6e6"/><path d="M164.34,29.57a15.39,15.39,0,0,1-.12,1.93h43a13.59,13.59,0,0,1-.14-1.93,14,14,0,0,1,.16-2.06H164.21A17.39,17.39,0,0,1,164.34,29.57Z" fill="url(#Dégradé_sans_nom_30-2)"/><path d="M278.24,27.51H232.72a.51.51,0,0,0,0-.13,12.88,12.88,0,0,0-25.39,0l0,.13a14,14,0,0,0-.16,2.06,13.59,13.59,0,0,0,.14,1.93.69.69,0,0,1,0,.13,12.89,12.89,0,0,0,25.44,0h45.52a2.07,2.07,0,0,0,2.07-2.06s0,0,0-.07A2.06,2.06,0,0,0,278.24,27.51Zm-58.35,7.16a3.3,3.3,0,0,1-3.51-3.31h2.44a1.06,1.06,0,0,0,1.08,1.11,1.15,1.15,0,1,0-.11-2.3h-1.53v-.53l1.56-2.55h-3.2V24.92h6.54v.43l-1.92,3.07h0a2.87,2.87,0,0,1,2.24,2.92A3.34,3.34,0,0,1,219.89,34.67Z" fill="#7451eb"/><path d="M88.06,29.57a12.73,12.73,0,0,0-.17-2.06.51.51,0,0,0,0-.13,12.88,12.88,0,0,0-25.39,0,.51.51,0,0,0,0,.13H14.87a2.06,2.06,0,0,0-2.06,2v.07a2.06,2.06,0,0,0,2.06,2.06H62.46a12.88,12.88,0,0,0,25.43,0,.51.51,0,0,0,0-.13A12.26,12.26,0,0,0,88.06,29.57ZM74.34,34.7V27.33H72.93V25.17h4V34.7Z" fill="#00b9ff"/><polygon points="76.91 25.17 72.93 25.17 72.93 27.33 74.34 27.33 74.34 34.7 76.91 34.7 76.91 25.17" fill="#fff"/><path d="M223.48,31.34a2.87,2.87,0,0,0-2.24-2.92h0l1.92-3.07v-.43h-6.54v2.17h3.2l-1.56,2.55v.53h1.53a1.15,1.15,0,1,1,.11,2.3,1.06,1.06,0,0,1-1.08-1.11h-2.44a3.3,3.3,0,0,0,3.51,3.31A3.34,3.34,0,0,0,223.48,31.34Z" fill="#fff"/></svg>